<svg id="Слой_1" data-name="Слой 1" xmlns="http://www.w3.org/2000/svg" viewBox="0 0 347 285"><defs><style>.cls-1{fill:#fff;}</style></defs><title>cloud</title><path class="cls-1" d="M97.64,38.42a84.91,84.91,0,0,0-16.7-1.64C36.24,36.78,0,71.13,0,113.52s36.24,76.73,80.94,76.73a83.57,83.57,0,0,0,46-13.6,69.57,69.57,0,0,0,80.63,1.43,58,58,0,0,0,26.49,6.4c17.53,0,33.35-7.85,44.57-20.45a42.14,42.14,0,0,0,24.11,7.6c24.44,0,44.26-21.09,44.26-47.1,0-24.06-17-43.9-38.85-46.74C300.42,50.68,276.93,31,249.16,31A57.79,57.79,0,0,0,235.1,32.7C220.53,13,196,0,168.28,0,137.92,0,111.47,15.49,97.64,38.42Z"/><circle class="cls-1" cx="230.03" cy="277.97" r="7.03"/><path class="cls-1" d="M265,243.16a14.08,14.08,0,1,1-14.07,14.08h0A14.07,14.07,0,0,1,265,243.16Z"/><path class="cls-1" d="M292.17,180.72a23.94,23.94,0,1,1-23.95,23.94A23.95,23.95,0,0,1,292.17,180.72Z"/></svg>