<svg id="Слой_1" data-name="Слой 1" xmlns="http://www.w3.org/2000/svg" viewBox="0 0 343.13 213.02"><defs><style>.cls-1{fill:none;stroke:#fff;stroke-linecap:round;stroke-linejoin:round;stroke-width:5px;stroke-dasharray:12;}.cls-2{fill:#fff;}</style></defs><title>form-right</title><path class="cls-1" d="M304.5,52.5c4.44,3,9.86,6.67,16,11s10,7.15,10,11a7.13,7.13,0,0,1-2,5c-2,2-4.92,2-6,2-11,.06-64-12.11-79-15-7.59-1.46-13.39-2-25-3-29.25-2.59-51.24-1.33-73,0-24,1.47-37.38,2.29-56,6-12.66,2.52-17.87,4.41-34,7C33.86,80,23,81.71,20.5,81.5c-1.75-.15-13-1.15-14,2-.17.51,0,.81,0,2a12,12,0,0,1-2,6c-5.62,9.48-2,57-2,57s2.19,28.69,10,43a18.73,18.73,0,0,0,5,6c4.37,3.37,9.28,3.8,12,4,18,1.34,27.07,2,28,2,26.2-.08,21.71.18,27,0,17-.57,23.58-1.85,38-3,7.46-.59,23-.73,54-1,34.27-.3,39,0,46,1,14.68,2.18,22,3.27,31,6a132.29,132.29,0,0,0,22,5s4.5.6,14,0c6.09-.39,8.6-1.06,10-3,.84-1.16.93-2.28,1-6,.12-6.21,0-10.8,0-13a47.9,47.9,0,0,1,1-12c1.34-5.39,3.76-8.14,7-13,2-3,5-9,11-21,5.42-10.85,8.14-16.28,10-22,3-9.29,5-15.57,3-23a28.9,28.9,0,0,0-9-14" transform="translate(1.15 -1.25)"/><path class="cls-2" d="M171.5,21.5c1.14-3.45,4.89-5.22,11-8a71.82,71.82,0,0,1,15-5c33.22-6.45,30.26-6.45,36-7,7.57-.73,21.82.17,50,2,0,0,11.36.74,41,7,5,1.06,12.82,2.82,16,9,2.25,4.37,1.37,9.35,1,11a19.89,19.89,0,0,1-6,10c-4.35,4.25-9.79,6.63-22,9a154.67,154.67,0,0,1-24,3c-23.82,0-35.85-1.76-71-5-20.51-1.89-29-5-40-11C176.87,35.61,169.45,27.69,171.5,21.5Z" transform="translate(1.15 -1.25)"/></svg>