<svg id="Слой_1" data-name="Слой 1" xmlns="http://www.w3.org/2000/svg" viewBox="0 0 401.97 218.03"><defs><style>.cls-1,.cls-2{fill:none;stroke:#fff;stroke-linecap:round;stroke-linejoin:round;stroke-width:5px;}.cls-2{stroke-dasharray:12.08 12.08;}.cls-3{fill:#fff;}</style></defs><title>form-left</title><path class="cls-1" d="M159.5,66.5c-1.18.82-2.87,2-5,3.39" transform="translate(-1.4 0.55)"/><path class="cls-2" d="M144.45,76.51c-4.62,2.94-9.79,6.1-15,9a31.45,31.45,0,0,1-4.34,2.2c-.06,0-.53.21-1,.39a30.29,30.29,0,0,1-6.61,1.41c-4.27.36-10.47-1.7-12-2-6.23-1.21-10.87-.41-19,1-16.54,2.87-20.86,8.73-37,17a3.75,3.75,0,0,0-2,2c-.76,2.37,2.3,5.27,3,6,9.76,10.22,1.55,61.66,1,65a23.43,23.43,0,0,0,0,8,18.85,18.85,0,0,0,2,6,19.07,19.07,0,0,0,7,7c12.33,7.69,30,11,30,11,11.55,2.17,17.33,3.25,28,4,7.75.55,19.77,1.05,51-1,24.14-1.59,23.72-2.34,50-4,14.83-.94,16-.77,35-2,14-.91,19.52-1.4,32-2,23.38-1.12,28.92-.58,33,0,2.86.4,11.06,1.68,19,3,8.17,1.35,10.11,1.76,14,2,8.4.52,13.57.85,19-2,5-2.62,7.71-6.63,10-10a42.64,42.64,0,0,0,6-14c.59-2.23,1.31-5.52,2-20,.65-13.71.17-14.26,1-20a113.37,113.37,0,0,1,4-17c2.32-7.89,7.85-12,6-17a8.5,8.5,0,0,0-2-3c-7.37-7.78-19.86-10.74-21-11-21.29-4.83-28-5-28-5-45.54-1.14-68.31-1.71-81-1-60.21,3.37-76.86,7.56-115,4-4.39-.41-8.45-.87-12.07-1.32" transform="translate(-1.4 0.55)"/><path class="cls-1" d="M135.43,92.38c-2.23-.31-4.22-.61-5.93-.88" transform="translate(-1.4 0.55)"/><path class="cls-3" d="M1.5,31.5C7,13,75.78.08,93.5-.5c9.52-.31,4,.81,54,4,0,0,16.19,1,50,9,7.23,1.7,15.34,3.8,20,11a23,23,0,0,1,2,20c-3.56,9.48-13,13.41-22,17a85.38,85.38,0,0,1-32,6c-37.66-.38-56.49-.57-79-3-62.87-6.79-61.7-14.13-76-16a9.87,9.87,0,0,1-5-2C1.46,42.26,1.17,36,1.5,31.5Z" transform="translate(-1.4 0.55)"/></svg>