<svg id="Слой_1" data-name="Слой 1" xmlns="http://www.w3.org/2000/svg" viewBox="0 0 397.91 257.17"><defs><style>.cls-1{fill:none;stroke:#fff;stroke-linecap:round;stroke-linejoin:round;stroke-width:5px;stroke-dasharray:12;}.cls-2{fill:#fff;}</style></defs><title>forms-left</title><path class="cls-1" d="M144.5,94.5c-6,4.8-11.22,8.47-15,11-9.11,6.11-13.79,9.19-20,11-5,1.45-9,1.63-17,2-9.61.44-11-.52-19,0a81.54,81.54,0,0,0-18,3c-1.09.32-12.89,3.83-22,12-1.94,1.73-3.55,3.5-4,6-.52,2.88.9,4.64,2,9,.79,3.11.76,4.94,1,9,1.3,21.68,8.12,69.86,1,87a23.51,23.51,0,0,0,1,21c1.28,2.27,3.55,5.39,9,9a53.52,53.52,0,0,0,21,8c24.8,3.92,37.2,5.87,48,6,8.95.1,14.78-.17,52-3,39.65-3,39.74-3.22,53-4,9-.53,23.66-1,53-2,23-.77,28-.82,36,0,6.09.63,8,1.15,30,4,15.43,2,22.35,2.76,30-1a30.65,30.65,0,0,0,11-9c3.12-4.14,4.27-8,6-14a87.08,87.08,0,0,0,3-16c1.08-11.19-.53-12.62,0-24,.38-8.08,1.51-14.08,3-22,2.51-13.34,3.61-12.7,5-22,1.48-9.93,2.72-18.91-1-29a33.93,33.93,0,0,0-7-12c-5.17-5.57-11.88-8.53-24-11-13.39-2.73-23.21-2.78-36-3-31.86-.54-25.72-1.15-39-1-16.05.18-16.86,1-53,3-10.83.61-2.95.1-42,2-9.62.47-20.94,1-36,1-10.18,0-19.94-.3-32-3-4.61-1-8.38-2.15-11-3" transform="translate(-0.54 -33.84)"/><path class="cls-2" d="M3,59c1.68-2.72,3.91-4.36,11-8s10.55-5.42,15-7c11.27-4,24.48-6.34,41-8,14.73-1.48,25.68-2.58,41-2,10.87.41,5.42,1,41,5a220.63,220.63,0,0,1,33,7c6.72,2,13.2,4.19,16,10,1.83,3.81,1.38,7.71,1,11-.23,2-1.26,9.93-7,16s-13.68,7.38-18,8c-38.92,5.55-55,5-55,5-4.67-.16-23.18-2.11-60-6,0,0-4.94-.52-44-10C11.74,78.48,3.07,76.26,1,70-.64,65,2.57,59.7,3,59Z" transform="translate(-0.54 -33.84)"/></svg>