<svg id="Слой_1" data-name="Слой 1" xmlns="http://www.w3.org/2000/svg" viewBox="0 0 400.5 251.16"><defs><style>.cls-1{fill:#fff;}.cls-2{fill:none;stroke:#fff;stroke-linecap:round;stroke-linejoin:round;stroke-width:5px;stroke-dasharray:12;}</style></defs><title>forms-right</title><path class="cls-1" d="M201,83c.16-1,.81-3.72,7-8a46.5,46.5,0,0,1,12-6c22.7-6.74,19.64-7.41,32-10a196,196,0,0,1,40-4c4.22,0,15.48,1,38,3,6.61.59,15,1.36,26,3a180.52,180.52,0,0,1,23,5c13,3.72,16,6.19,18,9a19.39,19.39,0,0,1,3,13c-.82,7-5.22,11.32-8,14-5.74,5.52-12.15,7.64-17,9a136.52,136.52,0,0,1-36,5c-27.53-.37-41.29-.55-56-2-46.41-4.57-41-7-61-11-.71-.14-17-.61-19-7-.17-.54-2.09-.65-3-6C199,84.25,200.86,84,201,83Z" transform="translate(0.37 -55)"/><path class="cls-2" d="M358.5,116.5c6.44,4.43,11.6,7.81,15,10,5.4,3.48,10.11,6.38,13,12,1.37,2.65,1.6,4.49,1,6-1,2.52-4.06,3.45-6,4a25.33,25.33,0,0,1-13,0c-7.24-1.77-14.85-1.9-22-4-18.13-5.32-66.85-13.29-102-16-30.3-2.34-53.77-1-72,0-29.2,1.64-52.91,5-67,7-11.6,1.66-22.07,3.44-43,7-45,7.66-42.21,8.22-44,8-1.41-.18-6.56-1-10,2a10.6,10.6,0,0,0-3,5,19.83,19.83,0,0,0,0,11c1.61,7-.53,11.28-2,21-3.74,24.74,1.31,55,2,59,0,0,1.76,10.22,9,27,1.47,3.41,3.49,7.75,8,11,3.73,2.69,7.5,3.43,11,4,16.37,2.64,25,2,25,2,15.63-1.16,31.36,0,47-1,38.46-2.56,57.69-3.84,62-4,20.19-.77,41.76-1.59,70,1,20,1.83,40.06,5.07,52,7,18,2.91,27,4.36,29,5a71.88,71.88,0,0,0,16,3c8.28.62,11.16-.61,13-2,3.47-2.61,4.46-6.66,5-9,1.77-7.68-1.68-11.28-2-19-.22-5.19,1.52-9.53,5-18,4.14-10.07,7-13.64,14-26,5.8-10.31,10.21-18.14,14-28,7-18.12,7.29-23.46,7-26-1.06-9.34-6.38-16.19-10-20" transform="translate(0.37 -55)"/></svg>