<svg id="Слой_1" data-name="Слой 1" xmlns="http://www.w3.org/2000/svg" viewBox="0 0 395.05 436.84"><defs><style>.cls-1{fill:#82bc68;}.cls-2{fill:#1d8064;}.cls-3{fill:#80b57d;}.cls-4{fill:#0e5944;}.cls-5{fill:#fff;}</style></defs><title>groupleaf2</title><path class="cls-1" d="M93.11,143.92A80.39,80.39,0,0,1,79.48,172.2c.42-4.31-5.07-8.52-6.67-13a61.45,61.45,0,0,1-1.11,21.92,104.57,104.57,0,0,1-23.84,17.72c1.16-6.54-3.17-12.32-3.79-16.91a70.68,70.68,0,0,1-4.8,21.24A146.47,146.47,0,0,1,0,214.8a168,168,0,0,1,4.11-37c4.18-2.2,13.46-7,20-9.69a116.54,116.54,0,0,0-16.84-1.47,92.29,92.29,0,0,1,17.68-31.6,36.45,36.45,0,0,1,19,2.61s-6.62-5-13-8.85c27.78-25.62,64.14-22.3,64.14-22.3C96.83,120.78,95.89,133.14,93.11,143.92Z" transform="translate(0 -0.01)"/><path class="cls-2" d="M95.2,106.57c-14.88,8.6-46,39.84-92.7,103.45C2.5,210,55.28,147.56,95.2,106.57Z" transform="translate(0 -0.01)"/><path class="cls-1" d="M349.4,397.45A24.42,24.42,0,0,1,362,398.68c-1.53.66-1.61,4.33-2.71,6.06a16.41,16.41,0,0,1,7.53-3.89,54.67,54.67,0,0,1,11.53,8.61c-2.44.74-3.33,4.13-4.7,5.39a18.61,18.61,0,0,1,8.18-1.86,107,107,0,0,1,13.2,17.76,43.83,43.83,0,0,1-13.22,5.38c-1.73-1.69-5.51-5.48-8-8.29,0,0,1.71,5.09,3.52,8.93a29.83,29.83,0,0,1-14.68-2.63,30.37,30.37,0,0,1-3.65-10.3s-.07,4.41.16,8.46c-15.11-9-22.66-28.34-22.66-28.34A26.92,26.92,0,0,1,349.4,397.45Z" transform="translate(0 -0.01)"/><path class="cls-2" d="M336.51,404c6.39,5.88,24.15,15.45,56.36,26.46C392.87,430.43,359.6,416.09,336.51,404Z" transform="translate(0 -0.01)"/><path class="cls-1" d="M251.25,244.57a43,43,0,0,1,12.12,14.55c-2.29-1.16-6.12,1.45-9,1.53a31.58,31.58,0,0,1,11.94,5.27,68.24,68.24,0,0,1,3.45,18.81c-3.34-2.1-7.73-.55-10.47-1.12a36.17,36.17,0,0,1,10.57,7.48,110.49,110.49,0,0,1-4.1,27.36,85.75,85.75,0,0,1-19.49-10.33c-.1-3.11-.26-10,0-14.73a93.86,93.86,0,0,0-5.37,10.39A50.43,50.43,0,0,1,228,286a29.26,29.26,0,0,1,6.59-11.55s-4.57,3.17-8.45,6.41c-6.81-23,4.86-45.39,4.86-45.39A52,52,0,0,1,251.25,244.57Z" transform="translate(0 -0.01)"/><path class="cls-2" d="M231,235.43c.79,11.24,9.84,37.5,32.76,80.44C263.73,315.84,243.11,269.33,231,235.43Z" transform="translate(0 -0.01)"/><path class="cls-1" d="M277.72,133.28A31.1,31.1,0,0,1,285,121.67c-.28,1.84,2.38,3.87,3.1,5.85a22.82,22.82,0,0,1,.91-9.39,49.31,49.31,0,0,1,12.14-6.62c-.68,2.77,1.37,5.43,1.61,7.44a26.14,26.14,0,0,1,2.74-8.94,79.84,79.84,0,0,1,19.65-3.39,62,62,0,0,1-2.67,15.71c-2.11.78-6.81,2.44-10.11,3.34a67.83,67.83,0,0,0,8.35,1.33,36.44,36.44,0,0,1-9.28,12.84,21.14,21.14,0,0,1-9.42-1.91s3.21,2.42,6.31,4.35c-14.23,9.88-32.25,6.95-32.25,6.95A37.59,37.59,0,0,1,277.72,133.28Z" transform="translate(0 -0.01)"/><path class="cls-2" d="M276.05,149.26c7.54-3.09,23.5-15.25,47.78-40.7C323.83,108.57,296.57,133.27,276.05,149.26Z" transform="translate(0 -0.01)"/><path class="cls-3" d="M202.52,22c-2.83-3.26-16.83,14.24-18.62,13s15-15.76,14.32-19.37-7.94-7.46-10.32-7S179.22,24.84,176.75,23s6.9-9.35,7.26-13.61-6.55-5.64-8.54-5.06-5.34,9.72-8.08,9.43,5.28-8,2.29-11.17a6,6,0,0,0-2.32-1.52l-.45-.15h0A9.19,9.19,0,0,0,162,1s-3,9.63-4.82,5.7S158,1.17,153.1.24a13,13,0,0,0-8.27,1.17h0l-.14.1-.14.08h0l-.37.28a13.12,13.12,0,0,0-4.3,6.64C138.55,13.37,141.2,11.7,144,15s-7.25,1.82-7.25,1.82a9.28,9.28,0,0,0-2.25,4.36,4.41,4.41,0,0,0-.06.47,6,6,0,0,0,.36,2.77c1.54,4.07,12,.22,11.06,2.82s-10.63,1.61-12,3.15a9.09,9.09,0,0,0-1.56,4.46v.46c-.13,2.1.42,4.19,2.42,5,4,1.54,14.87-3.6,15.42-.6s-16.32,1.83-17.8,3.76c-.78,1-1.06,3.76-.74,6.45a1.22,1.22,0,0,0,.06.46c.33,2.29,1.12,4.45,2.44,5.42C137,58,157.38,49.26,157.72,51.4s-21.53,7.1-19.83,11.07A46.06,46.06,0,0,0,140.5,68h0l.25.41c3.61,6,10.38,11.18,21.2-7.61,4.82-5.7,7.33.45-4.43,13.85a33.34,33.34,0,0,0,6.1,3.61h0l.45.19c3.37,1.37,7,1.77,8.32-2,2.58-7.67,4.6-15,5.65-12.6s-5,12.31.13,10.26l.12-.05a6.43,6.43,0,0,0,1.45-.87c2.49-1.94,3.79-5.57,4.44-8.1l.1-.44.82.17c3,.57,7.45.89,10.17-1.39l.09-.07a3.23,3.23,0,0,0,.87-1c1.1-2.54-8.45-1.87-9.95-3.63-1.67-2,5.77-.6,13.8.43,3.77.48,5.08-2.62,5.41-6,0-.32.05-.65.06-1a33.2,33.2,0,0,0-.57-7.14c-17.2,4.72-21.63-.22-14.4-2.07,19.55-1.38,20-8.36,17.13-14l-.22-.41h0A35.9,35.9,0,0,0,202.52,22ZM171.95,64.62c-1.88.72-1.23-1.43-.63-2.84a1.64,1.64,0,0,1,2.14-.9h0l.16.08a1.23,1.23,0,0,1,.6.74,2.54,2.54,0,0,1-1.41,2.49h0A4.79,4.79,0,0,1,171.95,64.62Zm1.38-49.9a.74.74,0,0,1,.58.39,2.81,2.81,0,0,1,.34,1.17c.29,2.73-1.28,8-3.73,6.26a2.49,2.49,0,0,1-.33-.27,2.41,2.41,0,0,1-.55-.84,2.57,2.57,0,0,1,0-1.77c.65-1.89,2-5,3.71-4.94Zm-13.49-3.15a1.4,1.4,0,0,1,1.58-1.2l.27.07a1.09,1.09,0,0,1,.6,1.42v0c-.18.28-.36.55-.55.81a1.19,1.19,0,0,1-1.88-1.12Zm-9.41,37.82c-2.73.53-4.36.34-5-.33a1.2,1.2,0,0,1-.33-.86,4.4,4.4,0,0,1,1.27-2.51c2.47-2.92,8.76-2.27,8.76-2.27a13.71,13.71,0,0,1,2.3.28,7,7,0,0,1,1.27.39c.82.35,1.43.88,1.37,1.67-.18,2.22-4.11,2.54-9.63,3.61Z" transform="translate(0 -0.01)"/><path class="cls-4" d="M202.2,89.23c-.35-.45-36.4-45.78-58.1-87.48l.82-.42c21.65,41.61,57.64,86.88,58,87.33Z" transform="translate(0 -0.01)"/><path class="cls-4" d="M167.36.94V1c-1,10.27-9.76,18-11.6,19.58l-.32.26-.55-.72s.16-.12.41-.34a39.59,39.59,0,0,0,6.45-7.13c.2-.26.37-.53.55-.81a24.35,24.35,0,0,0,4.14-11h.44Z" transform="translate(0 -0.01)"/><path class="cls-4" d="M153.59,18.33c-.45.24-11.18,5.68-19.29,3.33l.26-.88c7.76,2.25,18.51-3.21,18.61-3.26Z" transform="translate(0 -0.01)"/><path class="cls-4" d="M170.19,22.27c-3.6,5.11-6.8,9.25-7.32,9.91l-.05.07-.72-.56.25-.33c.88-1.15,3.94-5.14,7.3-9.93A2.41,2.41,0,0,0,170.19,22.27Z" transform="translate(0 -0.01)"/><path class="cls-4" d="M180.53,5.07a72.86,72.86,0,0,1-6.27,11.22,2.81,2.81,0,0,0-.34-1.18,67.42,67.42,0,0,0,5.75-10.38Z" transform="translate(0 -0.01)"/><path class="cls-4" d="M157.18,30.45C152.6,33.31,143,38,132.11,35.33l.21-.89c14.75,3.55,27-6.61,27.13-6.71l.58.7A28.33,28.33,0,0,1,157.18,30.45Z" transform="translate(0 -0.01)"/><path class="cls-4" d="M168.57,41.84l-.59-.69c.19-.17,19.77-16.81,25.38-30.4l.85.35C188.52,24.89,168.77,41.69,168.57,41.84Z" transform="translate(0 -0.01)"/><path class="cls-4" d="M145.11,48.21a1.2,1.2,0,0,0,.33.86,44,44,0,0,1-13.88,1.33h-.1v-.91A42.71,42.71,0,0,0,145.11,48.21Z" transform="translate(0 -0.01)"/><path class="cls-4" d="M167,39.37l-.39.26-1.32.86a73.62,73.62,0,0,1-6.57,3.63,7,7,0,0,0-1.27-.39,70.39,70.39,0,0,0,8.69-4.89l.35-.24Z" transform="translate(0 -0.01)"/><path class="cls-4" d="M203.5,31.89C193.41,38.2,173,47.31,172,47.76l-.37-.84c.28-.08,29.2-13.08,35.47-18.78l.62.68A32.8,32.8,0,0,1,203.5,31.89Z" transform="translate(0 -0.01)"/><path class="cls-4" d="M156.4,60.57c-5.63,3.52-11.55,6.77-15.84,7.92l-.24-.88c10.53-2.83,32.06-19.21,32.27-19.37l.55.73C172.62,49.38,164.86,55.3,156.4,60.57Z" transform="translate(0 -0.01)"/><path class="cls-4" d="M205.52,52.11a5.71,5.71,0,0,1-.06,1c-11.35,3.13-24.35,1.37-28.17.73l-1.12-.2.18-.9h.2C178.43,53.15,193.11,55.7,205.52,52.11Z" transform="translate(0 -0.01)"/><path class="cls-4" d="M178.3,56l-.26.52c-1.42,2.77-8.16,15.73-14,22l-.45-.19h0l-.34-.31c3.26-3.44,6.82-9.05,9.57-13.8h0a2.54,2.54,0,0,0,1.41-2.49c1.77-3.18,3-5.59,3.21-6v-.08Z" transform="translate(0 -0.01)"/><path class="cls-4" d="M196.18,62.34a3.23,3.23,0,0,1-.87,1l-.09.07c-4,.56-9.68-.76-12.2-1.44l-1.28-.37.27-.88h.17C183.45,61.2,191.68,63.53,196.18,62.34Z" transform="translate(0 -0.01)"/><path class="cls-4" d="M183.86,63.84l-.22.57a89.68,89.68,0,0,1-3.95,8.77,6.43,6.43,0,0,1-1.45.87l-.12.05A78,78,0,0,0,183,63.53h0Z" transform="translate(0 -0.01)"/><path class="cls-5" d="M162.28,11.84a1.64,1.64,0,0,1-.55.81A4.21,4.21,0,0,0,162.28,11.84Z" transform="translate(0 -0.01)"/><path class="cls-3" d="M93.43,299.75c-.45,2.55,12.83,3.71,12.93,5s-12.85-2.25-14.26-.68-.47,6.58.64,7.63,10.69-1.09,10.78.78-6.88-.33-9,.94-.15,5.26.86,6.07,6.46-.6,7.35.9-5.65,0-6,2.64a3.83,3.83,0,0,0,.17,1.7q0,.14.1.28h0a6.35,6.35,0,0,0,1.89,2.46s5.57-1.73,4.42.51-2.89,1.46-1.48,4.29a9,9,0,0,0,3.62,3.81h.19l.27.09a7.44,7.44,0,0,0,4.66-.08c2.73-1,1-1.76,1.48-4.29s3.55,3,3.55,3a5.17,5.17,0,0,0,2.85-.34l.24-.13a3.13,3.13,0,0,0,1.14-1.12c1.3-2.17-4.37-6.17-2.83-6.59s4.7,4.86,5.93,5a4.9,4.9,0,0,0,2.64-.73l.22-.14a2.57,2.57,0,0,0,1.39-2.93c-.78-2.55-7.21-6.34-6-7.64s6.93,7.68,8.37,7.78c.76,0,2.13-.74,3.24-1.82L133,326a4.65,4.65,0,0,0,1.58-3.09c-.09-2.23-11.72-9.63-10.86-10.53s11.3,8.54,12.49,6.31a25.45,25.45,0,0,0,1.59-3.23h0l.1-.27c1.39-3.86,1.27-9.09-11.42-8.19-4.42-.51-2.53-3.88,8-2.47a21.65,21.65,0,0,0-.62-4.33h0l-.08-.29c-.63-2.18-1.81-4.18-4-3.54-4.49,1.3-8.61,2.76-7.91,1.42s7.52-1.67,4.67-3.56h-.07a4.14,4.14,0,0,0-.94-.44,8.58,8.58,0,0,0-5.38.5l-.24.1-.23-.48c-.85-1.72-2.37-4.09-4.44-4.7h-.07a1.89,1.89,0,0,0-.81-.09c-1.58.31,2.29,4.93,2,6.3s-2.43-2.73-5-7.17c-1.19-2.08-3.1-1.69-4.8-.69l-.47.29a17.34,17.34,0,0,0-3.07,2.72c8.59,7.14,8,11.08,4.42,8-7.93-9.47-11.31-7.33-12.83-3.94l-.11.25h0A21,21,0,0,0,93.43,299.75Zm31,1c1,.71-.2,1.11-1.07,1.29a1.07,1.07,0,0,1-1.21-.78v-.11a.73.73,0,0,1,.12-.56,1.42,1.42,0,0,1,1.67-.13h0a3.13,3.13,0,0,1,.53.31ZM101,317a.47.47,0,0,1,0-.43,1.51,1.51,0,0,1,.41-.57c1.15-1.08,4.14-2.06,4.27-.24a1.56,1.56,0,0,1,0,.26,1.38,1.38,0,0,1-.18.57,1.35,1.35,0,0,1-.8.62c-1.11.31-3.07.7-3.66-.21Zm3.59,7.94a.87.87,0,0,1-1.14-.39,1,1,0,0,1-.07-.16.61.61,0,0,1,.38-.77l.06,0h.58a.74.74,0,0,1,.47.47.63.63,0,0,1-.2.87l0,0Zm20.92-8.1c1.26,1.21,1.78,2.1,1.72,2.66a.65.65,0,0,1-.27.46,2.42,2.42,0,0,1-1.63.21C123,320,121,316.54,121,316.54a9.5,9.5,0,0,1-.73-1.27,4.74,4.74,0,0,1-.29-.78c-.14-.53-.13-1,.26-1.26,1.09-.66,2.71,1.23,5.25,3.67Z" transform="translate(0 -0.01)"/><path class="cls-4" d="M124.51,277c-.08.33-7.49,34.12-18.58,59.36l-.5-.27c11.07-25.19,18.48-58.93,18.55-59.26Z" transform="translate(0 -0.01)"/><path class="cls-4" d="M96.88,324.84h.05c5.08-3,12-1.19,13.34-.77l.24.07-.12.53-.31-.09a23.46,23.46,0,0,0-5.69-.85h-.58a13.13,13.13,0,0,0-6.62,1.65l-.15-.24h0Z" transform="translate(0 -0.01)"/><path class="cls-4" d="M110,325.84c.27.15,6.79,3.75,8.73,8.68l-.5.17c-1.86-4.72-8.38-8.32-8.45-8.36Z" transform="translate(0 -0.01)"/><path class="cls-4" d="M105.63,316.1c3.7.09,6.79.31,7.29.34H113V317h-.25c-.86-.06-3.84-.25-7.29-.33A1.38,1.38,0,0,0,105.63,316.1Z" transform="translate(0 -0.01)"/><path class="cls-4" d="M93.87,316.7a40.54,40.54,0,0,1,7.51-.63,1.51,1.51,0,0,0-.42.58,37.48,37.48,0,0,0-6.93.61Z" transform="translate(0 -0.01)"/><path class="cls-4" d="M114.26,319.93c3,1.35,8.73,4.64,11.6,11.09l-.49.2c-3.87-8.71-13.12-11.49-13.21-11.52l.11-.54A17.88,17.88,0,0,1,114.26,319.93Z" transform="translate(0 -0.01)"/><path class="cls-4" d="M115.25,310.25l-.1.54c-.15,0-15.11-4.33-23.46-2.55l-.16-.55C100,305.84,115.11,310.21,115.25,310.25Z" transform="translate(0 -0.01)"/><path class="cls-4" d="M126.94,320a.65.65,0,0,0,.27-.46,30.46,30.46,0,0,1,5.79,6.61v0l-.22.14-.22.14A29.55,29.55,0,0,0,126.94,320Z" transform="translate(0 -0.01)"/><path class="cls-4" d="M114.71,311.91l.26.11.89.38q2.1,1,4.13,2.11a4.74,4.74,0,0,0,.29.78,45.6,45.6,0,0,0-5.48-2.75l-.24-.1Z" transform="translate(0 -0.01)"/><path class="cls-4" d="M97.64,295.84c6.67,3,18.47,10.25,19.06,10.61l-.25.47c-.17-.11-16.9-10.41-21.9-11.67l.08-.55A20.63,20.63,0,0,1,97.64,295.84Z" transform="translate(0 -0.01)"/><path class="cls-4" d="M128.41,310.06c3.72,1.66,7.43,3.57,9.55,5.36l-.32.42c-5.23-4.39-20.8-9.76-21-9.81l.13-.53C117.21,305.63,122.83,307.56,128.41,310.06Z" transform="translate(0 -0.01)"/><path class="cls-4" d="M106.19,288a4.57,4.57,0,0,1,.47-.29c5.69,4.7,9.73,11.9,10.86,14.07.21.4.32.62.32.64l-.48.21-.06-.11C116.77,301.39,112.49,293.07,106.19,288Z" transform="translate(0 -0.01)"/><path class="cls-4" d="M118.11,300.49h.34c1.8-.22,10.28-1.21,15.34-.36l.08.29h0v.28a46.36,46.36,0,0,0-9.92-.17h0a1.42,1.42,0,0,0-1.67.13c-2.12.18-3.69.39-4,.42h0Z" transform="translate(0 -0.01)"/><path class="cls-4" d="M114.38,289.22a1.89,1.89,0,0,1,.81.09h.07a24.76,24.76,0,0,1,3.89,6.69l.31.78-.51.16v-.1C118.61,296.09,116.61,291.11,114.38,289.22Z" transform="translate(0 -0.01)"/><path class="cls-4" d="M119.68,295l.34-.08a48.89,48.89,0,0,1,5.51-1,4.14,4.14,0,0,1,.94.44h.07a42.66,42.66,0,0,0-6.69,1.12h0Z" transform="translate(0 -0.01)"/><path class="cls-5" d="M103.81,323.66a.93.93,0,0,1,.58,0Z" transform="translate(0 -0.01)"/></svg>