<svg id="Слой_1" data-name="Слой 1" xmlns="http://www.w3.org/2000/svg" viewBox="0 0 405.06 418.12"><defs><style>.cls-1{fill:#82bc68;}.cls-2{fill:#1d8064;}</style></defs><title>groupleaf</title><path class="cls-1" d="M63.29,231.49a80.39,80.39,0,0,1,30,9.35c-4.32.21-7.68,6.26-11.85,8.49a61.45,61.45,0,0,1,21.85-2.11,104.57,104.57,0,0,1,21,21c-6.64-.19-11.72,4.94-16.18,6.23a70.68,70.68,0,0,1,21.72,1.64A146.47,146.47,0,0,1,147,313.2a168,168,0,0,1-37.12,1.29c-2.79-3.81-8.86-12.3-12.51-18.39a116.54,116.54,0,0,0,1,16.88,92.29,92.29,0,0,1-33.85-12.87,36.45,36.45,0,0,1-.21-19.22s-4,7.28-6.86,14.15C28.06,271.31,26,234.85,26,234.85,39.84,231.17,52.21,230.29,63.29,231.49Z" transform="translate(-26.03 -33.14)"/><path class="cls-2" d="M26,234.85c10.68,13.46,46.13,39.64,115.89,76.58C141.92,311.43,72.41,268.35,26,234.85Z" transform="translate(-26.03 -33.14)"/><path class="cls-1" d="M346.62,433a24.42,24.42,0,0,1-8.31,9.58c.35-1.63-2.6-3.82-3.37-5.71a16.41,16.41,0,0,1-1.18,8.39,54.67,54.67,0,0,1-13.69,4.42c.81-2.42-1.45-5.11-1.67-7a18.61,18.61,0,0,1-3.22,7.75,107,107,0,0,1-22.13.49,43.83,43.83,0,0,1,3.26-13.9c2.38-.43,7.66-1.32,11.38-1.71,0,0-5.13-1.55-9.32-2.3A29.83,29.83,0,0,1,309,422.56a30.37,30.37,0,0,1,10.52,3s-3.55-2.61-7-4.77c16.1-7.1,36.23-2.08,36.23-2.08A26.92,26.92,0,0,1,346.62,433Z" transform="translate(-26.03 -33.14)"/><path class="cls-2" d="M348.77,418.68c-8.49,1.81-26.58,10.75-54.2,30.64C294.57,449.32,325.52,430.49,348.77,418.68Z" transform="translate(-26.03 -33.14)"/><path class="cls-1" d="M361.55,234.12a132.05,132.05,0,0,1-49.39-30.58c7.8,1.17,16.42-10.16,24.81-13.24-8.61.67-23.39,1.78-39.87-3.75-12.22-15.88-21.38-33.71-28.3-51.38,11.76,2.86,23-5.91,31.55-6.92-8-1.15-22.63-3.27-38-11.49A339,339,0,0,1,247.7,33.14c25.63,1.21,47.71,5.13,66.75,11.13,3.33,9,10.47,28.86,14.34,42.87,0,0,4.39-19.55,5.52-35.45,23.36,10.22,41.2,24,54.78,39.34a89.76,89.76,0,0,1-8,40s10.21-13.65,18.36-26.85c42.15,60.27,30,136.8,30,136.8C403.22,243.52,380.77,240.74,361.55,234.12Z" transform="translate(-26.03 -33.14)"/><path class="cls-2" d="M429.45,241C416.24,209.06,364.38,141.45,256,38.72,256,38.72,361.26,154.11,429.45,241Z" transform="translate(-26.03 -33.14)"/><path class="cls-1" d="M126.36,58.18a31.1,31.1,0,0,1,5.93,12.33c-1.4-1.22-4.55-.06-6.6-.52a22.82,22.82,0,0,1,7.44,5.8,49.31,49.31,0,0,1-.89,13.79c-2-2.06-5.32-1.75-7.14-2.62a26.14,26.14,0,0,1,6.09,7.1,79.84,79.84,0,0,1-7.69,18.46,62,62,0,0,1-11.84-10.67c.48-2.2,1.58-7.06,2.59-10.33a67.83,67.83,0,0,0-5.59,6.34,36.44,36.44,0,0,1-5.89-14.75,21.14,21.14,0,0,1,6.66-6.94s-3.76,1.42-7,3c-.73-17.31,11.39-31,11.39-31A37.59,37.59,0,0,1,126.36,58.18Z" transform="translate(-26.03 -33.14)"/><path class="cls-2" d="M113.75,48.21c-1.43,8,.3,28,8.79,62.14C122.55,110.36,116.28,74.1,113.75,48.21Z" transform="translate(-26.03 -33.14)"/></svg>