<svg id="Слой_1" data-name="Слой 1" xmlns="http://www.w3.org/2000/svg" viewBox="0 0 431.92 206.06"><defs><style>.cls-1{fill:#82bc68;}.cls-2{fill:#1d8064;}</style></defs><title>groupleaf1</title><path class="cls-1" d="M129.57,246a80.39,80.39,0,0,1,31.3-2.41c-3.94,1.8-4.82,8.66-7.86,12.27a61.45,61.45,0,0,1,19.51-10,104.57,104.57,0,0,1,27.24,11.71c-6.24,2.28-9.06,8.93-12.72,11.77a70.68,70.68,0,0,1,20.78-6.51A146.47,146.47,0,0,1,237.59,291a168,168,0,0,1-34,14.94c-4-2.51-12.78-8.15-18.43-12.45a116.54,116.54,0,0,0,7.18,15.31,92.29,92.29,0,0,1-36.21.58,36.45,36.45,0,0,1-7.31-17.78s-1,8.23-1.13,15.68C111.59,296.07,96.21,263,96.21,263,107.67,254.42,118.84,249,129.57,246Z" transform="translate(-43.12 -127.78)"/><path class="cls-2" d="M96.21,263c14.9,8.55,57.53,19.75,136,28.24C232.21,291.19,151.7,276.9,96.21,263Z" transform="translate(-43.12 -127.78)"/><path class="cls-1" d="M397.62,286a24.42,24.42,0,0,1-8.31,9.58c.35-1.63-2.6-3.82-3.37-5.71a16.41,16.41,0,0,1-1.18,8.39,54.67,54.67,0,0,1-13.69,4.42c.81-2.42-1.45-5.11-1.67-7a18.61,18.61,0,0,1-3.22,7.75,107,107,0,0,1-22.13.49,43.83,43.83,0,0,1,3.26-13.9c2.38-.43,7.66-1.32,11.38-1.71,0,0-5.13-1.55-9.32-2.3A29.83,29.83,0,0,1,360,275.56a30.37,30.37,0,0,1,10.52,3s-3.55-2.61-7-4.77c16.1-7.1,36.23-2.08,36.23-2.08A26.92,26.92,0,0,1,397.62,286Z" transform="translate(-43.12 -127.78)"/><path class="cls-2" d="M399.77,271.68c-8.49,1.81-26.58,10.75-54.2,30.64C345.57,302.32,376.52,283.49,399.77,271.68Z" transform="translate(-43.12 -127.78)"/><path class="cls-1" d="M59.31,288a31.1,31.1,0,0,1,12,6.59c-1.85-.18-3.74,2.59-5.67,3.42a22.82,22.82,0,0,1,9.42.39,49.31,49.31,0,0,1,7.29,11.74c-2.8-.53-5.35,1.67-7.34,2a26.14,26.14,0,0,1,9.08,2.24,79.84,79.84,0,0,1,4.47,19.49A62,62,0,0,1,72.72,332c-.89-2.07-2.82-6.66-3.9-9.91a67.83,67.83,0,0,0-.86,8.41A36.44,36.44,0,0,1,54.59,322,21.14,21.14,0,0,1,56,312.44s-2.23,3.34-4,6.54c-10.65-13.66-8.73-31.81-8.73-31.81A37.59,37.59,0,0,1,59.31,288Z" transform="translate(-43.12 -127.78)"/><path class="cls-2" d="M43.25,287.17c3.5,7.35,16.53,22.62,43.28,45.45C86.54,332.62,60.36,306.77,43.25,287.17Z" transform="translate(-43.12 -127.78)"/><path class="cls-1" d="M427.61,154.44a31.1,31.1,0,0,1,7.24-11.61c-.28,1.84,2.38,3.87,3.1,5.85a22.82,22.82,0,0,1,.91-9.39A49.31,49.31,0,0,1,451,132.67c-.68,2.77,1.37,5.43,1.61,7.44a26.14,26.14,0,0,1,2.74-8.94A79.84,79.84,0,0,1,475,127.78a62,62,0,0,1-2.67,15.71c-2.11.78-6.81,2.44-10.11,3.34a67.83,67.83,0,0,0,8.35,1.33A36.44,36.44,0,0,1,461.29,161a21.14,21.14,0,0,1-9.42-1.91s3.21,2.42,6.31,4.35c-14.23,9.88-32.25,6.95-32.25,6.95A37.59,37.59,0,0,1,427.61,154.44Z" transform="translate(-43.12 -127.78)"/><path class="cls-2" d="M425.94,170.42c7.54-3.09,23.5-15.25,47.78-40.7C473.72,129.73,446.46,154.43,425.94,170.42Z" transform="translate(-43.12 -127.78)"/></svg>