<svg id="Слой_1" data-name="Слой 1" xmlns="http://www.w3.org/2000/svg" viewBox="0 0 186.27 344.12"><defs><style>.cls-1{fill:#82bc68;}.cls-2{fill:#1d8064;}</style></defs><title>groupleaf6</title><path class="cls-1" d="M213.29,429.61a24.42,24.42,0,0,1,12.62,1.23c-1.53.66-1.61,4.33-2.71,6.06a16.41,16.41,0,0,1,7.53-3.89,54.67,54.67,0,0,1,11.53,8.61c-2.44.74-3.33,4.13-4.7,5.39a18.61,18.61,0,0,1,8.18-1.86,107,107,0,0,1,13.2,17.76,43.83,43.83,0,0,1-13.22,5.38c-1.73-1.69-5.51-5.48-8-8.29,0,0,1.71,5.09,3.52,8.93a29.83,29.83,0,0,1-14.68-2.63A30.37,30.37,0,0,1,222.91,456s-.07,4.41.16,8.46c-15.11-9-22.66-28.34-22.66-28.34A26.92,26.92,0,0,1,213.29,429.61Z" transform="translate(-157.77 -124.9)"/><path class="cls-2" d="M200.4,436.12c6.39,5.88,24.15,15.45,56.36,26.46C256.76,462.59,223.49,448.25,200.4,436.12Z" transform="translate(-157.77 -124.9)"/><path class="cls-1" d="M180,125.81a43,43,0,0,1,17.25,7.79c-2.57,0-4.88,4-7.46,5.33a31.58,31.58,0,0,1,13-.47,68.24,68.24,0,0,1,11.32,15.41c-3.92-.43-7.2,2.88-9.9,3.57A36.17,36.17,0,0,1,217,159.54a110.49,110.49,0,0,1,8.27,26.4,85.75,85.75,0,0,1-22-.77c-1.45-2.76-4.6-8.89-6.45-13.25a93.86,93.86,0,0,0-.29,11.69,50.43,50.43,0,0,1-19.37-10.4,29.26,29.26,0,0,1,.88-13.27s-2.72,4.84-4.8,9.45c-16.17-17.7-15.47-42.95-15.47-42.95A52,52,0,0,1,180,125.81Z" transform="translate(-157.77 -124.9)"/><path class="cls-2" d="M157.78,126.45c5.62,9.77,25.24,29.42,64.61,58C222.39,184.49,183.49,151.65,157.78,126.45Z" transform="translate(-157.77 -124.9)"/><path class="cls-1" d="M296.61,252.44a31.1,31.1,0,0,1,7.24-11.61c-.28,1.84,2.38,3.87,3.1,5.85a22.82,22.82,0,0,1,.91-9.39A49.31,49.31,0,0,1,320,230.67c-.68,2.77,1.37,5.43,1.61,7.44a26.14,26.14,0,0,1,2.74-8.94A79.84,79.84,0,0,1,344,225.78a62,62,0,0,1-2.67,15.71c-2.11.78-6.81,2.44-10.11,3.34a67.83,67.83,0,0,0,8.35,1.33A36.44,36.44,0,0,1,330.29,259a21.14,21.14,0,0,1-9.42-1.91s3.21,2.42,6.31,4.35c-14.23,9.88-32.25,6.95-32.25,6.95A37.59,37.59,0,0,1,296.61,252.44Z" transform="translate(-157.77 -124.9)"/><path class="cls-2" d="M294.94,268.42c7.54-3.09,23.5-15.25,47.78-40.7C342.72,227.73,315.46,252.43,294.94,268.42Z" transform="translate(-157.77 -124.9)"/></svg>