<svg id="Слой_1" data-name="Слой 1" xmlns="http://www.w3.org/2000/svg" viewBox="0 0 328.53 490.23"><defs><style>.cls-1{fill:#82bc68;}.cls-2{fill:#1d8064;}.cls-3{fill:#80b57d;}.cls-4{fill:#0e5944;}.cls-5{fill:#fff;}</style></defs><title>groupleaf3</title><path class="cls-1" d="M33.86,450.83a24.42,24.42,0,0,1,12.62,1.23c-1.53.66-1.61,4.33-2.71,6.06a16.41,16.41,0,0,1,7.53-3.89,54.67,54.67,0,0,1,11.53,8.61c-2.44.74-3.33,4.13-4.7,5.39a18.61,18.61,0,0,1,8.18-1.86,107,107,0,0,1,13.2,17.76,43.83,43.83,0,0,1-13.22,5.38c-1.73-1.69-5.51-5.48-8-8.29,0,0,1.71,5.09,3.52,8.93a29.83,29.83,0,0,1-14.68-2.63,30.37,30.37,0,0,1-3.65-10.3s-.07,4.41.16,8.46C28.53,476.68,21,457.34,21,457.34A26.92,26.92,0,0,1,33.86,450.83Z" transform="translate(-0.04)"/><path class="cls-2" d="M21,457.34c6.39,5.88,24.15,15.45,56.36,26.46C77.33,483.81,44.06,469.47,21,457.34Z" transform="translate(-0.04)"/><path class="cls-1" d="M150.13,259.44a43,43,0,0,1-6.79,17.67c-.1-2.57-4.25-4.64-5.75-7.14a31.58,31.58,0,0,1,1.22,13,68.24,68.24,0,0,1-14.73,12.18c.2-3.94-3.29-7-4.13-9.68a36.17,36.17,0,0,1-1.38,12.87,110.49,110.49,0,0,1-25.89,9.77,85.75,85.75,0,0,1-.49-22c2.67-1.61,8.61-5.11,12.86-7.2a93.86,93.86,0,0,0-11.69.39,50.43,50.43,0,0,1,9.27-19.93,29.26,29.26,0,0,1,13.3.12s-5-2.44-9.71-4.25c16.74-17.16,42-17.91,42-17.91A52,52,0,0,1,150.13,259.44Z" transform="translate(-0.04)"/><path class="cls-2" d="M148.21,237.28c-9.43,6.17-27.93,26.89-54.24,67.84C94,305.11,124.57,264.39,148.21,237.28Z" transform="translate(-0.04)"/><path class="cls-1" d="M281.18,26.66A31.1,31.1,0,0,1,288.42,15c-.28,1.84,2.38,3.87,3.1,5.85a22.82,22.82,0,0,1,.91-9.39,49.31,49.31,0,0,1,12.14-6.62c-.68,2.77,1.37,5.43,1.61,7.44a26.14,26.14,0,0,1,2.74-8.94A79.84,79.84,0,0,1,328.57,0a62,62,0,0,1-2.67,15.71c-2.11.78-6.81,2.44-10.11,3.34a67.83,67.83,0,0,0,8.35,1.33,36.44,36.44,0,0,1-9.28,12.84,21.14,21.14,0,0,1-9.42-1.91s3.21,2.42,6.31,4.35c-14.23,9.88-32.25,7-32.25,7A37.59,37.59,0,0,1,281.18,26.66Z" transform="translate(-0.04)"/><path class="cls-2" d="M279.51,42.64c7.54-3.09,23.5-15.25,47.78-40.7C327.29,1.95,300,26.65,279.51,42.64Z" transform="translate(-0.04)"/><path class="cls-3" d="M124.63,60.22C119.63,54.5,95.16,85.16,92,83S118.26,55.4,117.1,49.07,103.2,36,99,36.86,83.8,65.2,79.48,62,91.57,45.61,92.22,38.15s-11.48-9.88-15-8.86-9.35,17-14.15,16.51,9.25-14,4-19.56A10.42,10.42,0,0,0,63,23.57a7.61,7.61,0,0,0-.8-.26h0a16.09,16.09,0,0,0-8.6.21s-5.33,16.87-8.45,10S46.68,23.75,38,22.11a22.84,22.84,0,0,0-14.49,2h0l-.25.17a1.36,1.36,0,0,1-.25.14h0l-.64.5a23,23,0,0,0-7.53,11.64C12.53,45.08,17.17,42.15,22,48S9.36,51.22,9.36,51.22a16.25,16.25,0,0,0-3.94,7.65,7.72,7.72,0,0,0-.11.83,10.43,10.43,0,0,0,.63,4.85c2.7,7.13,21,.38,19.37,4.94S6.7,72.3,4.31,75c-1.12,1.24-2.38,4.45-2.74,7.82a4.63,4.63,0,0,1-.07.8c-.22,3.68.74,7.35,4.24,8.72,7,2.69,26.05-6.31,27-1S4.15,94.54,1.56,97.92C.19,99.7-.3,104.5.27,109.22a4.5,4.5,0,0,0,.11.81c.57,4,2,7.79,4.27,9.49,5.13,3.8,40.85-11.5,41.43-7.74s-37.72,12.43-34.73,19.4A80.68,80.68,0,0,0,15.92,141h0l.43.72c6.32,10.43,18.18,19.58,37.14-13.33,8.45-10,12.84.78-7.76,24.26a58.4,58.4,0,0,0,10.69,6.32h0l.78.33c5.91,2.4,12.33,3.1,14.57-3.55,4.53-13.43,8.06-26.22,9.89-22.08s-8.69,21.56.22,18l.21-.09A11.26,11.26,0,0,0,84.64,150c4.36-3.4,6.63-9.76,7.78-14.18l.18-.78c.45.11.93.2,1.44.3,5.24,1,13,1.56,17.81-2.44l.15-.13a5.66,5.66,0,0,0,1.52-1.83c1.93-4.45-14.8-3.27-17.42-6.36-2.92-3.46,10.11-1,24.18.75,6.61.84,8.9-4.6,9.48-10.59,0-.56.1-1.13.11-1.68a58.15,58.15,0,0,0-1-12.51c-30.12,8.27-37.89-.39-25.22-3.62,34.24-2.42,35-14.64,30-24.52l-.38-.71h0C130.5,66.51,126.32,62.12,124.63,60.22Zm-53.55,74.7c-3.29,1.26-2.15-2.5-1.11-5a2.87,2.87,0,0,1,3.74-1.58h0l.29.14a2.15,2.15,0,0,1,1,1.3c.37,1.34-.6,3.14-2.47,4.35h0a8.39,8.39,0,0,1-1.44.75Zm2.41-87.39a1.29,1.29,0,0,1,1,.69,4.93,4.93,0,0,1,.6,2.05c.54,4.75-2.22,13.95-6.52,10.95a4.37,4.37,0,0,1-.57-.48,4.22,4.22,0,0,1-1-1.47,4.51,4.51,0,0,1-.06-3.09c1.14-3.31,3.5-8.83,6.5-8.65ZM49.85,42a2.44,2.44,0,0,1,3.24-2,1.91,1.91,0,0,1,1,2.51h0a13.78,13.78,0,0,1-1,1.42,2.09,2.09,0,0,1-3.3-2ZM33.38,108.22c-4.78.93-7.64.6-8.78-.58a2.09,2.09,0,0,1-.58-1.5c0-1.17.76-2.67,2.22-4.39,4.32-5.12,15.34-4,15.34-4a24,24,0,0,1,4,.5,12.18,12.18,0,0,1,2.23.69c1.43.61,2.51,1.53,2.39,2.93-.32,3.88-7.2,4.46-16.86,6.33Z" transform="translate(-0.04)"/><path class="cls-4" d="M124.06,178c-.62-.79-63.76-80.19-101.76-153.21L23.74,24c37.91,72.89,101,152.16,101.58,153Z" transform="translate(-0.04)"/><path class="cls-4" d="M63,23.35v.19c-1.69,18-17.1,31.62-20.31,34.29l-.56.45-1-1.26.71-.59a69.34,69.34,0,0,0,11.3-12.49c.34-.46.65-.93,1-1.42,3.54-5.42,6.61-12,7.25-19.32l.77.06h0Z" transform="translate(-0.04)"/><path class="cls-4" d="M38.93,53.81c-.78.41-19.58,10-33.78,5.83L5.6,58.1C19.19,62,38,52.48,38.2,52.38Z" transform="translate(-0.04)"/><path class="cls-4" d="M68,60.7c-6.31,9-11.9,16.19-12.81,17.36l-.1.12-1.27-1,.45-.58c1.55-2,6.91-9,12.78-17.39A4.22,4.22,0,0,0,68,60.7Z" transform="translate(-0.04)"/><path class="cls-4" d="M86.1,30.59c-2.18,5.44-6.37,12.56-11,19.66a4.93,4.93,0,0,0-.6-2.07C78.8,41.54,82.57,35,84.57,30Z" transform="translate(-0.04)"/><path class="cls-4" d="M45.21,75c-8,5-24.78,13.14-43.91,8.55L1.67,82C27.51,88.24,49,70.46,49.2,70.28l1,1.23A49.62,49.62,0,0,1,45.21,75Z" transform="translate(-0.04)"/><path class="cls-4" d="M65.17,95l-1-1.21c.34-.29,34.63-29.44,44.46-53.25l1.48.61C100.1,65.3,65.52,94.71,65.17,95Z" transform="translate(-0.04)"/><path class="cls-4" d="M24,106.14a2.09,2.09,0,0,0,.58,1.5A77.12,77.12,0,0,1,.31,110a.38.38,0,0,0-.17,0l.06-.79.07-.8A74.8,74.8,0,0,0,24,106.14Z" transform="translate(-0.04)"/><path class="cls-4" d="M62.36,90.65s-.25.18-.68.45-1.28.85-2.32,1.51A129,129,0,0,1,47.84,99a12.18,12.18,0,0,0-2.23-.69A123.28,123.28,0,0,0,60.8,89.75c.38-.25.59-.4.61-.42Z" transform="translate(-0.04)"/><path class="cls-4" d="M126.34,77.56c-17.68,11.06-53.39,27-55.16,27.8l-.65-1.46c.51-.22,51.16-22.85,62.22-32.91l1.08,1.23A57.45,57.45,0,0,1,126.34,77.56Z" transform="translate(-0.04)"/><path class="cls-4" d="M43.85,127.8C34,134,23.61,139.66,16.11,141.67l-.42-1.55c18.44-5,56.15-33.64,56.52-33.93l1,1.27C72.25,108.22,58.65,118.55,43.85,127.8Z" transform="translate(-0.04)"/><path class="cls-4" d="M129.88,113c0,.57-.06,1.14-.11,1.68-19.88,5.54-42.63,2.46-49.34,1.34l-2-.36.32-1.57.35.06C82.43,114.78,108.06,119.22,129.88,113Z" transform="translate(-0.04)"/><path class="cls-4" d="M82.2,119.78l-.46.92c-2.48,4.85-14.29,27.55-24.54,38.5l-.78-.33h0l-.6-.54c5.7-6,11.94-15.86,16.77-24.17h0c1.87-1.21,2.83-3,2.47-4.35,3.1-5.57,5.22-9.79,5.63-10.57l.07-.14Z" transform="translate(-0.04)"/><path class="cls-4" d="M113.57,130.88a5.66,5.66,0,0,1-1.52,1.83l-.15.13c-7.09,1-17-1.33-21.36-2.52l-2.24-.64.48-1.53.29.09C91.22,128.9,105.63,133,113.57,130.88Z" transform="translate(-0.04)"/><path class="cls-4" d="M91.94,133.57l-.39,1a157.07,157.07,0,0,1-6.92,15.36,11.26,11.26,0,0,1-2.55,1.52l-.21.09c2-3.1,5.67-11.16,8.56-18.52h0Z" transform="translate(-0.04)"/><path class="cls-5" d="M54.14,42.52a2.86,2.86,0,0,1-1,1.42A17.3,17.3,0,0,0,54.14,42.52Z" transform="translate(-0.04)"/><path class="cls-3" d="M246.21,404.84c2.45.83,5.61-12.12,6.94-12s-4.17,12.36-2.84,14,6.43,1.46,7.64.52.54-10.73,2.4-10.54-1.36,6.75-.43,9,5.17.94,6.13.07.39-6.48,2-7.13-.81,5.6,1.7,6.33a3.83,3.83,0,0,0,1.71.09l.29-.06h0a6.35,6.35,0,0,0,2.72-1.49s-.87-5.77,1.18-4.3,1,3.08,4,2.11a9,9,0,0,0,4.31-3h0l0-.09.06-.08h0l.13-.25a7.44,7.44,0,0,0,.63-4.62c-.56-2.85-1.59-1.23-4-2.11s3.55-3,3.55-3a5.17,5.17,0,0,0,.09-2.87,2.3,2.3,0,0,0-.09-.26,3.13,3.13,0,0,0-.94-1.3c-2-1.61-6.77,3.39-6.94,1.8s5.51-3.91,5.88-5.1a4.9,4.9,0,0,0-.32-2.72l-.1-.24a2.57,2.57,0,0,0-2.68-1.82c-2.64.38-7.36,6.17-8.47,4.8s8.64-5.69,9-7.1c.17-.74-.41-2.21-1.31-3.48l-.16-.22a4.65,4.65,0,0,0-2.81-2c-2.22-.24-11.29,10.13-12,9.14s10.09-9.91,8.09-11.42a25.45,25.45,0,0,0-3-2.06h0l-.25-.14c-3.61-2-8.79-2.63-9.83,10-1.17,4.3-4.22,1.91-1.22-8.31a21.65,21.65,0,0,0-4.38,0h-.3c-2.25.29-4.41,1.16-4.11,3.45.6,4.64,1.43,8.93.21,8s-.51-7.69-2.81-5.16l0,.06a4.14,4.14,0,0,0-.58.86,8.58,8.58,0,0,0-.32,5.4l.06.25-.5.15c-1.83.58-4.4,1.72-5.32,3.67v.06a1.89,1.89,0,0,0-.21.78c.06,1.61,5.23-1.52,6.53-1.06,1.46.51-3.07,2-7.84,3.81-2.24.86-2.14,2.81-1.41,4.64.07.17.14.34.22.51a17.34,17.34,0,0,0,2.23,3.45c8.36-7.41,12.16-6.2,8.61-3.15-10.56,6.4-9,10.07-5.84,12.09l.23.14h0A21,21,0,0,0,246.21,404.84Zm5.71-30.52c.86-.91,1.07.37,1.11,1.25a1.07,1.07,0,0,1-1,1.08h-.11a.73.73,0,0,1-.53-.2,1.42,1.42,0,0,1,.13-1.67h0A3.13,3.13,0,0,1,251.92,374.32ZM264.48,400a.47.47,0,0,1-.43,0,1.51,1.51,0,0,1-.5-.49c-.89-1.3-1.41-4.41.41-4.26h.26a1.38,1.38,0,0,1,.53.27,1.35,1.35,0,0,1,.49.88c.14,1.15.23,3.14-.76,3.58Zm8.39-2.34a.87.87,0,0,1-.56,1.06h-.17a.61.61,0,0,1-.7-.5v-.06a3.75,3.75,0,0,1,.09-.57.74.74,0,0,1,.53-.4.63.63,0,0,1,.8.39l0,.07ZM268,375.75c1.39-1.07,2.35-1.45,2.89-1.29a.65.65,0,0,1,.41.34,2.42,2.42,0,0,1,0,1.64c-.6,2.2-4.29,3.71-4.29,3.71a9.5,9.5,0,0,1-1.37.53,4.74,4.74,0,0,1-.82.17c-.55.06-1,0-1.21-.45-.49-1.18,1.62-2.49,4.42-4.64Z" transform="translate(-0.04)"/><path class="cls-4" d="M228.43,370.68c.32.12,32.59,12.57,55.87,27.36l-.35.45c-23.22-14.76-55.45-27.19-55.77-27.31Z" transform="translate(-0.04)"/><path class="cls-4" d="M271.5,405.22v-.06c-2.2-5.48.64-12,1.26-13.3l.11-.22.5.2-.14.29a23.46,23.46,0,0,0-1.7,5.5,5.63,5.63,0,0,1-.09.57,13.13,13.13,0,0,0,.63,6.79l-.26.11h0Z" transform="translate(-0.04)"/><path class="cls-4" d="M274.57,392.4c.19-.25,4.74-6.14,9.9-7.31l.09.52c-4.94,1.12-9.49,7-9.54,7.09Z" transform="translate(-0.04)"/><path class="cls-4" d="M264.22,395.22c.65-3.64,1.33-6.67,1.44-7.16v0l.55.07,0,.24c-.19.84-.83,3.76-1.43,7.16A1.38,1.38,0,0,0,264.22,395.22Z" transform="translate(-0.04)"/><path class="cls-4" d="M263,407a40.54,40.54,0,0,1,.51-7.52,1.51,1.51,0,0,0,.51.5,37.48,37.48,0,0,0-.45,6.94Z" transform="translate(-0.04)"/><path class="cls-4" d="M269.31,387.31c1.8-2.79,5.91-7.93,12.72-9.79l.12.51c-9.2,2.51-13.34,11.23-13.39,11.32l-.52-.19A17.88,17.88,0,0,1,269.31,387.31Z" transform="translate(-0.04)"/><path class="cls-4" d="M259.89,384.86l.52.18c-.06.14-6.57,14.28-6.08,22.81l-.57.07C253.27,399.27,259.83,385,259.89,384.86Z" transform="translate(-0.04)"/><path class="cls-4" d="M271.33,374.79a.65.65,0,0,0-.41-.34,30.46,30.46,0,0,1,7.41-4.73h.06l.1.24.1.24A29.55,29.55,0,0,0,271.33,374.79Z" transform="translate(-0.04)"/><path class="cls-4" d="M261.45,385.65l.15-.24.51-.82q1.26-1.94,2.71-3.76a4.74,4.74,0,0,0,.82-.17,45.6,45.6,0,0,0-3.55,5l-.13.22Z" transform="translate(-0.04)"/><path class="cls-4" d="M243,400.1c4-6.14,12.93-16.71,13.38-17.23l.43.31c-.13.15-12.85,15.13-14.85,19.88l-.53-.16A20.63,20.63,0,0,1,243,400.1Z" transform="translate(-0.04)"/><path class="cls-4" d="M261.7,371.83c2.21-3.43,4.65-6.8,6.74-8.63l.37.38c-5.13,4.5-12.8,19.08-12.88,19.23l-.5-.21C255.57,382.22,258.38,377,261.7,371.83Z" transform="translate(-0.04)"/><path class="cls-4" d="M236.49,390.45c-.08-.17-.15-.34-.22-.51,5.5-4.91,13.24-7.81,15.55-8.61l.68-.22.14.51h-.12C251.36,382,242.5,385,236.49,390.45Z" transform="translate(-0.04)"/><path class="cls-4" d="M250.68,380.54v-.32c0-1.82.36-10.35,2-15.22h.3l.28.06a46.36,46.36,0,0,0-1.67,9.78h0a1.42,1.42,0,0,0-.13,1.67c-.14,2.13-.17,3.7-.18,4v0Z" transform="translate(-0.04)"/><path class="cls-4" d="M239,382.54a1.89,1.89,0,0,1,.21-.78v-.06a24.76,24.76,0,0,1,7.21-2.83l.81-.19.08.52h-.11C246.4,379.4,241.18,380.63,239,382.54Z" transform="translate(-0.04)"/><path class="cls-4" d="M245.46,378.17v-.35a48.89,48.89,0,0,1-.13-5.6,4.14,4.14,0,0,1,.58-.86l0-.06a42.66,42.66,0,0,0,.09,6.78h0Z" transform="translate(-0.04)"/><path class="cls-5" d="M271.42,398.22a.93.93,0,0,1,.09-.57C271.48,397.82,271.44,398,271.42,398.22Z" transform="translate(-0.04)"/></svg>