<svg id="Слой_1" data-name="Слой 1" xmlns="http://www.w3.org/2000/svg" xmlns:xlink="http://www.w3.org/1999/xlink" viewBox="0 0 892.35 1750"><defs><style>.cls-1{fill:#173f27;}.cls-2{fill:url(#Безымянный_градиент_2);}.cls-3{fill:#fff;}.cls-11,.cls-4,.cls-9{fill:none;}.cls-10,.cls-4,.cls-7,.cls-8,.cls-9{stroke:#000;stroke-width:8px;}.cls-11,.cls-4,.cls-7,.cls-8{stroke-linecap:round;stroke-linejoin:round;}.cls-5,.cls-8{fill:#d9d9d9;}.cls-6{fill:#9c9c9c;}.cls-7{fill:#090a0a;}.cls-10,.cls-9{stroke-miterlimit:10;}.cls-11{stroke:#fff;stroke-width:6px;}</style><linearGradient id="Безымянный_градиент_2" x1="811.26" y1="-726.41" x2="811.26" y2="1023.59" gradientTransform="matrix(1, 0, 0, -1, 0, 1270.59)" gradientUnits="userSpaceOnUse"><stop offset="0" stop-color="#308a56"/><stop offset="1" stop-color="#256c43"/></linearGradient></defs><title>heal</title><path class="cls-1" d="M1373,1173.5c0,143.37-52.52,272.49-152,352.5-68.56,55.14-165.61,86-258,86-226.44,0-410-196.32-410-438.5S736.56,735,963,735c77.86,0,156,20.7,218,61C1299.32,872.91,1373,1014.59,1373,1173.5Z" transform="translate(-507 -247)"/><path id="Холмишечик" class="cls-2" d="M1115.31,1664.7C1125,628.09,791.46,321,507,247V1997C806.31,1987,1113,1915.52,1115.31,1664.7Z" transform="translate(-507 -247)"/><path class="cls-3" d="M1392.29,1171.73a1.28,1.28,0,1,0-.21-2.54h0a1.28,1.28,0,0,0,.21,2.54Z" transform="translate(-507 -247)"/><path class="cls-3" d="M1392.3,1171.89a1.28,1.28,0,1,0-.21-2.54h0a1.28,1.28,0,1,0,.21,2.54Z" transform="translate(-507 -247)"/><path class="cls-3" d="M1392.26,1171.95a1.28,1.28,0,1,0-1.38-1.17A1.28,1.28,0,0,0,1392.26,1171.95Z" transform="translate(-507 -247)"/><path class="cls-4" d="M1354.6,947.64" transform="translate(-507 -247)"/><path class="cls-5" d="M1360.44,1298.58l-.3,1.33a175.17,175.17,0,0,1-14.51-23.89q2.85,3.5,5.75,6.83h0c.38.75.75,1.49,1.14,2.23A139.64,139.64,0,0,0,1360.44,1298.58Z" transform="translate(-507 -247)"/><path class="cls-5" d="M1334.12,1302.12l-.7.06c-27.86-10.87-55.8-20.18-81.64-29.3a1.62,1.62,0,0,0-.14-.37C1277.71,1281.72,1306,1291.1,1334.12,1302.12Z" transform="translate(-507 -247)"/><path d="M1234,1043.37l0,0a2.66,2.66,0,0,1,0,.68c-.54-.45-1.08-.89-1.63-1.32h0c.06-.15.13-.29.2-.43Z" transform="translate(-507 -247)"/><path class="cls-6" d="M1325.47,1222.22c5.39,18.58,11.41,36.61,20.14,53.81-12.13-14.85-23.78-32.1-31.74-49.92C1321.17,1223.88,1325.47,1222.22,1325.47,1222.22Z" transform="translate(-507 -247)"/><path class="cls-5" d="M1351.35,1282.85q-2.88-3.32-5.75-6.83c-8.73-17.2-14.74-35.22-20.14-53.81,0,0-4.3,1.66-11.63,3.88q-2.36-5.28-4.28-10.62a98.76,98.76,0,0,1-5.7-33c2.18,15.48,9.57,28.9,20,32.82l5.42-.44C1334.23,1239.21,1341.41,1263.12,1351.35,1282.85Z" transform="translate(-507 -247)"/><path class="cls-5" d="M1367,1110.18q.7,4.65,1.31,9.28a79.25,79.25,0,0,0-8.2,1.88c.36-1.74.63-3.39.79-4.89.67-6.32-6.31-9.62-12.25-6.78a98.49,98.49,0,0,0-20.25,13.23q-5-15.87-9.46-32.25a33.47,33.47,0,0,1,16.85-37.91,34.69,34.69,0,0,1,6.25-2.58c4.16-1.25,8.68-.13,13.32,2.59A554.16,554.16,0,0,1,1367,1110.18Z" transform="translate(-507 -247)"/><path class="cls-6" d="M1242.49,1246.64q4.13,12.4,8.71,24.76c-3.68-1.34-7.28-2.65-10.78-3.94-20.88-7.68-38.49-14.91-47.85-19.68q-1.24-11.71-2.22-23.28l1.47.47c14.32,4.54,29.83,9.45,47.3,11.21Q1240.75,1241.43,1242.49,1246.64Z" transform="translate(-507 -247)"/><path class="cls-5" d="M1193.08,1056c2.93,1.37,5.17,2.35,7.14,3.22-7.19,20.21-11,45.27-12.38,73.29a7.13,7.13,0,0,0-.28,7q-.34,9.78-.29,20c-5.51,4.18-23.25,18.27.18,13.57.4,16.61,1.42,33.86,2.91,51.44-29.54-9.53-48-20.91-48-20.91,2.78,10.39,15.62,27.94,45.92,41.86,1.12.69,2.55,1.5,4.25,2.33l.11,1.31a200.2,200.2,0,0,1-28.51-16.15,65.27,65.27,0,0,1-19.38-21.16,67.69,67.69,0,0,1-6.4-49.52C1149.1,1118.86,1174.2,1080.27,1193.08,1056Z" transform="translate(-507 -247)"/><path class="cls-6" d="M1274.62,1145.61c-8.37,3.18-17.65,6.44-28,9.84a12.19,12.19,0,0,0-2.47-6.4l-11.83-30.69c-1.6-.17-7.64.48-14.38,1.53a208.38,208.38,0,0,1,4-44.69A392.93,392.93,0,0,1,1274.62,1145.61Z" transform="translate(-507 -247)"/><path class="cls-5" d="M1192.71,1249.11l0,.3a199.75,199.75,0,0,1-28.33-16.06,65.13,65.13,0,0,1-19.6-21.55,65.27,65.27,0,0,0,19.38,21.16,200.2,200.2,0,0,0,28.51,16.15Z" transform="translate(-507 -247)"/><path d="M1368.35,1119.46a522.25,522.25,0,0,1,4.28,84.17,75.36,75.36,0,0,1-12.77,5.31c-11.14-27.35-22-56-31.47-86a98.49,98.49,0,0,1,20.25-13.23c5.94-2.84,12.92.46,12.25,6.78-.16,1.51-.42,3.15-.79,4.89A79.25,79.25,0,0,1,1368.35,1119.46Z" transform="translate(-507 -247)"/><path class="cls-5" d="M1329.39,1214.88h-.05c-2.8-13.92-4.85-28-6.24-41.47a.42.42,0,0,1,0,.09C1324.53,1186.95,1326.59,1201,1329.39,1214.88Z" transform="translate(-507 -247)"/><path class="cls-5" d="M1312.73,1140.22c-.72,1.6-1.44,3.3-2.08,5.08-.14-.3-.3-.59-.45-.88Q1311.38,1142.24,1312.73,1140.22Z" transform="translate(-507 -247)"/><path class="cls-5" d="M1214.66,1067.94l-1.14,52.67c-6.37,1.13-12.54,2.53-15.3,3.85-1.89.91-7.93,3.8-10.39,8.08,1.36-28,5.19-53.09,12.38-73.29A62.84,62.84,0,0,1,1214.66,1067.94Z" transform="translate(-507 -247)"/><path class="cls-5" d="M1357.23,1311.6a.86.86,0,0,1-.07.28q-7.72-3.34-15.51-6.45l-.13-.37Q1349.4,1308.24,1357.23,1311.6Z" transform="translate(-507 -247)"/><path class="cls-6" d="M1187.26,1159.51q0,6.71.18,13.57C1164,1177.78,1181.75,1163.69,1187.26,1159.51Z" transform="translate(-507 -247)"/><path class="cls-5" d="M1219.52,1164.06l-3.5,1C1217.08,1164.69,1218.26,1164.37,1219.52,1164.06Z" transform="translate(-507 -247)"/><path class="cls-6" d="M1370.69,1235q-.81,8.81-2,17.54c-5.31-12.79-11-26.73-16.82-41.35,2.74-.66,5.4-1.41,8-2.24Q1365.25,1222.2,1370.69,1235Z" transform="translate(-507 -247)"/><path class="cls-6" d="M1240.75,1144.51a25.16,25.16,0,0,1,2.88,3.93c-5-5.94-15.47-8.52-24.77-8.54-.14-1.7-.28-3.39-.37-5.09C1225.76,1135.28,1234.57,1137.55,1240.75,1144.51Z" transform="translate(-507 -247)"/><path class="cls-5" d="M1322.81,1170.51c.08,1,.16,1.92.29,2.89q-6.33-14.12-12.81-27.11c.13-.33.24-.67.37-1Q1317,1157.61,1322.81,1170.51Z" transform="translate(-507 -247)"/><path d="M1232.37,1042.78c.55.42,1.09.87,1.63,1.32-.21,4.69-3.94,11.25-8.36,16.56A147.2,147.2,0,0,1,1232.37,1042.78Z" transform="translate(-507 -247)"/><path d="M1323.14,1173.5a.42.42,0,0,0,0-.09c-.08-1-.16-1.93-.29-2.89v.05C1322.94,1171.53,1323,1172.52,1323.14,1173.5Z" transform="translate(-507 -247)"/><path class="cls-5" d="M1191.59,1145.14c3.84,4.42,7.27,5.48,6.8,7-.57,2-5,2.68-9.89,6.41l-1.27,1q0-10.23.29-20A24.89,24.89,0,0,0,1191.59,1145.14Z" transform="translate(-507 -247)"/><path class="cls-5" d="M1274.74,1145.82c14.8,25.38,26.21,51.61,37.52,80.77a275,275,0,0,1-45,9.4,127.64,127.64,0,0,1-28.14.19c-7.71-24.51-13.81-48.94-17.45-72.64,7.11-1.56,16.28-3,24.93-8.11,10.39-3.41,19.67-6.66,28-9.84Z" transform="translate(-507 -247)"/><path class="cls-6" d="M1242.49,1246.64q-1.73-5.22-3.41-10.45a127.64,127.64,0,0,0,28.14-.19,275,275,0,0,0,45-9.4c9.13,23.53,18.2,49,28.92,77.57-27.77-10.71-61.17-22.3-90-32.74h0Q1246.63,1259,1242.49,1246.64Z" transform="translate(-507 -247)"/><path class="cls-5" d="M1320.85,1126.23c0,1.26,0,2.56,0,3.84a74.12,74.12,0,0,0-8.09,10.15A64.73,64.73,0,0,1,1320.85,1126.23Z" transform="translate(-507 -247)"/><path d="M1351.91,1211.24c-3.5.86-7.14,1.58-10.86,2.19-5.81-14.56-11.84-28.89-18.21-42.88-.56-5.86-1-11.6-1.34-17.15a2.16,2.16,0,0,1,0-.24c-.13-1.64-.17-3.27-.25-4.88a1.44,1.44,0,0,1,0-.19c-.11-2.47-.2-4.89-.27-7.26q-.07-2.77-.11-5.46c0-1.8,0-3.57,0-5.3q.67-.72,1.37-1.42C1330.92,1156.65,1341.52,1185,1351.91,1211.24Z" transform="translate(-507 -247)"/><path class="cls-5" d="M1246.57,1155.45l-2.16-5.5A28.31,28.31,0,0,1,1246.57,1155.45Z" transform="translate(-507 -247)"/><path class="cls-5" d="M1246.57,1155.45a28.31,28.31,0,0,0-2.16-5.5l-.35-.9A12.19,12.19,0,0,1,1246.57,1155.45Z" transform="translate(-507 -247)"/><path class="cls-6" d="M1216.07,1069q3,3.12,5.87,6.21a208.38,208.38,0,0,0-4,44.69c-1.45.23-2.92.47-4.38.73l1.14-52.67,1.39,1.05Z" transform="translate(-507 -247)"/><path class="cls-6" d="M1351.56,1331.35q-1.07,3.5-2.22,6.92a103.46,103.46,0,0,0-12.79-34.88c1.71.71,3.4,1.35,5.1,2Q1346.38,1318,1351.56,1331.35Z" transform="translate(-507 -247)"/><path class="cls-6" d="M1282.59,1346.36a175,175,0,0,0-13.94,24c-11.46,25.13-24.75,64.15-6,117.08q-11.92,12.88-25.11,24.68c-11-58.49-34.2-163.51-44.8-262.67,17.38,8.29,37.47,15.82,59,23.45C1261.08,1297.87,1271.67,1322.61,1282.59,1346.36Z" transform="translate(-507 -247)"/><path class="cls-5" d="M1197.43,1050.57c2.11-2.43,4.94-5.76,8.48-9.75-3,3.42-5.84,6.71-8.42,9.81Z" transform="translate(-507 -247)"/><path d="M1341,1213.39l-.92.15c-5.69-14-11.3-27.38-17-40-.08-1-.2-2-.3-2.94C1329.2,1184.49,1335.24,1198.84,1341,1213.39Z" transform="translate(-507 -247)"/><path class="cls-6" d="M1360.14,1299.91q-1.27,5.38-2.66,10.72c-5.14-2.14-10.59-4.25-16.3-6.46-10.72-28.57-19.78-54-28.92-77.57l1.61-.5c8,17.83,19.61,35.08,31.74,49.92A175.17,175.17,0,0,0,1360.14,1299.91Z" transform="translate(-507 -247)"/><path class="cls-5" d="M1315.8,1414.41a389.85,389.85,0,0,1-53.14,73c-18.75-52.92-5.46-92,6-117.08a175,175,0,0,1,13.94-24C1293.62,1370.31,1305,1393.24,1315.8,1414.41Z" transform="translate(-507 -247)"/><path class="cls-5" d="M1251.61,1272.48a1.3,1.3,0,0,0,.14.37c-21.54-7.62-41.63-15.16-59-23.45l0-.3C1210.06,1257.37,1230.11,1264.88,1251.61,1272.48Z" transform="translate(-507 -247)"/><path class="cls-6" d="M1187.83,1132.52q-.18,3.43-.28,7A7.13,7.13,0,0,1,1187.83,1132.52Z" transform="translate(-507 -247)"/><path d="M1340.13,1213.55c-3.52.55-7.12,1-10.73,1.33-2.8-13.9-4.84-27.93-6.25-41.38C1328.83,1186.17,1334.44,1199.52,1340.13,1213.55Z" transform="translate(-507 -247)"/><path class="cls-5" d="M1335.82,1302.14c.17.28.33.57.48.81l-2.19-.84A16.21,16.21,0,0,1,1335.82,1302.14Z" transform="translate(-507 -247)"/><path d="M1359.86,1209c-2.55.83-5.21,1.58-8,2.24-10.38-26.18-21-54.59-29.72-82.55,2-2,4.1-3.94,6.21-5.73C1337.85,1153,1348.72,1181.64,1359.86,1209Z" transform="translate(-507 -247)"/><path class="cls-5" d="M1309.76,1145.22l.52,1a105.93,105.93,0,0,0-6.42,36.23,64.79,64.79,0,0,1,2.74-30.2A53.08,53.08,0,0,1,1309.76,1145.22Z" transform="translate(-507 -247)"/><path class="cls-6" d="M1217.91,1119.89q.07,7.37.57,14.89c-1.88-.13-3.65-.14-5.26-.1l.31-14.06C1215,1120.35,1216.46,1120.11,1217.91,1119.89Z" transform="translate(-507 -247)"/><path class="cls-5" d="M1215.47,1030.39l-1.65,1.75-1.62,1.74-1.57,1.72q-2.45,2.67-4.58,5.08l-.13.14c-3.55,4-6.37,7.35-8.48,9.75A230.65,230.65,0,0,1,1215.47,1030.39Z" transform="translate(-507 -247)"/><path class="cls-6" d="M1244.11,1149l.35.9c-.25-.5-.53-1-.84-1.51C1243.79,1148.64,1243.93,1148.84,1244.11,1149Z" transform="translate(-507 -247)"/><path class="cls-5" d="M1372.63,1203.65q-.48,15.79-1.95,31.37-5.41-12.83-10.83-26A75.36,75.36,0,0,0,1372.63,1203.65Z" transform="translate(-507 -247)"/><path class="cls-6" d="M1232.28,1118.35l11.83,30.69c-.15-.21-.32-.41-.49-.61a25.16,25.16,0,0,0-2.88-3.93c-6.17-7-15-9.23-22.27-9.73q-.5-7.52-.57-14.89C1224.6,1118.83,1230.68,1118.18,1232.28,1118.35Z" transform="translate(-507 -247)"/><path class="cls-6" d="M1218.48,1134.78c.14,1.7.23,3.39.37,5.09a45.49,45.49,0,0,0-5.75.33l.12-5.56C1214.82,1134.63,1216.6,1134.65,1218.48,1134.78Z" transform="translate(-507 -247)"/><path d="M1285.86,1141.18c-3.73,1.6-7.47,3.17-11.13,4.64l-.12-.21C1278.53,1144.12,1282.3,1142.64,1285.86,1141.18Z" transform="translate(-507 -247)"/><path d="M1216.07,1069l-1.39-1.05,0-.38Z" transform="translate(-507 -247)"/><path class="cls-5" d="M1357.48,1310.61c-.08.32-.16.65-.25,1q-7.83-3.38-15.71-6.55h0l-.33-.89C1346.88,1306.36,1352.34,1308.52,1357.48,1310.61Z" transform="translate(-507 -247)"/><path class="cls-5" d="M1320.87,1124.63l0,1.61a64.73,64.73,0,0,0-8.12,14q-1.34,2-2.52,4.19-2.93-5.73-6-11.29c5.64-2.66,10.79-5.29,15.56-7.9Z" transform="translate(-507 -247)"/><path class="cls-5" d="M1310.2,1144.39c.15.29.3.59.45.88-.13.33-.24.66-.37,1l-.52-1Z" transform="translate(-507 -247)"/><path class="cls-5" d="M1336.31,1303l.24.4-3.16-1.23.7-.06h0Z" transform="translate(-507 -247)"/><path class="cls-5" d="M1341.18,1304.16l.33.89c-1.76-.71-3.46-1.42-5.19-2.07-.16-.28-.32-.56-.48-.81a16.21,16.21,0,0,0-1.71,0h0c-28.14-11-56.38-20.4-82.49-29.64l-.4-1.08C1280,1281.84,1313.41,1293.45,1341.18,1304.16Z" transform="translate(-507 -247)"/><path d="M1215.47,1030.39l-.81,37.17q-6.12-6.32-12.78-12.74A96.77,96.77,0,0,1,1215.47,1030.39Z" transform="translate(-507 -247)"/><path d="M1213.83,1032.14l1.65-1.75a96.77,96.77,0,0,0-13.59,24.43l-4.39-4.2c2.58-3.09,5.4-6.41,8.42-9.81l.13-.14q2.21-2.49,4.58-5.08l1.57-1.72Z" transform="translate(-507 -247)"/><path class="cls-5" d="M1309.76,1145.22a53.08,53.08,0,0,0-3.12,7.08,64.79,64.79,0,0,0-2.74,30.2,98.76,98.76,0,0,0,5.7,33q1.9,5.34,4.28,10.62l-1.61.5c-11.31-29.19-22.72-55.39-37.52-80.77,3.66-1.48,7.43-3,11.13-4.64,6.46-2.64,12.37-5.24,17.77-7.79Q1306.73,1139.19,1309.76,1145.22Z" transform="translate(-507 -247)"/><path d="M1234,1043.43c28,22.45,50.71,53.71,70.18,89.57l-.62.29c-19.41-36.28-41.07-65.75-69.58-89.17A5.37,5.37,0,0,0,1234,1043.43Z" transform="translate(-507 -247)"/><path class="cls-5" d="M1213.83,1032.14l-1.62,1.74Z" transform="translate(-507 -247)"/><path class="cls-5" d="M1210.62,1035.6q-2.35,2.57-4.58,5.08Q1208.17,1038.27,1210.62,1035.6Z" transform="translate(-507 -247)"/><path class="cls-5" d="M1251.22,1271.41l.4,1.08c-21.5-7.63-41.55-15.11-58.9-23.34h0l-.11-1.31c9.37,4.76,27,12,47.85,19.68l10.78,3.94Z" transform="translate(-507 -247)"/><path class="cls-5" d="M1329.34,1214.88l-5.42.44c-10.47-3.92-17.85-17.31-20-32.82a105.93,105.93,0,0,1,6.42-36.23q6.52,13,12.81,27.11C1324.49,1186.89,1326.54,1201,1329.34,1214.88Z" transform="translate(-507 -247)"/><path d="M1232.59,1042.3c.46.35.91.71,1.37,1.07l-1.38-1Z" transform="translate(-507 -247)"/><path class="cls-6" d="M1221.65,1163.45a.42.42,0,0,0,0,.1c-.74.17-1.46.33-2.15.51Z" transform="translate(-507 -247)"/><path d="M1360.46,1298.51v.06a139.64,139.64,0,0,1-7.93-13.49A139.53,139.53,0,0,0,1360.46,1298.51Z" transform="translate(-507 -247)"/><path d="M1304.19,1133l.06.12c-.2.1-.41.2-.62.29l-.07-.12Z" transform="translate(-507 -247)"/><path d="M1234,1044.1c28.49,23.39,50.15,52.9,69.58,89.17-5.56,2.61-11.61,5.31-17.7,7.91-3.57,1.46-7.3,2.94-11.25,4.43-13.77-23.62-30.44-46.46-52.68-70.39q1.53-7.42,3.69-14.55h0C1230.06,1055.35,1233.79,1048.79,1234,1044.1Z" transform="translate(-507 -247)"/><path class="cls-6" d="M1190.35,1224.51q.95,11.55,2.22,23.28c-1.7-.86-3.13-1.64-4.25-2.33-30.3-13.92-43.14-31.45-45.92-41.86C1142.4,1203.64,1160.81,1214.93,1190.35,1224.51Z" transform="translate(-507 -247)"/><path class="cls-6" d="M1213.22,1134.71l-.12,5.56a45.49,45.49,0,0,1,5.75-.33c.63,7.75,1.58,15.6,2.78,23.55l-2.13.61c-1.25.31-2.43.63-3.5,1h-.09a174.6,174.6,0,0,1-25.54,7.33c-1,.25-2,.46-2.94.64q-.16-6.86-.18-13.57l1.27-1c4.93-3.73,9.32-4.44,9.89-6.41.44-1.52-3-2.58-6.8-7a24.89,24.89,0,0,1-4.07-5.64q.11-3.52.28-7c2.46-4.28,8.5-7.17,10.39-8.08,2.76-1.33,8.93-2.73,15.3-3.85Z" transform="translate(-507 -247)"/><path d="M1232.59,1042.29h0c-7.51-5.65-8-6-17.1-11.94A175.39,175.39,0,0,1,1232.59,1042.29Z" transform="translate(-507 -247)"/><path class="cls-5" d="M1341.52,1305.09l.13.37c-1.71-.71-3.4-1.37-5.1-2l-.24-.4,5.19,2.07Z" transform="translate(-507 -247)"/><path class="cls-5" d="M1197.43,1050.57l.06.05q-2.17,2.61-4.1,5C1194.78,1053.87,1196.12,1052.18,1197.43,1050.57Z" transform="translate(-507 -247)"/><path d="M1197.51,1050.62l4.39,4.2q-.87,2.19-1.67,4.44c-2-.87-4.21-1.85-7.14-3.22l.32-.4Q1195.34,1053.23,1197.51,1050.62Z" transform="translate(-507 -247)"/><path d="M1389.87,1142.44c4,3.65,5.19,11.32,5.52,15.38s-3.09,8.49-7.16,11.68c5.55,15.65-1.86,26.77-15.62,34.17a522.25,522.25,0,0,0-4.26-84.21C1394.79,1115,1392,1133.26,1389.87,1142.44Z" transform="translate(-507 -247)"/><path class="cls-6" d="M1340.13,1213.55l.92-.15c3.72-.6,7.36-1.33,10.86-2.19,5.79,14.62,11.53,28.56,16.82,41.35q-2.71,21-7.23,41.4c-3.33-3.46-6.73-7.18-10.13-11.12h0c-9.89-19.75-17.06-43.66-22-68C1333,1214.54,1336.61,1214.1,1340.13,1213.55Z" transform="translate(-507 -247)"/><path d="M1357.16,1311.88q-2.61,9.82-5.59,19.47-5.22-13.38-9.92-25.92Q1349.43,1308.55,1357.16,1311.88Z" transform="translate(-507 -247)"/><path class="cls-6" d="M1244.45,1149.95l2.16,5.5c-7.67,3.19-16.35,5.6-24.94,8q-1.83-11.92-2.78-23.55c9.3,0,19.76,2.6,24.77,8.54C1243.94,1148.94,1244.2,1149.45,1244.45,1149.95Z" transform="translate(-507 -247)"/><path class="cls-5" d="M1221.67,1163.55c3.65,23.7,9.74,48.13,17.45,72.64-17.46-1.76-33-6.69-47.3-11.21l-1.47-.47c-1.49-17.58-2.51-34.83-2.91-51.44.91-.19,1.9-.39,2.94-.64a174.6,174.6,0,0,0,25.54-7.33h.09l3.5-1C1220.21,1163.88,1220.93,1163.72,1221.67,1163.55Z" transform="translate(-507 -247)"/><path class="cls-6" d="M1246.57,1155.45c-8.63,5.12-17.8,6.58-24.93,8.11a.42.42,0,0,1,0-.1C1230.22,1161,1238.9,1158.68,1246.57,1155.45Z" transform="translate(-507 -247)"/><path class="cls-5" d="M1320.81,1130.07c0,1.71,0,3.51,0,5.3s.06,3.61.11,5.46q.1,3.57.27,7.26a1.44,1.44,0,0,0,0,.19c.07,1.61.15,3.23.25,4.88a2.16,2.16,0,0,0,0,.24c.32,5.55.76,11.27,1.31,17.1q-5.87-12.88-12.16-25.24c.71-1.76,1.37-3.47,2.08-5.08A74.12,74.12,0,0,1,1320.81,1130.07Z" transform="translate(-507 -247)"/><path class="cls-5" d="M1336.55,1303.39a103.46,103.46,0,0,1,12.79,34.88,423.69,423.69,0,0,1-33.55,76.12c-10.8-21.17-22.18-44.1-33.2-68.05,13.94-20.51,34.17-43.06,50.8-44.2Z" transform="translate(-507 -247)"/><path d="M1214.67,1067.56l0,.38a62.84,62.84,0,0,0-14.45-8.68q.8-2.27,1.67-4.44Q1208.55,1061.26,1214.67,1067.56Z" transform="translate(-507 -247)"/><path d="M1232.58,1042.33c-.07.14-.14.28-.2.43q-8.07-6.52-16.9-12.38C1224.55,1036.35,1225.07,1036.69,1232.58,1042.33Z" transform="translate(-507 -247)"/><path class="cls-6" d="M1304.19,1133c6-2.81,11.41-5.5,15.64-7.78-4.79,2.61-9.94,5.24-15.56,7.9Z" transform="translate(-507 -247)"/><path d="M1225.63,1060.67q-2.16,7.12-3.69,14.55-2.88-3.09-5.87-6.21C1218.91,1067.65,1222.45,1064.48,1225.63,1060.67Z" transform="translate(-507 -247)"/><path class="cls-6" d="M1333.39,1302.15c-16.63,1.15-36.86,23.7-50.8,44.2-10.93-23.75-21.52-48.48-30.84-73.5C1277.59,1282,1305.53,1291.29,1333.39,1302.15Z" transform="translate(-507 -247)"/><path class="cls-5" d="M1310.2,1144.39l-.44.83q-3.05-6-6.13-11.83c.21-.09.41-.19.62-.29Q1307.28,1138.68,1310.2,1144.39Z" transform="translate(-507 -247)"/><path d="M1320.85,1135.38c0-1.8,0-3.57,0-5.3C1320.81,1131.81,1320.82,1133.59,1320.85,1135.38Z" transform="translate(-507 -247)"/><path class="cls-6" d="M1355.37,1052.77c-4.63-2.72-9.13-3.84-13.32-2.59a34.69,34.69,0,0,0-6.25,2.58,33.47,33.47,0,0,0-16.85,37.91q4.4,16.4,9.46,32.25c-2.11,1.79-4.2,3.7-6.21,5.73-.31-1-.61-2-.91-2.94l-.42.51,0-1.61-1,.57c-4.23,2.28-9.64,5-15.64,7.78-19.51-35.85-42.19-67.1-70.21-89.55l0,0-1.37-1.07h0c11.59-25.2,30.52-46.7,59-62.84A172.87,172.87,0,0,1,1323.93,965,504.08,504.08,0,0,1,1355.37,1052.77Z" transform="translate(-507 -247)"/><path d="M1361.49,1294c-.34,1.52-.67,3-1,4.55a139.53,139.53,0,0,1-8-13.43c-.38-.74-.76-1.47-1.14-2.23C1354.76,1286.78,1358.16,1290.49,1361.49,1294Z" transform="translate(-507 -247)"/><path d="M1232.37,1042.77h0a147.2,147.2,0,0,0-6.74,17.89h0c-3.18,3.81-6.71,7-9.56,8.34h0l-1.39-1.44.79-37.17Q1224.32,1036.26,1232.37,1042.77Z" transform="translate(-507 -247)"/><path class="cls-4" d="M1323.93,965a172.87,172.87,0,0,0-32.34,14.43c-28.48,16.16-47.44,37.67-59,62.84" transform="translate(-507 -247)"/><path class="cls-4" d="M1192.74,1249.41c10.6,99.16,33.77,204.18,44.8,262.67" transform="translate(-507 -247)"/><path class="cls-4" d="M1234,1043.43c28,22.45,50.71,53.71,70.18,89.57l.06.12" transform="translate(-507 -247)"/><path class="cls-4" d="M1215.47,1030.39a175.39,175.39,0,0,1,17.12,11.9h0c.46.35.91.71,1.37,1.07" transform="translate(-507 -247)"/><path class="cls-4" d="M1274.62,1145.61c-13.77-23.62-30.44-46.46-52.68-70.39q-2.88-3.09-5.87-6.21" transform="translate(-507 -247)"/><path class="cls-4" d="M1351.56,1331.35q-5.22-13.38-9.92-25.92" transform="translate(-507 -247)"/><path class="cls-4" d="M1351.91,1211.24c5.79,14.62,11.53,28.56,16.82,41.35" transform="translate(-507 -247)"/><path class="cls-4" d="M1320.85,1126.23l.42-.51c.3,1,.6,2,.91,2.94" transform="translate(-507 -247)"/><path class="cls-4" d="M1361.49,1294c-3.33-3.46-6.73-7.18-10.13-11.12" transform="translate(-507 -247)"/><path class="cls-4" d="M1052,1603.07" transform="translate(-507 -247)"/><path class="cls-4" d="M981,735.23c163.23,5,281.06,97.84,342.91,229.77a504.08,504.08,0,0,1,31.45,87.77,554.16,554.16,0,0,1,11.67,57.41q.7,4.65,1.31,9.28a522.25,522.25,0,0,1,4.28,84.17q-.48,15.79-1.95,31.37-.81,8.81-2,17.54-2.71,21-7.23,41.4c-.34,1.52-.67,3-1,4.55v.06l-.3,1.33q-1.27,5.38-2.66,10.72c-.08.32-.16.65-.25,1a.86.86,0,0,1-.07.28q-2.61,9.82-5.59,19.47-1.07,3.5-2.22,6.92a423.69,423.69,0,0,1-33.55,76.12,389.85,389.85,0,0,1-53.14,73q-11.92,12.88-25.11,24.68a378.6,378.6,0,0,1-122.17,73.17" transform="translate(-507 -247)"/><path class="cls-4" d="M1320.81,1130.07q.67-.72,1.37-1.42c2-2,4.1-3.94,6.21-5.73a98.49,98.49,0,0,1,20.25-13.23c5.94-2.84,12.92.46,12.25,6.78-.16,1.51-.42,3.15-.79,4.89a79.25,79.25,0,0,1,8.2-1.88c26.44-4.51,23.59,13.79,21.5,22.92,4,3.65,5.19,11.32,5.52,15.38s-3.09,8.49-7.16,11.68c5.55,15.65-1.86,26.77-15.62,34.17a75.36,75.36,0,0,1-12.77,5.31c-2.55.83-5.21,1.58-8,2.24-3.5.86-7.14,1.58-10.86,2.19l-.92.15c-3.52.55-7.12,1-10.73,1.33h-.05" transform="translate(-507 -247)"/><path class="cls-4" d="M1319.83,1125.2c-4.79,2.61-9.94,5.24-15.56,7.9-.2.1-.41.2-.62.29-5.42,2.56-11.3,5.15-17.77,7.79-3.57,1.46-7.3,2.94-11.25,4.43-8.37,3.18-17.65,6.44-28,9.84a12.19,12.19,0,0,0-2.47-6.4" transform="translate(-507 -247)"/><path class="cls-4" d="M1320.85,1135.38c0-1.8,0-3.57,0-5.3" transform="translate(-507 -247)"/><path class="cls-4" d="M1321.22,1148.1c-.11-2.47-.2-4.89-.27-7.26" transform="translate(-507 -247)"/><path class="cls-4" d="M1321.48,1153.16c-.13-1.64-.17-3.27-.25-4.88" transform="translate(-507 -247)"/><path class="cls-4" d="M1351.35,1282.85c-9.89-19.75-17.06-43.66-22-68-2.8-13.9-4.84-27.93-6.25-41.38-.08-1-.2-2-.3-2.94-.56-5.86-1-11.6-1.34-17.15" transform="translate(-507 -247)"/><path class="cls-4" d="M1360.44,1298.58a139.64,139.64,0,0,1-7.93-13.49" transform="translate(-507 -247)"/><path class="cls-4" d="M1193.08,1056c-18.88,24.22-44,62.82-54.72,106.23a67.69,67.69,0,0,0,6.45,49.52,65.13,65.13,0,0,0,19.6,21.55,199.75,199.75,0,0,0,28.33,16.06c17.38,8.29,37.47,15.82,59,23.45,25.84,9.15,53.78,18.43,81.64,29.3l3.16,1.23c1.71.71,3.4,1.35,5.1,2q7.78,3.13,15.51,6.45" transform="translate(-507 -247)"/><path class="cls-4" d="M1215.47,1030.39a230.65,230.65,0,0,0-18,20.18c-1.31,1.61-2.66,3.31-4,5.07" transform="translate(-507 -247)"/><path class="cls-4" d="M1225.63,1060.67c-3.18,3.81-6.71,7-9.56,8.34h0l-1.39-1.05a62.84,62.84,0,0,0-14.45-8.68c-2-.87-4.21-1.85-7.14-3.22l.32-.4q1.94-2.41,4.1-5c2.58-3.09,5.4-6.41,8.42-9.81l.13-.14q2.21-2.49,4.58-5.08l1.57-1.72,1.62-1.74,1.65-1.75c9.08,6,9.59,6.3,17.1,11.94l1.38,1" transform="translate(-507 -247)"/><path class="cls-4" d="M1234,1043.43a2.66,2.66,0,0,1,0,.68c-.21,4.69-3.94,11.25-8.36,16.56" transform="translate(-507 -247)"/><path class="cls-4" d="M1246.57,1155.45a28.31,28.31,0,0,0-2.16-5.5c-.25-.5-.53-1-.84-1.51a25.16,25.16,0,0,0-2.88-3.93c-6.17-7-15-9.23-22.27-9.73-1.88-.13-3.65-.14-5.26-.1a50.17,50.17,0,0,0-7.93.84" transform="translate(-507 -247)"/><path class="cls-4" d="M1246.57,1155.45c-7.67,3.19-16.35,5.6-24.94,8l-2.13.61-3.5,1h-.09c-2.82.84-5.6,1.7-8.32,2.63" transform="translate(-507 -247)"/><path class="cls-4" d="M1235.27,1245.53c2.29.4,4.7.77,7.22,1.12a150.5,150.5,0,0,0,15.45,1.16,159.61,159.61,0,0,0,46-5.67" transform="translate(-507 -247)"/><path class="cls-4" d="M1360.46,1298.51a139.53,139.53,0,0,1-8-13.43c-.38-.74-.76-1.47-1.14-2.23h0c-9.94-19.73-17.12-43.65-22-68-2.8-13.92-4.85-28-6.24-41.47-.08-1-.16-1.93-.29-2.89-.55-5.83-1-11.56-1.31-17.1a2.16,2.16,0,0,1,0-.24c-.13-1.64-.18-3.27-.25-4.88a1.44,1.44,0,0,1,0-.19q-.17-3.7-.27-7.26-.07-2.77-.11-5.46c0-1.8,0-3.57,0-5.3,0-1.3,0-2.56,0-3.84l0-1.61-1,.57c-4.23,2.28-9.64,5-15.64,7.78l-.62.29c-5.56,2.61-11.61,5.31-17.7,7.91-3.73,1.6-7.47,3.17-11.13,4.64-11.26,4.55-21.62,8.27-28,9.76" transform="translate(-507 -247)"/><path class="cls-4" d="M1341.52,1305.09q7.89,3.19,15.71,6.55" transform="translate(-507 -247)"/><path class="cls-4" d="M1334.12,1302.12l2.2.87,5.19,2.07" transform="translate(-507 -247)"/><path class="cls-4" d="M1192.71,1249.11c17.35,8.26,37.41,15.77,58.9,23.34,26.1,9.24,54.34,18.59,82.49,29.64" transform="translate(-507 -247)"/><path class="cls-4" d="M1215.26,1030c-8,7.48-60.26,63.75-77.09,131.89a67.64,67.64,0,0,0,6.64,49.9A65.27,65.27,0,0,0,1164.2,1233a200.2,200.2,0,0,0,28.51,16.15" transform="translate(-507 -247)"/><path class="cls-7" d="M1088.15,976.52c-15.75,2.47-24.72-5.13-24.49-7.38,0,0,10.17-1.69,10.74-4.34,1.37-6.08-42,6.6-61.1-26.33-9.88-17-11.83-39.85-9.27-49.78.22-.87-3.51-7.39-3.05-10.74.23-1.72,7.09-.51,6.32-1.52-2.06-2.71-4-7.69-.65-12.16,1.23-1.59,6,6.47,11.39,5-1.11-3.1-1.4-5.39,0-7.59,4.64,1.11,2.91,2.59,8.22,2.54,10.66-1.33,32,2.81,53.06,4.39,20.53-9.73,33.4-46.88,46.76-51.36a1.62,1.62,0,0,1,2,1l0,.13c1.29,5.3-3.61,14.73-3.61,14.73,6.69,3.72,11.48-31.8,42.28-40.45,1.58,1.07-8,15-5.19,17.49,15.71-7.77,20.44-10.9,23.74-15.53,7.3-12.91-1.85-37.84,12.4-51.73.86-5.1,1.41-9.5,3.24-9.86,2.1-.45,3.06,4.13,4.82,2.93.8-.6.79-6.13-.17-9.52,7.27-4.27,11.55,6.19,12.47,5.55,1.36-.84.76-4.8,1-5.34,1.49-1,6.13,3.24,10.86,8.54,25.83,7.86,69.51,28.07,47.27,81.65,3.25,5.47,8-4.07,12.15-7.89,5.08,12.59-2.74,30.26-1.2,33" transform="translate(-507 -247)"/><path class="cls-8" d="M1092.54,1063.28c6.31-18.51,8.19-38-.52-71.41-10.18-39.08-28.73-112.54,43.8-159.61,87.6-56.86,125.19-14.64,188.23,41.52,16.71,14.89,30.52,14.57,42.72,7.46.67,6-2.8,10.19-6.05,12.87,6.51,3.73,9.61,6.12,10.6,13.08-5-4.4-13.45-3.17-13.45-3.17,10.08,18.91-.51,38.13-16.22,68.73-2.7,5.27-12.87,53.4-47.17,75.69-49.41,32.13-92.08,23-102.5,22.89-19.09.91-40.94,12.82-74.84-1.65-2.19,2.8-4.17,3.59-6.4,10.63-3-1.06-5.82-8.56-4-18C1100.88,1066.1,1094.29,1066,1092.54,1063.28Z" transform="translate(-507 -247)"/><path class="cls-3" d="M1120,1057.5c-3,.84-8.13-3.46-11.15-11.09a20.92,20.92,0,0,1-1.22-9.88c2.16-19.8.5-29.37-3.07-45.94-.72-3.35-1.24-6.72-1.68-10.1q-.49-3.8-1.34-7.57c-5.48-24.29-9.22-40.47-7.35-53.42,6.42-20.2,18.36-23,16.47-24.22-5.41-3-15.47,2.12-15.47,2.12-1.83-7.71,28.71-19.7,35.12-26.91-6.62-2.25-12.65-.12-13.17-3.49,0,0,20.49-3.13,38.67-16a143,143,0,0,0,25.93-24.22c2.39,1.27.39,6.88,1.49,11.39,9.17-.43,31.14-23.18,34.74-20.2,0,0-5.69,7.73-5,11.29,8.57-2.3,13.06-3.42,19.21-4.13a31.46,31.46,0,0,1,18.48,3.27c17.38,9.21,27.61,31.49,63.44,52.53,15.94,9.36,33.22,12.15,34.53,19.07,0,0-8.92-1.74-14.63.67,2.28,3.84,13.56,11.57,12.43,13.7a25,25,0,0,0-8.31.39c2.68,4,5.18,8.53,5.7,14.24.66,7.19-7.85,29.93-22.63,40.68a23,23,0,0,0-8.84,12.27c-2.38,8.5-9.46,17.08-19.2,16.42-1.39-.1,5-5,6.89-9.67-4.22-.93.4-3.45-1.21-3.52,1.19-6.8-3.89,2.88-6.08-.23-21,29-53.22-.2-53.22-.2s19.21,49.53-31.4,42.11c1.64,2.15,8.08,6.24,8,7.81-3.69.63-4.13,4.47-4.49,7.67,7.39-4.2,16.69-5.63,15.95-3.86-8.45,20.88-13.72,7.09-34.82,12.33-18,4.44-24.71,8.39-33.74,10.2a22.19,22.19,0,0,1-22-8c-.38-.49-.75-1-1.11-1.52-2.32.94-2.76,4-2.58,7.89-2.19.4-8.07-11.75-8.83-16.34C1117.56,1048.38,1120.37,1056.82,1120,1057.5Z" transform="translate(-507 -247)"/><path class="cls-9" d="M1366.73,881.24c.67,6-2.8,10.19-6.05,12.87" transform="translate(-507 -247)"/><path class="cls-9" d="M1324,873.78" transform="translate(-507 -247)"/><path class="cls-4" d="M1127.17,829.91" transform="translate(-507 -247)"/><path class="cls-4" d="M1127.51,816.89" transform="translate(-507 -247)"/><path class="cls-4" d="M1079.33,868.61" transform="translate(-507 -247)"/><path class="cls-5" d="M1157.71,1010.73c-3.15-3.65-2.69-5.14-1.55-6.44,3.8,3,13.17,6.82,18.7,3.84-2.24-8.61,13.16-26.89,15.29-29.31,1.5.62,1,5.27,1.4,5.3,8.82-5,4.36-29.44,5.72-34.36,4.16-.34,21.68,13.16,18.46,32,12.13,5.1,32-7.88,31.93-20.1-19.06-8.24-24.54-25.64-23-28.79,3.59-.77,24.36,10.39,36.92,9.78-3.55-2.77-3.75-4.1-3.2-5.38,4.38,1.35,26.77,8.1,36.47,4.91,4.31-8.81.71-21.61,3.45-22.12,1.68-.32,4,3.31,5,5.45,2.18-3.39,6.18-23.06-4.35-39.11-13.11-20-44.79-24.11-63-13.44a63.19,63.19,0,0,0-27.71,31.86c-6.58-3.73-5-17.46-5-17.46-2.3-.39-7.53,3.85-9.66,12-2-3.18-12.76-10-14.77-8.18s0,10,2.11,17.06c-.6,1.63-9.35-3.46-15,3.49,7.49,2.39,15.4,7.18,15.28,11.1-8.82-.69-18.05.55-31.91,8-21,11.23-35,41.68-26.18,61.47C1131,1009.84,1155.65,1013.76,1157.71,1010.73Z" transform="translate(-507 -247)"/><path class="cls-10" d="M1212.07,912a20.08,20.08,0,0,0,6.1,8.25c4.5,3.49,8.43,3.18,17.52,5.55,19.57,5.11,29.35,7.67,37.73,2.31,9.19-5.87,13.45-18.4,11.9-29.06-1.09-7.47-4.11-13.59-8.41-17.7-7-6.72-17.26-9.82-27-9.95-15.47-.19-31.62,4.66-36.85,11.92C1207.89,891.72,1208,902.22,1212.07,912Z" transform="translate(-507 -247)"/><path class="cls-10" d="M1251.84,1000.75c-.81.5-6.24-11.43-15.82-14.06-3-.84-5.54-1.06-14.26.6-6.38,1.2-13.72,2.7-17-.75-5.66-7.73,5.25-19.24,17.76-27.9s28-14.64,33.08-6.88c2.63,4.05-.66,7.73-4.59,14.65-3.24,5.73-5.59,8.65-6.41,13.55C1242.95,990.07,1252.66,1000.25,1251.84,1000.75Z" transform="translate(-507 -247)"/><path class="cls-3" d="M1212.33,972.88c-.77-.92,3.86-7.14,12.17-12.55,9.28-6,15.86-7.59,16.48-6.47C1242.13,955.86,1213.82,974.66,1212.33,972.88Z" transform="translate(-507 -247)"/><path class="cls-10" d="M1185.36,929.33a20.08,20.08,0,0,1,5.06,9c1.36,5.53-.53,9-2.06,18.27-3.3,20-4.95,29.93-13.27,35.42-9.11,6-22.29,4.79-31.39-1-6.38-4-10.73-9.29-12.74-14.89-3.31-9.11-1.95-19.76,1.92-28.72,6.12-14.2,17.13-27,25.9-28.81C1168.55,917.26,1178.09,921.64,1185.36,929.33Z" transform="translate(-507 -247)"/><path class="cls-5" d="M1270.62,946.92c-.1-1.21,8.59-3.26,16.21-3.42,4-.11,7.47.2,10.51,1.8,8.52,4.52,15.9,15.25,15.54,14.79-3.94-5.15-16.26-13.17-21.1-12.36,1.53,1.71,12.94,3.45,22.61,40.06,0,.32-13.4-32.25-29.43-38.93C1277.92,945.93,1270.7,948,1270.62,946.92Z" transform="translate(-507 -247)"/><path class="cls-5" d="M1193,997.3c-1.07-.58-6.45,6.5-9.73,13.41-1.73,3.61-2.85,6.9-2.63,10.33.66,9.62,7.45,20.72,7.17,20.21-3.1-5.72-5.38-20.2-2.7-24.31.94,2.09-2.13,13.22,27.38,37,.28.16-24-25.34-23.57-42.74C1189.09,1003.59,1193.95,997.84,1193,997.3Z" transform="translate(-507 -247)"/><path class="cls-4" d="M1192.5,1011c7.54,13.46,18.56,16,19.37,16.33,14.11,6.44,26.8-1.13,32.79-8.65a35.89,35.89,0,0,0,7.31-16.51" transform="translate(-507 -247)"/><path class="cls-4" d="M1288,953.76c14.33,22.08-.31,38-.87,38.51a36.16,36.16,0,0,1-16.62,9.64c-8.1,2.1-15.38-.23-18.56-1" transform="translate(-507 -247)"/><path class="cls-8" d="M1199.68,889.48c-1.18-.39-5.85-1.9-7.64-5.35-4.37-8.43,12.39-21,15.67-23.46,27.17-20.32,55.93-6.35,95.11-15.83,42.3-10.23,60.86-39.11,63.15-36.56,2.08,2.33-16.51,22.56-46.25,41.42-34,16.71-42.85,14.66-70.3,18.79a44.69,44.69,0,0,0-24,11.14C1218.06,886.49,1209.67,892.7,1199.68,889.48Z" transform="translate(-507 -247)"/><path class="cls-8" d="M1227.24,1003.21c-2.57-3.72-8.39-3.71-9.94-3.7-14.22,0-26.45,17.15-37.44,40.6-21.34,45.62-29.44,61.47-32.27,65.5-27.94,39.87-65.26,55.21-71.63,58.4-22.78,11.45-42.28,14.4-42.11,15s28.25-2.59,58.73-17.38c31.74-15.39,51.09-35.91,63.09-48.89,7.14-7.72,33.86-51.08,38.27-58.46C1213,1022.35,1232.13,1010.31,1227.24,1003.21Z" transform="translate(-507 -247)"/><path class="cls-3" d="M1216.77,1005.3a9.75,9.75,0,0,0-7.75.88c-7.84,4.05-13.9,12.31-14.84,13.78-9.53,14.93-14.16,29.52-15.1,31.71-1.48,3.45-7.43,20.23-16.13,36.53-6.74,12.57-12.28,20-19.62,29.32-16.69,21.19-35.37,30.27-35.11,30.63s14.42-7.87,30-22.36c15.06-14,22.59-27.63,25.75-32.33,5.63-8.38,8.51-16.25,15.76-29.77,2.27-4.22,6.66-15.33,14.06-26.89a97.56,97.56,0,0,1,10.14-13.69c5-5.41,8.86-7.2,10.9-8.85,3-2.43,4.49-2.76,4.77-5.51C1219.81,1006.88,1218.59,1006,1216.77,1005.3Z" transform="translate(-507 -247)"/><path class="cls-8" d="M1289.29,1014.16c-8.9-3.11-9.9-3.21-11.69-3.08-7.17.49-14.62,6.25-17.24,13.12-2,5.14,0,7.37-2.8,12.75-2.16,4.1-4.56,5.18-7.13,8.13-5.23,6-5.77,13.47-6.21,19.78-1.32,18.58,6.86,42.1,8.58,47.35,8.16,25.33,1.22,49-5.1,70.66-16.91,57.81-74,106.09-128.09,113.3-13.9,1.85-32.52,1.65-32.61,3.68-.1,2.28,23.12,6.45,41.88,6.5,54.26.13,118.35-34.19,147.83-87.63,15.6-28.34,19.9-59.21,25.09-58.27,3.13.6,4.26,12.4,2.57,22.39-3.46,20.27-18.57,32.81-17.56,33.7s11.1-6.38,20.27-19.28c10.11-14.24,13.4-27.89,17.8-47,3.86-16.76,6.18-26.79,6.4-41.33.26-16.65,1-29.82-5.61-55.4-6-23.4-14.07-30.48-20.79-33.74C1303.7,1019.2,1298.88,1017.52,1289.29,1014.16Z" transform="translate(-507 -247)"/><path class="cls-3" d="M1261.68,1042.46c-1.85-.7-6.56,5-7.41,6-4.66,5.62-4.53,9.6-4.68,11.74-1.09,16.3,6.11,42.77,8.42,58,2.64,17.51,2.93,32.23,1.45,41.76a156.75,156.75,0,0,1-22.28,60.05c-7.2,11.35-31.85,56.14-81.72,72a337.36,337.36,0,0,1-32.88,8.9s6.66-.37,25.88-3.18a238.46,238.46,0,0,0,32.15-8c44.3-14.33,73.23-48.83,76.24-52.51a174.69,174.69,0,0,0,34.63-74.3c7-35.2.75-64.46,4.34-65,3.06-.46,11.44,19.72,12.65,24.83,2.86,12.09,5.55,18.54,3.64,34.94-1.61,13.86-3.18,25.16-2.58,25.35.77.24,2-8.87,6.85-26.8,4.11-15.24,4.89-27.85,6.28-52.44,1.83-32.36,0-41.81-2-48.8a73.73,73.73,0,0,0-14.72-25.42c-2.39-2.68-6.44-7.15-8.44-6.18-.87.43-2.31,2.34.75,15.49,5.73,24.61,15.86,39.73,14.15,40.91-1.31.9-8.71-6.74-15.38-15.5-13.31-17.48-17.13-48.53-20.12-47.84-3.79.9-10,26.75.23,56.82,5.17,15.22,4.6,18.12,6.62,30.68,4.54,28.18-1.58,52.38-2.81,52.34-.86,0,0-12.27-2.28-38.27-2-23.11-14.89-43.59-16.95-50.73C1258,1054.5,1264.7,1043.66,1261.68,1042.46Z" transform="translate(-507 -247)"/><path class="cls-8" d="M1259.43,977c-1.3-4.86,4.3-10.07,5.31-10.95,5.14-4.59,11.49-5,14-5.09,4.51-.22,13.89.41,28.56,11.91,7.12,5.59,23.34,18.39,30.74,39.17,17,47.91-27.35,97.06-35.38,105.95-21.31,23.59-42.81,31-47.2,32.4-13.66,4.45-27.84,5.56-28.06,4.54s13-3.23,28.57-10.6a125.37,125.37,0,0,0,37.13-26.75c19.87-21.35,27.74-42.82,29.11-48.68,3-12.84,6.34-30.71-.48-47.54-2.12-5.12-9.18-21.11-23.54-28.18-4.24-2.08-16.37-6.34-28.91-9.26C1265,982.93,1260.44,980.81,1259.43,977Z" transform="translate(-507 -247)"/><path class="cls-3" d="M1267.34,976c-1.37-1.5-1.53-2.08-1.62-2.5-.91-4.15,4.82-6.51,10.88-7.06,19.1-1.73,42,15.78,52,36.13,12.56,25.52,8,50.21,5.68,58-2.34,8-5.31,13.36-9.47,20.92-15.24,27.7-33.82,43.23-34.18,42.9s25.05-19.58,36.44-54.1c3.28-9.94,9.2-25.31,4.33-42.32-4.07-14.21-10.83-26.09-17.08-32.73-9.46-10-16.53-15-24.49-16.67C1279.72,976.51,1272.85,982.06,1267.34,976Z" transform="translate(-507 -247)"/><path class="cls-8" d="M1170,908.74c.13-1.24.64-6.12-1.78-9.15-5.92-7.42-24.19,2.77-27.76,4.77-29.63,16.54-28.58,48.5-53.19,80.42-26.59,34.43-60.53,39.65-59.12,42.79,1.27,2.86,27.32-5.89,56.67-25.37,29.09-24.21,30.83-33.17,45.79-56.56a44.69,44.69,0,0,1,19.95-17.39C1159.82,924.29,1168.93,919.16,1170,908.74Z" transform="translate(-507 -247)"/><path class="cls-3" d="M1159.09,901.8c-8.11,1.41-13.19,4.41-18.36,8.33-17.6,13.44-21.28,22.08-33.14,47-13.74,28.84-22.74,36.31-31.86,44.36a92.51,92.51,0,0,1-15.63,10.73c.1.17,17.55-7.78,33.38-24.62,6.15-6.53,12.53-15.53,24.75-34.45,20.45-31.59,29.24-32.54,37.63-38.06,7.47-4.88,9.87-5.13,9.48-8.28C1164.93,903.47,1162.84,901.15,1159.09,901.8Z" transform="translate(-507 -247)"/><path class="cls-3" d="M1198.31,876.35c4.56-6.82,9.4-10.25,15.12-13.36,19.45-10.6,28.83-10.45,56.4-11.14,31.94-.8,43.23-5.91,54.3-11a75.46,75.46,0,0,0,15.41-9.73c.85.94-13.53,12.68-35.35,20.29-8.47,3-20.06,5.05-42.34,8.51-37.16,5.78-41.63,13.45-50.06,18.89-7.49,4.88-8.71,6.92-11.43,5.29C1197.46,882.36,1196.19,879.5,1198.31,876.35Z" transform="translate(-507 -247)"/><path class="cls-3" d="M1156.85,968.89a14.53,14.53,0,0,1-1-3.33c-.11-.55-.17-1.05-.24-1.58s-.08-1-.12-1.52a20,20,0,0,1,.65-5.59,20.41,20.41,0,0,1,16.29-15.05,23.47,23.47,0,0,1,2.93-.24,20.41,20.41,0,0,1,3.15.24,15.21,15.21,0,0,1,3.37,1c-.14,1.27-.31,2.4-.51,3.38s-.39,2-.62,2.83-.43,1.74-.69,2.49a24.56,24.56,0,0,1-5.34,9.33,23.24,23.24,0,0,1-6.92,5,30.52,30.52,0,0,1-4.71,1.78A43.65,43.65,0,0,1,1156.85,968.89Z" transform="translate(-507 -247)"/><path class="cls-3" d="M1258.72,902.78a43.65,43.65,0,0,1-3.7,5.12,30.52,30.52,0,0,1-3.55,3.56,23.24,23.24,0,0,1-7.4,4.28,24.56,24.56,0,0,1-10.7,1.07c-.8-.07-1.67-.23-2.59-.38a24.74,24.74,0,0,1-2.83-.62c-1-.28-2.06-.52-3.29-.91a15.21,15.21,0,0,1,.48-3.45,20.41,20.41,0,0,1,1.06-3,23.47,23.47,0,0,1,1.45-2.57,20.64,20.64,0,0,1,20.38-8.68,20,20,0,0,1,5.38,1.68,15.3,15.3,0,0,1,1.36.74c.47.3.9.54,1.35.86A14.53,14.53,0,0,1,1258.72,902.78Z" transform="translate(-507 -247)"/><path class="cls-3" d="M1392.24,1142.82l1.24-.61a.32.32,0,0,0-.22-.6,3,3,0,0,0-1.09.47c-.29.19,0,.73.29.56a5.85,5.85,0,0,0,.75-.44c.06,0,.35-.34.41-.32s.21.54.23.57c.49.76,1.45,2.24.5,3-.31.26.06.79.37.52,1-.87.67-2.3,0-3.31-.24-.41-.57-1.2-1-1.37s-1.07.53-1.48.73l.29.56a2.41,2.41,0,0,1,.94-.39l-.22-.6-1.24.61c-.36.18-.15.78.22.6Z" transform="translate(-507 -247)"/><path class="cls-3" d="M1392.13,1142.92c0-.07.38-.16.45-.19a2.75,2.75,0,0,0,.34-.17,3,3,0,0,0,.72-.7.32.32,0,0,0-.49-.41,2.3,2.3,0,0,1-.94.74,1.16,1.16,0,0,0-.66.46c-.2.36.38.63.58.28Z" transform="translate(-507 -247)"/><path class="cls-3" d="M1393.5,1142.25v0l-.06.31h0l-.45,0,.12.09a.32.32,0,0,0,.52-.27l0-.26-.45.31.38.22a.32.32,0,0,0,.44-.39l-.23-.52-.56.29q.58.81,1.13,1.72a.32.32,0,0,0,.56-.29c-.28-.65-.8-1.13-1.13-1.75l-.4.47a2.47,2.47,0,0,1,.7.92,6.67,6.67,0,0,1,.46,1.05.32.32,0,0,0,.6-.22,4.41,4.41,0,0,0-1.48-2.34c-.3-.18-.53.22-.4.47a19.14,19.14,0,0,1,1.05,1.62l.56-.29q-.54-.87-1.13-1.72c-.2-.29-.71,0-.56.29l.23.52.44-.39-.38-.22a.32.32,0,0,0-.45.31l0,.26.54-.29-.12-.09a.32.32,0,0,0-.45,0,.4.4,0,0,0-.07.39c.13.39.72.17.6-.22Z" transform="translate(-507 -247)"/><path class="cls-11" d="M1392.91,1144.75c-8.84,6.7-13,7.89-24.66,11.4" transform="translate(-507 -247)"/><path class="cls-3" d="M1392.89,1173v-.08l-.29.35h0l-.24-.07v.06c.09.35.66.22.62-.14a1.3,1.3,0,0,1,0-.25l-.61,0a.65.65,0,0,1,.08.31l.62-.14a4.67,4.67,0,0,1-.14-.46l-.51.35a2.5,2.5,0,0,0,0,.35c.08.36.63.2.62-.14a2.74,2.74,0,0,0,0-.45l-.62.14a1.28,1.28,0,0,1,.07.85l.61,0a9.1,9.1,0,0,0-.26-1.25c-.15-.38-.76-.16-.6.22a9.28,9.28,0,0,1,.26,1.25c.08.32.56.24.61,0a1.86,1.86,0,0,0-.09-1.16c-.14-.3-.69-.24-.62.14a2.74,2.74,0,0,1,0,.45l.62-.14a1,1,0,0,0-.25-.62c-.26-.23-.58,0-.51.35a4.67,4.67,0,0,0,.14.46.32.32,0,0,0,.62-.14,1.61,1.61,0,0,0-.12-.47c-.11-.26-.59-.28-.61,0a2.13,2.13,0,0,0,0,.42l.62-.14c0-.2-.21-.45-.45-.4a.32.32,0,0,0-.29.35v.11a.32.32,0,0,0,.64-.05Z" transform="translate(-507 -247)"/><path class="cls-3" d="M1390.14,1172.09a.55.55,0,0,0,.29-.47l-.14.28h0l-.29-.56a.53.53,0,0,1-.22.14c-.38.15-.16.76.22.6a1.3,1.3,0,0,0,.37-.22c.26-.21.05-.74-.29-.56a.62.62,0,0,0-.23.15.31.31,0,0,0-.07.15h0a.32.32,0,0,0,.37.52Z" transform="translate(-507 -247)"/><path class="cls-3" d="M1392.18,1171.64l-.06-.22a.32.32,0,0,0-.62.14l0,.22.62-.14c-.11-.35-.16-.66-.59-.69a1.35,1.35,0,0,0-.58,0c-.12,0-.5.38-.6.32-.35-.21-.63.37-.28.58.6.36.93-.47,1.5-.33l-.2-.13a2.39,2.39,0,0,1,.13.38.32.32,0,0,0,.62-.14l0-.22-.62.14.06.22c.12.39.71.17.6-.22Z" transform="translate(-507 -247)"/><path class="cls-3" d="M1391.38,1171.47a1.7,1.7,0,0,0-.47,0l.21.58.37-.32a.32.32,0,0,0-.21-.58,5.27,5.27,0,0,0-.94.15l.35.51.39-.3-.35-.51-.45.19.14.62a8.82,8.82,0,0,1,1.64-.79l-.31-.06c.38.27.47,1.11.58,1.52a4.25,4.25,0,0,1,.08,2.08.32.32,0,0,0,.62.12,6.09,6.09,0,0,0-.47-3.66c-.12-.27-.3-.61-.63-.62s-.5.2-.69.3l-1,.51a.32.32,0,0,0,.14.62,1,1,0,0,0,.88-.41c.19-.23-.05-.65-.35-.51a2.17,2.17,0,0,0-.65.48c-.24.25,0,.58.35.51a3,3,0,0,1,.78-.12l-.21-.58-.37.32c-.22.18-.14.64.21.58l.3,0c.4,0,.53-.61.12-.62Z" transform="translate(-507 -247)"/><path class="cls-11" d="M1390.68,1173.88a83.91,83.91,0,0,1-20.29,8.55" transform="translate(-507 -247)"/></svg>