<svg xmlns="http://www.w3.org/2000/svg" xmlns:xlink="http://www.w3.org/1999/xlink" viewBox="0 0 445.73 491.94"><defs><style>.cls-1,.cls-16,.cls-29{fill:none;}.cls-2{isolation:isolate;}.cls-3{fill:#53855e;}.cls-4{fill:#587855;}.cls-5{fill:#668f62;}.cls-6{fill:#6e5d43;}.cls-7{clip-path:url(#clip-path);}.cls-8{fill:#a18b6a;}.cls-9{fill:#61523b;}.cls-10{clip-path:url(#clip-path-2);}.cls-11{clip-path:url(#clip-path-3);}.cls-12{fill:#bdb195;}.cls-13{fill:#b0a17f;}.cls-14{fill:#b1bd57;}.cls-15{clip-path:url(#clip-path-4);}.cls-16{stroke:#86a848;}.cls-16,.cls-29{stroke-miterlimit:10;}.cls-17{fill:#7a735b;}.cls-18{fill:#575242;}.cls-19,.cls-21{fill:#dbd7c5;}.cls-19,.cls-20{mix-blend-mode:multiply;}.cls-22{fill:#8ca365;}.cls-23{fill:#bed150;}.cls-24{fill:#9e937d;}.cls-25{fill:#857759;}.cls-26{fill:#94876a;}.cls-27{fill:#948562;}.cls-28{clip-path:url(#clip-path-5);}.cls-29{stroke:#706448;stroke-width:0.5px;}.cls-30{clip-path:url(#clip-path-6);}.cls-31{clip-path:url(#clip-path-7);}.cls-32{clip-path:url(#clip-path-8);}.cls-33{clip-path:url(#clip-path-9);}.cls-34{clip-path:url(#clip-path-10);}.cls-35{clip-path:url(#clip-path-11);}</style><clipPath id="clip-path" transform="translate(-48.01 -29)"><path class="cls-1" d="M193.48,190.29s32.08,27.14,38.25,39.48,14.81,58,27.14,65.39l21-11.1s-21-42.57-35.78-57.37-32.7-30.84-45.65-40.1Z"/></clipPath><clipPath id="clip-path-2" transform="translate(-48.01 -29)"><path class="cls-1" d="M151.53,266.78s20.56-6.17,34.55-4.11c12.93,1.9,25.09,7.81,30.43,23.44,4,11.56,4.11,36.19,6.58,65.8s13.57,113.51-27.14,133.25S142,504,142,504s110.7,13.24,205.7-5.27c0,0-66.62-8.64-70.33-50.59s-4.94-111-1.23-125.85,24.68-43.18,43.18-45.65S416.8,252,425.43,222.37l-8.64-2.47s-6.17,12.34-22.21,19.74l-32.08,14.81s9.87-12.34,2.47-34.55-7.4-39.48-7.4-39.48l-9.87-1.23s3.7,30.84,4.94,40.72-4.94,34.55-4.94,34.55-38.25-4.94-62.92,16-41.95,22.21-48.12,17.27-13.57-29.61-37-33.31-38.86,3.7-48.73,5.55Z"/></clipPath><clipPath id="clip-path-3" transform="translate(-48.01 -29)"><path class="cls-1" d="M266.27,386.46s69.5,5.76,105.69-26.32l-9.87-.41s-37.42,19.74-81.84,14.39c0,0-9.46-5.35-16.86-3.7S253.94,384.81,266.27,386.46Z"/></clipPath><clipPath id="clip-path-4" transform="translate(-48.01 -29)"><path class="cls-1" d="M420.49,343.32h0V233.65H228.85V343.32h0v0c0,8.82,42.9,16,95.82,16s95.82-7.15,95.82-16Z"/></clipPath><clipPath id="clip-path-5" transform="translate(-48.01 -29)"><path class="cls-1" d="M313.56,379.56a34.17,34.17,0,0,1-13.89-2.89l1.08-2.22c.12.06,12.31,5.83,25.17,0l1,2.25A32.11,32.11,0,0,1,313.56,379.56Z"/></clipPath><clipPath id="clip-path-6" transform="translate(-48.01 -29)"><path class="cls-1" d="M313.56,398.37a34.17,34.17,0,0,1-13.89-2.89l1.08-2.22c.12.06,12.31,5.83,25.17,0l1,2.25A32.11,32.11,0,0,1,313.56,398.37Z"/></clipPath><clipPath id="clip-path-7" transform="translate(-48.01 -29)"><path class="cls-1" d="M313.56,417.19a34.17,34.17,0,0,1-13.89-2.89l1.08-2.22c.12.06,12.31,5.83,25.17,0l1,2.25A32.11,32.11,0,0,1,313.56,417.19Z"/></clipPath><clipPath id="clip-path-8" transform="translate(-48.01 -29)"><path class="cls-1" d="M313.56,436a34.17,34.17,0,0,1-13.89-2.89l1.08-2.22c.12.06,12.31,5.83,25.17,0l1,2.25A32.11,32.11,0,0,1,313.56,436Z"/></clipPath><clipPath id="clip-path-9" transform="translate(-48.01 -29)"><path class="cls-1" d="M313.56,454.82a34.17,34.17,0,0,1-13.89-2.89l1.08-2.22c.12.06,12.31,5.83,25.17,0l1,2.25A32.11,32.11,0,0,1,313.56,454.82Z"/></clipPath><clipPath id="clip-path-10" transform="translate(-48.01 -29)"><path class="cls-1" d="M313.56,473.63a34.17,34.17,0,0,1-13.89-2.89l1.08-2.22c.12.06,12.31,5.83,25.17,0l1,2.25A32.11,32.11,0,0,1,313.56,473.63Z"/></clipPath><clipPath id="clip-path-11" transform="translate(-48.01 -29)"><path class="cls-1" d="M313.56,492.45a34.17,34.17,0,0,1-13.89-2.89l1.08-2.22c.12.06,12.31,5.83,25.17,0l1,2.25A32.11,32.11,0,0,1,313.56,492.45Z"/></clipPath></defs><title>home</title><g class="cls-2"><g id="Слой_1" data-name="Слой 1"><path class="cls-3" d="M163.87,121.61s-31.26-28,9-43.59c0,0,1.65-37,33.72-21.39,0,0,16.45-43.59,45.24-18.92,0,0,37-24.68,53.46,9,0,0,23.85-30.43,45.24-4.94,0,0,26.32-25.5,46.06,1.65,0,0,41.13-4.94,32.9,37.84,0,0,46.88-4.94,44.42,40.3,0,0,34.55,14,12.34,51,0,0,23,41.95-30.43,47.71,0,0-152.17-76.49-171.91-75.67S163.87,121.61,163.87,121.61Z" transform="translate(-48.01 -29)"/><path class="cls-4" d="M84.08,205.5S37.2,223.6,55.3,195.63c0,0-20.56-21.39,7.4-29.61,0,0,.82-32.9,26.32-21.39,0,0,4.94-41.13,37-24.68,0,0,29.61-34.55,49.35-3.29,0,0,37.84-18.1,37.84,17.27,0,0-8.23,16.45-45.24,37.84S84.08,205.5,84.08,205.5Z" transform="translate(-48.01 -29)"/><path class="cls-5" d="M231.11,300.09S191,326,185.46,289c0,0-13.57,26.53-32.7,11.1,0,0-19.12,27.76-41.95,8,0,0-46.88,11.1-32.08-32.7,0,0-28.38-14.19-6.79-44.42,0,0-15.42-31.46,16.66-40.1,0,0,11.72-41.95,53.05-21,0,0,8.64-40.72,46.88-27.14,0,0,24.06-35.16,62.31-12.34,0,0,6.79-35.16,46.27-21,0,0,50-33.93,69.71,5.55,0,0,44.42-6.17,48.73,36.4,0,0,48.12-2.47,43.8,42.57,0,0,27.14,18.51,4.94,41.33,0,0,26.53,23.44-3.08,41.33,0,0-11.1,35.16-45,21,0,0-33.93,36.4-60.46,4.94,0,0-42.57,27.76-60.46-1.23C295.27,301.33,255.79,340.81,231.11,300.09Z" transform="translate(-48.01 -29)"/><path class="cls-6" d="M193.48,190.29s32.08,27.14,38.25,39.48,14.81,58,27.14,65.39l21-11.1s-21-42.57-35.78-57.37-32.7-30.84-45.65-40.1Z" transform="translate(-48.01 -29)"/><g class="cls-7"><path class="cls-8" d="M189.78,184.73c1.83,2.11,3.77,4.12,5.77,6.06s4.11,3.77,6.24,5.58c4.24,3.63,8.61,7.1,12.89,10.7,2.14,1.79,4.26,3.63,6.3,5.55a74.8,74.8,0,0,1,5.87,6,64.47,64.47,0,0,1,9,14.24c4.76,10.19,7.64,21.05,12.08,31.26,2.24,5.09,4.95,10,7.66,14.86s5.41,9.79,7.63,14.92c-4.84-10.07-11.31-19.25-16-29.46s-7.49-21.1-12.28-31.15a63.52,63.52,0,0,0-8.76-14.08,73.94,73.94,0,0,0-5.77-6c-2-1.91-4.1-3.77-6.2-5.6C205.8,200.33,196.79,193.49,189.78,184.73Z" transform="translate(-48.01 -29)"/><path class="cls-8" d="M195.33,183.5c7.54,8,15.59,15.42,23.78,22.7l6.16,5.45c2,1.83,4.13,3.6,6.1,5.57a60.8,60.8,0,0,1,5.32,6.36c1.59,2.25,3.1,4.57,4.48,7,5.51,9.56,9.43,19.87,14.57,29.51,2.57,4.83,5.42,9.52,8.29,14.19s5.75,9.35,8.41,14.14c-5.69-9.37-12.05-18.33-17.38-28-2.71-4.79-4.94-9.83-7.29-14.77S243,235.75,240.3,231c-1.35-2.37-2.83-4.66-4.39-6.9a59.88,59.88,0,0,0-5.2-6.28c-1.9-1.92-4-3.72-6-5.56s-4.08-3.67-6.09-5.53c-4-3.71-8.05-7.46-12-11.31S199,187.62,195.33,183.5Z" transform="translate(-48.01 -29)"/><path class="cls-8" d="M239.13,220.51c3.43,5.5,6.84,11,10.15,16.59s6.49,11.24,9.49,17c2.77,5.82,7,10.77,10.74,16.09a71,71,0,0,1,5.18,8.27,22,22,0,0,1,2.69,9.31,22.65,22.65,0,0,0-3.12-9.08,71.34,71.34,0,0,0-5.37-8c-1.95-2.58-3.92-5.15-5.84-7.77-1-1.32-1.9-2.65-2.76-4-.45-.69-.87-1.39-1.25-2.12s-.78-1.44-1.15-2.16c-2.92-5.78-6.09-11.42-9.26-17.07S242.21,226.22,239.13,220.51Z" transform="translate(-48.01 -29)"/></g><path class="cls-9" d="M151.53,266.78s20.56-6.17,34.55-4.11c12.93,1.9,25.09,7.81,30.43,23.44,4,11.56,4.11,36.19,6.58,65.8s13.57,113.51-27.14,133.25S142,504,142,504s110.7,13.24,205.7-5.27c0,0-66.62-8.64-70.33-50.59s-4.94-111-1.23-125.85,24.68-43.18,43.18-45.65S416.8,252,425.43,222.37l-8.64-2.47s-6.17,12.34-22.21,19.74l-32.08,14.81s9.87-12.34,2.47-34.55-7.4-39.48-7.4-39.48l-9.87-1.23s3.7,30.84,4.94,40.72-4.94,34.55-4.94,34.55-38.25-4.94-62.92,16-41.95,22.21-48.12,17.27-13.57-29.61-37-33.31-38.86,3.7-48.73,5.55Z" transform="translate(-48.01 -29)"/><g class="cls-10"><path class="cls-8" d="M149.68,264.31a180.69,180.69,0,0,1,20.89-3.79,71.25,71.25,0,0,1,21.21.44,38.29,38.29,0,0,1,10.05,3.53,34.35,34.35,0,0,1,8.55,6.36,40.94,40.94,0,0,1,6.41,8.52,62.7,62.7,0,0,1,4.54,9.64,118.84,118.84,0,0,1,5.53,20.53c1.3,7,2.23,14,2.93,21.06,1.41,14.11,1.88,28.27,2.74,42.39.41,7.06.89,14.12,1.62,21.15s1.45,14.09,1.73,21.19a111.2,111.2,0,0,1-.89,21.26,67.73,67.73,0,0,1-6.24,20.32,73.54,73.54,0,0,1-12.3,17.33,112.1,112.1,0,0,1-16.09,13.89c-11.54,8.27-24.11,14.88-36.5,21.7,12.31-7,24.8-13.72,36.21-22.09A112.48,112.48,0,0,0,216,473.85a72.92,72.92,0,0,0,12.13-17.23,67,67,0,0,0,6.09-20.13,110.41,110.41,0,0,0,.8-21.11c-.31-7.06-1.07-14.09-1.81-21.13s-1.28-14.12-1.71-21.19c-.81-14.14-1.22-28.29-2.57-42.37-.67-7-1.57-14.05-2.84-21a118.16,118.16,0,0,0-5.42-20.44,62.07,62.07,0,0,0-4.45-9.56,40.35,40.35,0,0,0-6.29-8.42,33.79,33.79,0,0,0-8.39-6.29,38.32,38.32,0,0,0-9.9-3.53,70.9,70.9,0,0,0-21.08-.68A180.58,180.58,0,0,0,149.68,264.31Z" transform="translate(-48.01 -29)"/><path class="cls-8" d="M147.83,260.61c6.77-1,13.55-1.85,20.37-2.32a103.34,103.34,0,0,1,20.5.43,61.28,61.28,0,0,1,10,2.16c.83.24,1.65.49,2.45.8s1.62.58,2.41.9a40.14,40.14,0,0,1,4.62,2.31,37.13,37.13,0,0,1,4.28,2.89,37.81,37.81,0,0,1,3.76,3.54,38.79,38.79,0,0,1,5.95,8.41c3.28,6.06,5.26,12.71,6.84,19.36s2.82,13.4,3.83,20.17c2,13.54,3.09,27.19,4.36,40.79.62,6.81,1.27,13.6,2.17,20.37s1.85,13.54,2.6,20.34a173.89,173.89,0,0,1,1.21,20.5,92.94,92.94,0,0,1-2.37,20.4,78.07,78.07,0,0,1-7.43,19.13,140.69,140.69,0,0,1-11.2,17.2c-8.2,10.95-17.35,21.15-25.05,32.46,7.57-11.4,16.61-21.72,24.66-32.75a141.71,141.71,0,0,0,11.08-17.18,77.44,77.44,0,0,0,7.3-19,92.24,92.24,0,0,0,2.26-20.25,173.13,173.13,0,0,0-1.29-20.4c-.77-6.78-1.78-13.54-2.68-20.32s-1.61-13.59-2.25-20.4c-1.22-13.62-2.24-27.25-4.19-40.76q-1.47-10.13-3.73-20.12c-1.55-6.63-3.48-13.22-6.7-19.21a38.15,38.15,0,0,0-5.82-8.3,37.21,37.21,0,0,0-3.68-3.5,36.55,36.55,0,0,0-4.2-2.86,39.57,39.57,0,0,0-4.54-2.29c-.78-.32-1.59-.6-2.38-.9s-1.6-.56-2.42-.8a62.29,62.29,0,0,0-10-2.19,103,103,0,0,0-20.42-.67C161.4,258.92,154.61,259.74,147.83,260.61Z" transform="translate(-48.01 -29)"/><path class="cls-8" d="M167.57,255.06a157.69,157.69,0,0,1,19.59,1.57q4.86.75,9.64,2a75.11,75.11,0,0,1,9.33,3.17,56.4,56.4,0,0,1,8.67,4.7l2,1.44c.68.47,1.27,1.06,1.9,1.58s1.26,1.06,1.87,1.62l1.7,1.79a54.78,54.78,0,0,1,10.39,16.69c5,12.21,7.15,25.31,9.1,38.24s4.22,25.87,6.1,38.85a316.41,316.41,0,0,1,3.37,39.21l-.05,4.93,0,2.46-.13,2.46-.28,4.92-.53,4.9L250,428c-.11.81-.27,1.62-.41,2.43l-.84,4.86-1.18,4.79c-.2.8-.38,1.6-.6,2.39l-.78,2.34c-.53,1.56-1,3.13-1.57,4.67l-1.73,4.6-1.67,4.62-1.57,4.65a102.54,102.54,0,0,0-4.48,19.06,67.91,67.91,0,0,0,.29,19.54,109,109,0,0,0,5,19A109.17,109.17,0,0,1,235.17,502a68.28,68.28,0,0,1-.53-19.64,102.19,102.19,0,0,1,4.42-19.18l1.56-4.67,1.65-4.64,1.71-4.61c.55-1.54,1-3.1,1.54-4.65l.76-2.33c.22-.79.39-1.58.59-2.38l1.15-4.76.82-4.83c.13-.81.29-1.61.4-2.42l.26-2.44.51-4.87.26-4.9.12-2.45,0-2.45,0-4.9a316.83,316.83,0,0,0-3.52-39.08c-1.82-13-4.07-25.89-5.93-38.87-.94-6.48-1.93-13-3.3-19.35a110,110,0,0,0-5.59-18.75,54.17,54.17,0,0,0-10.2-16.55l-1.67-1.78c-.59-.55-1.22-1.07-1.83-1.61s-1.2-1.1-1.87-1.57l-2-1.43a57.29,57.29,0,0,0-8.56-4.7,74.69,74.69,0,0,0-9.23-3.26q-4.74-1.28-9.59-2.09A157.57,157.57,0,0,0,167.57,255.06Z" transform="translate(-48.01 -29)"/><path class="cls-8" d="M236.66,287.76a35,35,0,0,1,7.57,12.46,83.19,83.19,0,0,1,3.74,14.2c.88,4.82,1.49,9.68,2.11,14.53s1.34,9.68,2,14.52c1.42,9.68,2.68,19.39,3.48,29.15.37,4.89.69,9.77.72,14.69s-.4,9.81-.83,14.68c-.87,9.72-1.9,19.52,0,29.11,1.65,9.59,4.87,18.93,5.89,28.75.1,1.23.24,2.45.27,3.68,0,.62.06,1.23.06,1.84l0,1.85a61,61,0,0,1-.71,7.34c-.74,4.85-1.88,9.62-2.92,14.39a105.21,105.21,0,0,0-2.41,14.43A36.82,36.82,0,0,0,257,517.86a36.94,36.94,0,0,1-1.68-14.49,105.55,105.55,0,0,1,2.18-14.52c1-4.79,2.09-9.56,2.78-14.38a54.42,54.42,0,0,0,.29-14.53c-1.13-9.68-4.31-19-6-28.67a72.36,72.36,0,0,1-.94-7.32c-.17-2.46-.19-4.92-.13-7.38.13-4.91.57-9.8,1-14.66s.85-9.73.87-14.6-.31-9.75-.67-14.61c-.75-9.74-2-19.43-3.33-29.12-.65-4.84-1.36-9.69-1.9-14.55s-1.14-9.71-2-14.52A82.84,82.84,0,0,0,244,300.3,34.84,34.84,0,0,0,236.66,287.76Z" transform="translate(-48.01 -29)"/><path class="cls-8" d="M245.92,517.24a21.4,21.4,0,0,1-4.15-6.79,35,35,0,0,1-2-7.76,60.24,60.24,0,0,1,.13-16,73.57,73.57,0,0,1,3.87-15.56,44.62,44.62,0,0,1,7.85-14l.65-.74.2,1a99.7,99.7,0,0,1,1.81,15q.39,7.54.08,15.09c-.22,5-.61,10-1.24,15a106.85,106.85,0,0,1-2.88,14.78,116.41,116.41,0,0,0,2.4-14.84q.79-7.47,1-15c.1-5,.07-10-.23-15a98.81,98.81,0,0,0-1.88-14.84l.85.23a44.41,44.41,0,0,0-7.72,13.67,77,77,0,0,0-4,15.34,59.61,59.61,0,0,0-.4,15.83C240.88,507.85,242.45,513.15,245.92,517.24Z" transform="translate(-48.01 -29)"/><path class="cls-8" d="M238.51,283.44a55,55,0,0,1,9.36,11.45,65.56,65.56,0,0,1,6.22,13.46c3.16,9.41,4.54,19.31,5.38,29.15s1,19.76,1.65,29.6,1,19.76,1.21,29.63c.12,4.94.24,9.88.42,14.81a105.83,105.83,0,0,0,1.18,14.7c1.62,9.7,5.14,19,6.48,28.92a58.19,58.19,0,0,1,.57,7.43,51.59,51.59,0,0,1-.58,7.43c-.71,4.92-2,9.7-3.15,14.5s-2,9.7-1.59,14.62a28.8,28.8,0,0,0,4.91,13.78,28.93,28.93,0,0,1-5.15-13.75c-.54-5,.33-9.92,1.35-14.75s2.34-9.61,3-14.48a50.93,50.93,0,0,0,.5-7.34,57.46,57.46,0,0,0-.64-7.33c-1.44-9.74-4.93-19.07-6.62-28.87a66.56,66.56,0,0,1-.88-7.41q-.21-3.7-.36-7.41c-.2-4.94-.34-9.88-.47-14.82-.23-9.88-.45-19.75-1.12-29.6s-.79-19.76-1.5-29.6-2-19.67-5.08-29.06a65.19,65.19,0,0,0-6-13.49A54.84,54.84,0,0,0,238.51,283.44Z" transform="translate(-48.01 -29)"/><path class="cls-8" d="M245.3,284.05a119.74,119.74,0,0,1,12,27.59,196.71,196.71,0,0,1,6.12,29.52c1.35,10,2.11,20,2.6,30s.44,20.11.81,30.12c.19,5,.49,10,1.12,15s1.58,9.88,2.61,14.79c2.06,9.81,4.47,19.62,5.31,29.69.51,5,.32,10.08.37,15.08s.41,10.06,2.22,14.72,4.9,8.7,8,12.59,6.52,7.7,8.78,12.21c-2.34-4.47-5.77-8.2-9-12.05s-6.4-7.84-8.31-12.57-2.27-9.88-2.39-14.89,0-10-.5-15c-1-10-3.32-19.75-5.43-29.57-1-4.92-2-9.86-2.67-14.86s-1-10-1.17-15.06c-.34-10.06-.18-20.1-.72-30.12s-1.23-20-2.45-30a197.28,197.28,0,0,0-5.83-29.48A119.5,119.5,0,0,0,245.3,284.05Z" transform="translate(-48.01 -29)"/><path class="cls-8" d="M194.71,184.12c11.39,11.16,22.86,22.28,33.31,34.36q3.92,4.53,7.61,9.25c1.25,1.55,2.43,3.18,3.54,4.84s2.11,3.41,3,5.18c3.74,7.12,5.73,15,7.71,22.66,2.16,7.66,6.11,14.64,9.23,22,.78,1.84,1.5,3.72,2.14,5.62l.89,2.87c.3,1,.59,1.91.83,2.89.5,1.94,1,3.87,1.39,5.84.2,1,.42,2,.6,2.94l.5,3c2.61,15.81,2.69,31.84,4.18,47.68.38,4,.78,7.92,1.41,11.85.28,2,.64,3.94.86,5.94s.4,4,.52,6c.46,8,.14,16,.76,23.91s2.42,15.7,4.29,23.45c.93,3.88,1.87,7.76,2.65,11.68.39,2,.74,3.93,1,5.92s.42,4,.51,6c.43,8,0,16,1.62,23.8a30.2,30.2,0,0,0,1.69,5.67,17.55,17.55,0,0,0,1.24,2.68l.74,1.28.37.64.45.59a31,31,0,0,0,8.67,8c6.68,4.33,14.29,7,21.32,10.77s13,9.24,18.82,14.68c-5.86-5.38-11.78-10.87-18.93-14.46S303,495.27,296.2,491a31.34,31.34,0,0,1-8.84-8.09l-.46-.6-.38-.65-.76-1.31a18.06,18.06,0,0,1-1.28-2.73,30.76,30.76,0,0,1-1.74-5.76c-1.62-7.89-1.26-16-1.72-23.88-.1-2-.28-4-.53-5.93s-.63-3.92-1-5.87c-.78-3.9-1.74-7.77-2.68-11.64-1.89-7.74-3.8-15.55-4.39-23.56s-.36-16-.85-23.92c-.13-2-.28-4-.53-5.93s-.58-3.91-.87-5.9c-.65-3.95-1.06-7.93-1.45-11.9-1.44-15.91-1.46-31.91-4-47.64l-.49-2.94c-.17-1-.39-1.95-.59-2.92-.37-2-.87-3.88-1.36-5.8-.23-1-.51-1.92-.81-2.87l-.87-2.85c-.63-1.88-1.33-3.74-2.1-5.57-3.07-7.32-7-14.35-9.18-22.11-2-7.73-3.91-15.5-7.58-22.57-.92-1.76-1.92-3.48-3-5.14s-2.26-3.26-3.5-4.82c-2.43-3.15-5-6.23-7.55-9.26C217.34,206.63,206,195.39,194.71,184.12Z" transform="translate(-48.01 -29)"/><path class="cls-8" d="M223.09,209.41a165.38,165.38,0,0,1,14.73,13.53,78.91,78.91,0,0,1,6.32,7.78,66,66,0,0,1,5.09,8.66,68.12,68.12,0,0,1,3.7,9.34c1,3.22,1.81,6.42,2.81,9.59,2,6.34,4.31,12.58,6.66,18.82S267,289.64,269,296a157.1,157.1,0,0,1,4.84,19.44c1.23,6.56,2.18,13.17,3.1,19.77s1.76,13.21,2.87,19.78c-1.27-6.54-2.31-13.13-3.35-19.71s-2-13.17-3.37-19.69a171.14,171.14,0,0,0-5-19.31c-2-6.34-4.38-12.56-6.71-18.81s-4.61-12.52-6.59-18.9c-1-3.19-1.83-6.44-2.77-9.61a74.37,74.37,0,0,0-3.56-9.27,65.34,65.34,0,0,0-4.91-8.63,80.13,80.13,0,0,0-6.17-7.81A165.17,165.17,0,0,0,223.09,209.41Z" transform="translate(-48.01 -29)"/><path class="cls-8" d="M271.21,321.69a61.4,61.4,0,0,1,3.91-12l.63-1.45c.23-.48.5-.93.74-1.4L278,304a58.68,58.68,0,0,1,3.62-5.21A56.68,56.68,0,0,1,285.8,294c.75-.75,1.54-1.45,2.31-2.18.39-.36.76-.73,1.17-1.07l1.23-1a71.12,71.12,0,0,1,10.5-7.13,129.32,129.32,0,0,1,23.31-9.92c8-2.64,16.18-4.84,24.31-7.05s16.28-4.37,24.24-7.08c4-1.38,7.92-2.83,11.73-4.59s7.52-3.74,11.23-5.75a131.19,131.19,0,0,0,21.1-13.77,48.27,48.27,0,0,0,8.7-9.07c2.42-3.4,4.21-7.44,4.13-11.7.16,4.26-1.56,8.37-3.93,11.83a48.62,48.62,0,0,1-8.58,9.3,131.21,131.21,0,0,1-21,14.07c-3.68,2.05-7.38,4.1-11.24,5.86s-7.81,3.27-11.79,4.67c-8,2.76-16.14,5-24.28,7.19s-16.28,4.35-24.29,7a134.63,134.63,0,0,0-23.22,9.73,70.42,70.42,0,0,0-10.47,6.95l-1.23,1c-.41.33-.78.7-1.17,1-.77.71-1.56,1.4-2.31,2.13a61.27,61.27,0,0,0-7.87,9.79L276.76,307c-.25.46-.53.91-.76,1.38l-.66,1.43A61.28,61.28,0,0,0,271.21,321.69Z" transform="translate(-48.01 -29)"/><path class="cls-8" d="M269.36,310a55.69,55.69,0,0,1,5-10.79l.76-1.28c.26-.43.57-.82.85-1.23l1.73-2.44c.62-.78,1.27-1.53,1.91-2.3l1-1.15,1-1.07,2.1-2.13,2.24-2c.73-.68,1.52-1.29,2.31-1.89s1.57-1.23,2.38-1.81c1.66-1.11,3.26-2.3,5-3.29.85-.51,1.7-1,2.56-1.54l2.63-1.43c1.74-1,3.56-1.78,5.34-2.68s3.63-1.65,5.48-2.37,3.69-1.49,5.56-2.17,3.74-1.35,5.62-2c7.53-2.57,15.18-4.74,22.82-6.92s15.3-4.24,22.85-6.66a138,138,0,0,0,22-8.87c6.92-3.85,13.86-7.74,20.46-12.12a85,85,0,0,0,9.52-7.1,23.47,23.47,0,0,0,4-4.38,6.76,6.76,0,0,0,1.15-2.7,3.2,3.2,0,0,0-.82-2.74,3.23,3.23,0,0,1,.88,2.74,6.84,6.84,0,0,1-1.11,2.75,23.64,23.64,0,0,1-3.92,4.49,85.38,85.38,0,0,1-9.41,7.33c-6.58,4.48-13.47,8.44-20.37,12.39a98.24,98.24,0,0,1-10.84,5c-1.84.77-3.72,1.41-5.58,2.12s-3.76,1.32-5.65,1.91c-7.57,2.46-15.22,4.59-22.86,6.75-15.26,4.28-30.63,8.61-44.74,15.85l-2.62,1.39c-.87.48-1.71,1-2.56,1.5-1.73,1-3.33,2.13-5,3.2-.81.57-1.58,1.18-2.38,1.77s-1.58,1.18-2.32,1.85L284.09,288,282,290.06l-1.06,1-1,1.12c-.65.75-1.31,1.48-1.94,2.24l-1.77,2.38c-.29.4-.6.79-.87,1.2l-.78,1.26A55.56,55.56,0,0,0,269.36,310Z" transform="translate(-48.01 -29)"/><path class="cls-8" d="M266.89,300.71a65.61,65.61,0,0,1,12.16-17.52c1.21-1.32,2.57-2.49,3.86-3.72s2.7-2.35,4.15-3.4a84.54,84.54,0,0,1,8.89-6,96.09,96.09,0,0,1,19.6-8.7c6.92-2,14.05-2.73,21-4.09a76.3,76.3,0,0,0,10.3-2.57,32.71,32.71,0,0,0,9.35-4.76,22,22,0,0,0,6.6-8,50.2,50.2,0,0,0,3.75-9.9,66.15,66.15,0,0,0,2-10.44,91.12,91.12,0,0,0,.6-10.64,131.2,131.2,0,0,0-1.69-21.27,131.45,131.45,0,0,1,2.18,21.27,90.12,90.12,0,0,1-.46,10.71,66.84,66.84,0,0,1-1.85,10.57,48,48,0,0,1-3.73,10.09,22.94,22.94,0,0,1-6.81,8.36,30.48,30.48,0,0,1-4.6,2.87,42.75,42.75,0,0,1-5,2.08,76.7,76.7,0,0,1-10.42,2.65c-7,1.34-14.14,2.07-21,4a100.06,100.06,0,0,0-19.46,8.49,83.85,83.85,0,0,0-8.9,5.84c-1.45,1-2.78,2.21-4.16,3.32s-2.66,2.35-3.89,3.64A65.36,65.36,0,0,0,266.89,300.71Z" transform="translate(-48.01 -29)"/><path class="cls-8" d="M268.12,290.22A43,43,0,0,1,279,275c1.14-1.09,2.42-2,3.66-3,.63-.47,1.29-.91,1.94-1.36s1.3-.9,2-1.3a83.1,83.1,0,0,1,8.3-4.56c11.4-5.46,23.59-8.92,35-14.21a67.55,67.55,0,0,0,15.9-9.8,42.7,42.7,0,0,0,11.14-14.82,53.14,53.14,0,0,0,4.89-18,120.5,120.5,0,0,0,.09-18.83,120.72,120.72,0,0,1,.4,18.87,53.61,53.61,0,0,1-4.68,18.29,43.79,43.79,0,0,1-7.79,11.9c-.54.58-1.13,1.12-1.69,1.68l-.85.83-.91.77a68.35,68.35,0,0,1-16.08,10c-11.5,5.25-23.66,8.72-35,14a82.42,82.42,0,0,0-8.3,4.4q-1,.59-2,1.26c-.65.44-1.31.86-1.94,1.32-1.24,1-2.51,1.87-3.67,2.92A42.77,42.77,0,0,0,268.12,290.22Z" transform="translate(-48.01 -29)"/></g><path class="cls-6" d="M266.27,386.46s69.5,5.76,105.69-26.32l-9.87-.41s-37.42,19.74-81.84,14.39c0,0-9.46-5.35-16.86-3.7S253.94,384.81,266.27,386.46Z" transform="translate(-48.01 -29)"/><g class="cls-11"><path class="cls-8" d="M261.34,373.5a106,106,0,0,1,13.3,1.33c4.4.69,8.78,1.51,13.18,2.11a93.28,93.28,0,0,0,13.24,1,121,121,0,0,0,13.26-1,127.84,127.84,0,0,0,25.91-5.87c8.5-2.63,16.16-7.35,23.09-12.93h0c.12.07-.07,0-.13.07l-.27.07-.54.15c-.36.09-.72.21-1.1.27.37-.08.72-.21,1.08-.32l.54-.17.27-.08.14,0a.18.18,0,0,1,.1,0s0,.05,0,.08l0,0,0,0h0a81.17,81.17,0,0,1-10.74,8,61.47,61.47,0,0,1-5.92,3.16c-2,.94-4.13,1.74-6.23,2.5a113.57,113.57,0,0,1-12.86,3.75,127.13,127.13,0,0,1-13.19,2.35,121.85,121.85,0,0,1-13.37.91,83.68,83.68,0,0,1-13.36-1.15C278.89,376.29,270.24,374.11,261.34,373.5Z" transform="translate(-48.01 -29)"/><path class="cls-8" d="M258.87,380.91c4.6.67,9.2,1.3,13.83,1.51,2.31.2,4.63.2,6.94.31s4.63.05,7,0a192.8,192.8,0,0,0,27.65-2.56,170.49,170.49,0,0,0,27-6.53A76.11,76.11,0,0,0,354,368.27a51.15,51.15,0,0,0,5.93-3.6,22.84,22.84,0,0,0,5-4.74,21.7,21.7,0,0,1-4.88,5,51.52,51.52,0,0,1-5.85,3.82,76.21,76.21,0,0,1-12.78,5.64c-2.18.83-4.42,1.46-6.64,2.16s-4.48,1.28-6.75,1.8l-3.4.81c-1.13.26-2.28.48-3.42.72-2.27.5-4.57.88-6.86,1.28s-4.61.67-6.91,1-4.62.55-6.95.71-4.64.38-7,.46-4.65.16-7,.18A135.35,135.35,0,0,1,258.87,380.91Z" transform="translate(-48.01 -29)"/></g><ellipse class="cls-12" cx="276.66" cy="314.34" rx="109.4" ry="25.43"/><ellipse class="cls-13" cx="276.66" cy="314.34" rx="109.4" ry="25.43"/><path class="cls-14" d="M420.49,343.32h0V233.65H228.85V343.32h0v0c0,8.82,42.9,16,95.82,16s95.82-7.15,95.82-16Z" transform="translate(-48.01 -29)"/><g class="cls-15"><line class="cls-16" x1="368.79" y1="220.1" x2="367.96" y2="322.09"/><line class="cls-16" x1="360.97" y1="222.56" x2="363.85" y2="324.15"/><line class="cls-16" x1="356.04" y1="226.68" x2="357.27" y2="325.79"/><line class="cls-16" x1="351.92" y1="228.32" x2="352.34" y2="326.2"/><line class="cls-16" x1="346.99" y1="229.97" x2="345.34" y2="328.67"/><line class="cls-16" x1="340.41" y1="232.85" x2="341.64" y2="328.26"/><line class="cls-16" x1="333.42" y1="234.9" x2="336.71" y2="329.08"/><line class="cls-16" x1="329.3" y1="234.9" x2="328.07" y2="330.73"/><line class="cls-16" x1="323.96" y1="235.73" x2="324.37" y2="330.32"/><line class="cls-16" x1="314.91" y1="234.49" x2="319.02" y2="331.55"/><path class="cls-16" d="M358.4,263.49c-.41,1.23,1.65,97.88,1.65,97.88" transform="translate(-48.01 -29)"/><line class="cls-16" x1="304.22" y1="236.14" x2="307.92" y2="330.73"/><path class="cls-16" d="M346.88,263.49c-.41,1.23,1.23,99.94,1.23,99.94" transform="translate(-48.01 -29)"/><line class="cls-16" x1="291.47" y1="234.49" x2="290.23" y2="267.39"/><line class="cls-16" x1="282.01" y1="235.31" x2="283.65" y2="258.34"/><line class="cls-16" x1="276.25" y1="236.55" x2="275.02" y2="255.47"/><line class="cls-16" x1="268.85" y1="236.14" x2="268.03" y2="255.47"/><line class="cls-16" x1="263.91" y1="235.31" x2="263.5" y2="252.59"/><line class="cls-16" x1="254.04" y1="233.67" x2="254.45" y2="253.41"/><line class="cls-16" x1="248.7" y1="234.9" x2="247.46" y2="253.82"/><line class="cls-16" x1="243.76" y1="238.19" x2="242.94" y2="255.05"/><line class="cls-16" x1="235.54" y1="235.31" x2="238" y2="260.4"/><line class="cls-16" x1="228.96" y1="234.9" x2="229.37" y2="266.57"/><line class="cls-16" x1="224.02" y1="236.14" x2="223.2" y2="272.74"/><line class="cls-16" x1="218.26" y1="233.67" x2="217.85" y2="277.67"/><line class="cls-16" x1="211.68" y1="231.2" x2="213.74" y2="282.2"/><line class="cls-16" x1="207.16" y1="231.2" x2="206.8" y2="304.7"/><line class="cls-16" x1="204.28" y1="229.97" x2="204.69" y2="327.85"/><path class="cls-16" d="M247.36,259.38c0,1.23-2.47,97.47-2.47,97.47" transform="translate(-48.01 -29)"/><line class="cls-16" x1="193.18" y1="227.09" x2="191.53" y2="325.79"/><line class="cls-16" x1="184.13" y1="226.27" x2="185.77" y2="321.68"/><ellipse class="cls-17" cx="258.98" cy="300.7" rx="53.05" ry="52.23"/><path class="cls-18" d="M307,280.56C282,294.13,284.16,362,284.16,362h45.65S332,294.13,307,280.56Z" transform="translate(-48.01 -29)"/><path class="cls-19" d="M310.62,283.07a21.66,21.66,0,0,0-3.63-2.51C282,294.13,284.16,362,284.16,362h3.66C287.73,349.71,288.55,295.17,310.62,283.07Z" transform="translate(-48.01 -29)"/><g class="cls-20"><path class="cls-21" d="M260.11,333.82c0-28.85,23.75-52.23,53.05-52.23a53.43,53.43,0,0,1,26.55,7A53.34,53.34,0,0,0,307,277.47c-29.3,0-53.05,23.38-53.05,52.23a52.06,52.06,0,0,0,26.51,45.21A51.84,51.84,0,0,1,260.11,333.82Z" transform="translate(-48.01 -29)"/></g><path class="cls-19" d="M220,242.31v13s16.66,19.12,107.34,19.12,108.57-21,108.57-21l-1.85-18.51Z" transform="translate(-48.01 -29)"/></g><path class="cls-22" d="M324.67,147.31c-99.94,28.38-120.91,99.32-120.91,99.32,45,24.06,102,22.21,120.91,22.21s75.88,1.85,120.91-22.21C445.58,246.63,424.61,175.69,324.67,147.31Z" transform="translate(-48.01 -29)"/><path class="cls-23" d="M324.67,147.31c-3,1.07-6.09,2.07-9.1,3.19l-4.48,1.76c-1.5.58-3,1.16-4.45,1.84-2.94,1.29-5.91,2.52-8.77,4-1.44.71-2.89,1.39-4.33,2.11l-4.24,2.28-2.12,1.14-2.07,1.22L281,167.25l-4.06,2.59-2,1.3-2,1.37L269,175.27l-3.83,2.91c-1.29.95-2.51,2-3.75,3s-2.5,2-3.67,3.1a161,161,0,0,0-25.84,28.37A148.94,148.94,0,0,0,221.73,229,105.64,105.64,0,0,0,214,246.63c3.69-12.34,9.91-23.82,17.2-34.42a148.87,148.87,0,0,1,12-15.13,156.49,156.49,0,0,1,13.78-13.55c1.19-1.09,2.47-2.07,3.71-3.1s2.48-2.06,3.79-3l3.86-2.91,4-2.76,2-1.37,2-1.29,4.09-2.58,4.19-2.42,2.1-1.2,2.14-1.11,4.29-2.22c1.45-.71,2.91-1.37,4.37-2.06,2.89-1.41,5.89-2.61,8.85-3.85,1.48-.64,3-1.18,4.51-1.73l4.53-1.65C318.54,149.23,321.62,148.3,324.67,147.31Z" transform="translate(-48.01 -29)"/><path class="cls-23" d="M324.67,147.31a174,174,0,0,0-33.18,16.51,169.8,169.8,0,0,0-14.92,11,151.91,151.91,0,0,0-13.52,12.66,166.13,166.13,0,0,0-12,14.1A175.67,175.67,0,0,0,240.72,217a160.35,160.35,0,0,0-8.6,16.43,127.81,127.81,0,0,0-6.56,17.36,140.65,140.65,0,0,1,14.5-34.18A158.63,158.63,0,0,1,250.31,201a166.22,166.22,0,0,1,12-14.24,154.75,154.75,0,0,1,28.75-23.6l4-2.39,2-1.19,2.05-1.1,4.1-2.21,4.19-2c2.78-1.39,5.68-2.5,8.53-3.72S321.77,148.38,324.67,147.31Z" transform="translate(-48.01 -29)"/><path class="cls-23" d="M324.67,147.31a134.53,134.53,0,0,0-15.53,8.09c-2.54,1.43-4.91,3.16-7.35,4.75l-3.52,2.6-1.75,1.31-1.69,1.39a141.36,141.36,0,0,0-24.19,25.12A172.59,172.59,0,0,0,252.5,220.4q-3.81,7.88-6.86,16.1a150,150,0,0,0-5.27,16.7,160.8,160.8,0,0,1,11.44-33.14A168.18,168.18,0,0,1,260,204.55,155.24,155.24,0,0,1,269.84,190a138.4,138.4,0,0,1,24.51-25.11A122.23,122.23,0,0,1,324.67,147.31Z" transform="translate(-48.01 -29)"/><path class="cls-23" d="M324.67,147.31a103.25,103.25,0,0,0-13.71,9.3A116.06,116.06,0,0,0,299,168a150.33,150.33,0,0,0-10.31,12.94q-4.72,6.8-8.76,14a210.94,210.94,0,0,0-13.74,30.12q-2.88,7.77-5.22,15.74c-1.57,5.3-3,10.65-4.12,16.07A210,210,0,0,1,279,194.5q4.11-7.24,8.89-14.08a134.6,134.6,0,0,1,10.49-12.93,115.57,115.57,0,0,1,12.25-11.26A97,97,0,0,1,324.67,147.31Z" transform="translate(-48.01 -29)"/><path class="cls-23" d="M324.67,147.31a76.08,76.08,0,0,0-11.77,10.63,95.54,95.54,0,0,0-9.65,12.57c-1.48,2.19-2.8,4.49-4.17,6.75s-2.59,4.61-3.76,7q-3.6,7.07-6.56,14.45a263.14,263.14,0,0,0-10.16,30.08q-2.14,7.65-3.87,15.42c-1.19,5.17-2.24,10.37-3.11,15.6a257.37,257.37,0,0,1,6.24-31.22,248.36,248.36,0,0,1,10-30.26q3-7.39,6.68-14.48a124.31,124.31,0,0,1,8.1-13.74C308.54,161.26,315.83,153.22,324.67,147.31Z" transform="translate(-48.01 -29)"/><path class="cls-23" d="M324.67,147.31a62.47,62.47,0,0,0-8.7,12.41,121.36,121.36,0,0,0-6.44,13.74,229.42,229.42,0,0,0-9.11,29c-2.51,9.82-4.53,19.76-6.29,29.74q-1.33,7.49-2.42,15t-2,15.08c.76-10.12,2.07-20.2,3.67-30.23s3.64-20,6.08-29.86a217.23,217.23,0,0,1,9.37-29,120.53,120.53,0,0,1,6.72-13.69A59.81,59.81,0,0,1,324.67,147.31Z" transform="translate(-48.01 -29)"/><path class="cls-23" d="M324.67,147.31a82.33,82.33,0,0,0-5.1,13.68c-1.38,4.67-2.48,9.43-3.47,14.19-2,9.54-3.54,19.17-4.83,28.84s-2.41,19.36-3.39,29.06q-.74,7.28-1.35,14.57c-.44,4.86-.81,9.73-1.18,14.59.31-9.76,1-19.51,1.76-29.24s1.88-19.44,3.17-29.13q1-7.26,2.24-14.48c.83-4.82,1.73-9.62,2.82-14.38s2.28-9.51,3.76-14.17A77.22,77.22,0,0,1,324.67,147.31Z" transform="translate(-48.01 -29)"/><path class="cls-23" d="M324.67,147.31c-.25,2.39-.58,4.76-.8,7.15s-.44,4.77-.6,7.17l-.52,7.17-.42,7.18c-.51,9.58-1,19.16-1.33,28.74s-.73,19.17-1.07,28.76l-1,28.77c0-4.8,0-9.6,0-14.4l.21-14.39c.18-9.6.51-19.19.85-28.78s.89-19.18,1.57-28.75S323.07,156.78,324.67,147.31Z" transform="translate(-48.01 -29)"/><path class="cls-23" d="M324.67,147.31c3.06,1,6.14,1.92,9.18,3l4.53,1.65c1.51.55,3,1.09,4.51,1.73,3,1.24,6,2.44,8.85,3.85,1.46.69,2.92,1.35,4.37,2.06l4.29,2.22,2.14,1.11,2.1,1.2,4.19,2.42,4.09,2.58,2,1.29,2,1.37,4,2.76,3.86,2.91c1.3.95,2.54,2,3.79,3s2.52,2,3.71,3.1a156.49,156.49,0,0,1,13.78,13.55,148.87,148.87,0,0,1,12,15.13c7.28,10.61,13.51,22.08,17.2,34.42A105.64,105.64,0,0,0,427.61,229a148.94,148.94,0,0,0-10.14-16.34,161,161,0,0,0-25.84-28.37c-1.18-1.09-2.44-2.07-3.67-3.1s-2.46-2.06-3.75-3l-3.83-2.91-3.94-2.76-2-1.37-2-1.3-4.06-2.59-4.15-2.43-2.07-1.22L360,162.46l-4.24-2.28c-1.43-.72-2.88-1.41-4.33-2.11-2.86-1.45-5.83-2.68-8.77-4-1.46-.67-3-1.26-4.45-1.84l-4.48-1.76C330.76,149.38,327.71,148.38,324.67,147.31Z" transform="translate(-48.01 -29)"/><path class="cls-23" d="M324.67,147.31c2.91,1.07,5.86,2,8.72,3.22s5.75,2.33,8.53,3.72l4.19,2,4.1,2.21,2.05,1.1,2,1.19,4,2.39A154.75,154.75,0,0,1,387,186.77,166.21,166.21,0,0,1,399,201a158.64,158.64,0,0,1,10.26,15.55,140.65,140.65,0,0,1,14.49,34.18,127.81,127.81,0,0,0-6.56-17.36,160.36,160.36,0,0,0-8.6-16.43,175.67,175.67,0,0,0-10.32-15.39,166.13,166.13,0,0,0-12-14.1,151.91,151.91,0,0,0-13.52-12.66,169.8,169.8,0,0,0-14.92-11A174,174,0,0,0,324.67,147.31Z" transform="translate(-48.01 -29)"/><path class="cls-23" d="M324.67,147.31A122.23,122.23,0,0,1,355,164.84,138.4,138.4,0,0,1,379.5,190a155.24,155.24,0,0,1,9.81,14.59,168.19,168.19,0,0,1,8.23,15.53A160.8,160.8,0,0,1,409,253.21a150,150,0,0,0-5.27-16.7q-3.05-8.21-6.86-16.1a172.59,172.59,0,0,0-18.14-29.85,141.36,141.36,0,0,0-24.19-25.12l-1.69-1.39-1.75-1.31-3.52-2.6c-2.44-1.59-4.81-3.31-7.35-4.75A134.53,134.53,0,0,0,324.67,147.31Z" transform="translate(-48.01 -29)"/><path class="cls-23" d="M324.67,147.31a97,97,0,0,1,14,8.92,115.57,115.57,0,0,1,12.25,11.26,134.6,134.6,0,0,1,10.49,12.93q4.79,6.82,8.89,14.08a210,210,0,0,1,22.22,62.42c-1.14-5.42-2.55-10.77-4.12-16.07s-3.3-10.56-5.22-15.74A210.94,210.94,0,0,0,369.44,195q-4-7.22-8.76-14A150.33,150.33,0,0,0,350.37,168a116.06,116.06,0,0,0-12-11.4A103.25,103.25,0,0,0,324.67,147.31Z" transform="translate(-48.01 -29)"/><path class="cls-23" d="M324.67,147.31c8.84,5.91,16.14,14,22.05,22.78a124.31,124.31,0,0,1,8.1,13.74q3.66,7.09,6.68,14.48a248.37,248.37,0,0,1,10,30.26,257.37,257.37,0,0,1,6.24,31.22c-.88-5.23-1.93-10.43-3.11-15.6s-2.44-10.32-3.87-15.42a263.14,263.14,0,0,0-10.16-30.08q-3-7.37-6.56-14.45c-1.17-2.37-2.48-4.67-3.76-7s-2.68-4.56-4.17-6.75a95.54,95.54,0,0,0-9.65-12.57A76.08,76.08,0,0,0,324.67,147.31Z" transform="translate(-48.01 -29)"/><path class="cls-23" d="M324.67,147.31a59.81,59.81,0,0,1,9.12,12.17,120.54,120.54,0,0,1,6.72,13.69,217.23,217.23,0,0,1,9.37,29Q353.55,217,356,232c1.6,10,2.9,20.11,3.67,30.23q-.88-7.56-2-15.08t-2.42-15c-1.76-10-3.78-19.92-6.29-29.74a229.41,229.41,0,0,0-9.11-29,121.37,121.37,0,0,0-6.44-13.74A62.47,62.47,0,0,0,324.67,147.31Z" transform="translate(-48.01 -29)"/><path class="cls-23" d="M324.67,147.31a77.22,77.22,0,0,1,5.57,13.54c1.48,4.66,2.67,9.41,3.76,14.17s2,9.57,2.82,14.38,1.58,9.64,2.24,14.48Q341,218.42,342.24,233c.81,9.73,1.45,19.48,1.76,29.24-.37-4.87-.74-9.73-1.18-14.59s-.86-9.72-1.35-14.57c-1-9.71-2-19.41-3.39-29.06s-2.84-19.3-4.83-28.84c-1-4.77-2.1-9.52-3.47-14.19A82.33,82.33,0,0,0,324.67,147.31Z" transform="translate(-48.01 -29)"/><path class="cls-23" d="M324.67,147.31c1.6,9.47,2.4,19.05,3.1,28.62s1.14,19.16,1.57,28.75.66,19.18.85,28.78l.21,14.39c0,4.8.07,9.6,0,14.4l-1-28.77c-.34-9.59-.66-19.18-1.07-28.76S327.52,185.56,327,176l-.42-7.18-.52-7.17c-.16-2.39-.4-4.78-.6-7.17S324.93,149.7,324.67,147.31Z" transform="translate(-48.01 -29)"/><path class="cls-24" d="M324.67,368.47c-58.79,0-106.74-10.78-109.28-24.3a6.11,6.11,0,0,0-.11,1.13c0,14,49,25.43,109.4,25.43s109.4-11.39,109.4-25.43a6.11,6.11,0,0,0-.11-1.13C431.41,357.69,383.46,368.47,324.67,368.47Z" transform="translate(-48.01 -29)"/><path class="cls-24" d="M228.85,335.6v-2.25c-6.32,2.94-9.87,6.23-9.87,9.69a5.18,5.18,0,0,0,.13,1.13C219.79,341.12,223.21,338.22,228.85,335.6Z" transform="translate(-48.01 -29)"/><path class="cls-24" d="M430.24,344.17a5.18,5.18,0,0,0,.13-1.13c0-3.46-3.55-6.75-9.87-9.69v2.25C426.13,338.22,429.56,341.12,430.24,344.17Z" transform="translate(-48.01 -29)"/><path class="cls-12" d="M324.67,368.47c58.79,0,106.74-10.78,109.28-24.3a6.11,6.11,0,0,0,.11-1.13c0-4.45-4.93-8.64-13.57-12.27v2.58c6.32,2.94,9.87,6.23,9.87,9.69a5.18,5.18,0,0,1-.13,1.13C427.52,356.32,381.3,366,324.67,366s-102.85-9.68-105.56-21.83A5.18,5.18,0,0,1,219,343c0-3.46,3.55-6.75,9.87-9.69v-2.58c-8.65,3.64-13.57,7.82-13.57,12.27a6.11,6.11,0,0,0,.11,1.13C217.94,357.69,265.89,368.47,324.67,368.47Z" transform="translate(-48.01 -29)"/><polygon class="cls-25" points="170.45 280.16 170.45 309.83 169.22 309.27 169.22 280.74 170.45 280.16"/><path class="cls-26" d="M218.46,309.17v29.66a40.94,40.94,0,0,0,5.24-2.89V306.28A40.93,40.93,0,0,1,218.46,309.17Z" transform="translate(-48.01 -29)"/><polygon class="cls-25" points="381.12 277.39 381.12 307.85 382.36 307.27 382.36 277.99 381.12 277.39"/><path class="cls-26" d="M423.89,303v30.44a32,32,0,0,0,5.24,3.38V306.39A32.12,32.12,0,0,1,423.89,303Z" transform="translate(-48.01 -29)"/><path class="cls-26" d="M263.19,334.77v29.61q2.57.41,5.24.78V335.55Q265.76,335.18,263.19,334.77Z" transform="translate(-48.01 -29)"/><polygon class="cls-25" points="220.3 306.54 220.3 336.16 221.06 335.6 221.06 307.12 220.3 306.54"/><path class="cls-26" d="M277.69,336.7v29.61q2.58.29,5.24.54V337.25Q280.27,337,277.69,336.7Z" transform="translate(-48.01 -29)"/><polygon class="cls-25" points="234.84 308.24 234.84 337.86 235.45 337.3 235.45 308.81 234.84 308.24"/><path class="cls-26" d="M292.18,338v29.61q2.59.19,5.24.35V338.37Q294.78,338.21,292.18,338Z" transform="translate(-48.01 -29)"/><polygon class="cls-25" points="249.29 309.36 249.29 338.98 249.75 338.42 249.75 309.94 249.29 309.36"/><polygon class="cls-25" points="176.93 295.19 176.93 324.81 178.16 324.25 178.16 295.77 176.93 295.19"/><path class="cls-26" d="M219.7,320.91v29.61a32.11,32.11,0,0,0,5.24,3.29V324.19A32.23,32.23,0,0,1,219.7,320.91Z" transform="translate(-48.01 -29)"/><polygon class="cls-25" points="191.43 300.85 191.43 330.47 192.66 329.9 192.66 301.42 191.43 300.85"/><path class="cls-26" d="M234.2,328v29.61q2.48.85,5.24,1.64V329.67Q236.68,328.88,234.2,328Z" transform="translate(-48.01 -29)"/><polygon class="cls-25" points="205.87 304.12 205.87 333.74 206.8 333.18 206.8 304.7 205.87 304.12"/><path class="cls-26" d="M248.69,332v29.61q2.54.57,5.24,1.1V333.13Q251.24,332.6,248.69,332Z" transform="translate(-48.01 -29)"/><polygon class="cls-25" points="345.65 304.46 345.65 334.08 344.73 333.52 344.73 305.04 345.65 304.46"/><path class="cls-26" d="M393.66,333.47v29.61q2.69-.51,5.24-1.06V332.41Q396.36,333,393.66,333.47Z" transform="translate(-48.01 -29)"/><polygon class="cls-25" points="331.15 306.78 331.15 336.4 330.4 335.84 330.4 307.36 331.15 306.78"/><path class="cls-26" d="M379.17,335.79V365.4q2.67-.36,5.24-.75V335Q381.84,335.43,379.17,335.79Z" transform="translate(-48.01 -29)"/><polygon class="cls-25" points="360.15 301.16 360.15 330.78 358.92 330.21 358.92 301.74 360.15 301.16"/><path class="cls-26" d="M408.16,330.16v29.61q2.75-.75,5.24-1.56V328.61C411.74,329.14,410,329.66,408.16,330.16Z" transform="translate(-48.01 -29)"/><polygon class="cls-25" points="374.65 296.04 374.65 325.66 373.41 325.1 373.41 296.62 374.65 296.04"/><path class="cls-26" d="M422.66,325v29.61a41,41,0,0,0,5.24-2.88V322.17A41,41,0,0,1,422.66,325Z" transform="translate(-48.01 -29)"/><polygon class="cls-25" points="287.66 310.03 287.66 339.65 287.21 339.09 287.21 310.61 287.66 310.03"/><path class="cls-26" d="M335.67,339v29.61q2.64-.06,5.24-.15V338.88Q338.32,339,335.67,339Z" transform="translate(-48.01 -29)"/><polygon class="cls-25" points="302.16 309.46 302.16 339.08 301.7 338.52 301.7 310.04 302.16 309.46"/><path class="cls-26" d="M350.17,338.47v29.61q2.65-.15,5.24-.32V338.14Q352.82,338.32,350.17,338.47Z" transform="translate(-48.01 -29)"/><polygon class="cls-25" points="316.66 308.4 316.66 338.02 316.05 337.46 316.05 308.98 316.66 308.4"/><path class="cls-26" d="M364.67,337.41V367q2.66-.24,5.24-.52V336.89Q367.32,337.17,364.67,337.41Z" transform="translate(-48.01 -29)"/><path class="cls-24" d="M300.23,338.52c-47.12-2.5-82.65-12.07-84.84-23.65a6.11,6.11,0,0,0-.11,1.13c0,12.09,36.29,22.21,84.93,24.79v-2.24Z" transform="translate(-48.01 -29)"/><path class="cls-24" d="M333.93,339.07v2.27c56.09-1.09,100.14-12,100.14-25.34a6.11,6.11,0,0,0-.11-1.13C431.54,327.67,388.41,338,333.93,339.07Z" transform="translate(-48.01 -29)"/><polygon class="cls-27" points="252.22 309.52 254.27 307.17 254.15 309.75 252.19 311.79 252.22 309.52"/><polygon class="cls-27" points="285.14 307.62 285.92 310.07 285.92 312.33 285.12 310.24 285.14 307.62"/><path class="cls-24" d="M219,313.73a5.18,5.18,0,0,0,.13,1.13c.68-3,4.1-5.94,9.74-8.57V304C222.53,307,219,310.27,219,313.73Z" transform="translate(-48.01 -29)"/><path class="cls-24" d="M420.5,304v2.25c5.64,2.62,9.06,5.52,9.74,8.57a5.18,5.18,0,0,0,.13-1.13C430.37,310.27,426.82,307,420.5,304Z" transform="translate(-48.01 -29)"/><path class="cls-12" d="M300.23,338.52l2.05-2.35c-46-2.16-80.82-10.8-83.17-21.31a5.18,5.18,0,0,1-.13-1.13c0-3.46,3.55-6.75,9.87-9.69v-2.58c-8.65,3.64-13.57,7.82-13.57,12.27a6.11,6.11,0,0,0,.11,1.13C217.57,326.45,253.11,336,300.23,338.52Z" transform="translate(-48.01 -29)"/><path class="cls-12" d="M333.93,339.07c54.49-1.06,97.62-11.4,100-24.2a6.11,6.11,0,0,0,.11-1.13c0-4.45-4.93-8.64-13.57-12.27V304c6.32,2.94,9.87,6.23,9.87,9.69a5.18,5.18,0,0,1-.13,1.13c-2.58,11.54-44.39,20.84-97.09,21.75l.78,2.34Z" transform="translate(-48.01 -29)"/><polygon class="cls-25" points="255.07 340.43 255.07 479.4 255.76 478.84 255.76 341.01 255.07 340.43"/><rect class="cls-26" x="249.83" y="340.43" width="5.24" height="138.97"/><polygon class="cls-25" points="281.19 340.43 281.19 479.4 281.88 478.84 281.88 341.01 281.19 340.43"/><rect class="cls-26" x="275.94" y="340.43" width="5.24" height="138.97"/><path class="cls-26" d="M313.56,379.56a34.17,34.17,0,0,1-13.89-2.89l1.08-2.22c.12.06,12.31,5.83,25.17,0l1,2.25A32.11,32.11,0,0,1,313.56,379.56Z" transform="translate(-48.01 -29)"/><g class="cls-28"><path class="cls-29" d="M306.06,375.66a4.72,4.72,0,0,0-3.91,2.57" transform="translate(-48.01 -29)"/><path class="cls-29" d="M308,376.18a4.72,4.72,0,0,0-3.91,2.57" transform="translate(-48.01 -29)"/><path class="cls-29" d="M310.38,376.59a4.72,4.72,0,0,0-3.91,2.57" transform="translate(-48.01 -29)"/><path class="cls-29" d="M312.44,376.79a6.65,6.65,0,0,0-4.22,3.08" transform="translate(-48.01 -29)"/><path class="cls-29" d="M315,376.56a7.63,7.63,0,0,0-4.22,3.32" transform="translate(-48.01 -29)"/><path class="cls-29" d="M317.17,376.59a4.62,4.62,0,0,0-3.39,3.39" transform="translate(-48.01 -29)"/><path class="cls-29" d="M319.79,376.1s-2.83,1.52-3.34,3.78" transform="translate(-48.01 -29)"/><path class="cls-29" d="M321.87,375.41s-2.65,1.8-3.16,4.06" transform="translate(-48.01 -29)"/><path class="cls-29" d="M323.54,375a7.82,7.82,0,0,0-2.36,3.8" transform="translate(-48.01 -29)"/><path class="cls-29" d="M325.39,374.94a7.82,7.82,0,0,0-2.36,3.8" transform="translate(-48.01 -29)"/></g><path class="cls-26" d="M313.56,398.37a34.17,34.17,0,0,1-13.89-2.89l1.08-2.22c.12.06,12.31,5.83,25.17,0l1,2.25A32.11,32.11,0,0,1,313.56,398.37Z" transform="translate(-48.01 -29)"/><g class="cls-30"><path class="cls-29" d="M306.06,394.48a4.72,4.72,0,0,0-3.91,2.57" transform="translate(-48.01 -29)"/><path class="cls-29" d="M308,395a4.72,4.72,0,0,0-3.91,2.57" transform="translate(-48.01 -29)"/><path class="cls-29" d="M310.38,395.4a4.72,4.72,0,0,0-3.91,2.57" transform="translate(-48.01 -29)"/><path class="cls-29" d="M312.44,395.61a6.65,6.65,0,0,0-4.22,3.08" transform="translate(-48.01 -29)"/><path class="cls-29" d="M315,395.38a7.63,7.63,0,0,0-4.22,3.32" transform="translate(-48.01 -29)"/><path class="cls-29" d="M317.17,395.4a4.62,4.62,0,0,0-3.39,3.39" transform="translate(-48.01 -29)"/><path class="cls-29" d="M319.79,394.92s-2.83,1.52-3.34,3.78" transform="translate(-48.01 -29)"/><path class="cls-29" d="M321.87,394.22s-2.65,1.8-3.16,4.06" transform="translate(-48.01 -29)"/><path class="cls-29" d="M323.54,393.86a7.82,7.82,0,0,0-2.36,3.8" transform="translate(-48.01 -29)"/><path class="cls-29" d="M325.39,393.76a7.82,7.82,0,0,0-2.36,3.8" transform="translate(-48.01 -29)"/></g><path class="cls-26" d="M313.56,417.19a34.17,34.17,0,0,1-13.89-2.89l1.08-2.22c.12.06,12.31,5.83,25.17,0l1,2.25A32.11,32.11,0,0,1,313.56,417.19Z" transform="translate(-48.01 -29)"/><g class="cls-31"><path class="cls-29" d="M306.06,413.29a4.72,4.72,0,0,0-3.91,2.57" transform="translate(-48.01 -29)"/><path class="cls-29" d="M308,413.81a4.72,4.72,0,0,0-3.91,2.57" transform="translate(-48.01 -29)"/><path class="cls-29" d="M310.38,414.22a4.72,4.72,0,0,0-3.91,2.57" transform="translate(-48.01 -29)"/><path class="cls-29" d="M312.44,414.42a6.65,6.65,0,0,0-4.22,3.08" transform="translate(-48.01 -29)"/><path class="cls-29" d="M315,414.19a7.63,7.63,0,0,0-4.22,3.32" transform="translate(-48.01 -29)"/><path class="cls-29" d="M317.17,414.22a4.62,4.62,0,0,0-3.39,3.39" transform="translate(-48.01 -29)"/><path class="cls-29" d="M319.79,413.73s-2.83,1.52-3.34,3.78" transform="translate(-48.01 -29)"/><path class="cls-29" d="M321.87,413s-2.65,1.8-3.16,4.06" transform="translate(-48.01 -29)"/><path class="cls-29" d="M323.54,412.68a7.82,7.82,0,0,0-2.36,3.8" transform="translate(-48.01 -29)"/><path class="cls-29" d="M325.39,412.57a7.82,7.82,0,0,0-2.36,3.8" transform="translate(-48.01 -29)"/></g><path class="cls-26" d="M313.56,436a34.17,34.17,0,0,1-13.89-2.89l1.08-2.22c.12.06,12.31,5.83,25.17,0l1,2.25A32.11,32.11,0,0,1,313.56,436Z" transform="translate(-48.01 -29)"/><g class="cls-32"><path class="cls-29" d="M306.06,432.11a4.72,4.72,0,0,0-3.91,2.57" transform="translate(-48.01 -29)"/><path class="cls-29" d="M308,432.62a4.72,4.72,0,0,0-3.91,2.57" transform="translate(-48.01 -29)"/><path class="cls-29" d="M310.38,433a4.72,4.72,0,0,0-3.91,2.57" transform="translate(-48.01 -29)"/><path class="cls-29" d="M312.44,433.24a6.65,6.65,0,0,0-4.22,3.08" transform="translate(-48.01 -29)"/><path class="cls-29" d="M315,433a7.63,7.63,0,0,0-4.22,3.32" transform="translate(-48.01 -29)"/><path class="cls-29" d="M317.17,433a4.62,4.62,0,0,0-3.39,3.39" transform="translate(-48.01 -29)"/><path class="cls-29" d="M319.79,432.55s-2.83,1.52-3.34,3.78" transform="translate(-48.01 -29)"/><path class="cls-29" d="M321.87,431.85s-2.65,1.8-3.16,4.06" transform="translate(-48.01 -29)"/><path class="cls-29" d="M323.54,431.49a7.82,7.82,0,0,0-2.36,3.8" transform="translate(-48.01 -29)"/><path class="cls-29" d="M325.39,431.39a7.82,7.82,0,0,0-2.36,3.8" transform="translate(-48.01 -29)"/></g><path class="cls-26" d="M313.56,454.82a34.17,34.17,0,0,1-13.89-2.89l1.08-2.22c.12.06,12.31,5.83,25.17,0l1,2.25A32.11,32.11,0,0,1,313.56,454.82Z" transform="translate(-48.01 -29)"/><g class="cls-33"><path class="cls-29" d="M306.06,450.92a4.72,4.72,0,0,0-3.91,2.57" transform="translate(-48.01 -29)"/><path class="cls-29" d="M308,451.44a4.72,4.72,0,0,0-3.91,2.57" transform="translate(-48.01 -29)"/><path class="cls-29" d="M310.38,451.85a4.72,4.72,0,0,0-3.91,2.57" transform="translate(-48.01 -29)"/><path class="cls-29" d="M312.44,452.06a6.65,6.65,0,0,0-4.22,3.08" transform="translate(-48.01 -29)"/><path class="cls-29" d="M315,451.82a7.63,7.63,0,0,0-4.22,3.32" transform="translate(-48.01 -29)"/><path class="cls-29" d="M317.17,451.85a4.62,4.62,0,0,0-3.39,3.39" transform="translate(-48.01 -29)"/><path class="cls-29" d="M319.79,451.36s-2.83,1.52-3.34,3.78" transform="translate(-48.01 -29)"/><path class="cls-29" d="M321.87,450.67s-2.65,1.8-3.16,4.06" transform="translate(-48.01 -29)"/><path class="cls-29" d="M323.54,450.31a7.82,7.82,0,0,0-2.36,3.8" transform="translate(-48.01 -29)"/><path class="cls-29" d="M325.39,450.2A7.82,7.82,0,0,0,323,454" transform="translate(-48.01 -29)"/></g><path class="cls-26" d="M313.56,473.63a34.17,34.17,0,0,1-13.89-2.89l1.08-2.22c.12.06,12.31,5.83,25.17,0l1,2.25A32.11,32.11,0,0,1,313.56,473.63Z" transform="translate(-48.01 -29)"/><g class="cls-34"><path class="cls-29" d="M306.06,469.74a4.72,4.72,0,0,0-3.91,2.57" transform="translate(-48.01 -29)"/><path class="cls-29" d="M308,470.25a4.72,4.72,0,0,0-3.91,2.57" transform="translate(-48.01 -29)"/><path class="cls-29" d="M310.38,470.67a4.72,4.72,0,0,0-3.91,2.57" transform="translate(-48.01 -29)"/><path class="cls-29" d="M312.44,470.87a6.65,6.65,0,0,0-4.22,3.08" transform="translate(-48.01 -29)"/><path class="cls-29" d="M315,470.64a7.63,7.63,0,0,0-4.22,3.32" transform="translate(-48.01 -29)"/><path class="cls-29" d="M317.17,470.67a4.62,4.62,0,0,0-3.39,3.39" transform="translate(-48.01 -29)"/><path class="cls-29" d="M319.79,470.18s-2.83,1.52-3.34,3.78" transform="translate(-48.01 -29)"/><path class="cls-29" d="M321.87,469.48s-2.65,1.8-3.16,4.06" transform="translate(-48.01 -29)"/><path class="cls-29" d="M323.54,469.12a7.82,7.82,0,0,0-2.36,3.8" transform="translate(-48.01 -29)"/><path class="cls-29" d="M325.39,469a7.82,7.82,0,0,0-2.36,3.8" transform="translate(-48.01 -29)"/></g><path class="cls-26" d="M313.56,492.45a34.17,34.17,0,0,1-13.89-2.89l1.08-2.22c.12.06,12.31,5.83,25.17,0l1,2.25A32.11,32.11,0,0,1,313.56,492.45Z" transform="translate(-48.01 -29)"/><g class="cls-35"><path class="cls-29" d="M306.06,488.55a4.72,4.72,0,0,0-3.91,2.57" transform="translate(-48.01 -29)"/><path class="cls-29" d="M308,489.07a4.72,4.72,0,0,0-3.91,2.57" transform="translate(-48.01 -29)"/><path class="cls-29" d="M310.38,489.48a4.72,4.72,0,0,0-3.91,2.57" transform="translate(-48.01 -29)"/><path class="cls-29" d="M312.44,489.69a6.65,6.65,0,0,0-4.22,3.08" transform="translate(-48.01 -29)"/><path class="cls-29" d="M315,489.45a7.63,7.63,0,0,0-4.22,3.32" transform="translate(-48.01 -29)"/><path class="cls-29" d="M317.17,489.48a4.62,4.62,0,0,0-3.39,3.39" transform="translate(-48.01 -29)"/><path class="cls-29" d="M319.79,489s-2.83,1.52-3.34,3.78" transform="translate(-48.01 -29)"/><path class="cls-29" d="M321.87,488.3s-2.65,1.8-3.16,4.06" transform="translate(-48.01 -29)"/><path class="cls-29" d="M323.54,487.94a7.82,7.82,0,0,0-2.36,3.8" transform="translate(-48.01 -29)"/><path class="cls-29" d="M325.39,487.84a7.82,7.82,0,0,0-2.36,3.8" transform="translate(-48.01 -29)"/></g></g></g></svg>