<svg id="Слой_1" data-name="Слой 1" xmlns="http://www.w3.org/2000/svg" viewBox="0 0 290.92 189.36"><defs><style>.cls-1{fill:#008c56;}.cls-2{fill:none;stroke:#008c56;stroke-linecap:square;stroke-miterlimit:10;}</style></defs><title>human</title><path class="cls-1" d="M146.91,182.66c.1.29.21.58.33.86,5.75,13,16.47,23.3,29.36,23.3,13.38,0,24.42-11.08,30-24.79.1-.25.18-.49.26-.74,1.64-5.38,4.23-12.12,3.54-22.24-.78-21.07-8.67-30-18.38-33.26-10-3.31-20.45-4.09-31.35,0C151,129.08,144,137.91,142.83,157c0,.24,0,.49,0,.73A75.51,75.51,0,0,0,146.91,182.66Z" transform="translate(-34.79 -85.5)"/><path class="cls-1" d="M203.5,207.08l-6.2-1.74s-5.75,14.44-20.33,14.44-20.82-14.5-20.82-14.5l-6.42,1.8c-14.88,4.18-25.32,19.12-25.32,36.32v20.51c0,5.9,4.35,10.94,9.61,10.94h85.16c5.26,0,9.62-5,9.62-10.94V243.4C228.81,226.19,218.38,211.26,203.5,207.08Z" transform="translate(-34.79 -85.5)"/><polyline class="cls-2" points="11.37 0.5 16.7 0.5 16.7 19.41 22.3 13.74 26.21 17.59 13.55 30.31"/><polyline class="cls-2" points="15.55 0.5 10.22 0.5 10.22 19.41 4.61 13.74 0.71 17.59 13.37 30.31"/><polyline class="cls-2" points="98.37 0.5 103.69 0.5 103.69 19.41 109.31 13.74 113.21 17.59 100.55 30.31"/><polyline class="cls-2" points="102.55 0.5 97.22 0.5 97.22 19.41 91.61 13.74 87.71 17.59 100.37 30.31"/><polyline class="cls-2" points="187.37 0.5 192.69 0.5 192.69 19.41 198.31 13.74 202.21 17.59 189.55 30.31"/><polyline class="cls-2" points="191.55 0.5 186.22 0.5 186.22 19.41 180.61 13.74 176.71 17.59 189.37 30.31"/><polyline class="cls-2" points="275.37 0.5 280.69 0.5 280.69 19.41 286.31 13.74 290.21 17.59 277.55 30.31"/><polyline class="cls-2" points="279.55 0.57 274.22 0.57 274.22 19.48 268.61 13.81 264.71 17.66 277.37 30.38"/></svg>