<svg id="Слой_1" data-name="Слой 1" xmlns="http://www.w3.org/2000/svg" viewBox="0 0 134.08 50.72"><defs><style>.cls-1{fill:#bc4831;}.cls-2{fill:#fbe3cc;}.cls-3{fill:#2d2d2d;}.cls-4{fill:#89724e;}.cls-5{fill:#ff5424;}.cls-6{fill:#fcf7f5;}.cls-7{fill:none;stroke:#000;stroke-linecap:round;stroke-linejoin:round;}</style></defs><title>koi1</title><path class="cls-1" d="M105,24.77c-3.77,2.77-10.89-.65-10.89-.73A52.2,52.2,0,0,1,100,25.49a55.92,55.92,0,0,1,8.72,3.63A41.28,41.28,0,0,0,113,31.3a22.73,22.73,0,0,0,5.81,1.45c2.42.26,2.33-.17,6.54,0,2,.08,3.63.24,3.63,0,0-.06-.07-.14-1.45-.73a10.83,10.83,0,0,1-2.91-1.45c-.47-.39-.38-.45-.73-.73-1.24-1-2.52-.43-4.36-.73-1.36-.18-2.36-.88-4.36-2.18-1.29-.85-1.22-1-2.91-2.18-2.18-1.53-3.29-2.29-4.36-2.18C106.63,22.73,106.25,23.88,105,24.77Z" transform="translate(-0.01 0.01)"/><path class="cls-1" d="M107.18,24c2.37.56,2,.55,2.91.73a20.06,20.06,0,0,0,8,0c1.78-.38,1.21-.55,4.36-1.45,3.51-1,5.81-1.45,5.81-1.45a11.13,11.13,0,0,0,4.36-1.45c.15-.1,1.63-1.1,1.45-1.45s-1.39-.1-2.18,0c-3.3.43-4.34-.88-8.72-1.45a20.64,20.64,0,0,0-6.54,0,27.29,27.29,0,0,0-6.52,2.16c-2.42,1.08-2.94,1.63-5.08,2.18s-3.63.46-3.63.73S103.28,23.11,107.18,24Z" transform="translate(-0.01 0.01)"/><path class="cls-1" d="M68.73,9.52c-.28,1.73-3.86,2.75-6.54,2.91-4.18.25-4.93-1.65-11.62-2.91-3.44-.65-5.69-.74-5.81-1.45s1.3-1.54,3.63-2.91C49.55,4.48,50.62,4,52.75,3,57.62.69,56.2,1.69,57.83.8c1-.56,1.6-1,2.18-.73.85.35.59,1.66,1.45,2.91s1.83,1,3.63,2.18C65.28,5.27,69,7.63,68.73,9.52Z" transform="translate(-0.01 0.01)"/><path class="cls-1" d="M75.28,16.06c2.05,4.15,7.16,5.34,12.35,6.54,7.53,1.73,14.53,1.15,14.53.73,0-.11-.87-.13-2.18-.73-2.06-.91-2.26-2-4.36-2.91-1-.45-.87-.19-2.18-.73a10.94,10.94,0,0,1-3.63-2.18c-1-1-.72-1.22-2.18-2.91a21.16,21.16,0,0,0-2.2-2.17,16.49,16.49,0,0,0-2.91-2.18c-1.94-1-5.57-1.78-7.26,0C73.75,11.1,74.32,14.16,75.28,16.06Z" transform="translate(-0.01 0.01)"/><path class="cls-2" d="M4.46,20.77a32.63,32.63,0,0,0,6.9-3.27c1.73-1.08,3.22-1.91,4.51-2.59a11.12,11.12,0,0,1,2.75,4,7.8,7.8,0,0,1,.73,4.36,4.81,4.81,0,0,1-1.44,2.66A8.42,8.42,0,0,0,16.34,24a2.54,2.54,0,1,0-4.49-2.26,4.86,4.86,0,0,0-1.95.07A4.78,4.78,0,0,0,7,24c-.27.53-.37,1.07-.2,2.71a7.17,7.17,0,0,0-1.62.56A8.92,8.92,0,0,0,3.41,28.4H3.35C2.7,28-.52,25.4.08,23.68.5,22.49.63,22.41,4.46,20.77Z" transform="translate(-0.01 0.01)"/><path class="cls-2" d="M6.79,26.71c.05.46.11,1,.2,1.65.11.82.2,1.51.28,2.08a19.74,19.74,0,0,1-3.86-2,8.92,8.92,0,0,1,1.76-1.13A7.17,7.17,0,0,1,6.79,26.71Z" transform="translate(-0.01 0.01)"/><path class="cls-3" d="M7,24a4.78,4.78,0,0,1,2.9-2.16,4.86,4.86,0,0,1,1.95-.07,2.46,2.46,0,0,0-.13.8,2.54,2.54,0,0,0,4.62,1.49A8.42,8.42,0,0,1,17.9,26a9,9,0,0,0-2.19,3.15,9.1,9.1,0,0,0-.65,3.5A47.89,47.89,0,0,1,7.27,30.5c-.08-.6-.17-1.29-.28-2.1a13.75,13.75,0,0,1-.2-1.65A4.73,4.73,0,0,1,7,24Z" transform="translate(-0.01 0.01)"/><path class="cls-4" d="M16.33,24a2.54,2.54,0,0,1-4.62-1.46,2.46,2.46,0,0,1,.13-.8A8.68,8.68,0,0,1,16.33,24Z" transform="translate(-0.01 0.01)"/><path class="cls-4" d="M15.71,20.51A2.54,2.54,0,0,1,16.33,24h0a8.68,8.68,0,0,0-4.49-2.26,2.54,2.54,0,0,1,3.87-1.28Z" transform="translate(-0.01 0.01)"/><path class="cls-3" d="M17.9,26a4.57,4.57,0,0,1,.71,2.43c0,1.63-1.33,2.7-.73,3.63.47.73,1.57.58,2.91.73A12.61,12.61,0,0,1,26,34.6c-3.74-.49-6.62-1.08-10.33-1.85L15,32.62a9.1,9.1,0,0,1,.65-3.5A9,9,0,0,1,17.9,26Z" transform="translate(-0.01 0.01)"/><path class="cls-5" d="M29.54,33.45a5.21,5.21,0,0,1-1,1.43c-.89-.11-1.72-.2-2.51-.31a12.61,12.61,0,0,0-5.21-1.9c-1.35-.15-2.45,0-2.91-.73-.59-.93.68-2,.73-3.63a4.57,4.57,0,0,0-.71-2.43,4.81,4.81,0,0,0,1.44-2.66,7.8,7.8,0,0,0-.73-4.36,11.12,11.12,0,0,0-2.75-4l2-1a66.19,66.19,0,0,1,9.3-4.07,3.84,3.84,0,0,1,.86,2.62c-.25,2.64-4,3-4.36,5.81-.19,1.4.6,2.63,2.18,5.08,1.48,2.29,2.41,2.84,3.09,3.94a5.66,5.66,0,0,1,.54,1.15,7.92,7.92,0,0,1,.5,2.93A5.5,5.5,0,0,1,29.54,33.45Z" transform="translate(-0.01 0.01)"/><path class="cls-6" d="M29.5,28.39A5.66,5.66,0,0,0,29,27.24c-.68-1.11-1.61-1.65-3.09-3.94s-2.38-3.67-2.18-5.08c.36-2.81,4.11-3.17,4.36-5.81a3.84,3.84,0,0,0-.86-2.62l.86-.28a45.19,45.19,0,0,1,5.1-1.29,3,3,0,0,0,1.44,2c1.46.64,3.08-1.46,5.08-.73.85.31,1.58,1.07,1.45,1.45-.23.73-3.08-.58-5.81.73-1.31.63-3,2-2.91,3.63,0,1,.79,1.58,2.18,2.91,1,1,2.6,2.49,4.36,2.18a2.37,2.37,0,0,0,1.45-.73c.88-1-.06-2.22.73-3.63a2.74,2.74,0,0,1,2.18-1.45c.79,0,1.28.57,2.18,1.45a52.58,52.58,0,0,0,4.36,3.63c1.74,1.32,2.63,2,3.63,2.18a5.17,5.17,0,0,0,1.48.07A4.42,4.42,0,0,0,56.37,24c1.33,1.1,2.63.81,2.91,1.45s-.41,1.34-1.09,2.11a10.82,10.82,0,0,0-1.82-1.38c-.8-.51-.85-.45-4.36-2.18-2.63-1.31-3-1.5-3.63-1.45-2.16.19-3.47,2.61-3.63,2.91-.89,1.71-.54,3.43,0,5.81.37,1.73.7,3.18,1,4.42l-2.48-.07c-7-.19-10.53-.3-14.53-.73H28.5a5.21,5.21,0,0,0,1-1.43A5.5,5.5,0,0,0,30,31.3,7.92,7.92,0,0,0,29.5,28.39Z" transform="translate(-0.01 0.01)"/><path class="cls-5" d="M41.1,10.94c.13-.38-.59-1.14-1.45-1.45-2-.73-3.61,1.37-5.08.73a3,3,0,0,1-1.44-2,57.64,57.64,0,0,1,7.25-.89,65.9,65.9,0,0,1,15.25.73A74.46,74.46,0,0,1,63.36,9.6c-.55.15-1.18.34-1.9.59-2.63.91-3.36,1.36-3.63,2.18s.16,1.68.73,2.91c.8,1.7,1.45,2,1.45,2.91a1.83,1.83,0,0,1-.06.4c-2.26.14-4.68,1.2-5,2.51a1.66,1.66,0,0,0,0,.8,5.17,5.17,0,0,1-1.48-.07c-1-.18-1.89-.86-3.63-2.18A52.58,52.58,0,0,1,45.48,16c-.9-.88-1.39-1.45-2.18-1.45A2.74,2.74,0,0,0,41.12,16c-.8,1.41.14,2.63-.73,3.63a2.37,2.37,0,0,1-1.45.73c-1.76.3-3.36-1.18-4.36-2.18-1.39-1.33-2.13-1.91-2.18-2.91-.09-1.63,1.6-3,2.91-3.63C38,10.39,40.89,11.66,41.1,10.94Z" transform="translate(-0.01 0.01)"/><path class="cls-5" d="M62.46,35.53a13.9,13.9,0,0,0-2.84-1.68c-3.2-1.53-3.81-1.18-5.81-2.18-3.7-1.88-5-4.81-5.81-4.36-.48.26-.32,1.38,0,3.63a25.8,25.8,0,0,0,1.11,4.87c-1,0-2.14-.08-3.35-.08-.27-1.24-.6-2.69-1-4.42-.54-2.38-.89-4.1,0-5.81.16-.3,1.47-2.73,3.63-2.91.63,0,1,.14,3.63,1.45,3.51,1.73,3.56,1.67,4.36,2.18A10.82,10.82,0,0,1,58.2,27.6a3,3,0,0,0-1.09,2.25c.26,1.84,4,3.27,7.26,2.91,1.55-.18,2.73-.84,5.08-2.18.69-.4,1.34-.77,1.94-1.13a4.11,4.11,0,0,1,1.69,1.85,3.25,3.25,0,0,1-.24,2.81l-.49.09c-.54.11-1.6.29-3.05.52C67.56,35,65.23,35.28,62.46,35.53Z" transform="translate(-0.01 0.01)"/><path class="cls-1" d="M53.83,31.66c2,1,2.61.65,5.81,2.18a13.9,13.9,0,0,1,2.84,1.68l-1.75.14a115.19,115.19,0,0,1-11.6.15A25.8,25.8,0,0,1,48,30.94c-.32-2.25-.48-3.37,0-3.63C48.86,26.86,50.13,29.79,53.83,31.66Z" transform="translate(-0.01 0.01)"/><path class="cls-1" d="M60.73,35.65l1.75-.14c.67.56.79,1,.79,1.23.06,1.25-1.76,2-1.45,2.91.18.67,1.26.45,2.18,1.45a2.66,2.66,0,0,1,.73,2.18c-.15.53.14.85-.73,1.45-1.39,1-.91,1.91,0,2.91a2.38,2.38,0,0,1,0,2.91c-1,.92-5.72-2.25-8.72-5.08a23.6,23.6,0,0,1-3.63-4.36,25,25,0,0,1-2.18-4.36c-.12-.32-.24-.63-.34-.94A115.19,115.19,0,0,0,60.73,35.65Z" transform="translate(-0.01 0.01)"/><path class="cls-1" d="M68.36.43c.1.44-2,.89-2.18,2.18-.08.87.77,1.61,1.45,2.18A10.91,10.91,0,0,0,72,7c6.36,1.62,7.08,1.55,8.16,1.95-1.41.77-3,1.7-4.9,2.77-.66.37-1.28.74-1.82,1.1q-1.56-.56-3.27-1.1c-2.07-.62-4.28-1.34-6.81-2,2.18-.62,3.18-.64,3.18-.86.05-.68-8.15-2.63-16.44-3.68a75.79,75.79,0,0,1,9.54-4C64.09-.11,68.26,0,68.36.43Z" transform="translate(-0.01 0.01)"/><path class="cls-3" d="M59.91,18.62a3.87,3.87,0,0,1-1.39,1.78,6.86,6.86,0,0,1-3.6,1.53,1.66,1.66,0,0,1,0-.8C55.24,19.82,57.63,18.76,59.91,18.62Z" transform="translate(-0.01 0.01)"/><path class="cls-2" d="M58.57,20.42A3.87,3.87,0,0,0,60,18.64a4.62,4.62,0,0,1,3.69,1c1.73,1.88-.71,5.54.73,6.54,1.2.82,4.09-.91,7.26-2.91,2.52-1.55,3.62-2.64,4.36-2.18s.47,2.37,0,3.63c-.76,2-2.36,3.32-4.6,4.68a8.58,8.58,0,0,0-2.67-1c-3.88-.86-5.72,2-8.72.73-1-.4-1.06-.8-1.82-1.53.68-.77,1.43-1.36,1.09-2.11s-1.62-.35-2.94-1.49A4.42,4.42,0,0,1,55,21.93,6.86,6.86,0,0,0,58.57,20.42Z" transform="translate(-0.01 0.01)"/><path class="cls-5" d="M60,29.1c3,1.27,4.84-1.59,8.72-.73a8.58,8.58,0,0,1,2.67,1c-.6.37-1.25.74-1.94,1.13-2.35,1.34-3.53,2-5.08,2.18-3.26.35-7-1.08-7.26-2.91a3,3,0,0,1,1.09-2.25C58.94,28.33,59.05,28.73,60,29.1Z" transform="translate(-0.01 0.01)"/><path class="cls-6" d="M61.46,10.26c.72-.25,1.35-.44,1.9-.59,2.52.62,4.74,1.34,6.81,2q1.71.54,3.27,1.1C72,13.74,71,14.72,70.9,16a3.16,3.16,0,0,0,1.45,2.91c1.52.8,2.84-.94,5.08-.73s4.77,2.2,5.08,4.36c.45,3.1-3.93,4.51-3.63,8a5,5,0,0,0,.7,2.08c-2.41.64-4.59,1.06-6.75,1.46a3.25,3.25,0,0,0,.24-2.81,4.11,4.11,0,0,0-1.69-1.85c2.24-1.35,3.84-2.68,4.6-4.68.47-1.26.68-3.2,0-3.63s-1.84.63-4.36,2.18c-3.17,1.91-6,3.73-7.26,2.91-1.44-1,1-4.66-.73-6.54a4.62,4.62,0,0,0-3.69-1,1.83,1.83,0,0,0,.06-.4c0-.91-.65-1.21-1.45-2.91-.58-1.23-1-2.1-.73-2.91S58.78,11.15,61.46,10.26Z" transform="translate(-0.01 0.01)"/><path class="cls-2" d="M103.63,22.57l2.56.48a30.29,30.29,0,0,1-3.35,1c-5.31,1.38-6.23.06-8.72,1.45a6.45,6.45,0,0,0-2.54,2.72C89,29.1,88,29.91,84,31.31c-1.56.55-3,1-4.38,1.35a5,5,0,0,1-.7-2.08c-.3-3.5,4.08-4.91,3.63-8-.31-2.16-2.8-4.16-5.08-4.36s-3.55,1.54-5.08.73A3.16,3.16,0,0,1,70.89,16c.09-1.25,1.07-2.25,2.54-3.25,3.75,1.33,6.8,2.62,8.35,3.25s2.7,1.19,3.7,1.63a7.65,7.65,0,0,0-.07,4.18c.12.41.76,2.6,2.18,2.91,1.1.24,2.1-.77,2.91-1.45a9.5,9.5,0,0,1,4.58-2.16c1.18.21,2.84.48,5.63.94Z" transform="translate(-0.01 0.01)"/><path class="cls-1" d="M72.34,34.2l.49-.09c-.29.65-.71,1.35-1.15,2.19-.79-.51-1.62-1.06-2.38-1.58C70.75,34.5,71.81,34.31,72.34,34.2Z" transform="translate(-0.01 0.01)"/><path class="cls-1" d="M72.85,34.12c2.15-.4,4.34-.82,6.75-1.46a4.77,4.77,0,0,0,2.93,2.28,4.19,4.19,0,0,0,3.17-.8l-.63.44c-1.24.84-1.63.79-2.18,1.45a3.54,3.54,0,0,0-.73,1.45c-.25,1.18.25,1.83,0,2.18s-.91.46-2.91,0a23.59,23.59,0,0,1-4.36-1.45,30.88,30.88,0,0,1-3.21-1.9C72.12,35.47,72.54,34.77,72.85,34.12Z" transform="translate(-0.01 0.01)"/><path class="cls-1" d="M80.15,8.92h0l.54.23c2.16,1,1.81,1.41,5.81,3.63l.31.17c-.21.71-.43,1.51-.67,2.37s-.47,1.62-.65,2.35c-.95-.45-2.12-1-3.7-1.63s-4.6-1.92-8.35-3.25c.55-.36,1.17-.72,1.82-1.1C77.12,10.63,78.74,9.7,80.15,8.92Z" transform="translate(-0.01 0.01)"/><path class="cls-1" d="M85.69,34.14a4.19,4.19,0,0,1-3.17.8,4.77,4.77,0,0,1-2.93-2.28c1.38-.35,2.82-.8,4.38-1.35,4-1.4,5-2.21,7.63-3.09A15.4,15.4,0,0,1,88.33,32a25.34,25.34,0,0,1-2.59,2.08Z" transform="translate(-0.01 0.01)"/><path class="cls-3" d="M92,20.42a23.08,23.08,0,0,0,3.12.74,9.5,9.5,0,0,0-4.58,2.16c-.82.68-1.81,1.68-2.91,1.45-1.42-.31-2.06-2.5-2.18-2.91a7.65,7.65,0,0,1,.07-4.18A40.79,40.79,0,0,0,92,20.42Z" transform="translate(-0.01 0.01)"/><path class="cls-5" d="M102.86,24a30.29,30.29,0,0,0,3.35-1c6.55,1.14,7.55,1.45,7.55,1.73,0,.51-3.7.45-11.62,1.45a63.79,63.79,0,0,0-8.72,1.45c-.7.18-1.29.37-1.82.54a6.45,6.45,0,0,1,2.54-2.72C96.63,24.1,97.55,25.43,102.86,24Z" transform="translate(-0.01 0.01)"/><path class="cls-7" d="M21.14,31a8.93,8.93,0,0,0,6.54-2.18A8,8,0,0,0,29,27.26a6.4,6.4,0,0,0,.9-2.12,7.64,7.64,0,0,0,0-2.91,12.73,12.73,0,0,0-1.45-4.36" transform="translate(-0.01 0.01)"/><path class="cls-7" d="M24.79,32.4A8.81,8.81,0,0,0,30,31.33a5.52,5.52,0,0,0,1.31-1.11,7.12,7.12,0,0,0,1.45-2.91,8.55,8.55,0,0,0,0-4.36" transform="translate(-0.01 0.01)"/></svg>