<svg id="Слой_1" data-name="Слой 1" xmlns="http://www.w3.org/2000/svg" viewBox="0 0 133.03 51.6"><defs><style>.cls-1{fill:#f98064;}.cls-2{fill:#2d2d2d;}.cls-3{fill:#e8e3e2;}.cls-4{fill:#c44e3b;}.cls-5{fill:none;stroke:#000;stroke-linecap:round;stroke-linejoin:round;}.cls-6{fill:#89724e;}</style></defs><title>koi2</title><path class="cls-1" d="M1.55,21.09C3.78,19.91,5,19.72,6.63,18.91a82.75,82.75,0,0,0,7.26-4.36,57.61,57.61,0,0,1,8.72-4.36,48.79,48.79,0,0,1,6.5-2,46.18,46.18,0,0,0-1.8,6.71c-.59,2.67-.57,3.64,0,4.36a3.73,3.73,0,0,0,3.06,1.06,8.1,8.1,0,0,1-4,8.34,4.62,4.62,0,0,0-1.21-1.41c-2.25-2-4.5-.77-5.81-2.18s0-3-1.45-5.08a5.87,5.87,0,0,0-3.63-2.18c-2.08-.37-4.73.34-5.81,2.18-.62,1-.5,2.33.1,4.41a10.86,10.86,0,0,0-3.37,1.76,9.43,9.43,0,0,0-1.72,1.58C2.32,27,.53,25.6.11,24a2.52,2.52,0,0,1,0-1.45A2.83,2.83,0,0,1,1.55,21.09Z" transform="translate(0 -0.01)"/><path class="cls-1" d="M5.2,26.15a10.86,10.86,0,0,1,3.37-1.76c.17.63.38,1.34.62,2.13.53,1.74.92,3.09,1.35,4.09a31.35,31.35,0,0,1-6.07-2.27,11.23,11.23,0,0,1-1-.6A9.43,9.43,0,0,1,5.2,26.15Z" transform="translate(0 -0.01)"/><path class="cls-2" d="M8.46,20c1.08-1.85,3.73-2.55,5.81-2.18A5.87,5.87,0,0,1,17.9,20c1.5,2,.06,3.5,1.45,5s3.56.23,5.81,2.18a4.62,4.62,0,0,1,1.21,1.41,2.59,2.59,0,0,1,.25.77,3,3,0,0,1-.34,1.79,7,7,0,0,1-1.86,2.15c-1.24-.19-3.5-.62-7.6-1.39-2.28-.44-4.35-.84-6.28-1.36-.43-1-.82-2.35-1.35-4.09-.24-.79-.45-1.5-.62-2.13C8,22.31,7.85,21,8.46,20Z" transform="translate(0 -0.01)"/><path class="cls-3" d="M26.64,29.4a2.59,2.59,0,0,0-.25-.77,8.1,8.1,0,0,0,4-8.34A16.65,16.65,0,0,0,33.14,20c1.44-.27,4-.64,4.36-2.18s-2.18-2.41-2.18-4.36c.07-2.65,5-4.5,6.54-5.08a21,21,0,0,1,3.33-1L44.4,8c-3.8,3.09-4.34,2.91-4.36,3.63s.75,1.43,2.08,2.09c1.14,2.37,5.47,3.83,6.27,4.08,3.21,1,5.15.46,6.54,2.18.63.77,1.2,2.08.73,2.91-.25.46-1.08,1-5.81.73s-6.26-1-7.26,0-.82,3.07,0,4.36C44,30,46.85,29.88,47,30.88S45.11,32.6,44,33c-1.49.65-2.8,1.21-4,1.7A142.87,142.87,0,0,1,24.8,33.37l-.38-.06a7,7,0,0,0,1.86-2.15A3,3,0,0,0,26.64,29.4Z" transform="translate(0 -0.01)"/><path class="cls-2" d="M27.35,19.29c-.57-.72-.59-1.69,0-4.36a46.18,46.18,0,0,1,1.78-6.71c1.47-.35,2.91-.63,4.39-.92A59.75,59.75,0,0,1,47,5.84c-.49.44-1.08.95-1.78,1.53a21,21,0,0,0-3.33,1c-1.54.58-6.47,2.42-6.54,5.08,0,1.95,2.54,2.93,2.18,4.36S34.6,19.72,33.16,20a16.65,16.65,0,0,1-2.75.33A3.73,3.73,0,0,1,27.35,19.29Z" transform="translate(0 -0.01)"/><path class="cls-3" d="M44.45,8l.79-.65a9.85,9.85,0,0,1,5.38.29c1.8.66,1.34,1.16,4.34,2.91a27,27,0,0,0,8,2.91c.66.13,4.07.77,4.36,0,.16-.45-.77-.71-.73-1.45s1.32-1.16,2.76-1.5c1.44.49,4.05,1.4,7.38,2.71a3.88,3.88,0,0,0-.7,3.14c.46,1.25,1.89.91,3.63,2.91a8.94,8.94,0,0,1,1,1.49l-3.57-.4-4.79-.58a7.73,7.73,0,0,0-2.11-3.41c-1.88-1.56-3.87-.73-8-.73-3.26,0-8.34,0-12.35-2.91-2.58-1.84-3.3-3.86-5.06-3.68a3.76,3.76,0,0,0-2.91,3.63,2.71,2.71,0,0,0,.27,1c-1.32-.66-2.08-1.36-2.08-2.09C40.11,11,40.62,11.09,44.45,8Z" transform="translate(0 -0.01)"/><path class="cls-1" d="M49.85,12.67c4,2.84,9.09,2.91,12.35,2.91,4.14,0,6.13-.82,8,.73a7.73,7.73,0,0,1,2.11,3.41c-9.61-1.15-24.69-3.27-30.17-6a2.71,2.71,0,0,1-.27-1,3.76,3.76,0,0,1,2.91-3.63C46.54,8.86,47.26,10.88,49.85,12.67Z" transform="translate(0 -0.01)"/><path class="cls-1" d="M47.34,5.82A57.48,57.48,0,0,1,58.23,7.27,87,87,0,0,1,68.4,10.18l.94.32c-1.44.35-2.74.88-2.76,1.5s.89,1,.73,1.45c-.29.77-3.7.13-4.36,0a27,27,0,0,1-8-2.91c-3-1.76-2.56-2.26-4.36-2.91a9.85,9.85,0,0,0-5.38-.29c.7-.53,1.29-1.09,1.78-1.53Z" transform="translate(0 -0.01)"/><path class="cls-4" d="M50.45,2.83C63.22,3.89,73.36,7.5,73.1,9.08c-.11.66-2,1-3.78,1.41l-.94-.32A87,87,0,0,0,58.21,7.26,57.48,57.48,0,0,0,47.32,5.81H47A33.44,33.44,0,0,1,50.45,2.83Z" transform="translate(0 -0.01)"/><path class="cls-4" d="M54.61,31.24c2,.89,2.59.66,6.29,1.66a16.84,16.84,0,0,0-1,1.58c-4.06.29-7.64.38-10.94.38a27.81,27.81,0,0,1-.91-4.35c-.34-2.21-.5-3.32,0-3.63C49,26.32,50.54,29.4,54.61,31.24Z" transform="translate(0 -0.01)"/><path class="cls-4" d="M59.88,34.47a3.57,3.57,0,0,0-.59,1.48c0,2,2.2,4,4.76,5.08-.91.29-1.93.4-2.22,1.1s.45,1.07,1.45,3.63a.88.88,0,0,1,.12.33q-3.07-.15-6-.41c-.52-.49-1.18-1.1-2.1-2.1-3.25-3.4-4.87-5.1-5.81-7.26A13.4,13.4,0,0,1,49,34.86C52.25,34.84,55.83,34.78,59.88,34.47Z" transform="translate(0 -0.01)"/><path class="cls-4" d="M58.23.73A44.14,44.14,0,0,1,65.49,0C69.34,0,72,.57,72,.74s-2.46-.18-2.91.73S70.21,4,70.57,4.37A8.48,8.48,0,0,0,74.2,6.55c2,.6,2.44,0,3.63.73a5.52,5.52,0,0,1,2.08,2.64,11,11,0,0,0-3.2,3.29C73.38,11.9,70.77,11,69.33,10.5c1.78-.41,3.67-.75,3.78-1.41.26-1.57-9.89-5.19-22.65-6.25a9.38,9.38,0,0,1,1.22-.65C53,1.6,54.74,1.31,58.23.73Z" transform="translate(0 -0.01)"/><path class="cls-4" d="M63.44,46.12a7.87,7.87,0,0,1,.61,3.3c0,.59,0,2-.73,2.18s-1.62-1.29-2.91-2.91a19.65,19.65,0,0,0-3-3Q60.34,45.95,63.44,46.12Z" transform="translate(0 -0.01)"/><path class="cls-4" d="M64.44,34c2,.72,2.49,1.15,2.49,1.55,0,1-3.72,1.73-3.63,2.18s1.65-.07,2.18.73a1.58,1.58,0,0,1,0,1.45A2.16,2.16,0,0,1,64.06,41c-2.56-1.08-4.76-3.08-4.76-5.08a3.57,3.57,0,0,1,.59-1.48C61.35,34.37,62.86,34.23,64.44,34Z" transform="translate(0 -0.01)"/><path class="cls-4" d="M62.55,33.42c.74.23,1.35.44,1.87.62-1.55.19-3.1.33-4.55.44.27-.44.6-1,1-1.58Z" transform="translate(0 -0.01)"/><path class="cls-2" d="M64.39,27.21c.37-2.66-2.2-4-1.45-5.81A2.7,2.7,0,0,1,65.85,20c.59.18,1.18.74,2.18,4.36,1.09,4.13.68,4.94,1.18,6.05-.83.12-1.36.35-1.55.85-.25.69.24,1.54.85,2.27-1.41.22-2.76.39-4.07.54-.52-.18-1.14-.39-1.87-.62l-1.7-.52,1.34-2C64.11,28.1,64.29,28,64.39,27.21Z" transform="translate(0 -0.01)"/><path class="cls-2" d="M69.25,30.39a4.84,4.84,0,0,0,.27.49A5.35,5.35,0,0,0,72.11,33l-3,.46-.6.09c-.61-.74-1.1-1.59-.85-2.27C67.85,30.74,68.38,30.51,69.25,30.39Z" transform="translate(0 -0.01)"/><path class="cls-4" d="M72.07,33c1.41.61,2.77.88,3.22,2.27a3.33,3.33,0,0,1-.13,2.2,11.76,11.76,0,0,1-5.32-2.56,14.34,14.34,0,0,1-1.33-1.37l.6-.09Z" transform="translate(0 -0.01)"/><path class="cls-3" d="M72.43,20l-.07-.22c1.79.23,3.46.42,4.79.58l3.57.4a10.73,10.73,0,0,1,1.15,3.6,7.94,7.94,0,0,1,0,2.25C79.4,27,78.13,28.72,76,28a5.57,5.57,0,0,1-2.91-2.91C72.25,23.22,73.11,22.3,72.43,20Z" transform="translate(0 -0.01)"/><path class="cls-1" d="M81.63,28.75a2.4,2.4,0,0,0,.2.67,3.28,3.28,0,0,0,.85,1.09A51,51,0,0,1,72.08,33a5.35,5.35,0,0,1-2.59-2.08,4.84,4.84,0,0,1-.27-.49c1.59-.22,4.31,0,7.89-.6A35,35,0,0,0,81.63,28.75Z" transform="translate(0 -0.01)"/><path class="cls-1" d="M69.23,30.5c-.5-1.11-.08-1.92-1.18-6.05-1-3.62-1.59-4.19-2.18-4.36A2.7,2.7,0,0,0,63,21.54c-.75,1.76,1.82,3.15,1.45,5.81-.1.73-.33.86-2.18,3.63l-1.34,2c-3.7-1-4.29-.77-6.29-1.66C50.6,29.48,49,26.4,48.06,27c-.5.3-.34,1.42,0,3.63a27.81,27.81,0,0,0,.9,4.35h-.9c-2.88,0-5.56,0-8-.12,1.19-.49,2.5-1,4-1.7,1.07-.46,3-1.31,2.91-2.18-.1-1-3-.83-4.36-2.91-.82-1.3-.92-3.42,0-4.36s2.45-.27,7.26,0,5.56-.27,5.81-.73c.47-.83-.11-2.14-.73-2.91-1.39-1.72-3.33-1.18-6.54-2.18-.8-.25-5.13-1.71-6.27-4.08,5.48,2.69,20.56,4.81,30.17,6l.07.22c.73,2.31-.12,3.23.73,5.08A5.57,5.57,0,0,0,76,28c2.1.72,3.37-1,5.85-1.38a8.32,8.32,0,0,0-.25,2.16,35,35,0,0,1-4.52,1C73.52,30.36,70.8,30.17,69.23,30.5Z" transform="translate(0 -0.01)"/><path class="cls-2" d="M81.86,24.3a10.73,10.73,0,0,0-1.15-3.6c5.51.6,13.5,1.13,13.86-.4a1,1,0,0,0-.18-.71c1.41.29,2.7.52,3.81.71l1.23.2a1.5,1.5,0,0,1-.15.89c-.81,1.64-4.31.18-5.81,2.18A3.72,3.72,0,0,0,93,26.45l-1.29.39a33.32,33.32,0,0,0-4,1.43,5.08,5.08,0,0,0-.56-.38c.59-.51,1-.75.88-1s-.82,0-2,.4a7.11,7.11,0,0,0-3.44-.76,5,5,0,0,0-.68.07A7.86,7.86,0,0,0,81.86,24.3Z" transform="translate(0 -0.01)"/><path class="cls-1" d="M81.87,26.6a5,5,0,0,1,.68-.07,7.11,7.11,0,0,1,3.44.76c-1.09.38-2.58,1-4.37,1.47A8.32,8.32,0,0,1,81.87,26.6Z" transform="translate(0 -0.01)"/><path class="cls-1" d="M87.12,28a10,10,0,0,0-1,1l-1.77.82c-.56.27-1.12.5-1.69.73a3.28,3.28,0,0,1-.85-1.09,2.4,2.4,0,0,1-.2-.67c1.8-.47,3.29-1.09,4.37-1.47A8.64,8.64,0,0,1,87.12,28Z" transform="translate(0 -0.01)"/><path class="cls-4" d="M86.09,29a10,10,0,0,0-1,1.55l-.55,1a5.75,5.75,0,0,1-1.87-1c.56-.23,1.12-.46,1.69-.73Z" transform="translate(0 -0.01)"/><path class="cls-4" d="M80.74,34.88A2,2,0,0,0,80,37c.32,1,1.53,1.18,1.45,1.45s-2.19.06-5.08-.73l-1.22-.34a3.33,3.33,0,0,0,.13-2.2c-.45-1.39-1.81-1.65-3.22-2.27a51,51,0,0,0,10.6-2.45,5.75,5.75,0,0,0,1.87,1,12.34,12.34,0,0,0-.9,1.9c-.24.73-.29,1.2-.73,1.45C82.19,35.29,81.48,34.49,80.74,34.88Z" transform="translate(0 -0.01)"/><path class="cls-2" d="M94.31,19.64a1,1,0,0,1,.18.71c-.35,1.53-8.35,1-13.86.4a8.94,8.94,0,0,0-1-1.49c-1.73-2-3.17-1.67-3.63-2.91a3.88,3.88,0,0,1,.7-3.14c1,.41,2.14.85,3.3,1.33,5.6,2.32,5.65,2.63,8.72,3.63C90.75,18.81,92.64,19.27,94.31,19.64Z" transform="translate(0 -0.01)"/><path class="cls-1" d="M87.09,27.94a5.08,5.08,0,0,1,.56.38c-.54.23-1.09.45-1.54.65A10,10,0,0,1,87.09,27.94Z" transform="translate(0 -0.01)"/><path class="cls-2" d="M88,26.93c.12.16-.29.44-.88,1A8.64,8.64,0,0,0,86,27.28C87.11,26.85,87.87,26.77,88,26.93Z" transform="translate(0 -0.01)"/><path class="cls-4" d="M76.7,13.21a11,11,0,0,1,3.2-3.29l.1.26c.6,1.61.07,2.17.73,2.91a3.83,3.83,0,0,0,3.63.73c1.12-.31,1.71-.95,2.18-.73s.4.79.73,1.45c.63,1.31,2.1,1.42,3.63,2.18a9.06,9.06,0,0,1,3.45,2.92,57,57,0,0,1-5.63-1.47c-3.08-1-3.13-1.31-8.72-3.63C78.84,14,77.74,13.6,76.7,13.21Z" transform="translate(0 -0.01)"/><path class="cls-1" d="M97.12,24.37a2.86,2.86,0,0,0-.82,1.32h-.16c-.51-.32-.84-.66-.84-1,.08-.9,3-1.83,6.67-1.9v0a3.64,3.64,0,0,1-1.27.76C99.27,24.11,98.11,23.45,97.12,24.37Z" transform="translate(0 -0.01)"/><path class="cls-1" d="M102,22.81H102a.47.47,0,0,1-.14-.28c0-.17.37-.42,1.13-.78A5.19,5.19,0,0,1,102,22.81Z" transform="translate(0 -0.01)"/><path class="cls-1" d="M96.08,25.71c-.83.17-1.91.43-3.17.79a3.72,3.72,0,0,1,.52-2.88c1.5-2,4.95-.55,5.81-2.18a1.5,1.5,0,0,0,.15-.89c1.61.26,2.73.39,3.91.57a6.17,6.17,0,0,1-.38.62c-.76.37-1.13.61-1.13.78a.47.47,0,0,0,.14.28c-3.67.08-6.58,1-6.67,1.9C95.23,25,95.59,25.39,96.08,25.71Z" transform="translate(0 -0.01)"/><path class="cls-2" d="M103.3,21.12l.76.12-1.13.51A6.17,6.17,0,0,0,103.3,21.12Z" transform="translate(0 -0.01)"/><path class="cls-2" d="M104,24.71a56.78,56.78,0,0,0-6.54.73c-.28,0-.68.12-1.18.23a2.86,2.86,0,0,1,.82-1.32c1-.9,2.19-.24,3.63-.73a3.64,3.64,0,0,0,1.27-.76c.62.64,2.8,1.31,5.41,1.64C106.39,24.54,105.26,24.6,104,24.71Z" transform="translate(0 -0.01)"/><path class="cls-4" d="M96.22,25.78a.68.68,0,0,1,0-.12c.5-.11.9-.18,1.18-.23a56.78,56.78,0,0,1,6.54-.73c1.28-.09,2.41-.2,3.41-.2a23.76,23.76,0,0,0,2.83.2,4.36,4.36,0,0,1-.07,1.82,4,4,0,0,1-1.8,2.35,4.53,4.53,0,0,0-2.16-1.26c-2.64-.79-4,.27-7.26-.73A15,15,0,0,1,96.22,25.78Z" transform="translate(0 -0.01)"/><path class="cls-4" d="M107.11,20a8.38,8.38,0,0,1,2.19,2.43c-1.06-.27-2-.5-2.46-.59-1.12-.25-2-.42-2.82-.56l2.09-.89Z" transform="translate(0 -0.01)"/><path class="cls-2" d="M110.11,24.38l-2.72.12c-2.61-.33-4.79-1-5.41-1.64l.06,0a21.88,21.88,0,0,1,4.84.44,29.49,29.49,0,0,1,3.23.92Z" transform="translate(0 -0.01)"/><path class="cls-2" d="M103,21.75l1.13-.51c.82.14,1.7.31,2.82.56.46.1,1.4.32,2.46.59a6.54,6.54,0,0,1,.77,1.78,29.49,29.49,0,0,0-3.23-.92,21.88,21.88,0,0,0-4.84-.44A5.19,5.19,0,0,0,103,21.75Z" transform="translate(0 -0.01)"/><path class="cls-4" d="M110.17,24.7a23.76,23.76,0,0,1-2.83-.2l2.77-.12A2.46,2.46,0,0,1,110.17,24.7Z" transform="translate(0 -0.01)"/><path class="cls-1" d="M113.41,24c0,.26-.86.31-2.76.38l-.54-.19a6.54,6.54,0,0,0-.77-1.78C111.25,22.88,113.47,23.54,113.41,24Z" transform="translate(0 -0.01)"/><path class="cls-4" d="M110.65,24.38h-.49a.33.33,0,0,1-.05-.21Z" transform="translate(0 -0.01)"/><path class="cls-4" d="M110.61,24.37l.89.33h-1.33a2.46,2.46,0,0,0-.06-.32Z" transform="translate(0 -0.01)"/><path class="cls-4" d="M108.31,28.84a4,4,0,0,0,1.83-2.35,4.36,4.36,0,0,0,.07-1.82h1.33c.87.32,1.51.6,1.87.75,2.8,1.18,3,1.58,5.08,2.18,3,.86,3.84.43,5.08,1.45s1.3,2.07,2.91,2.91a15.11,15.11,0,0,0,2.18.73c0,.18-2.12.23-6.54,0-6-.3-9-.45-10.89-1.45A9.54,9.54,0,0,1,108.31,28.84Z" transform="translate(0 -0.01)"/><path class="cls-4" d="M107,20c1.36-.55,2.35-.93,2.71-1.07a52,52,0,0,1,6.54-2.18,17.23,17.23,0,0,1,5.08-.75c3.08.13,3.4,1.25,6.54,1.45,2.94.18,4.82-.52,5.08,0s-.56,1.59-1.45,2.18c-1.7,1.13-3.36.24-4.36,1.45-.46.53-.19.77-.73,1.45A4.47,4.47,0,0,1,123.53,24c-1.83.27-2.36-.63-4.36-.73a8.75,8.75,0,0,0-3.63.73,14.55,14.55,0,0,1-4,.7l-.89-.33c1.9-.07,2.76-.12,2.76-.38.06-.44-2.16-1.1-4.07-1.59A8.38,8.38,0,0,0,107,20Z" transform="translate(0 -0.01)"/><path class="cls-5" d="M24.81,31.21a9.06,9.06,0,0,0,1.47,0,7.37,7.37,0,0,0,6.51-9.41" transform="translate(0 -0.01)"/><path class="cls-5" d="M21.24,29.79a8.75,8.75,0,0,0,5.2-1.13,8.1,8.1,0,0,0,4-8.34,8.8,8.8,0,0,0-2-4.33" transform="translate(0 -0.01)"/><circle class="cls-6" cx="14.28" cy="21.43" r="2.54"/></svg>