<svg id="Слой_1" data-name="Слой 1" xmlns="http://www.w3.org/2000/svg" viewBox="0 0 132.29 53.1"><defs><style>.cls-1{fill:#fffbfa;}.cls-2{fill:#f27622;}.cls-3{fill:#f2b266;}.cls-4{fill:#f48f21;}.cls-5{fill:#c44e3b;}.cls-6{fill:#89724e;}.cls-7{fill:none;stroke:#000;stroke-linecap:round;stroke-linejoin:round;}</style></defs><title>koi3</title><path class="cls-1" d="M54.69,33.17a8.18,8.18,0,0,1,1.37-1.8c.39-.41.81-.82,1.23-1.22.86-.83,4.08-3.94,6-3,1.25.62.53,2.26,2,4,1.26,1.49,3,1.69,4.28,2,.78-.3,2-.54,3.72-1a47.28,47.28,0,0,0,7-2c3.51-1.53,5.26-3.58,6-3,.39.31.22,1.15,0,2-.8,3.18-1.25,5-2.4,7h2.54a5.17,5.17,0,0,1,.86-2c.51-.7,1.35-1.14,3-2,4.66-2.42,6.47-2,8-4,.77-1,1.66-2.83,1-4-1.07-1.88-5.24-.41-6-2-.67-1.39,1.84-3.86,3-5,1.58-1.55,4.26-3.61,5-3s-2.25,4.44-1,6c.86,1.08,3.64.91,5.3-.34a17,17,0,0,0-.3-2.66c-.44-2.52-1.09-2.66-1-4A5.51,5.51,0,0,1,105.67,10c-1.12-.31-2.25-.6-3.38-.89a65.57,65.57,0,0,0-14-2c-.89,0-2-.08-3.36-.08a3.06,3.06,0,0,1,.36,1.08A4.07,4.07,0,0,1,84.4,11c1.65-.46,3.34-.83,4.89.14s2.55,3.19,2,4c-.77,1.14-4-1-9,0-1.48.29-3.17.65-4,2s-.17,2.21,0,5c.19,3.13.34,5.46-1,7-1.89,2.18-6.3,2.26-7,1a1.31,1.31,0,0,1,0-1c.81-3.2,2.78-4.07,3-6a4.51,4.51,0,0,0-1.58-3.68,3.11,3.11,0,0,0-.42-.32c-1.88-1.23-3.39.38-7,0A12.8,12.8,0,0,1,60,17.88a3,3,0,0,0-2.19.77c-1.42,1.4-1,3.88-1,4a4.33,4.33,0,0,0,.74,1.8c.66,1,1.45,1.44,1.26,2.2-.42,1.7-5.23,2.78-7,1-.68-.69-.34-1.22-1-2a1.94,1.94,0,0,0-.37-.34,45.49,45.49,0,0,1-6.13-.16h0a1.63,1.63,0,0,0,0,1c.66,2,4.42,1.68,4.94,2.85a.39.39,0,0,1,.06.15c.1.54-.42,1.22-1.31,1.88l.31.12A62.39,62.39,0,0,0,54.69,33.17Z" transform="translate(-0.01 -0.07)"/><path class="cls-2" d="M54.7,35.18v-.07h.09ZM63.45,35c-.5.29-1.22.66-2.16,1.13a38.74,38.74,0,0,1-4.41,1.78l-.59.22c-3.75,1.46-5.47,2.59-6,2-.13-.14-.09-.76,0-2,.1-1.46.2-1.68,0-2-.41-.65-1.2-.36-2-1a3.39,3.39,0,0,1-1-2,13.32,13.32,0,0,0-.46-1.39A8.77,8.77,0,0,0,48,31l.31.12a62.39,62.39,0,0,0,6.4,2A86.81,86.81,0,0,0,63.45,35Z" transform="translate(-0.01 -0.07)"/><path class="cls-2" d="M42,20.06a41.31,41.31,0,0,1-4.66,1.09c-.58.1-1,.16-1.37.2a6.76,6.76,0,0,0,3.37-2.2h0c1-1.35.85-2.34,2-3s1.77.12,4,0c.88,0,3.71-.2,5-2,.87-1.21.13-1.9,1-3s1.64-.69,5-2L57,8.88c1.72-.73,2.17-1.19,2.33-1.73.26-.86-.38-1.37,0-2s1-.43,3-1c1.81-.53,2-.86,2-1,.22-.69-.68-1.65-1-2-.58-.62-1.06-.82-1-1s1.87,0,2,0c4.68.8,4.45,0,9,1,4.82,1,7.59,1.6,10,4a9.49,9.49,0,0,1,1.64,1.92c-.79,0-1.68,0-2.64.08-1.66.09-3.15.25-4.56.46-2.57.38-4.88.93-7.44,1.54a88,88,0,0,0-10,2.81c-1,.35-2,.74-3,1.19l-.39.17c-4.57,2-4.56,2.81-9.61,4.83A56.37,56.37,0,0,1,42,20.06Z" transform="translate(-0.01 -0.07)"/><path class="cls-3" d="M44.45,24.7l-.66-.05a16.78,16.78,0,0,1-7-2l-1.7-1,.81-.26h0a8.84,8.84,0,0,0,1.37-.2,41.31,41.31,0,0,0,4.66-1.09c2.09-.62,3.83-1.3,5.34-1.91,5.05-2,5-2.8,9.61-4.83a5.18,5.18,0,0,0,.39,1.83A5.71,5.71,0,0,0,60,17.92a3,3,0,0,0-2.17.73c-1.42,1.4-1,3.88-1,4a4.33,4.33,0,0,0,.74,1.8c.66,1,1.45,1.44,1.26,2.2-.42,1.7-5.23,2.78-7,1-.68-.69-.34-1.22-1-2a1.94,1.94,0,0,0-.37-.34C49.25,24.41,47.4,24.87,44.45,24.7Z" transform="translate(-0.01 -0.07)"/><path class="cls-4" d="M60,17.88a5.71,5.71,0,0,1-2.69-2.73,5.18,5.18,0,0,1-.39-1.83l.39-.17c1-.45,2-.84,3-1.19a88,88,0,0,1,10-2.81c2.56-.61,4.87-1.16,7.44-1.54.26,1.3.35,2.69,1.56,3.54,1.45,1,3.25.38,5.11-.14,1.65-.46,3.34-.83,4.89.14s2.55,3.19,2,4c-.77,1.14-4-1-9,0-1.48.29-3.17.65-4,2s-.17,2.21,0,5c.19,3.13.34,5.46-1,7-1.89,2.18-6.3,2.26-7,1a1.31,1.31,0,0,1,0-1c.81-3.2,2.78-4.07,3-6a4.51,4.51,0,0,0-1.58-3.68,3.11,3.11,0,0,0-.42-.32c-1.88-1.23-3.39.38-7,0A12.8,12.8,0,0,1,60,17.88Z" transform="translate(-0.01 -0.07)"/><path class="cls-2" d="M67.9,38.83a3.29,3.29,0,0,0,.39-.68,3.54,3.54,0,0,0,0-2.49,2.18,2.18,0,0,1,0-1.51,1.92,1.92,0,0,1,1.28-1c.78-.3,2-.54,3.72-1a47.28,47.28,0,0,0,7-2c3.51-1.53,5.26-3.58,6-3,.39.31.22,1.15,0,2-.8,3.18-1.25,5-2.4,7-.18.33-.38.66-.6,1-2.09,3.2-2.91,3.26-6,7-4.65,5.63-6,9.34-8,9a3,3,0,0,1-2-2c-.45-1.32.45-1.93,1-5,.34-1.93.52-2.93,0-4-.42-.86-1-1.17-1-2A2.11,2.11,0,0,1,67.9,38.83Z" transform="translate(-0.01 -0.07)"/><path class="cls-5" d="M63.45,35c-3.21-.52-6.18-1.17-8.76-1.85a8.18,8.18,0,0,1,1.37-1.8c.39-.41.81-.82,1.23-1.22.86-.83,4.08-3.94,6-3,1.25.62.53,2.26,2,4,1.26,1.49,3,1.69,4.28,2a1.92,1.92,0,0,0-1.28,1,2.18,2.18,0,0,0,0,1.51c-1.3-.13-2.62-.3-4-.51Z" transform="translate(-0.01 -0.07)"/><path class="cls-5" d="M132.29,24.15c.05.4-.06.92-1,2a11.57,11.57,0,0,1-4,3c-3.12,1.3-5.61,2.26-7.57,3,.14-2.54-.53-4.67-1.43-5-1.1-.37-2,2.16-5,3a8.22,8.22,0,0,1-5-.27,23.38,23.38,0,0,0,5-3.73c4.38-3.91,7-6.26,7.78-8.38.68.44,1.42.91,2.22,1.38a17.18,17.18,0,0,0,4,2,11.73,11.73,0,0,1,3,1C131.07,22.58,132.17,23.18,132.29,24.15Z" transform="translate(-0.01 -0.07)"/><path class="cls-4" d="M108.3,29.88a2.75,2.75,0,0,1-2,.27,4.43,4.43,0,0,1-3-4c0-1.58,1.31-1.75,2-4a7.17,7.17,0,0,0,.3-2.34,17,17,0,0,0-.3-2.66c-.44-2.52-1.09-2.66-1-4A5.51,5.51,0,0,1,105.68,10c4.2,1.16,8.22,2.55,11.62,5.11.13.1,1.62,1.23,3.78,2.62-.76,2.12-3.4,4.47-7.78,8.38A23.38,23.38,0,0,1,108.3,29.88Z" transform="translate(-0.01 -0.07)"/><path class="cls-3" d="M118.29,27.15c.9.3,1.57,2.43,1.43,5a44.59,44.59,0,0,1-6.43,2,171,171,0,0,1-26.86,2,5.17,5.17,0,0,1,.86-2c.51-.7,1.35-1.14,3-2,4.66-2.42,6.47-2,8-4,.77-1,1.66-2.83,1-4-1.07-1.88-5.24-.41-6-2-.67-1.39,1.84-3.86,3-5,1.58-1.55,4.26-3.61,5-3s-2.25,4.44-1,6c.86,1.08,3.64.91,5.3-.34a7.17,7.17,0,0,1-.3,2.34c-.69,2.25-2,2.42-2,4a4.43,4.43,0,0,0,3,4,2.75,2.75,0,0,0,2-.27,8.22,8.22,0,0,0,5,.27C116.32,29.31,117.19,26.78,118.29,27.15Z" transform="translate(-0.01 -0.07)"/><path class="cls-2" d="M26.79,22.39a40,40,0,0,0-6.49,1.76l-.29.11a49,49,0,0,0-7.71.89,8.85,8.85,0,0,1-4,0,3.56,3.56,0,0,1-2-1c-.61-.71-.38-1.29-1-2-.41-.47-.69-.42-2-1-1.71-.76-2.58-1.15-3-2-.31-.62-.45-1.61,0-2,.65-.56,1.78.8,4,1,1.81.17,2-.65,5-1a17.08,17.08,0,0,1,4,0,17.84,17.84,0,0,1,4,1c2.9,1,3.46,1.84,6,3A20.86,20.86,0,0,0,26.79,22.39Z" transform="translate(-0.01 -0.07)"/><path class="cls-1" d="M19.35,25.43h0c1.76.1,5.46-.11,9.44.1q-.24-.63-.51-1.38a1.14,1.14,0,0,0-.13-.35,15.05,15.05,0,0,0-1.76.07c.67-.06,1.25-.13,1.71-.2l-.31-1c-.28-.06-.61-.13-1-.23a40,40,0,0,0-6.49,1.76l-.29.11c-1.6.59-1.73.79-1.71.89S18.7,25.39,19.35,25.43Z" transform="translate(-0.01 -0.07)"/><path class="cls-2" d="M29.4,27.07l-.11.08c-.75.53-.7.47-3,2-3.67,2.44-4,2.75-5,3-1.61.42-1.65-.18-4,0-2.1.16-2.55.67-7,2-1.73.52-4.82,1.43-5,1-.09-.2.58-.51,2-2a8.38,8.38,0,0,1,1-1,6.79,6.79,0,0,1,2-1c1.52-.62,1.26-1.58,3-3a14,14,0,0,1,4-2c.76-.3,1.42-.52,2.06-.72h0c1.76.1,5.46-.11,9.44.1a22.83,22.83,0,0,1,2.46.19Q30.41,26.37,29.4,27.07Z" transform="translate(-0.01 -0.07)"/><path class="cls-5" d="M27.79,22.65l.36,1a.69.69,0,0,1,.05.13,1.37,1.37,0,0,0,.13.35q.27.75.51,1.38a22.83,22.83,0,0,1,2.46.19c1,.1,2,.24,3,.43a38.61,38.61,0,0,1,4,1,45.32,45.32,0,0,1,5,2s.93.39,2.87,1.16L48,31c.89-.66,1.41-1.34,1.31-1.88a.39.39,0,0,0-.06-.15c-.52-1.17-4.28-.87-4.94-2.85a1.63,1.63,0,0,1,0-1,2.75,2.75,0,0,1,.17-.45l-.68,0a16.78,16.78,0,0,1-7-2l-1.7-1-.23-.16c-1.06.09-2.7.22-6.57.7l-.66.1Z" transform="translate(-0.01 -0.07)"/><circle class="cls-6" cx="115.61" cy="23.42" r="2.54"/><path class="cls-7" d="M106.29,19.15a6.36,6.36,0,0,0-1,4,6.44,6.44,0,0,0,2,4,7.77,7.77,0,0,0,6,2" transform="translate(-0.01 -0.07)"/><path class="cls-7" d="M102.29,22.15a6.59,6.59,0,0,0-1,3,6.66,6.66,0,0,0,1,4,7.24,7.24,0,0,0,4,3,8.12,8.12,0,0,0,5,0" transform="translate(-0.01 -0.07)"/></svg>