<svg id="Слой_1" data-name="Слой 1" xmlns="http://www.w3.org/2000/svg" viewBox="0 0 198.06 91.16"><defs><style>.cls-1{fill:#fff4e6;}.cls-2{fill:#ffae55;}.cls-3{fill:#e07344;}.cls-4{fill:#5e534f;}.cls-5{fill:#c15a49;}.cls-6{fill:none;stroke:#000;stroke-linecap:round;stroke-linejoin:round;stroke-width:0.75px;}.cls-7{fill:#89724e;}</style></defs><title>koi4</title><path class="cls-1" d="M188.18,52.36a54.68,54.68,0,0,1-7.95,2.9,5.34,5.34,0,0,1-1.58-2.95c-.31-2.31,1.34-4.67,3-6,3.85-3,8.05-.31,10.42-3a5.94,5.94,0,0,0,1.28-3.71,10.22,10.22,0,0,1,1.7.73c1.19.65,2.81,1.55,3,3,.09.91-.46,1.65-1.49,3a14,14,0,0,1-3,3A31,31,0,0,1,188.18,52.36Z" transform="translate(0 0.07)"/><path class="cls-2" d="M163.11,49.86c.51-.89,1.24-2,2.16-3.5,2.93-4.66,4-5.13,4.46-7.44.63-3.29-1-5.09,0-6,1.28-1.13,4,1.89,8.93,3a15.45,15.45,0,0,0,4.79.28,15.31,15.31,0,0,0,2.65,1.21c3.39,1.18,4.46,1.49,4.46,1.49,1.24.36,2.05.54,2.77.76a5.94,5.94,0,0,1-1.28,3.71c-2.37,2.66-6.56,0-10.42,3-1.64,1.28-3.29,3.65-3,6a5.34,5.34,0,0,0,1.58,2.95h-.09c-3.21.85-6.06,1.49-8.27,2A35.67,35.67,0,0,1,166,55.7c-2.07-.83-3.44-1.89-3.71-3.32A4.22,4.22,0,0,1,163.11,49.86Z" transform="translate(0 0.07)"/><path class="cls-3" d="M183.45,36.23a15.45,15.45,0,0,1-4.79-.28c-5-1.09-7.65-4.11-8.93-3-1,.86.63,2.66,0,6-.45,2.31-1.53,2.78-4.46,7.44-.92,1.46-1.65,2.6-2.16,3.5a9.62,9.62,0,0,1-3.79-3.5,9.87,9.87,0,0,1-1-8.07c3.82.12,7.29,1,8.48-.86,1-1.67-.31-4.49-1.49-6a5.6,5.6,0,0,0-.57-.61c1.49-.67,3.15-1.44,5-2.37l1.71-.85a29.8,29.8,0,0,1,5.73,3.82A35.81,35.81,0,0,0,183.45,36.23Z" transform="translate(0 0.07)"/><path class="cls-3" d="M166,55.63a35.67,35.67,0,0,0,5.88,1.62c-3.2.68-5.12,1-5.12,1-3.14.52-6,1-8.9,1.41-.92-.86-1.92-1.82-3-2.9-7.13-7.14-7.8-9.88-7.44-11.91a7.54,7.54,0,0,1,3-4.46c2.38-1.89,5.22-2.19,7.89-2.11a9.87,9.87,0,0,0,1,8.07,9.62,9.62,0,0,0,3.79,3.5,4.22,4.22,0,0,0-.82,2.46C162.56,53.74,163.92,54.8,166,55.63Z" transform="translate(0 0.07)"/><path class="cls-3" d="M171.44,27.66l-1.71.85c-1.88.92-3.54,1.7-5,2.37-3.72-3.68-10.85-2.9-15.8-2.37-2.44.25-2,.43-8.93,1.49h-.28a9.16,9.16,0,0,1,.28-3c.4-1.5,1.26-2.5,3-4.46a30,30,0,0,1,3.33-3.42A62.71,62.71,0,0,1,163.78,24C167,25.47,169.4,26.57,171.44,27.66Z" transform="translate(0 0.07)"/><path class="cls-1" d="M158.27,38.3c-2.66-.07-5.51.22-7.89,2.11a7.54,7.54,0,0,0-3,4.46c-.36,2,.31,4.76,7.44,11.91,1.09,1.09,2.08,2,3,2.9-3.82.58-7.71,1.06-12.34,1.46a23.6,23.6,0,0,1-4.06-10.31c-.33-2.54-.3-6.24-3-8.93-.12-.12-2-2-3-1.49-1.31.71,1.4,5,0,8.93a10.65,10.65,0,0,1-6.76,6,26.11,26.11,0,0,0,2.29-6c.4-1.76.43-2.71,0-3s-1.68.51-3,1.49c-1.71,1.31-3.45,2.56-5.16,3.88A17.37,17.37,0,0,0,119,43.36c-2-2.32-3.66-3.18-4.46-6a4.75,4.75,0,0,1-.18-.76,122.54,122.54,0,0,0,16.37-6c1.35.33,3.75.1,8.82-.67a7,7,0,0,0,1.77,4.42c2.6,2.65,7.35,1.47,13.39,0a58.8,58.8,0,0,0,9.85-3.59,5.6,5.6,0,0,1,.57.61c1.18,1.46,2.53,4.29,1.49,6C165.56,39.31,162.09,38.41,158.27,38.3Z" transform="translate(0 0.07)"/><path class="cls-3" d="M164.7,30.87a58.8,58.8,0,0,1-9.85,3.59c-6,1.47-10.79,2.65-13.39,0A7,7,0,0,1,139.68,30H140c6.89-1.06,6.49-1.24,8.93-1.49C153.85,28,161,27.19,164.7,30.87Z" transform="translate(0 0.07)"/><path class="cls-4" d="M141.45,50.83a23.6,23.6,0,0,0,4.06,10.31c-.36,0-.71.07-1.09.1-5.13.42-10.8.88-17.23,1a10.62,10.62,0,0,1,.86-5.46c.21-.49.43-1,.68-1.46a10.65,10.65,0,0,0,6.76-6c1.4-4-1.31-8.21,0-8.93.94-.52,2.86,1.37,3,1.49C141.16,44.59,141.13,48.28,141.45,50.83Z" transform="translate(0 0.07)"/><path class="cls-1" d="M139.15,18.35c2.34.19,4.7.43,7.13.77a30,30,0,0,0-3.33,3.42c-1.71,2-2.57,3-3,4.46a9.16,9.16,0,0,0-.28,3c-5.07.77-7.47,1-8.82.67,7.87-3.6,12.46-7.2,12.08-9.64C142.84,20.45,141.59,19.63,139.15,18.35Z" transform="translate(0 0.07)"/><path class="cls-1" d="M120.83,18a95.18,95.18,0,0,1,14.67.13l3.65.27c2.44,1.28,3.69,2.1,3.79,2.71.37,2.44-4.21,6-12.08,9.64a2.55,2.55,0,0,1-1.31-.71c-1.95-2,.42-5-1.49-7.44-1.18-1.52-3.57-2.31-6-2.28A5.17,5.17,0,0,0,120.83,18Z" transform="translate(0 0.07)"/><path class="cls-5" d="M131,46.36c.43.27.4,1.22,0,3a26.11,26.11,0,0,1-2.29,6,5.49,5.49,0,0,1-3.66,0c-1.41-.61-1.8-1.86-2.19-3.56,1.71-1.32,3.45-2.57,5.16-3.88C129.36,46.87,130.47,46,131,46.36Z" transform="translate(0 0.07)"/><path class="cls-1" d="M129.55,30a2.55,2.55,0,0,0,1.31.71,122.54,122.54,0,0,1-16.37,6,20.07,20.07,0,0,1,.06-3.75h.12c4.76,1.41,10.19,0,10.42-1.49.19-1.34-7.13-1.82-7.44-4.46-.27-2.13,4.17-3.2,4.46-6a2.81,2.81,0,0,0,0-.79c2.41,0,4.81.76,6,2.28C130,25,127.6,28,129.55,30Z" transform="translate(0 0.07)"/><path class="cls-5" d="M128.75,55.32c-.25.49-.48,1-.68,1.46a10.62,10.62,0,0,0-.86,5.46c-4.24.1-8.81,0-13.77-.3a17.56,17.56,0,0,0,1.24-2.19,16.79,16.79,0,0,0,1.4-4.63,17,17,0,0,0,6-2.81,9.75,9.75,0,0,1,.79-.58c.39,1.7.77,2.95,2.19,3.56A5.49,5.49,0,0,0,128.75,55.32Z" transform="translate(0 0.07)"/><path class="cls-5" d="M127.2,62.24a8.16,8.16,0,0,1-.63,3.47c-1.07,2.62-2.28,2.68-7.44,7.44-5.8,5.31-8.69,8-10.42,11.91-1.44,3.27-1.49,5.65-3,6s-4-2-4.46-4.46c-.46-2.23,1-2.84,1.49-7.44a11.76,11.76,0,0,0,0-4.46c-.55-2.2-1.64-3-1.56-4.08A20.94,20.94,0,0,0,113.41,62C118.39,62.27,123,62.34,127.2,62.24Z" transform="translate(0 0.07)"/><path class="cls-2" d="M117.64,27c.31,2.65,7.63,3.13,7.44,4.46-.22,1.53-5.65,2.9-10.42,1.49h-.12c0-.43.07-.91.12-1.44.46-5.36.7-8,1.49-8.93a8,8,0,0,1,5.92-2.28,2.81,2.81,0,0,1,0,.79C121.81,23.82,117.38,24.89,117.64,27Z" transform="translate(0 0.07)"/><path class="cls-3" d="M122.9,51.73a9.75,9.75,0,0,0-.79.58,17,17,0,0,1-6,2.81,21.76,21.76,0,0,0,.09-5.79c-.15-1.46-.68-6.95-3-7.44-1.7-.37-3.74,2.08-4.46,3-1.93,2.31-1.47,3.53-3,4.46-.86.54-2,.52-3.9.28-.46-.8-1.12-1.86-2.05-3.26-1.49-2.23-2.69-4-3.69-5.43,1.58-.28,3.15-.58,4.69-.88.13.24.28.37.49.36a1.23,1.23,0,0,0,.77-.63c4.39-.92,8.56-2,12.44-3.11a4.75,4.75,0,0,0,.18.76c.8,2.77,2.5,3.63,4.46,6A17.37,17.37,0,0,1,122.9,51.73Z" transform="translate(0 0.07)"/><path class="cls-2" d="M98.82,22.37a80.08,80.08,0,0,1,20.31-4.29q.87-.09,1.7-.13a5.17,5.17,0,0,1,1.25,2.32,8,8,0,0,0-5.92,2.28c-.79.89-1,3.57-1.49,8.93,0,.54-.09,1-.12,1.44-3.94-1.21-4.39-3.47-10.3-7.4A51.39,51.39,0,0,0,98.82,22.37Z" transform="translate(0 0.07)"/><path class="cls-2" d="M116.16,49.34a21.76,21.76,0,0,1-.09,5.79,75.22,75.22,0,0,1-10.33,1.65c-1.95.22-4.14.39-4.46,1.49-.24.74.52,1.43,1.37,2.57-2.2-.28-4.29-.61-6.25-1,1.09-.48,1.86-1,1.9-1.62.09-1.5-4.2-2.59-14.75-5.65A11.28,11.28,0,0,1,84.9,49.3c.8-1.52,2.37-4.42,4.46-4.46h0a14.46,14.46,0,0,0,2.95,4.46c3.57,3.48,9.43,4.42,10.42,3,.18-.28.24-.7-.92-2.69,1.89.24,3,.25,3.9-.28,1.5-.94,1-2.16,3-4.46.73-.89,2.77-3.35,4.46-3C115.47,42.39,116,47.88,116.16,49.34Z" transform="translate(0 0.07)"/><path class="cls-5" d="M105.74,56.78a75.22,75.22,0,0,0,10.33-1.65,16.79,16.79,0,0,1-1.4,4.63,17.56,17.56,0,0,1-1.24,2.19c-2.47-.16-5-.39-7.69-.7-1.06-.12-2.08-.25-3.1-.4-.85-1.15-1.61-1.83-1.37-2.57C101.6,57.16,103.79,57,105.74,56.78Z" transform="translate(0 0.07)"/><path class="cls-3" d="M114.55,32.92a20.07,20.07,0,0,0-.06,3.75c-3.88,1.13-8.05,2.19-12.44,3.11a7.56,7.56,0,0,0,.71-5.33c-.54-2.22-1.88-2.87-4.46-6a49.06,49.06,0,0,1-3.48-4.61c1.13-.46,2.31-.91,3.48-1.34l.52-.18a51.39,51.39,0,0,1,5.43,3.15C110.16,29.46,110.6,31.72,114.55,32.92Z" transform="translate(0 0.07)"/><path class="cls-5" d="M105.74,61.24q4,.46,7.69.7a20.94,20.94,0,0,1-12.23,8.62,2,2,0,0,1,.07-.39c.43-1.43,2.22-1.25,3-3a4.63,4.63,0,0,0,0-3,8.93,8.93,0,0,0-1.61-3.38A30,30,0,0,0,105.74,61.24Z" transform="translate(0 0.07)"/><path class="cls-4" d="M102.76,34.46a7.56,7.56,0,0,1-.71,5.33l-1.26.27c-.48-.77-.79-2.68-2.49-4.11a9,9,0,0,0-7.44-1.49c-3.68.79-4.55,3.36-7.44,3a5.2,5.2,0,0,1-3-1.49c-1.28-1.37-1.09-3-1.09-4.67C83.73,29,86,27.92,87.88,27c1-.49,3.74-1.8,6.93-3.13a49.06,49.06,0,0,0,3.48,4.61C100.89,31.58,102.23,32.24,102.76,34.46Z" transform="translate(0 0.07)"/><path class="cls-2" d="M101.84,49.62c1.16,2,1.1,2.41.92,2.69-1,1.44-6.85.51-10.42-3a14.46,14.46,0,0,1-2.95-4.46c1.5,0,1.67,1.52,4.43,3,1.62.85,3.07,1.06,6,1.49Z" transform="translate(0 0.07)"/><path class="cls-4" d="M102,39.78c-.25.39-.52.61-.77.63s-.36-.12-.49-.36Z" transform="translate(0 0.07)"/><path class="cls-5" d="M135.5,18.09A95.18,95.18,0,0,0,120.83,18a22,22,0,0,0-6.16-4.33c-6.12-3-13.48-3.3-20.4-2.22.49-1,.34-1.4,1.06-2.25,1.64-2,3.74-1.34,4.46-3,.13-.33.07-.42,0-3a13.13,13.13,0,0,1,0-3c1.16-1.41,8.75,4,19.35,8.93,5.06,2.37,6.49,2.62,13.39,6,2.77,1.34,5,2.38,6.62,3.24Z" transform="translate(0 0.07)"/><path class="cls-4" d="M101.84,49.62l-2.05-.28c-2.89-.43-4.33-.64-6-1.49-2.77-1.46-2.93-3-4.43-3-.42-.86-.8-1.43-1.52-1.49-1.44-.12-2.25,2-6,7.44-.27.39-.52.74-.74,1.1l-3.72-1.1c-3.48-1-6.27-1.9-8.45-2.51a6.56,6.56,0,0,0-.48-1.95,7.89,7.89,0,0,0-2.23-3h2.23q4.06,0,8.08-.22a7.06,7.06,0,0,0,.85.22,13,13,0,0,0,4.46,0,9.94,9.94,0,0,0,2.56-.85c4-.42,7.84-1,11.61-1.61,1,1.38,2.2,3.2,3.69,5.43C100.72,47.76,101.38,48.82,101.84,49.62Z" transform="translate(0 0.07)"/><path class="cls-5" d="M98.82,22.37a2,2,0,0,0-.52.18c-1.18.43-2.35.88-3.48,1.34-.82-1.26-1.34-2.4-1-2.83C94.31,20.47,96.38,21.17,98.82,22.37Z" transform="translate(0 0.07)"/><path class="cls-2" d="M83.55,52.61c10.55,3.07,14.84,4.15,14.75,5.65,0,.63-.82,1.15-1.9,1.62-4.6-.82-8.53-1.71-11.65-2.51a5.69,5.69,0,0,1-1.32-3.57A5.12,5.12,0,0,1,83.55,52.61Z" transform="translate(0 0.07)"/><path class="cls-5" d="M96.39,59.89a33.9,33.9,0,0,1-4,1.35,19.15,19.15,0,0,1-3.66.7c-1.73-2-3.05-3.36-3.94-4.57C87.87,58.18,91.79,59.07,96.39,59.89Z" transform="translate(0 0.07)"/><path class="cls-4" d="M92.35,37.43c1,.09,2.1,1.24,3.75,3.5-3.76.65-7.65,1.19-11.61,1.61C88.3,40.71,89.53,37.18,92.35,37.43Z" transform="translate(0 0.07)"/><path class="cls-5" d="M79.35,31.27A8,8,0,0,0,79,28.5a5.35,5.35,0,0,0-1.21-1.92A10.46,10.46,0,0,0,79,21.06c-.06-1.74-.49-2.4,0-3,.88-1.06,2.8.45,6,0a12.73,12.73,0,0,0,6-3,11.73,11.73,0,0,0,3-3c.18-.28.31-.52.43-.73,6.92-1.09,14.29-.79,20.4,2.22A22,22,0,0,1,121,17.88a11.5,11.5,0,0,0-1.7.13A80.08,80.08,0,0,0,99,22.3c-2.44-1.21-4.51-1.9-5-1.31-.36.43.16,1.56,1,2.83C91.78,25.14,89,26.45,88.05,27,86,27.92,83.73,29,79.35,31.27Z" transform="translate(0 0.07)"/><path class="cls-2" d="M89.4,44.87h0c-2.1,0-3.66,2.95-4.46,4.46a11.28,11.28,0,0,0-1.35,3.27l-2.37-.68c.22-.36.48-.71.74-1.1,3.71-5.43,4.51-7.56,6-7.44C88.6,43.44,89,44,89.4,44.87Z" transform="translate(0 0.07)"/><path class="cls-5" d="M88.68,61.94a15.93,15.93,0,0,0-3.78.79c-2.56.82-4.3,1.37-6,3s-2.13,3.13-3,3c-1.06-.19-1.46-2.75-1.49-3-.27-1.76.37-2.08,0-3-.52-1.21-2-1.32-3.15-1.82a19.42,19.42,0,0,0,4.64-2.65,14.54,14.54,0,0,0,2.54-2.65c1.41.45,3.51,1.07,6.22,1.76C85.63,58.58,87,60,88.68,61.94Z" transform="translate(0 0.07)"/><path class="cls-2" d="M83.55,52.61a5.12,5.12,0,0,0-.13,1.19,5.69,5.69,0,0,0,1.32,3.57c-2.71-.68-4.81-1.31-6.22-1.76.76-1,1.61-2.17,2.66-3.69C82,52.16,82.79,52.4,83.55,52.61Z" transform="translate(0 0.07)"/><path class="cls-3" d="M84.49,42.54a9.94,9.94,0,0,1-2.56.85,13,13,0,0,1-4.46,0,7.06,7.06,0,0,1-.85-.22C79.26,43,81.9,42.8,84.49,42.54Z" transform="translate(0 0.07)"/><path class="cls-4" d="M81.18,51.93c-1.06,1.52-1.9,2.71-2.66,3.69-.42-.12-.76-.24-1.06-.33-1.55-.49-4.14-1.53-8.88-3.32A9,9,0,0,0,69,48.31c2.19.61,5,1.47,8.45,2.51Z" transform="translate(0 0.07)"/><path class="cls-5" d="M77.46,55.29c.3.09.64.21,1.06.33A14.54,14.54,0,0,1,76,58.27a19.42,19.42,0,0,1-4.64,2.65A2.28,2.28,0,0,1,70,59.76c-.52-1.13.46-1.73,0-3-.4-1.09-1.4-1.4-2.59-1.92A20.46,20.46,0,0,0,68.59,52C73.33,53.76,75.92,54.8,77.46,55.29Z" transform="translate(0 0.07)"/><path class="cls-3" d="M73,34.46c.92-.4.91-.43,6-3l.4-.21c0,1.71-.19,3.3,1.09,4.67a5.2,5.2,0,0,0,3,1.49c2.89.39,3.76-2.19,7.44-3a9,9,0,0,1,7.44,1.49c1.7,1.43,2,3.33,2.49,4.11-1.53.3-3.11.6-4.69.88-1.65-2.26-2.77-3.41-3.75-3.5-2.81-.25-4,3.27-7.86,5.1-2.59.27-5.22.48-7.87.63C73.25,42,71.3,39,69.59,35.71A29.15,29.15,0,0,0,73,34.46Z" transform="translate(0 0.07)"/><path class="cls-4" d="M69.52,35.75c1.71,3.29,3.66,6.34,7.1,7.41q-4,.22-8.08.22H66.3a10,10,0,0,0-2.23-1.47c-5-2.46-8.41,1.67-14.88,0A15.71,15.71,0,0,1,45,40.1a10.25,10.25,0,0,1,2.17-.79c1.49-.18,2.74-.3,3.53-.39,7.86-1,8.78-.89,11.91-1.49A57.84,57.84,0,0,0,69.52,35.75Z" transform="translate(0 0.07)"/><path class="cls-5" d="M79,28.5a8,8,0,0,1,.4,2.77l-.4.21c-5,2.54-5,2.57-6,3-1.22.52-2.38.94-3.48,1.29-1-1.89-1.89-3.87-3-5.6A3.8,3.8,0,0,1,67,30c1.85-.49,2.22.27,4.46,0,.79-.1,4.11-.51,6-3a4.31,4.31,0,0,0,.28-.43A5.35,5.35,0,0,1,79,28.5Z" transform="translate(0 0.07)"/><path class="cls-1" d="M69,48.31A9,9,0,0,1,68.57,52l-3-1.15-3-1.12a2.33,2.33,0,0,1,0-1.86C63.16,46.91,65.14,47.21,69,48.31Z" transform="translate(0 0.07)"/><path class="cls-5" d="M66.56,30.16c1.07,1.73,2,3.71,3,5.6a57.84,57.84,0,0,1-6.93,1.68c-3.13.6-4,.52-11.91,1.49-.79.09-2,.21-3.53.39A84.81,84.81,0,0,0,56.67,36a29.65,29.65,0,0,0,6-3C64.35,31.67,65,30.69,66.56,30.16Z" transform="translate(0 0.07)"/><path class="cls-1" d="M68.54,46.36A6.56,6.56,0,0,1,69,48.31c-3.87-1.1-5.85-1.4-6.43-.46a2.33,2.33,0,0,0,0,1.86,71.55,71.55,0,0,0-10.42-3.35c-1.49-.33-3.18-.71-5.16-1,1.8-1.21,2.29-1.65,2.19-2s-1.29-.37-4.46,0-6.06.8-9.55,1.47H28.36l1.19-.61,6.25-.88c5.63-.76,7.4-.94,7.44-1.49s-1.16-.74-3.27-1.43l.3-.06c1.35-.3,2.75-.55,4.08-.74.21.15.42.3.64.43-.16.09-.25.19-.25.31,0,1.24,9.84,2.78,21.58,3A7.89,7.89,0,0,1,68.54,46.36Z" transform="translate(0 0.07)"/><path class="cls-5" d="M68.58,52a20.46,20.46,0,0,1-1.15,2.89,8.33,8.33,0,0,1-1.88-1.06,9.22,9.22,0,0,1-3-4.09l3,1.12Z" transform="translate(0 0.07)"/><path class="cls-1" d="M64.07,41.9a10,10,0,0,1,2.23,1.47c-11.74-.18-21.56-1.73-21.58-3,0-.12.09-.22.25-.31a15.71,15.71,0,0,0,4.21,1.8C55.66,43.56,59,39.44,64.07,41.9Z" transform="translate(0 0.07)"/><path class="cls-2" d="M49.19,43.38c.1.31-.39.76-2.19,2a43.51,43.51,0,0,0-5.25-.48H35.17c3.5-.67,6.34-1.1,9.55-1.47S49,43,49.19,43.38Z" transform="translate(0 0.07)"/><path class="cls-5" d="M47,45.35c-.89.63-2.13,1.43-3.76,2.5-5.25,3.42-5.92,3.87-7.44,4.46a28.64,28.64,0,0,1-6,1.49c-5.55.91-7.1,0-8.93,1.49-2.08,1.73-2,4.51-3,4.46-.76,0-1.4-1.67-1.49-3-.21-2.75,1.92-4.9,3-6a14.36,14.36,0,0,1,4.46-3,20.32,20.32,0,0,1,4.46-1.49c2.6-.63,4.82-1.1,6.82-1.5H41.7A43.51,43.51,0,0,1,47,45.35Z" transform="translate(0 0.07)"/><path class="cls-2" d="M40,40.47c2.11.68,3.3,1,3.27,1.43s-1.82.73-7.44,1.49l-6.25.88A47,47,0,0,1,40,40.47Z" transform="translate(0 0.07)"/><path class="cls-5" d="M35.8,38.92A43.55,43.55,0,0,0,40,40.47a47,47,0,0,0-10.42,3.79c-2.6.36-3.62.49-5.65.61H16.49c-3.07,0-5.58-.06-7.44-1.49a9.28,9.28,0,0,1-1.49-1.49,12,12,0,0,1-1.49-3C5,36.81,3.7,37.16,1.57,34.46,1.21,34-.36,32,.08,31.46S2,32,4.55,33a27.12,27.12,0,0,0,6,1.49c4,.39,4.63-1.38,8.93-1.49a19.67,19.67,0,0,1,7.44,1.49C30.9,35.85,31.06,36.88,35.8,38.92Z" transform="translate(0 0.07)"/><path class="cls-6" d="M159.31,35.94a10,10,0,0,0-1,2.35,9.87,9.87,0,0,0,1,8.07,9.62,9.62,0,0,0,3.79,3.5,10.09,10.09,0,0,0,6.62,1" transform="translate(0 0.07)"/><path class="cls-6" d="M153.36,40.41A10.23,10.23,0,0,0,166,55.63l.76-.34" transform="translate(0 0.07)"/><circle class="cls-7" cx="173.44" cy="42.71" r="3.72"/></svg>