<svg id="Слой_1" data-name="Слой 1" xmlns="http://www.w3.org/2000/svg" viewBox="0 0 191.13 82.76"><defs><style>.cls-1{fill:#d3582d;}.cls-2{fill:#f4b489;}.cls-3{fill:#ea7f50;}.cls-4{fill:#fcf6f2;}.cls-5{fill:#f9ebe1;}.cls-6{fill:#efc9af;}.cls-7{fill:#5e534f;}.cls-8{fill:none;stroke:#000;stroke-linecap:round;stroke-linejoin:round;stroke-width:0.75px;}</style></defs><title>koi5</title><path class="cls-1" d="M105.64,33c.1-1,.18-2.23.2-3.69a36.16,36.16,0,0,0-.15-4c-.41.15-.84.69-1.85,3-1.41,3.19-1.29,3.77-2,5a7.67,7.67,0,0,1-.48.73,9.68,9.68,0,0,1-3.81,3,22.46,22.46,0,0,1,.29,4.31c0,2.59,0,4-1,5-2.08,2-6.12-.37-7,1-.67,1,1.52,2.66,2.54,5.2,4.4-2.17,6.41-2.13,7.46-4.2.93-1.83-.14-2.86,1-4,.5-.5,1.32-.93,7-1a21.9,21.9,0,0,0,3,0c2.86-.61,3.25-2.75,6-4a9.65,9.65,0,0,1,3.06-.78,18.33,18.33,0,0,0,2.94-6.22,20.16,20.16,0,0,0,.58-4.52,30.07,30.07,0,0,0-.31-4.78,5.76,5.76,0,0,0-2.27,1.3c-1.49,1.38-1.55,2.61-2.62,5.16h0c-.11.27-.23.54-.37.84-1,2.23-2,4.37-4,6-2.35,2-6.35,3.42-8,2C104.88,37.45,105.34,36.2,105.64,33Z" transform="translate(0 0)"/><path class="cls-2" d="M122,43.2c-1.61,1.06-2.46,2.47-5.11,4.07s-5.62,2.58-6,2,3.1-2.88,7-8c.74-1,1.43-1.88,2.06-2.78a18.33,18.33,0,0,0,2.94-6.22,20.16,20.16,0,0,0,.58-4.52,30.07,30.07,0,0,0-.31-4.78c-.09-.67-.19-1.25-.27-1.7a35.89,35.89,0,0,0-1.08-4.41c2.64,0,5.15.14,7.56.38,1.66.15,3.27.35,4.85.57,1.87.27,3.7.57,5.52.89-.35,1.3-.69,2.55.15,3.57a3.24,3.24,0,0,0,2.28,1,16,16,0,0,1-3.28,3c-2.91,2.1-4.61,2.28-5,4s.86,3.3,3,6a28.81,28.81,0,0,0,2,2.28c-.09,2.73-.31,6.78-3,8.72-2.27,1.65-6,1.52-7,0s1.06-3.73,0-5-4.29-.25-5,0A8.12,8.12,0,0,0,122,43.2Z" transform="translate(0 0)"/><path class="cls-3" d="M107.34,18.24a9.72,9.72,0,0,0-1.54,3,9.06,9.06,0,0,0-.15,4,36.16,36.16,0,0,1,.15,4,36.55,36.55,0,0,1-.2,3.69c-.3,3.24-.76,4.49.2,5.31,1.65,1.42,5.65,0,8-2,2-1.63,3-3.77,4-6,.14-.3.26-.57.37-.84h0c1.07-2.55,1.13-3.78,2.62-5.16a5.76,5.76,0,0,1,2.27-1.3c-.09-.67-.19-1.25-.27-1.7a35.89,35.89,0,0,0-1.08-4.41,76.05,76.05,0,0,0-7.92.41,26.81,26.81,0,0,0-2.81.36C110,17.77,108.79,18,107.34,18.24Z" transform="translate(0 0)"/><path class="cls-4" d="M31.84,39.27c1.15.39,2.12.68,2.93.91a46,46,0,0,0-9.93,3.09,2.18,2.18,0,0,0-.67.48,51.08,51.08,0,0,1-6.33.52,37.8,37.8,0,0,0-5,0c-1.42.16-2.79.45-3,0s1.23-1.3,1-2-1.4-.31-3-1c-.35-.15-2.53-1.13-3-3-.25-1,.26-1.19,0-2-.52-1.64-2.77-1.39-4-3s-1-4.49,0-5c1.53-.76,3.53,4.56,9,6,3.19.84,3.39-.74,8,0,2.3.37,4.54,1.25,9,3C29.65,38.38,29.79,38.56,31.84,39.27Z" transform="translate(0 0)"/><path class="cls-5" d="M34.87,42.24h0a.37.37,0,0,0,0,.18c0,.38.39.9,1.14,1.78a6.47,6.47,0,0,0-1.09,0c-.67.08-2.44.4-6,1-2.54.43-4.54.77-5,0h0a1.33,1.33,0,0,1,0-1,1.6,1.6,0,0,1,.33-.52,2.18,2.18,0,0,1,.67-.48,46,46,0,0,1,9.93-3.09c4.23-.92,8.75-1.65,12.21-2.15-.81,1.43-1.12,3.18-3.14,4.24a6.45,6.45,0,0,1-3.32.66,7.82,7.82,0,0,0-3.1-.54A6.68,6.68,0,0,0,36,42h0C35.39,42,35,42,34.87,42.24Z" transform="translate(0 0)"/><path class="cls-4" d="M37.08,45.58l-1.24.69c-4.7,2.66-5,3.36-7,4-3,.93-3.31-.28-8,0-3,.18-8.34.49-12,4-1.68,1.61-2.31,3.23-3,3-.86-.28-1.33-3.29,0-5,1.47-1.88,4.43-1.28,5-3,.3-.91-.4-1.44,0-2,.67-.94,2.85.22,6,0a15.39,15.39,0,0,0,4-1l3-1c.45.75,2.45.41,5,0,3.56-.6,5.33-.92,6-1a6.47,6.47,0,0,1,1.09,0,22.75,22.75,0,0,1,3.07.34C38.48,44.83,37.85,45.16,37.08,45.58Z" transform="translate(0 0)"/><path class="cls-2" d="M34.87,42.24h0a.37.37,0,0,0,0,.18c0,.38.39.9,1.14,1.78a22.75,22.75,0,0,1,3.06.34c1,.15,2.26.38,3.85.7a79.35,79.35,0,0,1,12,3c1.77.62,3.19,1.22,4.38,1.77l2.62,1.23,1.1.5a8.07,8.07,0,0,0-1.07-2.46h0a7.61,7.61,0,0,0-2-2c-3.56-2.69-6.13-3.52-6-4s2.19-.28,4,0a33.44,33.44,0,0,1,7,2c2.7.94,5.76,2,8.22,1.89A4.7,4.7,0,0,0,76,46.28c2.45-1.88,2.57-6.81,1.14-7.9l-.14-.1a1.51,1.51,0,0,0-1.58.29,28.33,28.33,0,0,1-4.38,3,8,8,0,0,1-3,.72c-1.69.06-2.19-.46-6.73-2.45L60,39.29c-2.33-1-4.14-1.69-5.56-2.17L53,37.29l-.6.07c-.91.11-2.82.34-5.26.69C46.32,39.48,46,41.23,44,42.29a6.45,6.45,0,0,1-3.32.66,15.48,15.48,0,0,1-3.1-.54c-.57-.15-1.08-.28-1.49-.35h0C35.6,42.11,35.25,42.17,34.87,42.24Z" transform="translate(0 0)"/><path class="cls-4" d="M59.22,50a2.9,2.9,0,0,0-1.38,1.23,3.26,3.26,0,0,0,0,3,.41.41,0,0,0,.09.1c1.3,1.58,5.06.25,5.91,1.9.31.6-.18.78,0,2,.27,1.87,1.5,2,2,4a6.79,6.79,0,0,1,0,3c-.37,1.9-1.28,2.62-1,3,.43.58,2.91-.58,6-2,5.44-2.51,8.17-3.76,9-4a22.45,22.45,0,0,1,2.33-.54c2.07-.37,3.33-.32,5.67-1.46h0c.7-.35,1.36-.67,1.94-1l-2.7-.51c-2.15-.41-4.33-.84-6.54-1.33a88.43,88.43,0,0,1-17.6-5.66l-1.1-.5C61.09,50.92,60.24,50.5,59.22,50Z" transform="translate(0 0)"/><path class="cls-3" d="M70.88,41.55a28.33,28.33,0,0,0,4.38-3c.6-.38,1.11-.55,1.58-.29l.14.1c1.43,1.09,1.31,6-1.14,7.9a4.7,4.7,0,0,1-2.78.89,5.66,5.66,0,0,1-.22,2.11c-.06.18-.13.36-.2.52-.71,1.54-2,2.16-1.8,2.48s2.6-.39,5.19-1.87c.6-.34,1.21-.72,1.81-1.13,2.68-1.82,6.24-4.25,6-7-.18-2.08-2.38-2.51-2.89-4.4a2.21,2.21,0,0,1-.11-.6c-.17-2.37,2.29-3,3-6A8.37,8.37,0,0,0,83.27,26C77.39,28.53,73,30.69,71,31.68c1,1.13,2.16,2.13,1.86,3.58-.38,1.83-2.68,2.06-3,3.85a.8.8,0,0,0,0,.15C69.76,40.15,70.21,40.55,70.88,41.55Z" transform="translate(0 0)"/><path class="cls-5" d="M62.94,51.77a88.43,88.43,0,0,0,17.63,5.65,12.44,12.44,0,0,1-.57-6.1,6,6,0,0,1,.84-2c.79-1.21,2.52-2.14,6-4,3.65-2,4.42-1.88,5-3,.68-1.32.25-2.65-.1-3.9a4.07,4.07,0,0,1-2.9-1.1,3.12,3.12,0,0,1-.44-.59,6.39,6.39,0,0,1-.56-3.41c.11-3.5,2.15-4.29,2-7A4.82,4.82,0,0,0,89,23.8c-2,.78-3.92,1.56-5.69,2.31a8.37,8.37,0,0,1,.57,5.21c-.71,3-3.17,3.63-3,6a2.21,2.21,0,0,0,.11.6c.51,1.89,2.71,2.32,2.89,4.4.24,2.75-3.32,5.18-6,7-.6.41-1.21.79-1.81,1.13-2.59,1.48-4.93,2.28-5.19,1.87s1.09-.94,1.8-2.48c.07-.16.14-.34.2-.52a5.66,5.66,0,0,0,.22-2.11c-2.46.11-5.52-1-8.22-1.89a33.44,33.44,0,0,0-7-2c-1.81-.28-3.89-.42-4,0s2.44,1.31,6,4a7.61,7.61,0,0,1,2,2h0A8.07,8.07,0,0,1,62.94,51.77Z" transform="translate(0 0)"/><path class="cls-6" d="M69.87,39.12a.8.8,0,0,0,0,.15c-.08.88.37,1.28,1,2.28a8,8,0,0,1-3,.72c-1.69.06-2.19-.46-6.73-2.45l-1.27-.55c-2.33-1-4.14-1.69-5.56-2.17a42.44,42.44,0,0,0,8.56-1.83,45.28,45.28,0,0,0,7-3L71,31.69c1,1.13,2.16,2.13,1.86,3.58C72.46,37.1,70.16,37.33,69.87,39.12Z" transform="translate(0 0)"/><path class="cls-4" d="M71,31.69l-1.14.58a45.28,45.28,0,0,1-7,3A42.44,42.44,0,0,1,54.3,37.1l-.94-.33c2-1,4.4-2,5.52-2.51a40.17,40.17,0,0,0,4-2c1-.58,4.24-2.4,4-3s-3.81.53-4,0c-.13-.36,1.34-1.36,3-2,2-.76,3-.54,5.17-.75a11.81,11.81,0,0,0,1.83-.25c3.62-.63,4.6-1.55,5-2a5.23,5.23,0,0,0,1-1.59,1.49,1.49,0,0,0,0-1.41c-.63-.79-2.89.27-3,0s2.41-2.15,6-3c2.93-.7,3.59,0,6-1,1.44-.58,3.22-1.31,4-3,.54-1.17.18-1.91,1-4a9.68,9.68,0,0,1,1-2c1.58-2.36,3.2-2.09,4-4a3.63,3.63,0,0,0,0-3c-.42-.68-1.05-.82-1-1,.11-.42,3.69-.49,7,1,3,1.36,3.08,2.78,7,6a37.87,37.87,0,0,0,6.39,4.2c.51.27,1.05.54,1.61.8a22.38,22.38,0,0,0,4.27,1.51,46.32,46.32,0,0,1,4.71,1.49l2,.74c1.75.66,3.21,1.24,4.34,1.8-1.58-.22-3.19-.42-4.85-.57-2.41-.24-4.92-.38-7.56-.38a76.05,76.05,0,0,0-7.92.41,26.81,26.81,0,0,0-2.81.36c-1,.14-2.24.34-3.65.61a92.47,92.47,0,0,0-14.54,4c-1.33.49-2.63,1-3.88,1.48-2,.78-3.92,1.56-5.69,2.31C77.39,28.54,73,30.7,71,31.69Z" transform="translate(0 0)"/><path class="cls-4" d="M98.83,71.77v.51c0,2.36,0,3.87-1,5s-1.85.67-4,2c-1.09.68-3.27,2.29-3,3,.47,1.22,8.26.07,15-3a28.33,28.33,0,0,0,9-6,27.74,27.74,0,0,0,5-7,14.38,14.38,0,0,0,1.43-4,20.77,20.77,0,0,1,1.57-5c1.58-3.61,3.09-5.58,3-9,0-.61-.07-2.67-1-3-.7-.24-1.59.6-2,1-4.72,4.58-6.06,6.57-8,8-.12.09-.24.18-.37.26-2.26,1.53-4.81,2-9.63,2.74-3.88.64-6.28.46-7,2a2.58,2.58,0,0,0-.2,1.25,4.88,4.88,0,0,0,1.2,2.75c1.26,1.39,2.91,1.22,3,2s-2.14,1.11-3,3C98.34,69.26,98.8,69.67,98.83,71.77Z" transform="translate(0 0)"/><path class="cls-2" d="M91.47,36.11a4.91,4.91,0,0,0,.27,2.26,4.07,4.07,0,0,1-2.9-1.1,3.12,3.12,0,0,1-.44-.59,6.39,6.39,0,0,1-.56-3.41c.11-3.5,2.15-4.29,2-7A4.82,4.82,0,0,0,89,23.75c1.25-.5,2.55-1,3.88-1.48a92.47,92.47,0,0,1,14.54-4,9.72,9.72,0,0,0-1.54,3,9.06,9.06,0,0,0-.15,4c-.41.15-.84.69-1.85,3-1.41,3.19-1.29,3.77-2,5a7.67,7.67,0,0,1-.48.73,9.68,9.68,0,0,1-3.81,3,4.69,4.69,0,0,0-.78-1.93,2.44,2.44,0,0,0-.93-.76,3.55,3.55,0,0,0-4,1A2.23,2.23,0,0,0,91.47,36.11Z" transform="translate(0 0)"/><path class="cls-3" d="M88.79,54.42c-1.1.68-1.72,1.2-1.95,1.85a3.13,3.13,0,0,0,.27,2.48c-2.15-.41-4.33-.84-6.54-1.33a12.44,12.44,0,0,1-.57-6.1,6,6,0,0,1,.84-2c.79-1.21,2.52-2.14,6-4,3.65-2,4.42-1.88,5-3,.68-1.32.25-2.65-.1-3.9a4.91,4.91,0,0,1-.27-2.26,2.23,2.23,0,0,1,.37-.84,3.55,3.55,0,0,1,4-1,2.44,2.44,0,0,1,.93.76A4.69,4.69,0,0,1,97.55,37a22.46,22.46,0,0,1,.29,4.31c0,2.59,0,4-1,5-2.08,2-6.12-.37-7,1-.67,1,1.52,2.66,2.54,5.2-.48.24-1,.5-1.54.8A21.25,21.25,0,0,0,88.79,54.42Z" transform="translate(0 0)"/><path class="cls-6" d="M87.11,58.77l2.7.51h0l1.66.3c1.39.24,3.51.59,6.14,1a2.58,2.58,0,0,1,.2-1.25c.72-1.54,3.12-1.36,7-2,4.82-.79,7.37-1.21,9.63-2.74a5.42,5.42,0,0,1,.37-3.26c.8-1.77,1.82-1.72,4-4a23.8,23.8,0,0,0,3.11-4.07c-1.61,1.06-2.46,2.47-5.11,4.07s-5.62,2.58-6,2,3.1-2.88,7-8c.74-1,1.43-1.88,2.06-2.78a9.65,9.65,0,0,0-3.06.78c-2.75,1.25-3.14,3.39-6,4a21.9,21.9,0,0,1-3,0c-5.68.07-6.5.5-7,1-1.14,1.14-.07,2.17-1,4-1.05,2.07-3.06,2-7.46,4.2-.48.24-1,.5-1.54.8-.82.44-1.5.82-2.05,1.15-1.1.68-1.72,1.2-1.95,1.85A3.13,3.13,0,0,0,87.11,58.77Z" transform="translate(0 0)"/><path class="cls-5" d="M142.84,19.27l2,.38a38.28,38.28,0,0,0-2.76,3.58,3.24,3.24,0,0,1-2.28-1c-.84-1-.5-2.27-.15-3.57Z" transform="translate(0 0)"/><path class="cls-5" d="M142.84,43.27c.68,2.77-.85,6.17-3,8-2.79,2.38-5.45,1.14-8,4a10.13,10.13,0,0,0-2,4,27.33,27.33,0,0,0-.76,2.9c-1.68.06-3.41.09-5.24.1h-2.57a20.77,20.77,0,0,1,1.57-5c1.58-3.61,3.09-5.58,3-9,0-.61-.07-2.67-1-3-.7-.24-1.59.6-2,1-4.72,4.58-6.06,6.57-8,8-.12.09-.24.18-.37.26a5.42,5.42,0,0,1,.37-3.26c.8-1.77,1.82-1.72,4-4A23.8,23.8,0,0,0,122,43.2a8.12,8.12,0,0,1,1.89-.93c.71-.25,3.92-1.29,5,0s-1,3.49,0,5,4.73,1.65,7,0c2.68-1.94,2.9-6,3-8.72C141.16,41,142.34,41.36,142.84,43.27Z" transform="translate(0 0)"/><path class="cls-3" d="M142.12,23.23a16,16,0,0,1-3.28,3c-2.91,2.1-4.61,2.28-5,4s.86,3.3,3,6a28.81,28.81,0,0,0,2,2.28c2.33,2.43,3.55,2.81,4,4.72.68,2.77-.85,6.17-3,8-2.79,2.38-5.45,1.14-8,4a10.13,10.13,0,0,0-2,4,27.33,27.33,0,0,0-.76,2.9c4.56-.16,8.74-.51,13.41-1-.84-1.74-1.28-3.5-.65-4.86.52-1.12,1.33-1,6-3,1.63-.69,2.82-1.24,3.74-1.7-.69-2.57-2.53-3.93-1.74-6.3.89-2.66,4.47-4.7,7-4,2.36.65,1.91,3.15,5,5s6.39,1.25,8,1c2.44-.38,4.32-.68,5-2,1.34-2.59-2.43-8.07-7-11-3.76-2.42-6.48-2.09-7-4-.45-1.67,1.31-3.1,2.65-4.67-1.63-.74-3.47-1.47-5.65-2.33a73,73,0,0,0-13-3.62A38.28,38.28,0,0,0,142.12,23.23Z" transform="translate(0 0)"/><path class="cls-2" d="M142.49,61.13c2-.23,4.08-.49,6.33-.79,2.45-.32,5.1-.67,8-1.07a110.06,110.06,0,0,0,11.56-2.42,8.41,8.41,0,0,1-.56-1.58c-.58-2.39.18-3.6-1-5-2.37-2.82-8.39-1.38-10-1-2.21.53-2.67,1-5.26,2.3-.92.46-2.11,1-3.74,1.7-4.67,2-5.48,1.88-6,3C141.21,57.63,141.65,59.39,142.49,61.13Z" transform="translate(0 0)"/><path class="cls-1" d="M190.91,45a.3.3,0,0,1-.07.24,6.75,6.75,0,0,1-2,3,20.67,20.67,0,0,1-6,4c-1.83.7-3.62,1.33-5.36,1.91-1.33-1.34-2-2.94-1.64-3.91s2-.56,3-2c1.3-1.85.34-4.93,0-6-.6-1.9-1.2-2.18-1-3a3.72,3.72,0,0,1,2.41-2.13c1.51.72,2.59,1.13,2.59,1.13.8.3,1.48.57,2.25.88-.31,1.28-1,2.79-.25,4.12C185.89,45.07,188.68,44.85,190.91,45Z" transform="translate(0 0)"/><path class="cls-6" d="M178.84,42.27c.34,1.07,1.3,4.15,0,6-1,1.44-2.55.9-3,2s.31,2.57,1.64,3.91c-3.28,1.09-6.36,2-9.08,2.67a8.41,8.41,0,0,1-.56-1.58c-.58-2.39.18-3.6-1-5-2.37-2.82-8.39-1.38-10-1-2.21.53-2.67,1-5.26,2.3-.69-2.57-2.53-3.93-1.74-6.3.89-2.66,4.47-4.7,7-4,2.36.65,1.91,3.15,5,5s6.39,1.25,8,1c2.44-.38,4.32-.68,5-2,1.34-2.59-2.43-8.07-7-11-3.76-2.42-6.48-2.09-7-4-.45-1.67,1.31-3.1,2.65-4.67a25.4,25.4,0,0,1,7.35,4.67,34.58,34.58,0,0,0,6,5,36.81,36.81,0,0,0,3.41,1.87,3.72,3.72,0,0,0-2.41,2.13C177.64,40.09,178.24,40.37,178.84,42.27Z" transform="translate(0 0)"/><path class="cls-5" d="M190.84,42.27a3.88,3.88,0,0,1,.07,2.76c-2.23-.18-5,0-6.07-1.76-.78-1.33-.06-2.84.25-4.12.77.3,1.62.65,2.75,1.12C189.51,41,190.34,41.34,190.84,42.27Z" transform="translate(0 0)"/><circle class="cls-7" cx="168.34" cy="41.77" r="3.5"/><path class="cls-8" d="M157.84,39.27a11,11,0,0,0-1,5,10,10,0,0,0,3,7c3.64,3.32,8.6,2.1,9,2" transform="translate(0 0)"/><path class="cls-8" d="M151.84,45.27a8.86,8.86,0,0,0,0,3,8.71,8.71,0,0,0,4,6,8.27,8.27,0,0,0,5,1" transform="translate(0 0)"/></svg>