<svg id="Слой_1" data-name="Слой 1" xmlns="http://www.w3.org/2000/svg" viewBox="0 0 430.74 344.78"><defs><style>.cls-1{fill:#82bc68;}.cls-2{fill:#1d8064;}</style></defs><title>leaf-right1</title><path class="cls-1" d="M333.64,433.38a256.63,256.63,0,0,1-106.39-37.76c15.29-1,27-26.06,41.63-35.36-16.08,4.82-43.68,13-77.24,9.28-29.74-25.14-54.48-55.23-74.89-86,23.52.6,41.34-20.7,57.08-26.13-15.76,1.11-44.32,3.09-76.93-6.2C52.41,172.52,34.72,98.5,34.72,98.5c49.17-8.24,92.73-9.85,131.36-6.31,10,15.66,31.75,50.52,44.86,75.54,0,0,.3-38.94-4.09-69.61,48.63,9.81,88.11,28.57,120.23,52.18a174.45,174.45,0,0,1,1.34,79.31s13.79-30.13,23.84-58.55c104.85,97.1,113.17,247.48,113.17,247.48C416.65,434.1,372.86,438,333.64,433.38Z" transform="translate(-34.72 -90.42)"/><path class="cls-2" d="M465.46,418.54C427.2,363.29,300.89,256.2,52.72,105.66,52.72,105.66,300.17,281.53,465.46,418.54Z" transform="translate(-34.72 -90.42)"/></svg>