<svg id="Слой_1" data-name="Слой 1" xmlns="http://www.w3.org/2000/svg" viewBox="0 0 436.01 323.81"><defs><style>.cls-1{fill:#82bc68;}.cls-2{fill:#1d8064;}</style></defs><title>leaf-right2</title><path class="cls-1" d="M450.57,233.94a256.63,256.63,0,0,1-68.37,89.84c3.66-14.88-16.61-33.65-21-50.42-.3,16.78-.89,45.58-14.68,76.4-33,20.67-69.2,35.07-104.74,45.14,7.73-22.22-7.13-45.68-7.51-62.33-3.74,15.35-10.55,43.15-29.33,71.39C116.47,422.38,40.57,416.7,40.57,416.7c7.13-49.35,18.86-91.32,34-127,18-4.72,57.79-14.86,85.61-19.72,0,0-37-12.14-67.55-17.3,24.15-43.34,54-75.23,86.31-98.63a174.45,174.45,0,0,1,76,22.87s-24.5-22.31-48.51-40.54C330.81,66,476.58,103.9,476.58,103.9,476.54,155.09,466.92,198,450.57,233.94Z" transform="translate(-40.57 -93.72)"/><path class="cls-2" d="M476.57,103.86C412.3,123.48,271.83,211.19,52.88,401.73,52.88,401.73,295.75,219.58,476.57,103.86Z" transform="translate(-40.57 -93.72)"/></svg>