<svg id="Слой_1" data-name="Слой 1" xmlns="http://www.w3.org/2000/svg" viewBox="0 0 434.4 424.85"><defs><style>.cls-1{fill:#1e7759;}.cls-2{fill:#258885;}.cls-3{fill:#4aab80;}.cls-4{fill:#469a5c;}</style></defs><title>leaf-left3</title><path class="cls-1" d="M301.21,177.71s25.26-54.53,16.06-74.78,18.12-54.41,18.12-54.41S258.85,96.57,301.21,177.71Z" transform="translate(-10.6 -37.66)"/><path class="cls-2" d="M13.08,436.8,10.6,433c112.15-73.59,254.63-179.4,296.5-265.57l4.07,2C268.84,256.52,125.71,362.9,13.08,436.8Z" transform="translate(-10.6 -37.66)"/><path class="cls-3" d="M301.21,177.71s11.78-34.93,54.06-70.29,54.09-69.77,54.09-69.77S376.18,176.76,301.21,177.71Z" transform="translate(-10.6 -37.66)"/><path class="cls-1" d="M297.72,184.08s8.74-18.73,66.54-18.05S445,142.8,445,142.8,352.87,224.46,297.72,184.08Z" transform="translate(-10.6 -37.66)"/><path class="cls-1" d="M269.11,223.23s14.9-11.82,62.19,12.53,76,14.11,76,14.11S297.88,279.15,269.11,223.23Z" transform="translate(-10.6 -37.66)"/><path class="cls-3" d="M281.5,212.22s9.32,15.57,59.74,9.78,72.6,13,72.6,13S326,172,281.5,212.22Z" transform="translate(-10.6 -37.66)"/><path class="cls-4" d="M279.77,212.53s15.12-6.12,13.49-55.33,17.45-67,17.45-67S245.81,162.82,279.77,212.53Z" transform="translate(-10.6 -37.66)"/><path class="cls-1" d="M32.77,419.46s15.12-6.12,13.49-55.33,17.45-67,17.45-67S-1.19,369.74,32.77,419.46Z" transform="translate(-10.6 -37.66)"/><path class="cls-1" d="M175.23,313.37s15.12-6.12,13.49-55.33,16.49-90.46,16.49-90.46S141.27,263.65,175.23,313.37Z" transform="translate(-10.6 -37.66)"/><path class="cls-4" d="M294.27,194.9s31.38-17.78,66.85-2.94,58.55-8.79,58.55-8.79S379.11,238.18,294.27,194.9Z" transform="translate(-10.6 -37.66)"/><path class="cls-1" d="M259.27,234.22S248,213.36,250,178s-9-56-9-56S291.72,198.59,259.27,234.22Z" transform="translate(-10.6 -37.66)"/><path class="cls-4" d="M249.24,244.74s26.16-11,58.74,12.85,67.89,36.1,83.19,22.83c0,0-31,28.33-78.18.47S281,250.48,249.24,244.74Z" transform="translate(-10.6 -37.66)"/><path class="cls-3" d="M96.52,255.85s12.18,25.62-10.1,59.27-11.69,76.09-18.94,84.16-29.74-29.68-4.11-78.07S92.26,287.83,96.52,255.85Z" transform="translate(-10.6 -37.66)"/><path class="cls-4" d="M246.61,253.76s20.57-22.9-5.07-60.52-4.43-74.59-4.43-74.59S208.46,162.8,226.2,197,246.61,253.76,246.61,253.76Z" transform="translate(-10.6 -37.66)"/><path class="cls-3" d="M239.32,259s22.06-5.69,57.9,20.38,56.12,31.75,56.12,31.75S234.28,288.84,239.32,259Z" transform="translate(-10.6 -37.66)"/><path class="cls-3" d="M196.43,294.87s4.64-16.21,43.92,4.31a420.87,420.87,0,0,0,76.52,30.5S195.83,325.12,196.43,294.87Z" transform="translate(-10.6 -37.66)"/><path class="cls-1" d="M229.85,268.15s6.53-22.77-2.91-56.92-3.12-56.66-3.12-56.66S190.55,240.25,229.85,268.15Z" transform="translate(-10.6 -37.66)"/><path class="cls-1" d="M224.68,274.09s7.74,13.83,46.33,13.39,74.16,35.26,74.16,35.26-37-25.71-68.9-19.33S217.48,299.51,224.68,274.09Z" transform="translate(-10.6 -37.66)"/><path class="cls-3" d="M217.66,146.25s7.85,29-10.38,65,1.08,80.44-1.85,80.87-33-26-13.12-77.07S217.13,178.51,217.66,146.25Z" transform="translate(-10.6 -37.66)"/><path class="cls-4" d="M96.17,380.57A2.11,2.11,0,0,1,92,380a109.05,109.05,0,0,1,8.74-43.53c15.55-37.24-6.95-80.14-4.05-80.79s34.79,23.56,18.71,75.91C104.91,365.86,98.69,371.63,96.17,380.57Z" transform="translate(-10.6 -37.66)"/><path class="cls-4" d="M178.6,308.32s2.37,17.47,49.84,31.43,93.62,38.45,93.62,38.45S234,289.26,178.6,308.32Z" transform="translate(-10.6 -37.66)"/><path class="cls-1" d="M84.55,385.15s2.37,17.47,49.84,31.43S228,455,228,455,140,366.09,84.55,385.15Z" transform="translate(-10.6 -37.66)"/><path class="cls-3" d="M173.1,314.61s23,27.18,56,24.6S326.34,352,326.34,352s-65.65-.26-90.3,6.78S154.5,327.84,173.1,314.61Z" transform="translate(-10.6 -37.66)"/><path class="cls-3" d="M55.66,405.7s23,27.18,56,24.6,101.24,32.21,101.24,32.21-69.61-19.72-94.26-12.68S37.07,418.93,55.66,405.7Z" transform="translate(-10.6 -37.66)"/><path class="cls-3" d="M153.58,333.63s24.17-15.27,13.83-38-6.14-90.63,10.83-101c0,0-43,29.9-39.16,66.7S160.94,304.83,153.58,333.63Z" transform="translate(-10.6 -37.66)"/><path class="cls-1" d="M145.86,339.68s30.72-9.07,53.53,33S267.33,400,267.33,400,218.39,423.05,186,378.34,127.14,346.46,145.86,339.68Z" transform="translate(-10.6 -37.66)"/><path class="cls-1" d="M136,347.33s17.84-29.94,1.25-60.76,4.91-80.27,4.91-80.27-39.89,42.8-29.85,61.29S125.8,330.31,136,347.33Z" transform="translate(-10.6 -37.66)"/><path class="cls-4" d="M239.47,402.15s-25.28,12.87-59.52-8.49-70.37-31-84.64-16.64c0,0,28.86-30.54,77.93-6.23S207.38,398.75,239.47,402.15Z" transform="translate(-10.6 -37.66)"/></svg>