<svg id="Слой_1" data-name="Слой 1" xmlns="http://www.w3.org/2000/svg" viewBox="0 0 410.04 431.87"><defs><style>.cls-1{fill:#23877f;}.cls-2{fill:#0e5944;}.cls-3{fill:#fff;}</style></defs><title>leaf-left2</title><path class="cls-1" d="M405.13,378.74c13.31-18.41-93.15-69-89-79.65s98.73,57.73,116.4,50,28.63-49.61,23.28-61.23-93.28-25-87-39.81,56.22,24.08,78.43,20.8,21-40.34,15.63-49.83-56.18-15.61-58-30,47.36,17.38,60-1.73a31.28,31.28,0,0,0,5-13.73,22.86,22.86,0,0,0,.23-2.51v0c.65-13.54-6.51-25-6.51-25s-52.93-4-35-17.84,29.62-2.24,28.43-28.71a68.57,68.57,0,0,0-15.93-40.93l.06-.06s-.23-.23-.66-.61-.55-.59-.6-.64h0l-.06.06c-.49-.42-1.13-.94-1.89-1.53a69,69,0,0,0-39.19-14c-26.48-.93-14.75,10.62-28.43,28.71s-18.18-34.83-18.18-34.83-11.52-7-25.05-6.27a23.17,23.17,0,0,0-2.5.24,31.32,31.32,0,0,0-13.74,5.16c-19,12.79,13.32,61.65-1.15,60s-21-52.46-30.6-57.7c-4.4-2.42-14.65-3.91-24.73-2.63q-1.19.14-2.38.35c-10.9,1.88-21,7.22-22.57,18.39-3.06,22.24,36.34,71.81,21.57,78.22s-29-81.37-40.65-86.6c-6.13-2.75-20.51-.93-33.91,4-.77.28-1.53.56-2.29.87-11.27,4.47-21.41,11.11-24.81,19C141.74,86.32,211,180.2,200.43,184.48S138.2,82.82,119.92,96.31C115,99.93,104.45,107,94.54,116.37l0,0c-.61.57-1.22,1.16-1.82,1.75C66.58,143.76,48,184.72,157.2,217.51c35,17.83,6.54,38.07-76.24-6,0,0-7.79,17.26-11.13,35.59v0c-.15.84-.29,1.68-.43,2.51-2.95,18.92-.6,38.16,20.39,40.16,42.37,4,82.17,5.53,71.32,13.73s-69-10.59-52.36,13l.4.55a33.81,33.81,0,0,0,6.19,6.4c12.92,10.4,33.08,12.73,46.76,13,.83,0,1.62,0,2.39,0,0,1.4.06,2.86.11,4.4.69,16,4.41,39.19,19.37,50.39.15.12.32.25.48.36a17,17,0,0,0,6.4,3.2c14.34,2.57-.61-45.5,6.63-55.29,8.09-10.93,10,28.85,14.43,71.18,2.08,19.9,19.55,22.86,37.47,20.43,1.68-.23,3.37-.5,5-.83,18.45-3.46,35.87-11.52,35.87-11.52-44.87-82.35-24.9-111-6.74-76.19,30.6,98.39,66.88,92.36,92.29,70.82.62-.54,1.22-1.05,1.83-1.6h0C390.68,400.24,400.63,385,405.13,378.74ZM150,273.56c-5.91-8.77,5.84-8,13.77-6.65a8.63,8.63,0,0,1,7,10.81,6.47,6.47,0,0,1-3.07,3.94c-3.69,2-9.6.41-14.42-4.23a0,0,0,0,1,0,0A25.19,25.19,0,0,1,150,273.56Zm257.1-53A3.88,3.88,0,0,1,405.8,224a14.79,14.79,0,0,1-5.59,3.16c-13.63,4.8-42.25,3-36.53-11.55a13.11,13.11,0,0,1,1-2,12.66,12.66,0,0,1,3.65-3.8,13.54,13.54,0,0,1,9-2.31C387.81,208.54,405.56,211.67,407.07,220.57ZM407,147.72c4.62-.37,8.65,3.53,8,8.11-.53,3.52-3.57,5-6.65,4.75-1.65-.59-3.25-1.21-4.82-1.86a5.75,5.75,0,0,1-2.18-5.12C401.72,149.29,404.32,147.92,407,147.72Zm-205-2.64c-6-13.34-7-21.91-4.34-26.07a6.29,6.29,0,0,1,4-2.71c3.43-.78,8.34.4,14.35,3.46,17.94,9.11,22.15,42.1,22.15,42.1A72.1,72.1,0,0,1,239.47,174a36.57,36.57,0,0,1-.48,7c-.81,4.6-2.76,8.38-6.91,9C220.51,191.75,214.11,172,202,145.07Z" transform="translate(-60.43 -29.15)"/><path class="cls-2" d="M60.43,458C62.31,455.65,251,216.54,438.32,55.3L441.46,59C254.48,219.89,66.09,458.63,64.21,461Z" transform="translate(-60.43 -29.15)"/><path class="cls-2" d="M470.47,173.39l-.58.08c-53.72,7.42-104.18-28.26-114.18-35.81-.93-.7-1.5-1.17-1.71-1.33l3-3.75c.07,0,.82.65,2.21,1.67a208.2,208.2,0,0,0,44.27,24.46c1.57.65,3.17,1.27,4.82,1.86,18.29,6.73,39.77,11.18,61.46,8l.34,2.3v0Z" transform="translate(-60.43 -29.15)"/><path class="cls-2" d="M364.87,123.89c-1.74-2-42.55-50.4-40.26-94.73l4.81.25c-2.19,42.44,38.71,90.88,39.12,91.36Z" transform="translate(-60.43 -29.15)"/><path class="cls-2" d="M364.71,213.58c-30.49-12.29-55.51-23.67-59.55-25.52-.19-.1-.34-.16-.43-.2l2-4.38,2,.91c6.93,3.15,31.07,14,59.61,25.4A12.66,12.66,0,0,0,364.71,213.58Z" transform="translate(-60.43 -29.15)"/><path class="cls-2" d="M465.16,245.78c-17.39-2.63-41.09-10-65-18.61A14.79,14.79,0,0,0,405.8,224c22.32,7.95,44.11,14.59,60.08,17Z" transform="translate(-60.43 -29.15)"/><path class="cls-2" d="M307.16,156.79C287,136.8,251.71,93.39,252,34.32l4.81,0c-.38,79.83,66.3,130.34,67,130.84L320.91,169A149,149,0,0,1,307.16,156.79Z" transform="translate(-60.43 -29.15)"/><path class="cls-2" d="M262.5,228.86l2.87-3.87c1.09.81,109.84,81,186.18,93.36l-.77,4.75C373.28,310.55,263.59,229.68,262.5,228.86Z" transform="translate(-60.43 -29.15)"/><path class="cls-2" d="M201.68,116.3a6.29,6.29,0,0,0-4,2.71C186.8,97.85,178,74.35,174.15,49.55c0-.17,0-.34-.08-.51l2.37-.36,2.39-.36C182.51,72.56,191.06,95.58,201.68,116.3Z" transform="translate(-60.43 -29.15)"/><path class="cls-2" d="M273.3,217.67c-.08-.06-.7-.62-1.79-1.64-1.33-1.23-3.37-3.16-6-5.74A387.17,387.17,0,0,1,239,181a36.57,36.57,0,0,0,.48-7,370.16,370.16,0,0,0,35.36,38.5c1,.94,1.58,1.43,1.65,1.5Z" transform="translate(-60.43 -29.15)"/><path class="cls-2" d="M355.47,395.63C311,351.55,239.83,258.16,236.31,253.51l3.83-2.91c1,1.34,101.95,133.86,138.93,159.24l-2.72,4C370.61,409.88,363.47,403.55,355.47,395.63Z" transform="translate(-60.43 -29.15)"/><path class="cls-2" d="M152,189.09c-24.81-24.57-48.55-51-59.59-71.54l4.24-2.28c27.15,50.53,136.9,141,138,141.88l-3.05,3.72C228.84,258.63,189.2,226,152,189.09Z" transform="translate(-60.43 -29.15)"/><path class="cls-2" d="M254.43,430.35c-1.68.33-3.37.6-5,.83-29.89-54.29-36.49-122.9-37.83-143.27-.23-3.71-.31-5.82-.31-6l4.81-.14s0,.42.05,1.07C216.54,292.91,221.06,370.93,254.43,430.35Z" transform="translate(-60.43 -29.15)"/><path class="cls-2" d="M201.79,295.65l-3-.72C182.92,291,108.44,272.08,69.4,249.65c.14-.83.28-1.67.43-2.51v0L71,245c21.51,12.54,54.55,24,82.18,32.39a0,0,0,0,0,0,0c4.82,4.64,10.73,6.22,14.42,4.23,18.4,5.23,32.21,8.57,34.78,9.19l.44.1Z" transform="translate(-60.43 -29.15)"/><path class="cls-2" d="M190.86,394.86a17,17,0,0,1-6.4-3.2c-.16-.11-.33-.24-.48-.36-7.73-20.06-7.77-50.49-7.33-64.17.13-4,.3-6.57.33-7l4.81.34s0,.35-.05.92C181.34,328.3,179.34,373.22,190.86,394.86Z" transform="translate(-60.43 -29.15)"/><path class="cls-2" d="M168.17,333.61l-3.18-.46c-13.3-2-35-5.55-49.65-9.66a33.81,33.81,0,0,1-6.19-6.4l-.4-.55c10.45,3.77,36.51,8.9,60,12.31h.1Z" transform="translate(-60.43 -29.15)"/><path class="cls-3" d="M408.32,160.58a8.6,8.6,0,0,1-4.82-1.86C405.06,159.37,406.67,160,408.32,160.58Z" transform="translate(-60.43 -29.15)"/></svg>