<svg id="Слой_1" data-name="Слой 1" xmlns="http://www.w3.org/2000/svg" viewBox="0 0 498.59 412.42"><defs><style>.cls-1{fill:#23877f;}.cls-2{fill:#0e5944;}.cls-3{fill:#fff;}</style></defs><title>leaf-left1</title><path class="cls-1" d="M181.77,434.4c21.41,7.6,40.09-108.8,51.44-107.76s-27.66,111-15.24,125.75,55.66,13.53,65.3,5.14S281,361,297,362.85s-7.31,60.72,2.08,81.12,44.61,8.8,52.22,1-.8-58.3,12.53-64.1-3.37,50.33,18.51,57.06a31.28,31.28,0,0,0,14.59,1,22.86,22.86,0,0,0,2.47-.49h0c13.18-3.18,22.15-13.27,22.15-13.27s-11.06-51.92,7.28-38.6,10.48,27.79,35.54,19.22a68.57,68.57,0,0,0,34.81-26.79l.07,0s.15-.28.4-.81.41-.69.45-.76h0l-.07,0c.26-.59.58-1.35.94-2.25a69,69,0,0,0,2.41-41.55c-6.55-25.67-14.34-11.17-35.54-19.22s28.31-27.23,28.31-27.23,3.53-13-1-25.8a23.17,23.17,0,0,0-.93-2.33,31.32,31.32,0,0,0-8.81-11.73C467.86,232.61,430,277.35,427.59,263s44.43-34.94,46.77-45.58c1.08-4.91-.36-15.15-4.43-24.47q-.47-1.1-1-2.19c-4.87-9.93-12.83-18.14-24-16.49-22.21,3.32-58.7,55.06-69,42.68s69.94-50.68,71.68-63.35c.92-6.66-4.87-19.94-13.35-31.42-.48-.66-1-1.31-1.48-2-7.46-9.56-16.68-17.43-25.22-18.47-19.17-2.3-89.8,90.55-96.88,81.61s80.08-88.29,62-102c-4.86-3.7-14.63-11.83-26.38-18.72l0,0c-.72-.43-1.46-.84-2.19-1.25-31.93-17.87-76.46-24.15-77.24,89.82-7.27,38.61-34.7,17-15.68-74.85,0,0-18.76-2.63-37.29-.68h0c-.85.09-1.69.2-2.53.29-19,2.49-36.79,10.15-32.81,30.86,8,41.79,17.78,80.41,6.86,72.3s-9.23-69.2-27.18-46.6l-.42.54a33.81,33.81,0,0,0-4.41,7.74c-6.35,15.32-2.92,35.33.67,48.52.23.8.43,1.56.65,2.3-1.33.41-2.73.86-4.19,1.34-15.14,5.15-36.37,15.25-42.92,32.75-.08.18-.15.38-.21.56a17,17,0,0,0-1.27,7c1.56,14.49,43.49-13.37,54.93-9.18,12.77,4.7-24.89,17.68-64.26,33.85-18.52,7.59-16.44,25.19-9.08,41.7.7,1.54,1.43,3.09,2.21,4.61C98.4,321,111,335.46,111,335.46c66.43-66.21,99.55-55.1,71.22-27.88-85.83,57-69.84,90.14-42,108.47.69.45,1.35.88,2,1.31h0C157.08,426.58,174.52,431.84,181.77,434.4ZM211,160c6.75-8.13,9.31,3.36,10.25,11.34a8.63,8.63,0,0,1-8.41,9.75,6.47,6.47,0,0,1-4.64-1.84c-2.95-3-3.09-9.1,0-15a0,0,0,0,1,0,0A25.19,25.19,0,0,1,211,160ZM334.12,391.82a3.88,3.88,0,0,1-3.66-.25,14.79,14.79,0,0,1-4.6-4.48c-8.43-11.73-14.78-39.7.82-38.3a13.11,13.11,0,0,1,2.24.41,12.66,12.66,0,0,1,4.67,2.43,13.54,13.54,0,0,1,4.76,8C340.24,370,342.23,387.87,334.12,391.82ZM404,371.29c1.66,4.33-1,9.3-5.54,9.92-3.53.48-5.76-2-6.43-5,.11-1.75.25-3.46.43-5.15a5.75,5.75,0,0,1,4.3-3.53C401,366.66,403.06,368.76,404,371.29ZM348.94,173.81c11.11-9.52,19.05-12.9,23.8-11.49a6.29,6.29,0,0,1,3.73,3.09c1.71,3.08,2,8.12.71,14.74C373.47,199.93,343,213.24,343,213.24a72.1,72.1,0,0,1-11.33,4.66,36.57,36.57,0,0,1-6.86,1.51c-4.64.52-8.82-.3-10.57-4.11C309.35,204.68,326.53,193,348.94,173.81Z" transform="translate(-7 -51.3)"/><path class="cls-2" d="M8.79,125.88c2.83,1.13,285.33,115,492.71,249.49l-2.62,4C291.89,245.19,9.83,131.48,7,130.35Z" transform="translate(-7 -51.3)"/><path class="cls-2" d="M397.21,439.41c-.09-.18-.17-.36-.24-.53-22.22-49.46-2.16-107.92,2.28-119.64.41-1.09.7-1.77.8-2l4.44,1.84c0,.08-.4,1-1,2.59a208.2,208.2,0,0,0-11,49.36c-.18,1.69-.32,3.4-.43,5.15-1.32,19.44.45,41.31,9.56,61.24l-2.11,1h0Z" transform="translate(-7 -51.3)"/><path class="cls-2" d="M415,324.15c1.47-2.24,36.41-55,79.6-65.26l1.11,4.68c-41.34,9.83-76.34,62.68-76.69,63.22Z" transform="translate(-7 -51.3)"/><path class="cls-2" d="M328.92,349.2c3.22-32.72,7.12-59.93,7.76-64.32,0-.21.05-.37.07-.47l4.77.7c0,.09-.13.84-.31,2.19-1.08,7.53-4.67,33.74-7.63,64.34A12.66,12.66,0,0,0,328.92,349.2Z" transform="translate(-7 -51.3)"/><path class="cls-2" d="M326.24,454.66c-2.36-17.42-2-42.24-.39-67.56a14.79,14.79,0,0,0,4.6,4.48C329.1,415.23,328.85,438,331,454Z" transform="translate(-7 -51.3)"/><path class="cls-2" d="M367.25,278c13.51-25,45.26-71,102-87.36l1.33,4.63c-76.72,22.07-106.46,100.26-106.75,101l-4.52-1.67A149,149,0,0,1,367.25,278Z" transform="translate(-7 -51.3)"/><path class="cls-2" d="M285.53,255.4l4.52,1.67c-.47,1.27-46.86,128.18-37.28,204.91l-4.78.6C238.26,384.68,285.05,256.69,285.53,255.4Z" transform="translate(-7 -51.3)"/><path class="cls-2" d="M376.46,165.41a6.29,6.29,0,0,0-3.73-3.09c17.25-16.38,37.32-31.45,60-42.09l.47-.22,1,2.17,1,2.19C413.05,134.72,393.37,149.39,376.46,165.41Z" transform="translate(-7 -51.3)"/><path class="cls-2" d="M299.31,262.63c0-.09.4-.84,1.07-2.18.81-1.63,2.09-4.13,3.83-7.34a387.17,387.17,0,0,1,20.61-33.7,36.57,36.57,0,0,0,6.86-1.51,370.16,370.16,0,0,0-27,44.76c-.61,1.24-.93,1.92-1,2Z" transform="translate(-7 -51.3)"/><path class="cls-2" d="M151.61,391.49c29.79-55.1,99.43-149.6,102.9-154.3l3.87,2.86c-1,1.35-99.82,135.46-113.78,178.08l-4.57-1.5C142.19,410,146.25,401.39,151.61,391.49Z" transform="translate(-7 -51.3)"/><path class="cls-2" d="M292.64,138.15c16.61-30.72,35.31-60.93,51.91-77.29l3.38,3.43c-40.86,40.26-96.82,171-97.39,172.31l-4.43-1.89C247.5,231.47,267.72,184.24,292.64,138.15Z" transform="translate(-7 -51.3)"/><path class="cls-2" d="M89.89,304.28c-.78-1.52-1.52-3.06-2.21-4.61,43.7-43.94,107.7-69.56,126.86-76.56,3.49-1.27,5.5-1.93,5.63-2l1.48,4.58-1,.35C211.14,229.3,137.54,255.56,89.89,304.28Z" transform="translate(-7 -51.3)"/><path class="cls-2" d="M204.37,215.91c0-.09-.06-1.18-.15-3.09-.72-16.31-3.45-93.12,7.1-136.89.84-.1,1.68-.2,2.53-.29h0l2.33.58c-6,24.16-7.73,59.1-8,88a0,0,0,0,0,0,0c-3.1,5.93-3,12,0,15,.15,19.13.83,33.32,1,36q0,.4,0,.45Z" transform="translate(-7 -51.3)"/><path class="cls-2" d="M106.09,233.3a17,17,0,0,1,1.27-7c.06-.18.13-.38.21-.56,17.08-13.06,46.27-21.65,59.52-25.06,3.88-1,6.39-1.56,6.85-1.66l1,4.71s-.35.07-.9.21C167.29,205.46,123.62,216.16,106.09,233.3Z" transform="translate(-7 -51.3)"/><path class="cls-2" d="M158.49,194.32c-.14-1-.29-2.06-.45-3.18-1.83-13.32-4.5-35.1-4.68-50.36a33.81,33.81,0,0,1,4.41-7.74l.42-.54c-.69,11.09,1.72,37.54,5,61a.28.28,0,0,1,0,.1Z" transform="translate(-7 -51.3)"/><path class="cls-3" d="M392,376.16a8.6,8.6,0,0,1,.43-5.15C392.28,372.7,392.14,374.41,392,376.16Z" transform="translate(-7 -51.3)"/></svg>