<svg id="Слой_1" data-name="Слой 1" xmlns="http://www.w3.org/2000/svg" viewBox="0 0 447.84 428.11"><defs><style>.cls-1,.cls-4,.cls-6{stroke:#000;stroke-linecap:round;stroke-linejoin:round;stroke-width:3px;}.cls-2{fill:#d9d9d9;}.cls-3{fill:#fff;}.cls-4{fill:#129f58;}.cls-5{fill:#107a43;}.cls-6,.cls-7{fill:none;}</style></defs><title>logo</title><path class="cls-1" d="M52.13,334.81c4.06-4.56,15-19,25.81-39.37,12.7-24,25.44-55.78,30.56-83.29a19.3,19.3,0,0,0-4.38-16.46q-.36-.4-.74-.78c-32.8-32.67-39.82-42.2-34.88-78.22C72.25,89.38,99.31,66.94,109,59.5c2.07,1.74,2.91,3.09,4.94,4.19C118,62.8,119,50,122.5,49.5c3.69,3.88,2.81,12.25,9,12,1.52-.06,1.81-4.19,2-6.58,1.17-.08,2.91,1,6,5.08,4.88,2.94,7.31,4.5,9.5,6.5,5.71,5.22,7.91,15.15,21.77,27.13a21.85,21.85,0,0,0,17.91,4.94c24-4,30.25-14.05,70.32-16.57,37.76-2.37,60.77,12.76,86.78,14a23.1,23.1,0,0,0,13.1-3.1c2.69-1.63,4.95-3.84,9-8.71,4.77-5.73,11.56-21.19,22.94-27.75,2.43-1.4,4.41-5.43,6.81-6.06,2.17,3.41,1.87,6.41,3.88,6.63,2.64.28,6.06-7.87,7.88-11.81,3.38,1.88,6.13,9.5,8.94,12.63,2.16,0,3.44-1.62,4.94-3.56,3.15,1,6.32,4.34,7.13,5.69,24.38,21.25,35.17,33.4,37.13,62.06.35,5.12,1.59,23.25-9,39.5-11.2,17.19-19.12,20.88-30.81,33.13-3.42,3.59-1.44,13.9,2.94,35.38,12.44,60.94,7.19,87.13,42.69,118.25-1.37,2.87-5.06,5.06-10.12,6.31,3.88,8.44-1.37,25.73-4.62,26.63.06.31-.66-5.18-3.37-4.69-1.25,5-4.19,9.38-7.62,13.38-14.59,17-35.34,24.07-68.56,41.25C352.18,445,349.14,449.93,324.5,461c-8.62,3.88-67.87,19.69-111.12-1.56-15.18-7.46-24.33-13.6-33.44-21.5-5.2-4.51-11.94-9.37-22.31-16.12C129,403.16,81.19,371.88,80,361.5c-5.43.51-10.5,10-10.5,10-3.62-1.06-12.69-18.81-5.94-31.81C59.38,338.75,54.93,337.7,52.13,334.81Z" transform="translate(-26.97 -43.69)"/><path class="cls-2" d="M73,332.51a19,19,0,0,1,3.37-5.29c13-14.8,28.78-55,31.65-63.88,8.82-27.42,8.32-34.34,15.33-59.67a135.72,135.72,0,0,1,29-54.67,146.27,146.27,0,0,1,49.33-36.67c27.25-12.53,50.89-13.38,62-13.67a161,161,0,0,1,48.67,6,152,152,0,0,1,47.33,23.67c10,7.41,31.25,23.55,44.33,52,7.93,17.24,10.38,33.6,12.33,46.67,1.53,10.23,1.65,16.14,5,42,1.66,12.81,2.49,19.21,3.33,23,0,0,5,22.28,16.67,41.67,4,6.68,6.05,10,10,13.33.65.54,3,2.57,2.67,2.67-3.92,1.08-7.33-1.92-10-3.67,4,4.83,5.49,13.49,3.75,14.83-1.17-1.17-4.86-4.55-7.42-3.5.75,2.5,0,7.25-2.67,13.33-3.08,7-7.06,11.87-14.33,18-3.83,3.23-2.62,1.51-22.33,14a111.81,111.81,0,0,1-11.33,6.67c-4.77,2.37-6.21,2.56-11.67,5.33-2.86,1.45-5.24,2.86-10,5.67-3.18,1.88-7.3,4.31-12,7.33-7.59,4.89-8.81,6.25-14,9.67a113.47,113.47,0,0,1-19,10.33c-9,3.73-16.11,4.89-27,6.67a160,160,0,0,1-23.67,2.33,132,132,0,0,1-23.67-1.33A124.15,124.15,0,0,1,223,448.67,90.68,90.68,0,0,1,203.33,439c-8.55-5.72-8.93-8.38-21.33-17.33-1.24-.89-5.76-4.13-12-8-8.31-5.15-14.75-8.36-16-9,0,0-49.34-25.27-64-46-1.88-2.65-4.37-5.35-4.92-9.33-.51-3.72-.08-4.83-.08-7-1.83-1-5.17,1.67-7.33,4.67C76,346,76,335.17,82,329c-1.8-1.31-5.33,1.83-9.44,4.67A12.25,12.25,0,0,1,73,332.51Z" transform="translate(-26.97 -43.69)"/><path class="cls-3" d="M234.88,147.75c2.34-4.72-11.1-15.6-9.21-18.08C228,126.6,248,133.5,266.33,143c20-11.5,37.35-17,39.33-14.33,1.55,2-11.3,12.36-9.29,16.46,17.13-6.37,47.54-9.32,49.63-4.12,1.19,3-10.62,7.5-12.87,13,25.75,2.25,46.61,10.5,46.54,13.33,0,1.38-9.39,2.76-14.29,5.92,10.63,8.63,43.13,27,39,37.42,0,0-7-1.69-9,.67,5.79,5.92,7.83,11.64,8.67,19.33,2.63,24.21-1.15,31,6.67,59.67,5.65,20.73,15.23,25,18.33,50,2,16-2,19-2.87,19.42-2.87-4.5-18.79-14.08-18.79-14.08,5,9.33,8.25,23.37,6,24.67-1.82,1-8.21-3.08-12.58-9.33.88,6.75,1.75,9.17-.75,18.33-5.82,21.34-50.16,28.85-52.33,24.33-.63-1.31,2.52-3.11,2-6.33-.73-4.5-7.8-6.85-10.33-7.67-13.27-4.26-19.09,1.59-35.67.33-8.4-.63-16.45-1.24-23-7-8-7-8.4-17.06-12.67-17-3.15,0-3.38,5.5-9.33,11.33-7.19,7-16.32,8.36-18.67,8.67-10.51,1.38-18.63-2.87-23.33-5.33C204.41,374.25,197.23,364,194,359.33c-5.69-8.28-6.41-12.89-13.67-19.33-6.11-5.42-10.6-6.6-13-7-7.36-1.22-15,1.61-15,3.67,6.79.58,11.13,3.6,11,5.67-.16,2.45-10.83,0-16,5,4.54.54,7.15,1.06,8,4,.71,2.45-3.8,4.14-6.67,9.33-4.2,7.61.19,13.63-3,16-3.93,2.92-15.92-2.23-20.67-11.33-4.11-7.89-3.5-11.71-4-17-2.6-.67-6.4,8.57-8,8-2.53-.9-.62-16.33,2-26-7.37-2.08-9.23,18.28-14.67,17.33-4.53-.79-9.61-16.09-4.33-28.33,2.62-6.07,6.35-9.7,13-22,10.63-19.66,19.13-64.08,29-81.67-3.2-2.92-6.75-1.08-10-1.67-2.69-5.5,24.88-26.37,38.33-37.67-1.77-4.81-16.19-3.09-16.33-5-.28-3.59,20.63-12.46,51.33-16.33.27-4.9-15.24-9.15-14.67-11C187.62,140.94,213,138.63,234.88,147.75Z" transform="translate(-26.97 -43.69)"/><path class="cls-2" d="M244.67,236c2.29-1,2.75-7,.83-11.33-2.9-6.64-5.83-7.83-10-10.17,2.74-1.12,4.75-2.12,8.5-1,5.47,1.64,6.92,6.3,9.5,5.67,1.63-.4,1.69-2.43,4-7,2.52-5,4.15-7.23,7.5-9.5a19.53,19.53,0,0,1,9,10.67c1.35,3.89,1.25,7.14,2.5,7.33s1.61-2.38,4-4.5c4.18-3.7,11-4,13.17-2.33-2,2.4-3.52,2.61-5.5,7a16.37,16.37,0,0,0-1.33,7.5c0,.74.33,5.3,2,5.67,1.35.3,2.81-2.35,3.67-3.33,4.83-5.5,9.86-6.68,18.67-9,7.13-1.87,26-4.76,47,4.17,9.13,3.88,27.43,11.66,36,31.5,1.28,3,8.39,20.21,1.33,38.17-5.69,14.48-18.73,24.68-20.17,23.67-.33-.23.07-1-.33-2.5-.54-2-2.19-4.1-3.5-4.5a56.51,56.51,0,0,1-19.33,17.5c-.68-.17-.69-.45-2.83-2.5a82.78,82.78,0,0,0-9.33-7.5c-9.78-7.38-19.76-20.34-21.67-19-1,.7,1.23,4.65,0,5.5-7.5-.17-24.33-18.83-28.83-33.67-2.91-.3-5.72,6.25-6.33,7.67-4.4,10.24-.64,20.44-.17,21.67,2.69,7,7.92,12.51,12.17,17,4,4.19,5.19,4.59,5,5.67-1.31,7.56-64.75,3.78-65-1.17,0-1,2.46-1.17,6.33-5a30.21,30.21,0,0,0,6-8.67A38.75,38.75,0,0,0,251,297a41.33,41.33,0,0,0-.83-13.33c-1.1-4.84-3.67-12.24-5.67-12-1,.12-1.44,2.05-1.83,3.33-1.56,5.12-4.82,8.42-11.33,15A60,60,0,0,1,208,304.33a19.81,19.81,0,0,0,6.33-4.5c1.68-1.77,3.18-4,2.83-4.33s-3.43,2.95-9.17,5.83a42.79,42.79,0,0,1-9.33,3.33c-4.35,1-5.8.71-10.5,2.17-3.74,1.15-5.06,2.06-5.83,2.67-2.78,2.21-2.78,2.21-4.17,5.83-1.14.4-2.65-.1-5.5-2.5-7.21-6.08-8.47-10-11-12.17-1.7.27-2,2.5-2.5,6.17-4.06,1.88-25-16.54-23.67-39,1.11-18.92,17.58-30.35,20.83-32.5a66.88,66.88,0,0,1,18.17-9c12.65-4,17.08-3.18,31.83-4,11.63-.65,18.32.65,19.83,1.17C237.2,227.25,241.34,237.49,244.67,236Z" transform="translate(-26.97 -43.69)"/><path class="cls-1" d="M245.5,263.33a17.24,17.24,0,0,0,1.17-5,12.39,12.39,0,0,0-1.17-6.5,27.47,27.47,0,0,0-3.5-4.17c-2.57-2.8-3-3.17-4.33-4.67-1.78-2.06-2.19-2.86-3.83-5,0,0-2.23-2.9-6-6.83-5.43-5.66-9.39-9.78-14.67-11.67s-9.54-.8-17,1a73.34,73.34,0,0,0-25.33,12.17,63.48,63.48,0,0,0-15.17,14.83,42.74,42.74,0,0,0-7.17,14c-1,3.5-2.65,9.74-.67,17.17a23.05,23.05,0,0,0,5.5,10.5c3.49,3.65,7.36,5,12.67,6.67a66.41,66.41,0,0,0,15.5,2.83c5.82.43,13.33.92,22.67-1.5A58.57,58.57,0,0,0,220,290.5c3.5-2.16,6.22-4.55,11.67-9.33s7.68-7.35,9.5-9.83A31.66,31.66,0,0,0,245.5,263.33Z" transform="translate(-26.97 -43.69)"/><path class="cls-1" d="M293.67,237a73,73,0,0,0-3.33,9.33c-1.67,5.49-1.8,7.56-1.83,8.33a27.67,27.67,0,0,0,1,8c.77,3.34,1.39,6.38,3.33,9.67A27.21,27.21,0,0,0,297,277.5c5.55,5.84,8.44,7.64,13.67,12.67,4.45,4.28,3.37,3.95,7.33,7.67a81.78,81.78,0,0,0,12.67,9.83c6.06,3.75,9.74,6,15.33,6.67a29,29,0,0,0,11.17-1,33.72,33.72,0,0,0,11.17-5.5,41.84,41.84,0,0,0,11.17-12,49.49,49.49,0,0,0,6.67-17.17,38.91,38.91,0,0,0,.67-12.5A36.25,36.25,0,0,0,383.67,255c-2.09-4.42-4.54-7.2-7.5-10.5A79.3,79.3,0,0,0,366,235.17a97.94,97.94,0,0,0-16-10.67c-1.35-.71-14.93-7.71-29-8.67a21.52,21.52,0,0,0-17.17,5.83C298.42,226.35,296,231.79,293.67,237Z" transform="translate(-26.97 -43.69)"/><path class="cls-3" d="M315.71,269c-.09,1,.45,1.81,1.21,3a14.86,14.86,0,0,0,4.63,4.25,17.5,17.5,0,0,0,6.75,3,14.88,14.88,0,0,0,6.08-.12,14.6,14.6,0,0,0,7.17-4.29A18.2,18.2,0,0,0,345,269c1.49-3.31,1.47-5,1.29-6.08a3.5,3.5,0,0,0-1.25-2.46,3,3,0,0,0-1.62-.5,21.4,21.4,0,0,0-5.62.21,95.36,95.36,0,0,0-15.79,4C316.56,266.12,315.81,267.86,315.71,269Z" transform="translate(-26.97 -43.69)"/><path class="cls-3" d="M192.38,259.63a7.78,7.78,0,0,0-2.25-.12,3.25,3.25,0,0,0-2.25.75,2.77,2.77,0,0,0-.62,1.88,5,5,0,0,0,.75,2.75,10.2,10.2,0,0,0,3.75,3.63c8.24,4.72,18.56,4.75,19.19,4.75a7.24,7.24,0,0,0,4.94-1.56c.21-.19,1.48-1.37,1.19-2.44a2,2,0,0,0-1.12-1.12A116.61,116.61,0,0,0,192.38,259.63Z" transform="translate(-26.97 -43.69)"/><path class="cls-1" d="M176.5,347.5c.49.51.23,1.57.17,1.83-.54,2.19-3.27,2.54-3.33,4,0,.69.56,1.16,1.5,2,1.68,1.49,3.09,3.26,4.83,4.67,2.78,2.23,1.93,2,7.17,6.67,3.26,2.92,6.48,5.61,8.67,7.33a85.16,85.16,0,0,0,20,12.5,70.16,70.16,0,0,0,19.33,5.17c5.8.69,10.31,1.16,15.67-.83a21,21,0,0,0,10-7.17,22.93,22.93,0,0,0,3.67-9,25,25,0,0,0,.67-10,24.1,24.1,0,0,0-3.17-8.67,28.27,28.27,0,0,0-5.17-6.5,33.59,33.59,0,0,0-8.67-5.67c-3.78-1.91-4.19-1.58-10.17-4.33-4.62-2.13-6.07-3.11-7.33-4.17-1.86-1.56-3.82-3.24-4.67-6.17a10,10,0,0,1,.17-6.17c1-2.7,3-4.13,4.67-5.33a19.15,19.15,0,0,1,5.33-2.67,96.7,96.7,0,0,1,17-4,105.5,105.5,0,0,1,15.67-.67,118.24,118.24,0,0,1,16.17,1.5,82.87,82.87,0,0,1,11.67,2.83c4.9,1.56,7.12,2.77,8.83,4.83a13.85,13.85,0,0,1,2.5,4.67,9.57,9.57,0,0,1,.5,4.5,9.17,9.17,0,0,1-2.33,4.67c-1.09,1.25-2.19,1.95-5.67,3.67-2.94,1.46-4.68,2.21-7.5,3.5-2.6,1.19-4.85,2.23-7.67,3.67a44.88,44.88,0,0,0-6.67,3.83,21.38,21.38,0,0,0-4.83,4.5,19.83,19.83,0,0,0-3,5.83,25.73,25.73,0,0,0-1.33,9.67,30.42,30.42,0,0,0,2,9.67c1.18,3.28,2.52,7,6,10.5a24.77,24.77,0,0,0,9.5,5.67,35.6,35.6,0,0,0,11.5,2.17c4.39.21,4.64-.42,11.83-.67,5.24-.18,7.94-.27,11.67.33A42.67,42.67,0,0,1,332.33,399c.91.42,8.31,3.82,7.83,5.67-.16.63-1.21.91-2.17,1.17a8.18,8.18,0,0,1-4.33-.17c-2.27-.66-3-1.7-4.17-1.33a2.89,2.89,0,0,0-1.5,1.33c-.25.39-2.28,2.09-6.33,5.5-3.62,3-9.87,4.88-15.5,6.5a161,161,0,0,1-18.83,4,151.84,151.84,0,0,1-15.5,2,130.12,130.12,0,0,1-26.67-1.17,145.11,145.11,0,0,1-17.33-3.67,104.71,104.71,0,0,1-17.67-6.17,96.15,96.15,0,0,1-12.5-7c-8.4-5.56-13.23-10.64-21.5-19.33-9.78-10.28-11.24-13.86-11.17-16.83,0-.37.09-2.41-.67-2.67-1.52-.52-4.37,7-6.83,6.5-1.48-.28-2-3.28-2.17-4a11.38,11.38,0,0,1,1.17-7c2.14-4.71,5.58-7.4,8.33-9.5C168.73,349.86,175.12,346.07,176.5,347.5Z" transform="translate(-26.97 -43.69)"/><path class="cls-3" d="M302.5,402.5c4.08-.21,6.71-.25,9.67-.67.83,2.92-1.58,8.58-4.67,8.83S302.58,405.67,302.5,402.5Z" transform="translate(-26.97 -43.69)"/><path class="cls-3" d="M221.83,397.83c4.88,1.37,7,.87,11.42,1.17-2.87,6.92-1.08,12.5-5.25,12.5C224.07,411.65,220.25,402.13,221.83,397.83Z" transform="translate(-26.97 -43.69)"/><path class="cls-3" d="M244.17,319.5c1.08-2.83,12.33-4.69,21.5-5,12.92-.43,24.58,3.42,24.17,4.83-.46,1.57-6.76,0-23.17-.17C257.13,319.09,244,321.29,244.17,319.5Z" transform="translate(-26.97 -43.69)"/><path class="cls-3" d="M234.83,431c.29-.5,1.1-.59,2.83-.5,3.36.17,5,.25,7.5,1.17,6.9,2.58,18.68,3.41,20,3.5,6.79.48,11.91.84,18-1.17a48.16,48.16,0,0,1,10.17-2.5c2.14-.27,7.26-.91,8,.83.18.43.09,1-.5,2a14.17,14.17,0,0,1-6.5,5.5,70.75,70.75,0,0,1-25.83,5.33c-6.43-.14-10.84-1.26-19.67-3.5a23.46,23.46,0,0,1-10.67-5.33C237.94,436.13,234,432.42,234.83,431Z" transform="translate(-26.97 -43.69)"/><path class="cls-1" d="M175.33,367.83c-8.17-1.69-14.68-3-18.5-3.5-77.67-10.33-120-4.67-125.83-2-.82.37-1.86,1.65-2.33,4.5-1,5.77,1.85,12,2.5,13.17,34.67-3.5,120.33-7.17,149.67-6.17C180.88,371.55,178.39,369.51,175.33,367.83Z" transform="translate(-26.97 -43.69)"/><path class="cls-1" d="M30.81,362.44c2.32.1,5.67.95,9.19,5.22,3.76,4.57,2.84,11.65,2.33,15.5-.6,4.59-1.5,4.6-2.67,10.5a68.11,68.11,0,0,0-1.17,14.5,60.52,60.52,0,0,0,2.67,17.33c1.45,4.63,3,9.31,7,14a21.86,21.86,0,0,0,8,6.33A19.22,19.22,0,0,0,67,447.33a26.29,26.29,0,0,0,5.17-1.67c7.55-2.85,10.5-4.17,10.5-4.17,7.43-3.32,15-6.41,22.33-9.83a340,340,0,0,1,49.17-18.83c6.78-2,13.52-3.36,27-6.17,15.2-3.17,24.49-4.58,29.33-2.17.38.19,1.55.81,2.33.33,1.8-1.1.88-7.6-2.33-12.17-2.37-3.37-5.44-4.93-10.83-7.67a136.53,136.53,0,0,1-12.38-6.75c-4.15-2.71-8.75-9.75-12-10.42C147.92,360.38,51.46,354.17,30.81,362.44Z" transform="translate(-26.97 -43.69)"/><path class="cls-4" d="M47.5,367c8.25-1.78,28.69-5.77,131.44,3.23,13.56,16.52,32.84,14.55,30.65,28.27C154.5,398.25,79.35,434.38,65.75,438a8.77,8.77,0,0,1-5,0,10,10,0,0,1-5-4.25,51.82,51.82,0,0,1-6.75-14,62.28,62.28,0,0,1-2-21.5A103.13,103.13,0,0,1,49,385c.93-3.86,1.83-6.25,1.5-9.75A18.38,18.38,0,0,0,47.5,367Z" transform="translate(-26.97 -43.69)"/><path class="cls-4" d="M34.25,367.75c-1.29.62-1.91,4.66.58,6.83,3.92-.5,4.67-.25,6.25.17C41.5,369.18,36.22,366.81,34.25,367.75Z" transform="translate(-26.97 -43.69)"/><path class="cls-5" d="M49.32,383.72c38,4.95,110.1-6.14,135.54-7.58,9.39,7,14.28,8.25,15.43,9.26-34.62,0-103.88,14.76-153.46,19.94A108.56,108.56,0,0,1,49.32,383.72Z" transform="translate(-26.97 -43.69)"/><path class="cls-6" d="M47.5,367c8.25-1.78,28.69-5.77,131.44,3.23,13.56,16.52,32.84,14.55,30.65,28.27C154.5,398.25,79.35,434.38,65.75,438a8.77,8.77,0,0,1-5,0,10,10,0,0,1-5-4.25,51.82,51.82,0,0,1-6.75-14,62.28,62.28,0,0,1-2-21.5A103.13,103.13,0,0,1,49,385c.93-3.86,1.83-6.25,1.5-9.75A18.38,18.38,0,0,0,47.5,367Z" transform="translate(-26.97 -43.69)"/><path class="cls-1" d="M52.33,442c.4-.72,3.14,1.42,7,.83,5.91-.91,9.3-7.44,9.83-8.5C71.32,430,71,426,70.83,423a30.1,30.1,0,0,0-2.5-9.83A38.4,38.4,0,0,0,64,405.5c-3.19-4.41-4.83-4.79-5-5.83,10.5-5.67,63.27-10,136.71-16.57,9.16,5.3,20.46,5.9,17.12,21.73-40-7-122.82,36-144.76,42.27a11.76,11.76,0,0,1-7.74.07C55.34,445.74,51.84,442.88,52.33,442Z" transform="translate(-26.97 -43.69)"/><path class="cls-4" d="M73.5,403.67c39.83-7.17,79.67-8,128.5-15,7.76,3,7,9.94,7,11.17-25.5-.67-81.67,10.84-131.5,35.5C79.67,426.83,82.33,418.5,73.5,403.67Z" transform="translate(-26.97 -43.69)"/><path class="cls-1" d="M104.65,393c.47-1.65-.32-2.56-.49-4.83a15.32,15.32,0,0,1,1.17-6c2-5.28,8-8.15,10.17-9.17,13.47-6.42,27.59-1,29.33-.33a37.45,37.45,0,0,1,12.67,8.17c3.84,3.53,4.73,5.7,4.33,7.33a3.57,3.57,0,0,1-1.17,1.83,4.9,4.9,0,0,1-5.5,0c-1.71-1.14-1.29-2.62-3-4.83-.28-.37-1.27-1.59-4.5-3.33a38.14,38.14,0,0,0-12-4,40.05,40.05,0,0,0-12.83.33c-3.49.52-5.15,1.13-6.67,2.17a11.85,11.85,0,0,0-4,4.67c-.31.67-1.94,4.19-.67,7.67.48,1.3,1,1.52.83,2.17-.56,2.78-10.41,3.4-10.83,2C101.28,396.09,103.93,395.53,104.65,393Z" transform="translate(-26.97 -43.69)"/><path class="cls-5" d="M78.75,415.75C134.58,402.12,134,401.47,208,394c.8,2.24,1.56,3.88,1,5.83-35.67-2-84.67,14-131.5,35.5C79.42,426.42,80.67,420.34,78.75,415.75Z" transform="translate(-26.97 -43.69)"/><path class="cls-7" d="M209,399.83c-35.83,1.14-84.67,14-131.5,35.5,1.92-8.91,3.17-15,1.25-19.58" transform="translate(-26.97 -43.69)"/><path class="cls-6" d="M73.5,403.67c39.83-7.17,79.67-8,128.5-15,7.76,3,7,9.94,7,11.17-25.5-.67-81.67,10.84-131.5,35.5C79.67,426.83,82.33,418.5,73.5,403.67Z" transform="translate(-26.97 -43.69)"/></svg>