<svg id="Слой_1" data-name="Слой 1" xmlns="http://www.w3.org/2000/svg" viewBox="0 0 453.09 1032"><defs><style>.cls-1{fill:#173f27;}.cls-2{fill:#fff;}.cls-11,.cls-3,.cls-4,.cls-9{fill:none;}.cls-11,.cls-3{stroke:#fff;}.cls-11,.cls-3,.cls-4,.cls-7,.cls-8{stroke-linecap:round;stroke-linejoin:round;}.cls-10,.cls-3,.cls-4,.cls-7,.cls-8,.cls-9{stroke-width:8px;}.cls-10,.cls-4,.cls-7,.cls-8,.cls-9{stroke:#000;}.cls-5,.cls-8{fill:#d9d9d9;}.cls-6{fill:#9c9c9c;}.cls-7{fill:#090a0a;}.cls-10,.cls-9{stroke-miterlimit:10;}.cls-11{stroke-width:6px;}</style></defs><title>panda</title><path class="cls-1" d="M423.57,516c0,167.4-62.12,303.15-161.59,396.57C193.42,977,60.56,1021.78,4,1028V4C87,14.44,170.24,47.22,232.24,94.28,350.56,184.09,423.57,330.46,423.57,516Z"/><path class="cls-2" d="M444.19,555.06a1.5,1.5,0,0,0,0-3h0a1.5,1.5,0,0,0,0,3Z"/><path class="cls-2" d="M444.19,555.25a1.5,1.5,0,0,0,0-3h0a1.5,1.5,0,0,0,0,3Z"/><path class="cls-2" d="M444.13,555.31a1.5,1.5,0,1,0-1.5-1.5A1.5,1.5,0,0,0,444.13,555.31Z"/><path class="cls-3" d="M462.84,934.78"/><path class="cls-4" d="M421.5,288.79"/><path class="cls-5" d="M394.7,700.68l-.48,1.53a206,206,0,0,1-14.72-29.39q3,4.38,6.08,8.56h0c.37.92.74,1.82,1.12,2.72A164.22,164.22,0,0,0,394.7,700.68Z"/><path class="cls-5" d="M363.5,702.31h-.83c-31.61-15.41-63.47-29-92.88-42.17a1.91,1.91,0,0,0-.13-.45C299.35,673,331.55,686.69,363.5,702.31Z"/><path d="M270.92,389.43l0,0a3.13,3.13,0,0,1-.07.8c-.59-.58-1.18-1.15-1.78-1.7h0c.09-.17.18-.33.28-.49Z"/><path class="cls-6" d="M361,607.83c4.54,22.3,9.86,44,18.44,65-12.79-18.57-24.79-39.9-32.41-61.56C355.83,609.36,361,607.83,361,607.83Z"/><path class="cls-5" d="M385.55,681.38q-3.06-4.17-6.08-8.56c-8.58-21-13.9-42.69-18.44-65,0,0-5.2,1.53-14,3.43q-2.27-6.42-4-12.86a116.14,116.14,0,0,1-3.52-39.2c1.07,18.35,8.44,34.79,20.33,40.39h6.39C369.67,628.58,375.79,657.3,385.55,681.38Z"/><path class="cls-5" d="M420.5,480.5q.38,5.52.64,11a93.2,93.2,0,0,0-9.79,1.42c.59-2,1.06-3.91,1.39-5.66,1.39-7.34-6.47-11.88-13.71-9.12a115.83,115.83,0,0,0-25,13.57q-4.35-19.08-8-38.71c-3.17-17.38,6.31-35.49,23.38-42.82a40.79,40.79,0,0,1,7.57-2.42c5-1.07,10.19.68,15.36,4.31A651.7,651.7,0,0,1,420.5,480.5Z"/><path class="cls-6" d="M261.43,628.5q3.65,14.93,7.84,29.86c-4.18-1.92-8.28-3.8-12.26-5.65-23.74-11-43.68-21.17-54.2-27.65q-.33-13.84-.37-27.5l1.68.69c16.35,6.69,34.06,13.94,54.36,17.68Q259.89,622.22,261.43,628.5Z"/><path class="cls-5" d="M221.79,400.36c3.3,1.89,5.84,3.25,8.06,4.46-10.36,23-17.26,52-21.54,84.71a8.38,8.38,0,0,0-1,8.15q-1.34,11.43-2.26,23.39c-6.86,4.37-29,19.19-1.09,15.92-1.12,19.51-1.58,39.82-1.52,60.57-33.71-14-54.2-29.11-54.2-29.11,2.26,12.44,15.63,34.25,49.81,53.47,1.25.92,2.85,2,4.76,3.14v1.55a235.43,235.43,0,0,1-31.87-21.66,76.76,76.76,0,0,1-20.69-26.66,79.6,79.6,0,0,1-2.75-58.66C164.22,469.77,197.34,426.94,221.79,400.36Z"/><path class="cls-6" d="M308.77,513.16C298.65,516.08,287.46,519,275,522a14.34,14.34,0,0,0-2.28-7.74l-10.92-37.11c-1.86-.35-9-.17-17,.42a245.06,245.06,0,0,1,9-52C277.55,455.79,294.9,484.21,308.77,513.16Z"/><path class="cls-5" d="M202.84,626.62V627a234.91,234.91,0,0,1-31.66-21.54,76.59,76.59,0,0,1-20.91-27.14A76.76,76.76,0,0,0,171,604.95a235.43,235.43,0,0,0,31.87,21.66Z"/><path d="M421.14,491.5a614.17,614.17,0,0,1-3,99.07,88.63,88.63,0,0,1-15.48,5C392.17,562.45,382.18,527.83,374,491.7a115.83,115.83,0,0,1,25-13.57c7.24-2.76,15.1,1.78,13.71,9.12-.33,1.75-.8,3.65-1.39,5.66A93.2,93.2,0,0,1,421.14,491.5Z"/><path class="cls-5" d="M366.33,599.6h-.06c-2-16.59-3-33.27-3.34-49.21a.49.49,0,0,1,0,.11C363.31,566.4,364.38,583,366.33,599.6Z"/><path class="cls-5" d="M354,510.5c-1,1.81-2,3.73-2.92,5.75-.14-.36-.29-.72-.44-1.08Q352.19,512.74,354,510.5Z"/><path class="cls-5" d="M245.95,416.38,239.56,478c-7.57.71-14.94,1.76-18.3,3-2.3.88-9.66,3.69-12.95,8.47,4.28-32.74,11.18-61.73,21.54-84.71C235.12,407.72,238.57,409.82,245.95,416.38Z"/><path class="cls-5" d="M389.68,715.64a1,1,0,0,1-.11.32q-8.73-4.65-17.56-9l-.12-.45Q380.83,711,389.68,715.64Z"/><path class="cls-6" d="M205.05,521.07q-.63,7.86-1.09,15.92C176.08,540.26,198.19,525.44,205.05,521.07Z"/><path class="cls-5" d="M242.42,529.5l-4.2.85C239.5,530,240.92,529.74,242.42,529.5Z"/><path class="cls-6" d="M412.8,627.17q-1.8,10.25-4,20.37c-5-15.5-10.36-32.39-15.75-50.08,3.28-.51,6.47-1.13,9.54-1.86Q407.66,611.62,412.8,627.17Z"/><path class="cls-6" d="M269.18,508.62a29.59,29.59,0,0,1,3,4.88c-5.3-7.44-17.31-11.47-28.21-12.38,0-2,0-4,.06-6C252.5,496.37,262.61,499.87,269.18,508.62Z"/><path class="cls-5" d="M362.87,547c0,1.14,0,2.27.06,3.42q-6.06-17.16-12.42-33c.18-.38.35-.76.53-1.13Q357.24,531.28,362.87,547Z"/><path d="M269.12,388.58c.6.55,1.19,1.12,1.78,1.7-.7,5.48-5.7,12.81-11.39,18.61A173.11,173.11,0,0,1,269.12,388.58Z"/><path d="M363,550.5a.49.49,0,0,0,0-.11c0-1.15,0-2.28-.06-3.42V547C362.92,548.18,362.94,549.34,363,550.5Z"/><path class="cls-5" d="M211.5,504.65c4.08,5.55,8,7.12,7.3,8.86-.86,2.25-6.07,2.66-12.21,6.56l-1.58,1q.93-12,2.26-23.39A29.27,29.27,0,0,0,211.5,504.65Z"/><path class="cls-5" d="M308.89,513.42c14.91,31.17,25.77,63,36.23,98.27a323.39,323.39,0,0,1-53.62,6.71,150.1,150.1,0,0,1-33-2.47C251.81,586.46,247,557.24,245,529.11c8.48-1.15,19.37-1.94,30-7.11,12.5-3,23.69-5.92,33.81-8.84Z"/><path class="cls-6" d="M261.43,628.5q-1.53-6.29-3-12.57a150.1,150.1,0,0,0,33,2.47A323.39,323.39,0,0,0,345,611.69c8.44,28.45,16.63,59.18,26.46,93.69-31.52-15.22-69.56-32-102.3-47h0Q265.09,643.43,261.43,628.5Z"/><path class="cls-5" d="M364.82,494.88c-.15,1.48-.28,3-.41,4.5A87.16,87.16,0,0,0,354,510.5,76.12,76.12,0,0,1,364.82,494.88Z"/><path d="M393.07,597.5c-4.19.67-8.52,1.17-12.94,1.52-5.41-17.62-11.11-35-17.23-52-.1-6.92-.07-13.69.07-20.23a2.54,2.54,0,0,1,0-.28c0-1.93.11-3.85.17-5.74a1.69,1.69,0,0,1,0-.23c.11-2.9.23-5.75.38-8.54q.18-3.25.4-6.41c.14-2.11.3-4.19.47-6.22q.85-.78,1.74-1.53C373.71,531.5,383.41,565.78,393.07,597.5Z"/><path class="cls-5" d="M275,522l-2-6.65A33.29,33.29,0,0,1,275,522Z"/><path class="cls-5" d="M275,522a33.29,33.29,0,0,0-2-6.65l-.32-1.09A14.34,14.34,0,0,1,275,522Z"/><path class="cls-5" d="M271.21,927.38q-1.87,1.54-3.71,3.12c-.07-.19-.13-.37-.19-.56C268.58,929.1,269.88,928.24,271.21,927.38Z"/><path class="cls-6" d="M247.5,417.76q3.22,3.94,6.29,7.84a245.06,245.06,0,0,0-9,52c-1.72.13-3.47.27-5.21.44L246,416.41l1.53,1.37Z"/><path class="cls-6" d="M381.15,738.24q-1.59,4-3.27,7.9c-1.11-12.7-4.22-26.21-11.65-42.11,1.93,1,3.85,1.91,5.78,2.88Q376.35,722.08,381.15,738.24Z"/><path class="cls-6" d="M298.87,749.22A205.74,205.74,0,0,0,280.23,776c-15.84,28.35-35.16,72.82-18.26,136.65q-15.21,13.95-31.8,26.52c-7.34-69.61-24.41-194.93-27.32-312.17,19.58,11.38,42.4,22.14,66.92,33.14C278.3,690.33,288.34,720.34,298.87,749.22Z"/><path class="cls-5" d="M227.42,394.36c2.71-2.65,6.34-6.28,10.88-10.62-3.87,3.72-7.49,7.31-10.81,10.69Z"/><path d="M380.13,599l-1.09.09c-5.32-17-10.62-33.17-16.07-48.57,0-1.16,0-2.32-.07-3.47C369,564,374.72,581.36,380.13,599Z"/><path class="cls-6" d="M394.22,702.21q-2,6.19-4.15,12.31c-5.82-3-12-6-18.49-9.14-9.83-34.51-18-65.24-26.46-93.69l1.94-.43c7.62,21.66,19.62,43,32.41,61.56A206,206,0,0,0,394.22,702.21Z"/><path class="cls-5" d="M331.26,832.17A458.47,458.47,0,0,1,262,912.62c-16.9-63.83,2.42-108.3,18.26-136.65a205.74,205.74,0,0,1,18.64-26.75C309.5,778.35,320.63,806.32,331.26,832.17Z"/><path class="cls-5" d="M269.64,659.66a1.53,1.53,0,0,0,.13.45c-24.52-11-47.34-21.76-66.92-33.14v-.35C222.39,638,245.17,648.69,269.64,659.66Z"/><path class="cls-6" d="M208.31,489.5q-.54,4-1,8.15A8.38,8.38,0,0,1,208.31,489.5Z"/><path d="M379,599.07c-4.18.31-8.44.48-12.71.53-2-16.56-3-33.2-3.36-49.1C368.42,565.9,373.72,582.08,379,599.07Z"/><path class="cls-5" d="M365.5,702.5c.17.35.33.7.49,1l-2.49-1.19A19.06,19.06,0,0,1,365.5,702.5Z"/><path d="M402.61,595.6c-3.07.73-6.26,1.35-9.54,1.86-9.66-31.68-19.36-66-26.92-99.61,2.55-2.19,5.18-4.23,7.83-6.12C382.18,527.86,392.17,562.5,402.61,595.6Z"/><path class="cls-5" d="M350,516.07l.51,1.28a124.58,124.58,0,0,0-11,41.85,76.19,76.19,0,0,1,6.11-35.13A62.42,62.42,0,0,1,350,516.07Z"/><path class="cls-6" d="M244.77,477.57q-.63,8.64-.76,17.51c-2.19-.33-4.27-.52-6.16-.62L239.56,478C241.3,477.84,243.05,477.7,244.77,477.57Z"/><path class="cls-5" d="M250.5,372.44l-2.1,1.89-2.06,1.88-2,1.87q-3.13,2.9-5.85,5.51l-.16.15c-4.54,4.34-8.17,8-10.88,10.62A271.24,271.24,0,0,1,250.5,372.44Z"/><path class="cls-6" d="M272.68,514.26l.32,1.09c-.25-.61-.53-1.23-.84-1.85C272.35,513.75,272.5,514,272.68,514.26Z"/><path class="cls-5" d="M418.09,590.59q-2.08,18.46-5.29,36.58c-3.41-10.37-6.83-20.89-10.19-31.57A88.63,88.63,0,0,0,418.09,590.59Z"/><path class="cls-6" d="M261.76,477.15l10.92,37.11c-.16-.26-.33-.51-.52-.76a29.59,29.59,0,0,0-3-4.88c-6.57-8.75-16.67-12.25-25.17-13.54q.13-8.86.76-17.51C252.71,477,259.9,476.8,261.76,477.15Z"/><path class="cls-6" d="M244,495.08c0,2-.06,4-.06,6a53.5,53.5,0,0,0-6.77-.16l.67-6.5C239.74,494.56,241.82,494.75,244,495.08Z"/><path d="M322.38,509c-4.52,1.52-9.06,3-13.49,4.37l-.12-.26C313.5,511.79,318.06,510.42,322.38,509Z"/><path d="M247.5,417.75,246,416.38v-.45Z"/><path class="cls-5" d="M390.07,714.5c-.12.37-.25.75-.39,1.12q-8.85-4.71-17.79-9.18h0l-.3-1.08C378,708.5,384.25,711.56,390.07,714.5Z"/><path class="cls-5" d="M365,493l-.18,1.88A76.12,76.12,0,0,0,354,510.5q-1.77,2.26-3.36,4.67-2.88-7-5.9-13.8c6.87-2.58,13.16-5.17,19-7.77Z"/><path class="cls-5" d="M350.6,515.14c.15.36.3.72.44,1.08-.18.37-.35.75-.53,1.13l-.51-1.28Z"/><path class="cls-5" d="M366,703.5l.24.49-3.58-1.75h.83Z"/><path class="cls-5" d="M371.58,705.38l.3,1.08c-2-1-3.92-2-5.89-2.92-.16-.34-.32-.69-.49-1a19.06,19.06,0,0,0-2-.19h0c-31.93-15.62-64.13-29.32-93.84-42.65l-.36-1.3C302,673.35,340.06,690.16,371.58,705.38Z"/><path d="M250.5,372.44,246,415.93q-6.57-8-13.76-16.16A113.8,113.8,0,0,1,250.5,372.44Z"/><path d="M248.4,374.33l2.1-1.89a113.8,113.8,0,0,0-18.27,27.33l-4.74-5.34c3.32-3.38,6.94-7,10.81-10.69l.16-.15q2.83-2.71,5.85-5.51l2-1.87Z"/><path class="cls-5" d="M350,516.07a62.42,62.42,0,0,0-4.34,8,76.19,76.19,0,0,0-6.11,35.13,116.14,116.14,0,0,0,3.52,39.2q1.71,6.43,4,12.86l-1.94.43c-10.46-35.3-21.32-67.1-36.23-98.27,4.43-1.38,9-2.85,13.49-4.37,7.83-2.48,15-5,21.57-7.43Q347,508.72,350,516.07Z"/><path d="M271,389.5c30.69,29,54.28,67.82,73.67,111.71l-.76.28c-19.27-44.38-41.83-81-73-111.19A6.32,6.32,0,0,0,271,389.5Z"/><path class="cls-5" d="M248.4,374.33l-2.06,1.88Z"/><path class="cls-5" d="M244.31,378.08q-3,2.79-5.85,5.51Q241.18,381,244.31,378.08Z"/><path class="cls-5" d="M269.28,658.36l.36,1.3c-24.47-11-47.25-21.7-66.8-33h0v-1.55c10.52,6.48,30.46,16.64,54.2,27.65l12.26,5.65Z"/><path class="cls-5" d="M366.27,599.6h-6.39c-11.89-5.6-19.26-22-20.33-40.39a124.58,124.58,0,0,1,11-41.85q6.39,15.89,12.42,33C363.27,566.33,364.32,583,366.27,599.6Z"/><path d="M269.42,388c.51.46,1,.92,1.5,1.39l-1.52-1.35Z"/><path class="cls-6" d="M245,529a.49.49,0,0,0,0,.12c-.88.13-1.74.25-2.57.39Z"/><path d="M394.73,700.61v.07a164.22,164.22,0,0,1-8-16.57A164.08,164.08,0,0,0,394.73,700.61Z"/><path d="M344.64,501.19l.06.15c-.25.1-.5.2-.75.28a1,1,0,0,1-.07-.15Z"/><path d="M270.9,390.28c31.15,30.15,53.71,66.81,73,111.19-6.77,2.52-14.12,5.11-21.5,7.58-4.32,1.37-8.84,2.74-13.61,4.11-13.87-29-31.22-57.37-55-87.56q2.5-8.55,5.72-16.7h0C265.2,403.09,270.2,395.76,270.9,390.28Z"/><path class="cls-6" d="M202.44,597.56q0,13.63.37,27.5c-1.91-1.17-3.51-2.22-4.76-3.14-34.18-19.22-47.55-41-49.81-53.47C148.24,568.5,168.73,583.5,202.44,597.56Z"/><path class="cls-6" d="M237.85,494.5l-.67,6.5a53.5,53.5,0,0,1,6.77.16c0,9.14.36,18.44,1,27.87l-2.56.51c-1.5.24-2.91.51-4.2.85h-.11c-16.77,4.36-19.43,4.48-30.64,6.14-1.25.19-2.42.34-3.51.47q.47-8.06,1.09-15.92l1.58-1c6.14-3.9,11.35-4.31,12.21-6.56.66-1.74-3.22-3.31-7.3-8.86a29.27,29.27,0,0,1-4.23-7q.47-4.11,1-8.15c3.29-4.78,10.65-7.59,12.95-8.47,3.36-1.29,10.73-2.34,18.3-3Z"/><path d="M269.42,388h0c-8.26-7.34-8.83-7.78-18.9-15.64A206.26,206.26,0,0,1,269.42,388Z"/><path class="cls-5" d="M371.89,706.5l.12.45c-1.93-1-3.85-1.93-5.78-2.88l-.24-.49,5.89,2.92Z"/><path class="cls-5" d="M227.42,394.36l.07.07q-2.79,2.85-5.29,5.49C224,398,225.73,396.12,227.42,394.36Z"/><path d="M227.5,394.43l4.74,5.34q-1.23,2.48-2.38,5c-2.22-1.21-4.76-2.57-8.06-4.46l.41-.44Q224.71,397.28,227.5,394.43Z"/><path d="M444.16,520.5c4.28,4.66,5,13.77,5,18.56s-4.44,9.66-9.51,13c5,18.88-4.75,31.2-21.59,38.55a614.17,614.17,0,0,0,3.08-99.11C452.56,488.77,447.5,509.94,444.16,520.5Z"/><path class="cls-6" d="M379,599.07l1.09-.09c4.42-.35,8.75-.85,12.94-1.52,5.39,17.69,10.77,34.58,15.75,50.08q-5.19,24.33-12.45,47.83c-3.57-4.38-7.2-9.06-10.81-14h0c-9.7-24.1-15.81-52.81-19.22-81.78C370.6,599.55,374.86,599.38,379,599.07Z"/><path d="M389.57,716q-4,11.26-8.42,22.28-4.83-16.18-9.14-31.33Q380.83,711.32,389.57,716Z"/><path class="cls-6" d="M273,515.35l2,6.65c-9.3,3-19.7,5-30,7q-1-14.14-1-27.87c10.9.91,22.91,4.94,28.21,12.38C272.5,514.12,272.75,514.74,273,515.35Z"/><path class="cls-5" d="M245,529.11c2,28.13,6.8,57.35,13.49,86.82-20.3-3.74-38-11-54.36-17.68l-1.68-.69c-.06-20.75.4-41.06,1.52-60.57,1.09-.13,2.26-.28,3.51-.47,11.21-1.66,13.87-1.78,30.64-6.14h.11l4.2-.85C243.25,529.36,244.11,529.24,245,529.11Z"/><path class="cls-6" d="M275,522c-10.6,5.17-21.49,6-30,7.11a.49.49,0,0,1,0-.12C255.26,527,265.66,525,275,522Z"/><path class="cls-5" d="M364.41,499.38c-.17,2-.33,4.11-.47,6.22s-.28,4.24-.4,6.41q-.23,4.19-.38,8.54a1.69,1.69,0,0,0,0,.23c-.07,1.89-.13,3.8-.17,5.74a2.54,2.54,0,0,0,0,.28c-.16,6.53-.19,13.28-.1,20.17q-5.64-15.66-11.83-30.75c1-2,1.94-3.94,2.92-5.75A87.16,87.16,0,0,1,364.41,499.38Z"/><path class="cls-5" d="M366.23,704c7.43,15.9,10.54,29.41,11.65,42.11a498.26,498.26,0,0,1-46.62,86c-10.63-25.85-21.77-53.82-32.39-83,18.3-22.7,44.18-47.19,63.78-46.94Z"/><path d="M246,415.93v.45c-7.38-6.56-10.83-8.66-16.1-11.56q1.16-2.58,2.38-5Q239.43,408,246,415.93Z"/><path d="M269.4,388.08c-.1.16-.19.32-.28.49q-8.83-8.42-18.62-16.13C260.57,380.3,261.14,380.74,269.4,388.08Z"/><path class="cls-6" d="M344.64,501.19c7.3-2.72,13.9-5.35,19.08-7.62-5.86,2.6-12.15,5.19-19,7.77Z"/><path d="M259.5,408.9q-3.21,8.14-5.72,16.7-3.08-3.9-6.29-7.84C251,416.44,255.41,413.06,259.5,408.9Z"/><path class="cls-6" d="M362.65,702.28c-19.6-.25-45.48,24.24-63.78,46.94-10.53-28.88-20.57-58.89-29.1-89.11C299.18,673.31,331,686.87,362.65,702.28Z"/><path class="cls-5" d="M350.6,515.14l-.6.93q-3-7.37-6-14.45c.25-.08.5-.18.75-.28Q347.72,508.17,350.6,515.14Z"/><path d="M363.94,505.6c.14-2.11.3-4.19.47-6.22C364.24,501.41,364.08,503.5,363.94,505.6Z"/><path class="cls-6" d="M412.33,412.09c-5.17-3.63-10.33-5.38-15.36-4.31a40.79,40.79,0,0,0-7.57,2.42C372.33,417.53,362.85,435.64,366,453q3.59,19.64,8,38.71c-2.65,1.89-5.28,3.93-7.83,6.12-.27-1.18-.53-2.35-.79-3.53l-.54.56L365,493l-1.28.57c-5.18,2.27-11.78,4.9-19.08,7.62-19.43-43.89-43-82.69-73.71-111.69l0,0-1.5-1.39h0c16-28.42,40.25-51.81,75.18-68a203.3,203.3,0,0,1,39.29-13.81A592.8,592.8,0,0,1,412.33,412.09Z"/><path d="M396.37,695.37c-.54,1.75-1.08,3.5-1.64,5.24a164.09,164.09,0,0,1-8-16.5c-.38-.9-.75-1.8-1.12-2.72C389.17,686.31,392.8,691,396.37,695.37Z"/><path d="M269.12,388.57h0a173.11,173.11,0,0,0-9.62,20.32h0c-4.09,4.16-8.54,7.54-12,8.86h0L246,415.93l4.49-43.49Q260.3,380.17,269.12,388.57Z"/><path class="cls-4" d="M383.89,306.2A203.3,203.3,0,0,0,344.6,320c-34.93,16.21-59.22,39.6-75.18,68"/><path class="cls-4" d="M202.85,627c2.91,117.24,20,242.56,27.32,312.17"/><path class="cls-4" d="M271,389.5c30.69,29,54.28,67.82,73.67,111.71l.06.15"/><path class="cls-4" d="M250.5,372.44A206.26,206.26,0,0,1,269.42,388h0c.51.46,1,.92,1.5,1.39"/><path class="cls-4" d="M308.77,513.16c-13.87-29-31.22-57.37-55-87.56q-3.08-3.9-6.29-7.84"/><path class="cls-4" d="M381.15,738.24q-4.83-16.18-9.14-31.33"/><path class="cls-4" d="M393.07,597.5c5.39,17.69,10.77,34.58,15.75,50.08"/><path class="cls-4" d="M364.82,494.88l.54-.56c.26,1.18.52,2.35.79,3.53"/><path class="cls-4" d="M396.37,695.37c-3.57-4.38-7.2-9.06-10.81-14"/><path class="cls-4" d="M4,4C194.84,25.55,324,145.63,383.89,306.2a592.8,592.8,0,0,1,28.44,105.89,651.7,651.7,0,0,1,8.17,68.41q.38,5.52.64,11a614.17,614.17,0,0,1-3,99.07Q416,609,412.8,627.15q-1.8,10.25-4,20.37-5.19,24.33-12.45,47.83c-.54,1.75-1.08,3.5-1.64,5.24v.07l-.48,1.53q-2,6.19-4.15,12.31c-.12.37-.25.75-.39,1.12a1,1,0,0,1-.11.32q-4,11.26-8.42,22.28-1.59,4-3.27,7.9a498.26,498.26,0,0,1-46.62,86A458.47,458.47,0,0,1,262,912.57q-15.21,13.95-31.8,26.52C168.41,985.93,92.6,1017.58,4,1028"/><path class="cls-4" d="M364.41,499.38q.85-.78,1.74-1.53c2.55-2.19,5.18-4.23,7.83-6.12a115.83,115.83,0,0,1,25-13.57c7.24-2.76,15.1,1.78,13.71,9.12-.33,1.75-.8,3.65-1.39,5.66a93.2,93.2,0,0,1,9.79-1.42c31.42-2.75,26.33,18.42,23,28.93,4.28,4.66,5,13.77,5,18.56s-4.44,9.66-9.51,13c5,18.88-4.75,31.2-21.59,38.55a88.63,88.63,0,0,1-15.48,5c-3.07.73-6.26,1.35-9.54,1.86-4.19.67-8.52,1.17-12.94,1.52l-1.09.09c-4.18.31-8.44.48-12.71.53h-.06"/><path class="cls-4" d="M363.72,493.57c-5.86,2.6-12.15,5.19-19,7.77-.25.1-.5.2-.75.28-6.6,2.48-13.74,5-21.57,7.43-4.32,1.37-8.84,2.74-13.61,4.11C298.67,516.08,287.48,519,275,522a14.34,14.34,0,0,0-2.28-7.74"/><path class="cls-4" d="M363.94,505.6c.14-2.11.3-4.19.47-6.22"/><path class="cls-4" d="M363.16,520.55c.11-2.9.23-5.75.38-8.54"/><path class="cls-4" d="M363,526.5c0-1.93.11-3.85.17-5.74"/><path class="cls-4" d="M385.55,681.38c-9.7-24.1-15.81-52.81-19.22-81.78-2-16.56-3-33.2-3.36-49.1,0-1.16,0-2.32-.07-3.47-.1-6.92-.07-13.69.07-20.23"/><path class="cls-4" d="M394.7,700.68a164.22,164.22,0,0,1-8-16.57"/><path class="cls-4" d="M221.79,400.36c-24.45,26.58-57.57,69.41-74.32,119.27a79.6,79.6,0,0,0,2.81,58.66,76.59,76.59,0,0,0,20.91,27.14A234.91,234.91,0,0,0,202.85,627c19.58,11.38,42.4,22.14,66.92,33.14,29.41,13.2,61.27,26.76,92.88,42.17l3.58,1.75c1.93,1,3.85,1.91,5.78,2.88q8.82,4.41,17.56,9"/><path class="cls-4" d="M250.5,372.44a271.24,271.24,0,0,0-23.08,21.92c-1.69,1.76-3.43,3.62-5.22,5.56"/><path class="cls-4" d="M259.5,408.9c-4.09,4.16-8.54,7.54-12,8.86h0L246,416.39c-7.38-6.56-10.83-8.66-16.1-11.56-2.22-1.21-4.76-2.57-8.06-4.46l.41-.44q2.51-2.64,5.29-5.49c3.32-3.38,6.94-7,10.81-10.69l.16-.15q2.83-2.71,5.85-5.51l2-1.87,2.06-1.88,2.1-1.89c10.07,7.86,10.64,8.3,18.9,15.64l1.52,1.35"/><path class="cls-4" d="M271,389.5a3.13,3.13,0,0,1-.07.8c-.7,5.48-5.7,12.81-11.39,18.61"/><path class="cls-4" d="M275,522a33.29,33.29,0,0,0-2-6.65c-.25-.61-.53-1.23-.84-1.85a29.59,29.59,0,0,0-3-4.88c-6.57-8.75-16.67-12.25-25.17-13.54-2.19-.33-4.27-.52-6.16-.62a59,59,0,0,0-9.37.23"/><path class="cls-4" d="M275,522c-9.3,3-19.7,5-30,7l-2.56.51-4.2.85h-.11c-3.39.71-6.73,1.46-10,2.29"/><path class="cls-4" d="M253.07,626.5c2.65.69,5.44,1.35,8.36,2a177,177,0,0,0,18,2.84,187.7,187.7,0,0,0,54.45-2.24"/><path class="cls-4" d="M394.73,700.61a164.09,164.09,0,0,1-8-16.5c-.38-.9-.75-1.8-1.12-2.72h0c-9.76-24.08-15.88-52.8-19.28-81.78-2-16.59-3-33.27-3.34-49.21,0-1.15,0-2.28-.06-3.42-.09-6.89-.06-13.64.1-20.17a2.54,2.54,0,0,1,0-.28c0-1.94.1-3.85.17-5.74a1.69,1.69,0,0,1,0-.23q.15-4.35.38-8.54.18-3.25.4-6.41c.14-2.11.3-4.19.47-6.22.13-1.52.26-3,.41-4.5L365,493l-1.28.57c-5.18,2.27-11.78,4.9-19.08,7.62l-.76.28c-6.77,2.52-14.12,5.11-21.5,7.58-4.52,1.52-9.06,3-13.49,4.37-13.63,4.25-26.13,7.62-33.75,8.76"/><path class="cls-4" d="M371.89,706.5q8.94,4.49,17.79,9.18"/><path class="cls-4" d="M363.5,702.31l2.49,1.23,5.89,2.92"/><path class="cls-4" d="M202.84,626.62c19.55,11.34,42.33,22.07,66.8,33,29.71,13.33,61.91,27,93.84,42.65"/><path class="cls-4" d="M250.29,372c-10.12,8-76.74,68.94-103,147.2a79.54,79.54,0,0,0,3,59.13A76.76,76.76,0,0,0,171,604.95a235.43,235.43,0,0,0,31.87,21.66"/><path class="cls-7" d="M106.43,297.09c-18.7,1.39-28.48-8.38-28-11,0,0,12.08-1,13-4.06,2.19-7-49.83,3.71-69.09-36.72-9.95-20.88-10.05-47.84-6.09-59.23.34-1-3.4-9-2.55-12.88.43-2,8.36.08,7.55-1.18-2.15-3.37-4-9.4.4-14.31,1.59-1.75,6.44,8.16,12.87,7-1-3.74-1.12-6.45.75-8.89,5.33,1.75,3.16,3.31,9.39,3.76,12.62-.54,37.27,6.37,61.77,10.23,25-9.43,43.64-51.74,59.73-55.72a1.9,1.9,0,0,1,2.28,1.42q0,.08,0,.16c1,6.33-5.64,16.92-5.64,16.92,7.48,5,16.51-36.17,53.43-43.36,1.75,1.41-10.81,16.76-7.76,20,19.16-7.6,25-10.82,29.32-15.92,9.8-14.43,1.46-44.53,19.49-59.44,1.5-5.89,2.56-11,4.74-11.25,2.51-.33,3.19,5.13,5.37,3.9,1-.63,1.51-7.11.72-11.18,8.93-4.31,12.94,8.36,14.08,7.7,1.67-.85,1.35-5.55,1.65-6.16,1.84-1,6.87,4.38,11.91,11,29.52,11.69,78.78,39.57,47.57,100.24,3.28,6.72,9.8-4,15-8.08,4.75,15.24-6.11,35.21-4.57,38.57"/><path class="cls-8" d="M103.26,399.2c9.17-21.09,13.24-43.7,6.24-83.75-8.19-46.78-22.88-134.66,66.65-182.88,108.13-58.24,148.14-5.15,216.64,66.72,18.16,19.06,34.38,20,49.36,12.84.21,7.14-4.26,11.68-8.33,14.5,7.27,5,10.68,8.09,11.17,16.35-5.39-5.63-15.46-5-15.46-5,10,23.13-4.25,44.64-25.6,79-3.67,5.92-20.21,61.35-62.55,84.19-61,32.92-110.14,18.17-122.33,17-22.46-.76-49.21,11.1-87.56-9.11-2.83,3.07-5.23,3.81-8.52,11.84-3.37-1.53-6-10.59-3-21.47C112.76,403.31,105.05,402.5,103.26,399.2Z"/><path class="cls-2" d="M136,395.06c-3.54.7-9.2-4.83-12-14.07a24.6,24.6,0,0,1-.48-11.7c4.43-23,3.4-34.38.81-54.14-.52-4-.81-8-1-12q-.21-4.5-.84-9c-4.09-29-6.92-48.32-3.49-63.32,9.46-23.06,23.72-25.17,21.63-26.81-6.05-4.09-18.34,1-18.34,1-1.4-9.21,35.54-20.34,43.74-28.17-7.54-3.27-14.82-1.35-15.1-5.35,0,0,24.32-1.7,46.85-15a168.22,168.22,0,0,0,32.71-25.9c2.68,1.72-.2,8.1.65,13.49,10.79.37,38.72-24.18,42.66-20.34,0,0-7.41,8.52-7,12.75,10.26-1.88,15.64-2.75,22.91-3a37,37,0,0,1,21.35,5.61c19.49,12.46,29.34,39.56,69.32,67.65,17.78,12.5,37.77,17.43,38.64,25.66,0,0-10.29-2.9-17.21-.62,2.3,4.72,14.79,14.86,13.26,17.25,0,0-5.61-1.18-9.78-.34,2.76,4.9,5.25,10.5,5.31,17.24.08,8.49-12.07,34.33-30.43,45.51A27,27,0,0,0,368.64,325c-3.6,9.74-12.73,19.11-24.08,17.4-1.62-.25,6.32-5.42,9-10.67-4.86-1.5.8-4-1.08-4.24,2-7.86-4.84,3-7.1-.85-27.41,32-62.36-5.34-62.36-5.34s17.76,59.9-40.84,46.35c1.71,2.68,8.87,8.09,8.68,9.92-4.38.38-5.27,4.84-6,8.56,9.06-4.21,20.1-5,19.06-3-11.91,23.66-16.76,7-42,11.11-21.54,3.48-29.77,7.46-40.52,8.72a26.1,26.1,0,0,1-25-11.45c-.4-.61-.78-1.24-1.16-1.89-2.81.88-3.62,4.42-3.78,9-2.6.26-8.33-14.55-8.78-20C134,384.14,136.5,394.3,136,395.06Z"/><path class="cls-9" d="M442.09,212.13c.21,7.14-4.26,11.68-8.33,14.5"/><path class="cls-9" d="M392.74,199.29"/><path class="cls-4" d="M166.23,129"/><path class="cls-4" d="M167.87,113.76"/><path class="cls-4" d="M106.44,169.76"/><path class="cls-5" d="M184.68,343.86c-3.34-4.58-2.66-6.28-1.2-7.7,4.17,3.9,14.78,9.26,21.55,6.29-1.8-10.31,18-30.26,20.73-32.89,1.7.87.69,6.27,1.13,6.35,10.82-5,7.93-34.09,10-39.73,4.91,0,24.15,17.5,18.56,39.31,13.73,7.14,38.31-6.16,39.35-20.5-21.55-11.49-26.3-32.41-24.15-35.95,4.28-.56,27.56,14.51,42.34,15-3.9-3.59-4-5.16-3.23-6.61,5,2,30.6,12.06,42.28,9.25,5.9-9.91,2.9-25.26,6.17-25.6,2-.21,4.37,4.26,5.34,6.87,2.88-3.76,9.45-26.44-1.35-46.26C348.75,187,312,179.14,289.6,189.89a74.32,74.32,0,0,0-35.53,34.68c-7.36-5-4.19-20.94-4.19-20.94-2.66-.68-9.19,3.79-12.47,13.1-2-3.91-14-12.93-16.53-11s-1,11.77.84,20.2c-.86,1.85-10.63-4.95-17.87,2.66,8.55,3.52,17.36,9.89,16.85,14.48-10.27-1.66-21.21-1.09-38.17,6.29-25.73,11.14-45,45.49-36.58,69.54C153.5,340.26,182,347.21,184.68,343.86Z"/><path class="cls-10" d="M257.87,233.34a23.62,23.62,0,0,0,6.36,10.26c4.94,4.52,9.58,4.54,20,8.19,22.45,7.87,33.67,11.8,44,6.32,11.34-6,17.53-20.28,16.74-32.92-.56-8.86-3.52-16.32-8.16-21.55-7.59-8.55-19.29-13.17-30.7-14.25-18.11-1.71-37.51,2.43-44.34,10.44C254.91,209.18,254.05,221.5,257.87,233.34Z"/><path class="cls-10" d="M296,341.19c-1,.51-6.22-14-17.19-18-3.43-1.27-6.39-1.77-16.77-.67-7.59.8-16.34,1.85-19.81-2.51-5.89-9.6,8-22,23.49-31s34.26-14.47,39.43-4.89c2.69,5-1.52,9-6.79,16.73-4.35,6.4-7.38,9.6-8.81,15.27C286.57,327.81,297,340.68,296,341.19Z"/><path class="cls-2" d="M252.33,304.73c-.82-1.15,5.21-8,15.47-13.54,11.45-6.17,19.32-7.37,19.94-6C288.89,287.64,253.91,307,252.33,304.73Z"/><path class="cls-10" d="M224.89,251.1a23.62,23.62,0,0,1,5.07,11c1.06,6.61-1.48,10.5-4.17,21.22-5.78,23.07-8.67,34.61-18.95,40.24-11.25,6.17-26.58,3.48-36.7-4.14-7.09-5.34-11.69-11.92-13.5-18.67-3-11-.39-23.35,5-33.48,8.54-16.06,22.67-30,33.12-31.28C206.35,235.34,217.11,241.39,224.89,251.1Z"/><path class="cls-5" d="M323.14,279.89c0-1.43,10.38-3,19.33-2.45,4.7.26,8.74,1,12.14,3.12,9.55,6.11,17.17,19.4,16.8,18.82-4.12-6.41-17.79-17-23.55-16.51,1.63,2.15,14.84,5.28,22.66,49.12,0,.38-12.61-39.08-30.76-48.45C331.79,279.43,323.13,281.19,323.14,279.89Z"/><path class="cls-5" d="M227.29,331.5c-1.2-.78-8.18,7-12.69,14.79-2.37,4.07-4,7.82-4.07,11.86-.15,11.34,6.75,25,6.47,24.38-3.08-7-4.37-24.19-.83-28.75.9,2.54-3.76,15.29,28.55,46,.31.21-25.7-32-23.53-52.35C222.15,338.5,228.39,332.22,227.29,331.5Z"/><path class="cls-4" d="M225.43,347.5c7.55,16.5,20.22,20.49,21.14,21,15.92,8.9,31.52,1.24,39.26-7A42.21,42.21,0,0,0,296,342.85"/><path class="cls-4" d="M342.82,289.57c14.68,27.26-4,44.47-4.71,45a42.53,42.53,0,0,1-20.4,9.71c-9.69,1.68-18-1.74-21.65-3"/><path class="cls-8" d="M245.5,205.76c-1.35-.57-6.68-2.79-8.44-7-4.31-10.3,16.53-23.39,20.62-26,33.79-21.21,66.17-2.08,113-9.43,50.56-7.93,75.08-40,77.52-36.8,2.22,2.93-21.51,24.86-58.18,44.11-41.41,16.33-51.63,13.07-84.2,15.28a52.56,52.56,0,0,0-29.23,10.75C267.33,204,256.9,210.5,245.5,205.76Z"/><path class="cls-8" d="M266.9,341.71c-2.65-4.61-9.48-5.15-11.29-5.29-16.67-1.31-32.65,17.56-47.78,44-29.39,51.42-40.4,69.22-44.1,73.68-36.57,44-81.78,58.45-89.56,61.58-27.8,11.24-50.94,12.82-50.79,13.55s33.36-.33,70.5-14.74c38.68-15,63.32-37.19,78.63-51.25,9.11-8.36,44.58-56.62,50.46-64.85C248.4,362.78,272,350.5,266.9,341.71Z"/><path class="cls-2" d="M254.42,343.16a11.47,11.47,0,0,0-9.17.29c-9.58,4-17.47,13.09-18.72,14.73-12.6,16.58-19.43,33.24-20.74,35.72-2.06,3.9-10.65,23-22.41,41.27-9.1,14.09-16.31,22.26-25.81,32.48-21.59,23.24-44.36,32.09-44.09,32.53s17.66-7.84,37.32-23.33c19-15,29.13-30.22,33.28-35.43,7.4-9.28,11.53-18.23,21.33-33.38,3.06-4.73,9.28-17.33,19.06-30.17a114.73,114.73,0,0,1,13.2-15.07c6.42-5.86,11.07-7.59,13.63-9.33,3.76-2.56,5.53-2.81,6.12-6C257.84,345.3,256.5,344.11,254.42,343.16Z"/><path class="cls-8" d="M338.57,360.5c-10.13-4.5-11.3-4.71-13.41-4.73-8.45-.11-17.74,5.92-21.47,13.72-2.79,5.84-.68,8.64-4.51,14.68-2.92,4.6-5.84,5.64-9.14,8.84-6.71,6.52-8,15.24-9.18,22.59-3.33,21.65,4,50,5.51,56.32,7.13,30.47-3.27,57.6-12.75,82.33-25.36,66.14-96.93,117.25-161,120.51-16.47.84-38.28-1.19-38.58,1.18-.34,2.66,26.48,9.78,48.46,11.63,63.58,5.35,142-28.72,181.67-88.54,21-31.72,29-67.49,35-65.89,3.61,1,3.81,14.94.86,26.49-6,23.43-24.91,36.68-23.81,37.82s13.62-6.41,25.61-20.65c13.22-15.72,18.38-31.4,25.37-53.36,6.13-19.27,9.81-30.81,11.47-47.83,1.9-19.49,4-34.86-1.26-65.47-4.78-28-13.57-37.08-21.13-41.54C355,367.78,349.5,365.35,338.57,360.5Z"/><path class="cls-2" d="M303.5,391c-2.1-1-8.16,5.18-9.26,6.31-6,6.14-6.23,10.82-6.61,13.31-2.84,19,3.06,50.72,4.3,68.81,1.42,20.78.34,38.06-2.31,49.08a184.34,184.34,0,0,1-31.87,68.25c-9.53,12.61-42.72,62.75-102.69,76.54a396.74,396.74,0,0,1-39.39,7.28s7.84.21,30.64-1.25a280.44,280.44,0,0,0,38.45-6.24c53.3-12.55,90.52-50.21,94.4-54.23,5.5-5.69,34.12-36,47.72-83.76,11.56-40.59,7.06-75.48,11.32-75.77,3.63-.24,11.52,24.21,12.45,30.32,2.19,14.45,4.73,22.26.92,41.3-3.22,16.09-6.14,29.19-5.45,29.47.88.36,3.21-10.2,10.6-30.76,6.28-17.47,8.4-32.17,12.39-60.86,5.25-37.75,4.06-49,2.35-57.39a86.71,86.71,0,0,0-14.82-31.21c-2.54-3.37-6.86-9-9.3-8-1.06.42-2.93,2.52-.61,18.23,4.35,29.4,14.78,48.09,12.66,49.31-1.62.93-9.56-8.74-16.54-19.64-13.93-21.76-15.42-58.52-19-58-4.53.69-14.27,30.39-5.18,66.62,4.6,18.34,3.65,21.68,4.82,36.59,2.62,33.46-6.87,61.24-8.31,61.08-1-.12,1.17-14.38,1-45.07-.11-27.28-13.27-52.52-15-61.09C298.09,404.78,306.92,392.71,303.5,391Z"/><path class="cls-8" d="M307.14,314.1c-1.06-5.82,6-11.39,7.27-12.32,6.47-4.89,14-4.74,16.86-4.63,5.31.18,16.24,1.81,32.33,16.7,7.81,7.23,25.59,23.79,32.27,48.86,15.38,57.79-41.37,111.14-51.63,120.79C317,509.11,291.09,515.69,285.81,517c-16.44,3.91-33.16,3.85-33.33,2.63S268,517,287,509.9a147.44,147.44,0,0,0,46.09-27.79c25.34-23.12,36.62-47.53,38.79-54.26,4.76-14.76,10.38-35.39,4-55.77-2-6.2-8.74-25.62-24.89-35.29-4.77-2.85-18.58-9-33-13.63C313.1,321.56,308,318.64,307.14,314.1Z"/><path class="cls-2" d="M316.5,313.7c-1.46-1.89-1.59-2.58-1.66-3.09-.67-5,6.27-7.17,13.43-7.23,22.55-.2,47.69,22.52,57.48,47.33,12.27,31.12,4.52,59.62,1.1,68.51-3.51,9.11-7.5,15.15-13.1,23.61-20.52,31-43.79,47.43-44.17,47s31.24-20.55,47.9-59.91c4.8-11.33,13.21-28.78,9.13-49.19-3.41-17-10.19-31.62-16.88-40-10.13-12.68-17.94-19.18-27.11-21.89C331,315.45,322.39,321.29,316.5,313.7Z"/><path class="cls-8" d="M208.89,225.5c.27-1.44,1.34-7.11-1.21-10.9-6.23-9.27-28.62.93-33,2.93-36.31,16.54-38.15,54.11-70.05,89.16-34.47,37.81-74.75,40.67-73.4,44.48,1.22,3.47,32.59-4.28,68.85-24.3C136.5,301.28,139.4,291,159.17,265a52.56,52.56,0,0,1,25.05-18.47C195.44,242.74,206.61,237.6,208.89,225.5Z"/><path class="cls-2" d="M196.75,216.31c-9.64.88-15.88,3.91-22.32,8-21.92,14.07-27.06,23.84-43.35,51.88-18.87,32.49-30.13,40.38-41.6,48.94a108.79,108.79,0,0,1-19.35,11.08c.1.21,21.32-7.44,41.48-25.66,7.83-7.07,16.17-17,32.31-38,27-35.07,37.39-35.34,47.76-41,9.22-5,12.06-5.07,11.91-8.8C203.43,218.83,201.2,215.91,196.75,216.31Z"/><path class="cls-2" d="M245.16,190.24c6-7.56,12-11.11,19-14.21,23.81-10.56,34.79-9.48,67.17-7.65,37.51,2.12,51.24-2.78,64.7-7.64a88.74,88.74,0,0,0,19-9.93c.91,1.18-17.07,13.57-43.38,20.39-10.21,2.65-24,4-50.44,5.91-44.11,3.21-50.08,11.77-60.49,17.34-9.25,5-10.87,7.28-13.9,5.1C243.58,197.21,242.37,193.73,245.16,190.24Z"/><path class="cls-2" d="M187.69,294.74a17.09,17.09,0,0,1-.9-4c-.08-.65-.1-1.25-.13-1.88s0-1.19,0-1.79a23.5,23.5,0,0,1,1.3-6.49A24,24,0,0,1,208.5,264.5a27.6,27.6,0,0,1,3.46,0,24,24,0,0,1,3.67.58,17.89,17.89,0,0,1,3.85,1.48c-.29,1.48-.59,2.78-.92,3.91s-.64,2.26-1,3.26-.67,2-1.05,2.85A28.88,28.88,0,0,1,209.36,287a27.33,27.33,0,0,1-8.59,5.21,35.89,35.89,0,0,1-5.69,1.63A51.33,51.33,0,0,1,187.69,294.74Z"/><path class="cls-2" d="M313.43,227a51.33,51.33,0,0,1-4.83,5.65,35.89,35.89,0,0,1-4.5,3.83,27.33,27.33,0,0,1-9.08,4.31,28.88,28.88,0,0,1-12.64.23c-.93-.16-1.93-.43-3-.69a29.1,29.1,0,0,1-3.26-1c-1.17-.43-2.37-.81-3.77-1.38a17.89,17.89,0,0,1,.89-4,24,24,0,0,1,1.53-3.38,27.6,27.6,0,0,1,1.94-2.87,24.27,24.27,0,0,1,24.72-8.22,23.5,23.5,0,0,1,6.14,2.49,18,18,0,0,1,1.52,1c.52.4,1,.72,1.5,1.14A17.09,17.09,0,0,1,313.43,227Z"/><path class="cls-2" d="M446.91,521.17l1.51-.6a.38.38,0,0,0-.2-.72,3.58,3.58,0,0,0-1.32.45c-.36.2-.11.85.29.69a6.88,6.88,0,0,0,.92-.44c.07,0,.44-.36.51-.34s.2.65.22.69c.5.94,1.49,2.76.3,3.6-.39.28,0,.93.38.65,1.31-.92,1-2.63.35-3.88-.24-.5-.55-1.46-1.08-1.71s-1.3.52-1.8.72l.29.69a2.83,2.83,0,0,1,1.14-.37l-.2-.72-1.51.6c-.44.18-.25.9.2.72Z"/><path class="cls-2" d="M446.77,521.28c0-.08.46-.15.55-.18a3.23,3.23,0,0,0,.42-.17,3.58,3.58,0,0,0,.91-.75c.34-.35-.19-.88-.53-.53a2.71,2.71,0,0,1-1.17.78,1.36,1.36,0,0,0-.82.47c-.27.4.38.77.65.38Z"/><path class="cls-2" d="M448.44,520.62v0l-.1.36h-.53l.13.12a.38.38,0,0,0,.64-.27v-.31l-.56.32.43.29a.38.38,0,0,0,.55-.42l-.22-.63-.69.29q.6,1,1.16,2.12a.38.38,0,0,0,.69-.29c-.26-.79-.83-1.4-1.16-2.16l-.51.51a2.9,2.9,0,0,1,.73,1.15,7.85,7.85,0,0,1,.44,1.28.38.38,0,0,0,.72-.2,5.19,5.19,0,0,0-1.51-2.88c-.34-.24-.64.21-.51.51a22.51,22.51,0,0,1,1.08,2l.69-.29q-.55-1.07-1.16-2.12c-.21-.36-.83-.12-.69.29l.22.63.55-.42-.43-.29a.38.38,0,0,0-.56.32v.31l.66-.29-.13-.12a.38.38,0,0,0-.53,0,.47.47,0,0,0-.12.45c.11.47.83.27.72-.2Z"/><path class="cls-11" d="M447.5,523.5c-11,7-16,8-30,11"/><path class="cls-2" d="M444.77,556.59v-.09l-.37.38h0l-.27-.11v.07c.07.42.75.32.74-.1a1.53,1.53,0,0,1,0-.29h-.72a.76.76,0,0,1,.06.37l.74-.1a5.49,5.49,0,0,1-.12-.55l-.63.36a2.94,2.94,0,0,0,0,.41c.06.43.72.3.74-.1a3.22,3.22,0,0,0,0-.53l-.74.1a1.5,1.5,0,0,1,0,1h.72a10.7,10.7,0,0,0-.18-1.49c-.14-.46-.87-.26-.72.2a10.91,10.91,0,0,1,.18,1.49c.06.38.63.34.72,0a2.19,2.19,0,0,0,0-1.37c-.13-.36-.79-.35-.74.1a3.22,3.22,0,0,1,0,.53l.74-.1a1.19,1.19,0,0,0-.23-.75.38.38,0,0,0-.63.36,5.49,5.49,0,0,0,.12.55.38.38,0,0,0,.74-.1,1.89,1.89,0,0,0-.09-.56c-.1-.32-.67-.39-.72,0a2.51,2.51,0,0,0,0,.49l.74-.1c0-.24-.2-.55-.49-.51a.38.38,0,0,0-.37.38v.13a.38.38,0,0,0,.75,0Z"/><path class="cls-2" d="M441.64,555.28a.65.65,0,0,0,.38-.52l-.19.32h0l-.29-.69a.62.62,0,0,1-.27.14c-.46.14-.26.87.2.72a1.53,1.53,0,0,0,.45-.22c.32-.22.13-.86-.29-.69a.73.73,0,0,0-.28.16.37.37,0,0,0-.1.17h0a.38.38,0,0,0,.38.65Z"/><path class="cls-2" d="M444.07,554.94l0-.26a.38.38,0,0,0-.74.1V555l.74-.1c-.1-.42-.13-.79-.62-.86a1.59,1.59,0,0,0-.68,0c-.14,0-.62.4-.73.32-.39-.28-.77.37-.38.65.67.48,1.13-.46,1.79-.24l-.22-.17a2.81,2.81,0,0,1,.12.46.38.38,0,0,0,.74-.1v-.26l-.74.1,0,.26c.1.47.82.27.72-.2Z"/><path class="cls-2" d="M443.15,554.67a2,2,0,0,0-.55,0l.19.7.46-.34a.38.38,0,0,0-.19-.7,6.2,6.2,0,0,0-1.12.09l.36.63.48-.31-.36-.63-.54.18.1.74a10.37,10.37,0,0,1,2-.77l-.36-.1c.42.35.44,1.35.53,1.84a5,5,0,0,1-.11,2.45.38.38,0,0,0,.72.2,7.16,7.16,0,0,0-.2-4.34c-.12-.33-.29-.74-.68-.79s-.61.19-.84.28l-1.26.5a.38.38,0,0,0,.1.74,1.19,1.19,0,0,0,1.07-.4c.24-.25,0-.77-.36-.63a2.55,2.55,0,0,0-.81.5c-.31.27,0,.68.36.63a3.57,3.57,0,0,1,.93-.06l-.19-.7-.46.34c-.27.19-.22.74.19.7H443c.47.06.68-.66.2-.72Z"/><path class="cls-11" d="M442.1,557.42a98.68,98.68,0,0,1-24.6,8.08"/></svg>