<svg id="Слой_1" data-name="Слой 1" xmlns="http://www.w3.org/2000/svg" viewBox="0 0 331.23 120.93"><defs><style>.cls-1{fill:none;stroke:#00387e;stroke-linecap:square;stroke-miterlimit:10;}.cls-2{fill:#00387e;}</style></defs><title>people</title><polyline class="cls-1" points="40.16 0.5 45.49 0.5 45.49 19.41 51.1 13.74 55 17.59 42.34 30.31"/><polyline class="cls-1" points="44.34 0.5 39.01 0.5 39.01 19.41 33.4 13.74 29.5 17.59 42.16 30.31"/><polyline class="cls-1" points="125.16 0.5 130.49 0.5 130.49 19.41 136.1 13.74 140 17.59 127.34 30.31"/><polyline class="cls-1" points="129.34 0.5 124.01 0.5 124.01 19.41 118.4 13.74 114.5 17.59 127.16 30.31"/><polyline class="cls-1" points="216.16 0.5 221.49 0.5 221.49 19.41 227.1 13.74 231 17.59 218.34 30.31"/><polyline class="cls-1" points="220.34 0.5 215.01 0.5 215.01 19.41 209.4 13.74 205.5 17.59 218.16 30.31"/><polyline class="cls-1" points="293.16 1.5 298.49 1.5 298.49 20.41 304.1 14.74 308 18.59 295.34 31.31"/><polyline class="cls-1" points="297.34 1.57 292.01 1.57 292.01 20.48 286.4 14.81 282.5 18.66 295.16 31.38"/><path class="cls-2" d="M66.47,386.42c0,.15.11.3.17.44,2.93,6.64,8.4,11.88,15,11.88,6.82,0,12.45-5.65,15.29-12.64.05-.12.09-.25.13-.38.84-2.74,2.15-6.18,1.81-11.34-.4-10.74-4.42-15.31-9.37-17a23.28,23.28,0,0,0-16,0c-4.94,1.68-8.49,6.18-9.09,15.92,0,.12,0,.25,0,.37A38.5,38.5,0,0,0,66.47,386.42Z" transform="translate(-55 -312.5)"/><path class="cls-2" d="M95.32,398.87,92.16,398s-2.93,7.36-10.37,7.36S71.18,398,71.18,398l-3.27.92C60.32,401,55,408.62,55,417.4v10.46c0,3,2.22,5.58,4.9,5.58h43.42c2.68,0,4.91-2.57,4.91-5.58V417.4C108.23,408.62,102.91,401,95.32,398.87Z" transform="translate(-55 -312.5)"/><path class="cls-2" d="M137.47,386.42c0,.15.11.3.17.44,2.93,6.64,8.4,11.88,15,11.88,6.82,0,12.45-5.65,15.29-12.64.05-.12.09-.25.13-.38.84-2.74,2.15-6.18,1.81-11.34-.4-10.74-4.42-15.31-9.37-17a23.28,23.28,0,0,0-16,0c-4.94,1.68-8.49,6.18-9.09,15.92,0,.12,0,.25,0,.37A38.5,38.5,0,0,0,137.47,386.42Z" transform="translate(-55 -312.5)"/><path class="cls-2" d="M166.32,398.87l-3.16-.89s-2.93,7.36-10.37,7.36-10.61-7.4-10.61-7.4l-3.27.92C131.32,401,126,408.62,126,417.4v10.46c0,3,2.22,5.58,4.9,5.58h43.42c2.68,0,4.91-2.57,4.91-5.58V417.4C179.23,408.62,173.91,401,166.32,398.87Z" transform="translate(-55 -312.5)"/><path class="cls-2" d="M207.47,386.42c0,.15.11.3.17.44,2.93,6.64,8.4,11.88,15,11.88,6.82,0,12.45-5.65,15.29-12.64.05-.12.09-.25.13-.38.84-2.74,2.15-6.18,1.81-11.34-.4-10.74-4.42-15.31-9.37-17a23.28,23.28,0,0,0-16,0c-4.94,1.68-8.49,6.18-9.09,15.92,0,.12,0,.25,0,.37A38.5,38.5,0,0,0,207.47,386.42Z" transform="translate(-55 -312.5)"/><path class="cls-2" d="M236.32,398.87l-3.16-.89s-2.93,7.36-10.37,7.36-10.61-7.4-10.61-7.4l-3.27.92C201.32,401,196,408.62,196,417.4v10.46c0,3,2.22,5.58,4.9,5.58h43.42c2.68,0,4.91-2.57,4.91-5.58V417.4C249.23,408.62,243.91,401,236.32,398.87Z" transform="translate(-55 -312.5)"/><path class="cls-2" d="M275.47,386.42c0,.15.11.3.17.44,2.93,6.64,8.4,11.88,15,11.88,6.82,0,12.45-5.65,15.29-12.64.05-.12.09-.25.13-.38.84-2.74,2.15-6.18,1.81-11.34-.4-10.74-4.42-15.31-9.37-17a23.28,23.28,0,0,0-16,0c-4.94,1.68-8.49,6.18-9.09,15.92,0,.12,0,.25,0,.37A38.5,38.5,0,0,0,275.47,386.42Z" transform="translate(-55 -312.5)"/><path class="cls-2" d="M304.32,398.87l-3.16-.89s-2.93,7.36-10.37,7.36-10.61-7.4-10.61-7.4l-3.27.92C269.32,401,264,408.62,264,417.4v10.46c0,3,2.22,5.58,4.9,5.58h43.42c2.68,0,4.91-2.57,4.91-5.58V417.4C317.23,408.62,311.91,401,304.32,398.87Z" transform="translate(-55 -312.5)"/><path class="cls-2" d="M344.47,386.42c0,.15.11.3.17.44,2.93,6.64,8.4,11.88,15,11.88,6.82,0,12.45-5.65,15.29-12.64.05-.12.09-.25.13-.38.84-2.74,2.15-6.18,1.81-11.34-.4-10.74-4.42-15.31-9.37-17a23.28,23.28,0,0,0-16,0c-4.94,1.68-8.49,6.18-9.09,15.92,0,.12,0,.25,0,.37A38.5,38.5,0,0,0,344.47,386.42Z" transform="translate(-55 -312.5)"/><path class="cls-2" d="M373.32,398.87l-3.16-.89s-2.93,7.36-10.37,7.36-10.61-7.4-10.61-7.4l-3.27.92C338.32,401,333,408.62,333,417.4v10.46c0,3,2.22,5.58,4.9,5.58h43.42c2.68,0,4.91-2.57,4.91-5.58V417.4C386.23,408.62,380.91,401,373.32,398.87Z" transform="translate(-55 -312.5)"/></svg>