<svg id="Слой_1" data-name="Слой 1" xmlns="http://www.w3.org/2000/svg" viewBox="0 0 352.92 92.93"><defs><style>.cls-1{fill:none;stroke:#00387e;stroke-linecap:square;stroke-miterlimit:10;}.cls-2{fill:#00387e;}</style></defs><title>peoplesmall</title><polyline class="cls-1" points="135.85 0.5 141.17 0.5 141.17 19.41 146.78 13.74 150.69 17.59 138.03 30.31"/><polyline class="cls-1" points="140.03 0.5 134.7 0.5 134.7 19.41 129.09 13.74 125.19 17.59 137.85 30.31"/><polyline class="cls-1" points="58.85 0.5 64.17 0.5 64.17 19.41 69.78 13.74 73.69 17.59 61.03 30.31"/><polyline class="cls-1" points="63.03 0.5 57.7 0.5 57.7 19.41 52.09 13.74 48.19 17.59 60.85 30.31"/><polyline class="cls-1" points="213.85 0.5 219.17 0.5 219.17 19.41 224.78 13.74 228.69 17.59 216.03 30.31"/><polyline class="cls-1" points="218.03 0.5 212.7 0.5 212.7 19.41 207.09 13.74 203.19 17.59 215.85 30.31"/><polyline class="cls-1" points="289.85 0.5 295.17 0.5 295.17 19.41 300.78 13.74 304.69 17.59 292.03 30.31"/><polyline class="cls-1" points="294.03 0.57 288.7 0.57 288.7 19.48 283.09 13.81 279.19 17.66 291.85 30.38"/><path class="cls-2" d="M382.19,213.24c0,.09.06.18.1.26,1.76,4,5,7.13,9,7.13s7.47-3.39,9.17-7.58c0-.07.06-.15.08-.23a16.84,16.84,0,0,0,1.08-6.8c-.24-6.44-2.65-9.18-5.62-10.17a14,14,0,0,0-9.59,0c-3,1-5.09,3.71-5.45,9.55,0,.07,0,.15,0,.22A23.09,23.09,0,0,0,382.19,213.24Z" transform="translate(-54.31 -148.5)"/><path class="cls-2" d="M399.49,220.71l-1.9-.53s-1.76,4.42-6.22,4.42-6.36-4.43-6.36-4.43l-2,.55c-4.55,1.28-7.74,5.85-7.74,11.11v6.27a3.2,3.2,0,0,0,2.94,3.35h26a3.2,3.2,0,0,0,2.94-3.35v-6.27C407.23,226.55,404,222,399.49,220.71Z" transform="translate(-54.31 -148.5)"/><path class="cls-2" d="M328.19,213.24c0,.09.06.18.1.26,1.76,4,5,7.13,9,7.13s7.47-3.39,9.17-7.58c0-.07.06-.15.08-.23a16.84,16.84,0,0,0,1.08-6.8c-.24-6.44-2.65-9.18-5.62-10.17a14,14,0,0,0-9.59,0c-3,1-5.09,3.71-5.45,9.55,0,.07,0,.15,0,.22A23.09,23.09,0,0,0,328.19,213.24Z" transform="translate(-54.31 -148.5)"/><path class="cls-2" d="M345.49,220.71l-1.9-.53s-1.76,4.42-6.22,4.42-6.36-4.43-6.36-4.43l-2,.55c-4.55,1.28-7.74,5.85-7.74,11.11v6.27a3.2,3.2,0,0,0,2.94,3.35h26a3.2,3.2,0,0,0,2.94-3.35v-6.27C353.23,226.55,350,222,345.49,220.71Z" transform="translate(-54.31 -148.5)"/><path class="cls-2" d="M274.19,213.24c0,.09.06.18.1.26,1.76,4,5,7.13,9,7.13s7.47-3.39,9.17-7.58c0-.07.06-.15.08-.23a16.84,16.84,0,0,0,1.08-6.8c-.24-6.44-2.65-9.18-5.62-10.17a14,14,0,0,0-9.59,0c-3,1-5.09,3.71-5.45,9.55,0,.07,0,.15,0,.22A23.09,23.09,0,0,0,274.19,213.24Z" transform="translate(-54.31 -148.5)"/><path class="cls-2" d="M291.49,220.71l-1.9-.53s-1.76,4.42-6.22,4.42-6.36-4.43-6.36-4.43l-2,.55c-4.55,1.28-7.74,5.85-7.74,11.11v6.27a3.2,3.2,0,0,0,2.94,3.35h26a3.2,3.2,0,0,0,2.94-3.35v-6.27C299.23,226.55,296,222,291.49,220.71Z" transform="translate(-54.31 -148.5)"/><path class="cls-2" d="M223.19,213.24c0,.09.06.18.1.26,1.76,4,5,7.13,9,7.13s7.47-3.39,9.17-7.58c0-.07.06-.15.08-.23a16.84,16.84,0,0,0,1.08-6.8c-.24-6.44-2.65-9.18-5.62-10.17a14,14,0,0,0-9.59,0c-3,1-5.09,3.71-5.45,9.55,0,.07,0,.15,0,.22A23.09,23.09,0,0,0,223.19,213.24Z" transform="translate(-54.31 -148.5)"/><path class="cls-2" d="M240.49,220.71l-1.9-.53s-1.76,4.42-6.22,4.42-6.36-4.43-6.36-4.43l-2,.55c-4.55,1.28-7.74,5.85-7.74,11.11v6.27a3.2,3.2,0,0,0,2.94,3.35h26a3.2,3.2,0,0,0,2.94-3.35v-6.27C248.23,226.55,245,222,240.49,220.71Z" transform="translate(-54.31 -148.5)"/><path class="cls-2" d="M171.19,213.24c0,.09.06.18.1.26,1.76,4,5,7.13,9,7.13s7.47-3.39,9.17-7.58c0-.07.06-.15.08-.23a16.84,16.84,0,0,0,1.08-6.8c-.24-6.44-2.65-9.18-5.62-10.17a14,14,0,0,0-9.59,0c-3,1-5.09,3.71-5.45,9.55,0,.07,0,.15,0,.22A23.09,23.09,0,0,0,171.19,213.24Z" transform="translate(-54.31 -148.5)"/><path class="cls-2" d="M188.49,220.71l-1.9-.53s-1.76,4.42-6.22,4.42-6.36-4.43-6.36-4.43l-2,.55c-4.55,1.28-7.74,5.85-7.74,11.11v6.27a3.2,3.2,0,0,0,2.94,3.35h26a3.2,3.2,0,0,0,2.94-3.35v-6.27C196.23,226.55,193,222,188.49,220.71Z" transform="translate(-54.31 -148.5)"/><path class="cls-2" d="M117.19,213.24c0,.09.06.18.1.26,1.76,4,5,7.13,9,7.13s7.47-3.39,9.17-7.58c0-.07.06-.15.08-.23a16.84,16.84,0,0,0,1.08-6.8c-.24-6.44-2.65-9.18-5.62-10.17a14,14,0,0,0-9.59,0c-3,1-5.09,3.71-5.45,9.55,0,.07,0,.15,0,.22A23.09,23.09,0,0,0,117.19,213.24Z" transform="translate(-54.31 -148.5)"/><path class="cls-2" d="M134.49,220.71l-1.9-.53s-1.76,4.42-6.22,4.42-6.36-4.43-6.36-4.43l-2,.55c-4.55,1.28-7.74,5.85-7.74,11.11v6.27a3.2,3.2,0,0,0,2.94,3.35h26a3.2,3.2,0,0,0,2.94-3.35v-6.27C142.23,226.55,139,222,134.49,220.71Z" transform="translate(-54.31 -148.5)"/><path class="cls-2" d="M61.19,213.24c0,.09.06.18.1.26,1.76,4,5,7.13,9,7.13s7.47-3.39,9.17-7.58c0-.07.06-.15.08-.23A16.84,16.84,0,0,0,80.6,206c-.24-6.44-2.65-9.18-5.62-10.17a14,14,0,0,0-9.59,0c-3,1-5.09,3.71-5.45,9.55,0,.07,0,.15,0,.22A23.09,23.09,0,0,0,61.19,213.24Z" transform="translate(-54.31 -148.5)"/><path class="cls-2" d="M78.49,220.71l-1.9-.53s-1.76,4.42-6.22,4.42S64,220.16,64,220.16l-2,.55c-4.55,1.28-7.74,5.85-7.74,11.11v6.27a3.2,3.2,0,0,0,2.94,3.35h26a3.2,3.2,0,0,0,2.94-3.35v-6.27C86.23,226.55,83,222,78.49,220.71Z" transform="translate(-54.31 -148.5)"/></svg>