<svg id="Слой_1" data-name="Слой 1" xmlns="http://www.w3.org/2000/svg" viewBox="0 0 453.23 428.92"><defs><style>.cls-1,.cls-2{fill:none;stroke-linecap:round;stroke-linejoin:round;stroke-width:9.6px;}.cls-1{stroke:#634e3e;}.cls-1,.cls-2,.cls-3,.cls-4,.cls-5,.cls-6,.cls-7{fill-rule:evenodd;}.cls-2{stroke:#4a3a2c;}.cls-3{fill:#455e2a;}.cls-4{fill:#557235;}.cls-5{fill:#62823e;}.cls-6{fill:#769738;}.cls-7{fill:#96bb51;}</style></defs><title>tree-right</title><path class="cls-1" d="M258.86,305c16.15-3,45.42-15.14,56.52-68.63" transform="translate(-27.77 -5.51)"/><path class="cls-2" d="M194.26,292.84c12.11-4,40.37-37.34,44.41-94.87" transform="translate(-27.77 -5.51)"/><path class="cls-2" d="M361.09,131.34C339,175.59,297.17,351.35,311.92,419" transform="translate(-27.77 -5.51)"/><path class="cls-2" d="M203.76,421.41c-6.15-59-25.81-197.88-8.6-318.34" transform="translate(-27.77 -5.51)"/><path class="cls-1" d="M344.65,344.31c16.15,0,53.49-16.15,58.54-58.54" transform="translate(-27.77 -5.51)"/><path class="cls-1" d="M353.71,419c-16-22.12-11.06-89.72,3.69-131.51" transform="translate(-27.77 -5.51)"/><path class="cls-1" d="M131.69,331.19c-14.13-7.07-43.4-28.26-66.61-85.79" transform="translate(-27.77 -5.51)"/><path class="cls-1" d="M120.18,422.64c19.67-30.73,18.44-114.31,1.23-180.68" transform="translate(-27.77 -5.51)"/><path class="cls-1" d="M248.22,195.8c4.77,45.33,14.32,155.09,0,233.83" transform="translate(-27.77 -5.51)"/><path class="cls-3" d="M401.34,180.55l.32.06,1.19.2.37.06,1.31.19.24,0,1.34.17.25,0,1.37.15.3,0,1.38.12h.15l1.49.1h.18l1.56.07h0l1.64,0h0l1.66,0c35.83,0,64.87-22.1,64.87-49.36,0-.38,0-.75,0-1.13v-.25c0-.37,0-.74-.06-1.11v-.16c0-.34-.05-.67-.08-1l0-.2c0-.36-.08-.72-.13-1.08l0-.24c0-.36-.1-.72-.16-1.07v0h0c-.06-.36-.13-.73-.2-1.09l0-.23c-.07-.36-.15-.72-.24-1.08l0-.14c-.08-.33-.16-.66-.25-1l0-.18q-.14-.54-.31-1.07l-.05-.17q-.15-.51-.32-1l0-.07h0l0-.05q-.17-.49-.35-1l-.09-.24q-.19-.51-.4-1l-.06-.15c-.13-.31-.26-.62-.4-.94l-.07-.16q-.23-.51-.47-1l-.08-.17c-.16-.33-.32-.66-.49-1l0,0h0q-.25-.48-.51-.95l-.15-.27-.53-.93-.1-.17-.49-.8-.15-.25-.58-.89-.16-.23-.64-.92h0l-.67-.92-.16-.21-.7-.9-.08-.1-.68-.83-.14-.17-.76-.87-.13-.15-.72-.79-.18-.19-.72-.75-.22-.22-.79-.79-.2-.19-.72-.67-.18-.17-.86-.78-.2-.18-.82-.7-.09-.08,0,0,0,0-.89-.72-.23-.19-.92-.72-.22-.16-.84-.62-.17-.13-1-.69-.27-.19-1-.68h0l0,0-1-.66-.26-.17-1-.61-.31-.18-.8-.47-.35-.2-1-.55-.34-.18-1-.51-.13-.07,0,0,.3-.71.07-.17c.13-.32.26-.64.38-1l.08-.21c.12-.33.24-.65.35-1l.06-.19c.12-.35.23-.71.34-1.07l0-.06c.11-.36.22-.73.31-1.1l0-.15q.15-.55.28-1.1v0l0-.08q.13-.55.24-1.1v-.11q.11-.55.2-1.11l0-.11q.1-.59.18-1.18h0c.05-.41.1-.81.14-1.22v-.06c0-.41.07-.81.1-1.22h0v0c0-.41,0-.81.06-1.22v0h0q0-.62,0-1.25c0-27.26-29-49.36-64.87-49.36l-1.51,0h-.39l-1.2,0h-.34l-1.47.07-.32,0-1.19.08-.4,0-1.17.1-.33,0-1.42.15-.34,0-1.17.15-.37,0-1.36.2h-.09l-.19,0-1.15.19-.45.08-1.15.21-.25,0-1.36.28-.39.08-1.05.24-.37.09-1.36.34h0l-1.3.35-.46.13-.91.26-.46.13-1.21.38-.43.14-.86.29-.48.16-.87.31-.52.19-1.06.4-.48.19-.8.32-.42.17-1.17.5-.36.16-.8.36-.53.25-.7.33-.45.22-1,.52-.55.28-.56.29-.58.31-.49.27-1.19.68-.3.17-.63.38-.49.3-.55.34,0,0-.86.55h0l-.52.35-.45.3-.59.41-.41.29-.52.37-.81.6,0,0-.59.45-.33.25-.6.48-.12.1-1.17,1-.34.29-.51.45-.32.28-.53.48-.71.67-.58.57-.18.18-.6.61,0,0q-.61.63-1.2,1.28l-.1.11-.5.56-.26.3-.46.54h0l-.6.73-.4.51-.25.33-.45.6-.12.17c-.3.4-.59.81-.87,1.22l-.14.2-.41.61-.16.25-.42.66h-.6c-35.83,0-64.87,22.1-64.87,49.36,0,.38,0,.76,0,1.14v.33c0,.31,0,.61,0,.91v.25c0,.38.06.77.1,1.15v.12q.05.5.12,1l0,.34c0,.28.08.56.13.83l0,.3q.09.54.2,1.09l0,.24c.06.3.13.6.2.89l.07.31c.07.3.14.59.22.89l.05.21c.1.37.2.73.31,1.09l.07.22q.13.42.27.84l.12.37c.09.27.19.54.29.81l.08.23c.13.34.26.68.4,1l.12.29.33.77.15.33q.22.5.46,1h0c.16.34.33.67.5,1l.17.32.36.68.2.37.55,1,.08.14.48.78.24.38.43.65.21.31.62.89.21.29.48.65.26.34.52.67.19.24.72.87.25.29.52.61.27.31.55.61.46.5.55.57.36.36.48.48.38.37.6.56.48.45.62.56.34.3.59.51.36.31.81.66.51.4.48.37.47.36.61.45.38.28.91.64.49.34.54.37.48.32.6.39.45.29.89.55,0,0,.63.37.43.25.65.37.41.22,1.08.58.56.3.57.29.58.29.61.3.55.26,1,.48.58.26.64.28.55.24.67.28h0l1,.41.64.25.55.21.73.27.5.18.72.25h0c6.67,21.86,32.43,38.15,63.19,38.15a80.5,80.5,0,0,0,33.16-6.93ZM339.87,45.45l-.58.57Z" transform="translate(-27.77 -5.51)"/><path class="cls-4" d="M476,151.43a39.26,39.26,0,0,0,5-18.95c0-.38,0-.75,0-1.13v-.25c0-.37,0-.74-.06-1.11v-.16c0-.34-.05-.67-.08-1l0-.2c0-.36-.08-.72-.13-1.08l0-.24c0-.36-.1-.72-.16-1.07v0h0c-.06-.36-.13-.73-.2-1.09l0-.23c-.07-.36-.15-.72-.24-1.08l0-.14c-.08-.33-.16-.66-.25-1l0-.18q-.14-.54-.31-1.07l-.05-.17q-.15-.51-.32-1l0-.07h0l0-.05q-.17-.49-.35-1l-.09-.24q-.19-.51-.4-1l-.06-.15c-.13-.31-.26-.62-.4-.94l-.07-.16q-.23-.51-.47-1l-.08-.17c-.16-.33-.32-.66-.49-1l0,0h0q-.25-.48-.51-.95l-.15-.27-.53-.93-.1-.17-.49-.8-.15-.25-.58-.89-.16-.23-.64-.92h0l-.67-.92-.16-.21-.7-.9-.08-.1-.68-.83-.14-.17-.76-.87-.13-.15-.72-.79-.18-.19-.72-.75-.22-.22-.79-.79-.2-.19-.72-.67-.18-.17-.86-.78-.2-.18-.82-.7-.09-.08,0,0,0,0-.89-.72-.23-.19-.92-.72-.22-.16-.84-.62-.17-.13-1-.69-.27-.19-1-.68h0l0,0-1-.66-.26-.17-1-.61-.31-.18-.8-.47-.35-.2-1-.55-.34-.18-1-.51-.13-.07,0,0,.3-.71.07-.17c.13-.32.26-.64.38-1l.08-.21c.12-.33.24-.65.35-1l.06-.19c.12-.35.23-.71.34-1.07l0-.06c.11-.36.22-.73.31-1.1l0-.15q.15-.55.28-1.1v0l0-.08q.13-.55.24-1.1v-.11q.11-.55.2-1.11l0-.11q.1-.59.18-1.18h0c.05-.41.1-.81.14-1.22v-.06c0-.41.07-.81.1-1.22h0v0c0-.41,0-.81.06-1.22v0h0q0-.62,0-1.25c0-27.26-29-49.36-64.87-49.36l-1.51,0h-.39l-1.2,0h-.34l-1.47.07-.32,0-1.19.08-.4,0-1.17.1-.33,0-1.42.15-.34,0-1.17.15-.37,0-1.36.2h-.09l-.19,0-1.15.19-.45.08-1.15.21-.25,0-1.36.28-.39.08-1.05.24-.37.09-1.36.34h0l-1.3.35-.46.13-.91.26-.46.13-1.21.38-.43.14-.86.29-.48.16-.87.31-.52.19-1.06.4-.48.19-.8.32-.42.17-1.17.5-.36.16-.8.36-.53.25-.7.33-.45.22-1,.52-.55.28-.56.29-.58.31-.49.27-1.19.68-.3.17-.63.38-.49.3-.55.34,0,0-.86.55h0l-.52.35-.45.3-.59.41-.41.29-.52.37-.81.6,0,0-.59.45-.33.25-.6.48-.12.1-1.17,1-.34.29-.51.45-.32.28-.53.48-.71.67-.58.57-.18.18-.6.61,0,0q-.61.63-1.2,1.28l-.1.11-.5.56-.26.3-.46.54h0l-.6.73-.4.51-.25.33-.45.6-.12.17c-.3.4-.59.81-.87,1.22l-.14.2-.41.61-.16.25-.42.66h-.6a81.91,81.91,0,0,0-27.87,4.78,39.25,39.25,0,0,0-5,18.95c0,.38,0,.76,0,1.14v.33q0,.46,0,.91v.25c0,.38.06.77.1,1.15v.12q.05.5.12,1l0,.34c0,.28.08.56.13.83l0,.3c.06.36.13.73.2,1.09l0,.24q.09.45.19.89l.07.31c.07.3.14.59.22.89l.05.21c.1.37.2.73.31,1.09l.07.22q.13.42.27.84l.12.37.29.81.08.23q.19.51.4,1l.12.29.33.77.15.33q.22.5.46,1h0c.16.34.33.67.5,1l.17.32.36.68.2.37.55,1,.08.14.48.78.24.38.43.65.21.31.62.89.21.29.48.65.26.34.52.67.19.24.71.87.25.29.52.61.27.31.55.61.47.5.55.58.36.36.48.48.37.37.6.56.48.45.62.56.34.3.59.51.36.31.81.66.51.4.48.37.47.36.61.45.38.28.91.64.49.34.54.37.48.32.6.39.45.29.89.55,0,0,.63.37.43.25.65.37.41.22,1.08.58.56.3.57.29.58.29.61.3.55.26,1,.48.58.26.64.28.55.24.67.28h0l1,.41.64.25.55.21.73.27.5.18.72.25h0c6.67,21.86,32.43,38.15,63.19,38.15a80.5,80.5,0,0,0,33.16-6.93l.32.06,1.19.2.37.06,1.31.19.24,0,1.34.17.25,0,1.37.15.3,0,1.38.12h.15l1.49.1h.18l1.56.07h0l1.64,0h0l1.67,0A81.92,81.92,0,0,0,476,151.43Zm-136.18-106-.58.57Z" transform="translate(-27.77 -5.51)"/><path class="cls-4" d="M217.09,159.34l.32.06,1.19.2.37.06,1.31.19.24,0,1.34.17.25,0,1.36.14.3,0,1.38.12h.15l1.49.1H227l1.56.07h0l1.64,0h0l1.66,0c35.83,0,64.87-22.1,64.87-49.36,0-.38,0-.75,0-1.13v-.25c0-.37,0-.74-.06-1.11v-.16q0-.51-.08-1l0-.2q-.06-.54-.13-1.08l0-.24c0-.36-.1-.71-.16-1.07v0h0c-.06-.36-.13-.72-.2-1.09l0-.23c-.07-.36-.15-.72-.24-1.08l0-.14c-.08-.33-.16-.66-.25-1l0-.17q-.15-.54-.31-1.07l-.05-.17q-.15-.51-.32-1l0-.08h0l0-.05q-.17-.49-.35-1l-.09-.24q-.19-.51-.4-1l-.06-.15c-.13-.31-.26-.62-.4-.94l-.07-.16q-.23-.51-.47-1l-.08-.17q-.24-.5-.49-1l0,0h0q-.25-.48-.51-.95l-.15-.27L291,91l-.1-.17-.49-.8-.16-.25-.58-.88-.16-.23-.64-.92h0l-.67-.92-.16-.21-.7-.9-.08-.1-.68-.83-.14-.17-.76-.87-.13-.14-.72-.79-.18-.19-.72-.75-.22-.22-.79-.79-.2-.19-.71-.67-.18-.17L281,79l-.2-.17-.82-.7-.09-.08,0,0,0,0-.88-.72-.23-.19-.92-.72-.22-.16-.84-.62-.18-.13-1-.69-.27-.19-1-.68h0l0,0-1-.66-.26-.16-1-.61-.31-.18-.8-.47-.35-.2-1-.55-.34-.18-1-.51-.13-.07,0,0,.3-.71.07-.16c.13-.32.25-.64.38-1l.08-.21q.18-.49.35-1l.06-.19q.18-.53.34-1.07l0-.07q.16-.55.31-1.1l0-.15q.15-.55.28-1.1v0l0-.08q.13-.55.24-1.1v-.11c.07-.37.14-.74.2-1.11l0-.11c.07-.39.12-.79.18-1.18h0q.08-.61.14-1.22v-.06c0-.4.07-.81.1-1.22h0v0q0-.61.06-1.22v0h0c0-.41,0-.83,0-1.25,0-27.26-29-49.36-64.87-49.36h-1.9l-1.2,0h-.34l-1.47.07-.32,0-1.19.08-.4,0-1.17.1-.33,0-1.42.15-.34,0-1.17.15-.37.05-1.36.2h-.09l-.19,0-1.15.19-.45.08L190.48,7l-.25,0-1.36.28-.39.08-1.05.24-.37.09-1.36.34h0l-1.3.35-.46.13-.91.26-.46.14-1.21.38-.43.14-.86.29-.48.16-.87.31-.52.19-1.06.4-.48.19-.8.32-.42.17-1.17.5-.35.16-.8.36-.53.25-.7.33-.45.22-1,.52-.55.29-.56.29-.58.31-.49.27L167,15.7l-.3.17-.63.38-.49.3-.55.34,0,0-.86.55h0l-.52.35-.45.3-.59.41-.41.29-.52.37-.8.6,0,0-.58.45-.33.25-.61.48-.12.1c-.39.32-.79.64-1.17,1l-.34.29-.51.45-.32.28-.53.48-.71.67-.58.57-.18.18-.6.61,0,0q-.61.63-1.2,1.28l-.1.11-.5.57-.26.3-.46.54h0l-.6.73-.4.51-.26.33-.45.6-.12.17q-.44.6-.87,1.22l-.14.2-.41.61-.16.25-.42.66h-.6c-35.83,0-64.87,22.1-64.87,49.36,0,.38,0,.76,0,1.14v.33c0,.31,0,.61,0,.91v.25c0,.38.06.77.1,1.15V87q.05.5.12,1l0,.34q.06.42.13.83l0,.3c.06.36.13.73.2,1.09l0,.24q.09.45.2.89l.07.31c.07.3.14.59.22.89l.06.21c.1.37.2.73.31,1.09l.07.22c.09.28.18.56.27.84l.12.37.29.81.09.23c.13.34.26.68.4,1l.12.29.33.77.15.33q.22.5.46,1h0c.16.34.33.67.5,1l.17.32.36.68.2.37c.18.32.36.64.55,1l.08.14.48.78.24.38.43.66.21.31.62.89.21.29.48.65.26.34.52.67.19.24.72.87.25.29.52.61.27.31.55.61.46.5.55.58.36.36.48.48.37.37.6.56.48.45.62.56.34.3L99,116l.36.3.81.66.51.4.48.37.47.36.61.45.38.28.91.64.49.34.54.37.48.32.6.39.45.29.89.55,0,0,.63.37.43.25.66.37.41.22,1.08.58.56.3.57.29.58.29.61.3.55.26,1,.48.58.26.64.28.55.23.67.28h0l1,.41.64.25.55.21.73.27.5.18.72.25h0c6.67,21.86,32.43,38.15,63.19,38.15a80.5,80.5,0,0,0,33.16-6.93ZM155.62,24.25l-.58.57Z" transform="translate(-27.77 -5.51)"/><path class="cls-5" d="M289,134.67a40.21,40.21,0,0,0,7.74-23.4c0-.38,0-.75,0-1.13v-.25c0-.37,0-.74-.06-1.11v-.16q0-.51-.08-1l0-.2q-.06-.54-.13-1.08l0-.24c0-.36-.1-.71-.16-1.07v0h0c-.06-.36-.13-.72-.2-1.09l0-.23c-.07-.36-.15-.72-.24-1.08l0-.14c-.08-.33-.16-.66-.25-1l0-.17q-.15-.54-.31-1.07l-.05-.17q-.15-.51-.32-1l0-.08h0l0-.05q-.17-.49-.35-1l-.09-.24q-.19-.51-.4-1l-.06-.15c-.13-.31-.26-.62-.4-.94l-.07-.16q-.23-.51-.47-1l-.08-.17q-.24-.5-.49-1l0,0h0q-.25-.48-.51-.95l-.15-.27L291,91l-.1-.17-.49-.8-.16-.25-.58-.88-.16-.23-.64-.92h0l-.67-.92-.16-.21-.7-.9-.08-.1-.68-.83-.14-.17-.76-.87-.13-.14-.72-.79-.18-.19-.72-.75-.22-.22-.79-.79-.2-.19-.71-.67-.18-.17L281,79l-.2-.17-.82-.7-.09-.08,0,0,0,0-.88-.72-.23-.19-.92-.72-.22-.16-.84-.62-.18-.13-1-.69-.27-.19-1-.68h0l0,0-1-.66-.26-.16-1-.61-.31-.18-.8-.47-.35-.2-1-.55-.34-.18-1-.51-.13-.07,0,0,.3-.71.07-.16c.13-.32.25-.64.38-1l.08-.21q.18-.49.35-1l.06-.19q.18-.53.34-1.07l0-.07q.16-.55.31-1.1l0-.15q.15-.55.28-1.1v0l0-.08q.13-.55.24-1.1v-.11c.07-.37.14-.74.2-1.11l0-.11c.07-.39.12-.79.18-1.18h0q.08-.61.14-1.22v-.06c0-.4.07-.81.1-1.22h0v0q0-.61.06-1.22v0h0c0-.41,0-.83,0-1.25,0-27.26-29-49.36-64.87-49.36h-1.9l-1.2,0h-.34l-1.47.07-.32,0-1.19.08-.4,0-1.17.1-.33,0-1.42.15-.34,0-1.17.15-.37.05-1.36.2h-.09l-.19,0-1.15.19-.45.08L190.48,7l-.25,0-1.36.28-.39.08-1.05.24-.37.09-1.36.34h0l-1.3.35-.46.13-.91.26-.46.14-1.21.38-.43.14-.86.29-.48.16-.87.31-.52.19-1.06.4-.48.19-.74.3-.37.53-.14.2-.41.61-.17.25-.42.66h-.6c-1,0-2,0-3,.05l-.45.23-.55.29-.56.29-.58.31-.49.27L167,15.7l-.3.17-.63.38-.49.3-.55.34,0,0-.86.55h0l-.52.35-.45.3-.59.41-.41.29-.52.37-.8.6,0,0-.58.45-.33.25-.61.48-.12.1c-.39.32-.79.64-1.17,1l-.34.29-.51.45-.32.28-.53.48-.71.67-.58.57-.18.18-.6.61,0,0q-.61.63-1.2,1.28l-.1.11-.5.57-.26.3-.46.54h0l-.6.73-.4.51-.26.33-.45.6-.12.17q-.44.6-.87,1.22l-.14.2-.41.61-.16.25-.42.66h-.6a81.21,81.21,0,0,0-30.58,5.82,40.21,40.21,0,0,0-7.74,23.4c0,.38,0,.76,0,1.14v.33c0,.31,0,.61,0,.91v.25q0,.58.1,1.15v.12q.05.5.12,1l0,.34q.06.42.13.84l0,.3c.06.36.13.73.2,1.09l0,.24c.06.3.13.6.2.89l.07.31c.07.3.15.59.22.89l.05.21q.15.55.31,1.09l.07.22c.09.28.18.56.27.84l.12.37.29.81.08.23c.13.34.26.68.4,1l.12.29c.11.26.21.51.33.77l.15.33q.23.5.46,1h0c.16.34.33.67.5,1l.17.32.36.68.2.37c.18.32.36.64.55,1l.08.14.48.78.24.38.43.66.21.31.62.89.21.29.48.65.26.34.52.67.19.24.72.87.25.29.52.61.27.31.55.61.46.5.55.58.36.36.48.48.38.37.6.56.48.45.62.56.34.3.59.51.36.3.81.66.51.4.48.37.47.36.61.45.38.28.91.64.49.34.54.37.48.32.6.39.45.29.89.55,0,0,.63.37.43.25.66.37.4.22,1.08.58.56.3.57.29.58.29.61.3.55.26,1,.48.58.26.64.28.55.23.67.28h0l1,.41.64.25.55.21.73.27.5.18.72.25h0c6.67,21.86,32.43,38.15,63.19,38.15a80.5,80.5,0,0,0,33.16-6.93l.32.06,1.19.2.37.06,1.31.19.24,0,1.34.17.25,0,1.36.15.3,0,1.38.12h.15l1.49.1h.18l1.56.07h0l1.64,0h0l1.66,0A81.2,81.2,0,0,0,289,134.67ZM155.62,24.25l-.58.57Z" transform="translate(-27.77 -5.51)"/><path class="cls-6" d="M289.92,128.95c35.83,0,64.87,22.1,64.87,49.36,0,20.07-15.74,37.34-38.35,45.06-6.67,21.86-32.43,38.15-63.19,38.15-26.11,0-48.61-11.74-58.9-28.66a85.68,85.68,0,0,1-8.79.45c-35.83,0-64.87-22.1-64.87-49.36,0-22.73,20.2-41.87,47.68-47.6,7.83-20.56,32.76-35.6,62.31-35.6,25.88,0,48.22,11.53,58.63,28.21Z" transform="translate(-27.77 -5.51)"/><path class="cls-7" d="M289.92,128.95c35.83,0,64.87,22.1,64.87,49.36A38.48,38.48,0,0,1,352.28,192a72.23,72.23,0,0,1-11.12,4.85c-2.74,9-8.71,17-16.92,23.38a73.26,73.26,0,0,1-7.79,3.17c-.25.82-.53,1.64-.84,2.45A79.15,79.15,0,0,1,278,235c-26.11,0-48.61-11.74-58.9-28.66a85.49,85.49,0,0,1-8.79.45c-35.83,0-64.87-22.1-64.87-49.36a38.5,38.5,0,0,1,2.52-13.65,75,75,0,0,1,20.45-7.4c7.83-20.56,32.76-35.6,62.31-35.6,25.88,0,48.22,11.53,58.63,28.21Z" transform="translate(-27.77 -5.51)"/><path class="cls-3" d="M99.35,273.61h0l-.18,0-1.3.21h-.1l-1.22.18-.14,0h-.06l-1.23.15-.15,0h-.06l-1.34.14h-.1l-1.36.12H92l-1.43.1h0l-1.46.07h0l-1.45,0H86.07c-32.19,0-58.29-19.86-58.29-44.35,0-.33,0-.66,0-1v-.26c0-.33,0-.66.05-1v-.12c0-.32,0-.65.08-1V227c0-.34.07-.67.12-1l0-.2c0-.32.09-.64.14-1v0h0v0c.05-.31.11-.62.17-.93l0-.23c.07-.33.14-.65.21-1l0-.07c.08-.33.16-.66.25-1l0-.08c.09-.32.18-.65.28-1l.06-.2c.09-.3.19-.61.29-.91v0h0v0q.16-.47.33-.93l.07-.19c.12-.31.23-.62.36-.92l.06-.14.34-.79.1-.22q.2-.44.4-.87l.09-.19.4-.81,0-.09h0l0-.07.43-.79.13-.24.49-.85.06-.1.48-.79.11-.18.53-.81.16-.23.53-.76,0-.05h0l.61-.83.14-.18.63-.81.08-.1.57-.7.16-.2.64-.73.2-.23.58-.64.1-.11h0l.06-.07.63-.66.22-.23.73-.72.08-.08.7-.66.18-.17.78-.7.15-.14.72-.62.2-.17.72-.59.26-.21.81-.63L45,199l.71-.53.28-.2.8-.57.3-.2.76-.52.1-.07,0,0,.87-.56.33-.21.85-.52.3-.18L51,195l.24-.14.93-.51.3-.16.88-.47.1-.05,0,0-.26-.62-.07-.16c-.12-.3-.24-.6-.35-.9l-.05-.14q-.17-.45-.32-.91l-.05-.16c-.1-.31-.21-.63-.3-.94l0-.09q-.15-.5-.29-1l0-.06q-.14-.52-.26-1v0c-.08-.35-.16-.7-.23-1.05v-.1q-.1-.51-.19-1v0c-.06-.36-.12-.73-.17-1.09h0v0c0-.36-.09-.72-.12-1.08h0v0q-.05-.55-.09-1.1v0c0-.36,0-.73-.06-1.09v0h0q0-.56,0-1.12c0-24.5,26.1-44.35,58.29-44.35h1.74l1.12,0h.19l1.37.07h.21l1.15.08.32,0,1.07.09.31,0,1.23.13.41,0,.94.12.41.05,1.2.17h.08l.18,0,1.06.18.37.07.94.17.36.07,1.18.24.39.09.85.19.42.1,1.12.28.07,0h.05l1.16.31.35.1.89.26.32.1,1.12.35.45.15.69.23.5.17.74.26.43.15,1,.37.47.19.68.27.43.18.87.37.55.24.62.28.53.25.52.25.49.24.95.47.44.23.53.28.53.29.55.3.76.43.48.28.57.35.35.21.58.36h0l.77.5.52.34.36.24.58.4.18.13,1.22.89.14.1.54.42.3.23.51.41.25.2.92.77.32.27.48.43.23.2.51.46.64.6,0,0,.43.42.28.27.48.49.1.1q.84.88,1.64,1.79l.06.07q.77.89,1.49,1.81l.13.17.44.58.1.14q.67.91,1.29,1.85l.13.2.38.59h.55c32.19,0,58.29,19.86,58.29,44.35q0,.51,0,1v.33q0,.37,0,.74l0,.28c0,.34-.05.68-.08,1v.1c0,.31-.07.62-.11.93l0,.25c0,.27-.08.53-.12.8l0,.25c-.05.32-.11.64-.18,1l-.06.28c-.05.25-.1.5-.16.74l-.07.28c-.06.27-.13.54-.2.8l-.05.2c-.09.32-.18.64-.28,1l-.07.24c-.07.24-.15.49-.23.72l-.1.3q-.15.43-.3.85l0,.08,0,0c-.11.3-.23.59-.35.89l-.13.32-.27.62-.14.32q-.2.45-.42.9h0l0,.07-.41.81-.17.33-.3.56-.2.37-.47.82-.14.23-.4.65-.19.29-.39.6-.19.29-.56.8-.19.26-.41.56-.25.33-.47.61-.16.2-.65.79-.22.26-.47.54-.25.28-.49.54-.41.44-.51.53-.33.34-.41.4-.36.35-.5.47-.5.46-.5.45-.35.31-.49.42-.35.3-.78.64-.33.26-.49.38-.43.33-.55.41-.32.24-.81.58-.47.32-.46.31-.45.3-.49.32-.45.29-.8.49h0l-.54.32-.47.27-.49.28-.62.34-.67.36-.58.3-.58.29-.44.22-.58.29-.49.23-1.07.49-.33.15-.66.29-.49.21-.53.22-.79.32-.75.29-.55.21-.59.22-.52.18-.62.22c-6,19.64-29.14,34.28-56.78,34.28A72.34,72.34,0,0,1,99.35,273.61Z" transform="translate(-27.77 -5.51)"/><path class="cls-4" d="M381.27,306.41h0l.26,0,1.11.18.22,0,1.14.17.14,0h.06l1.19.15.15,0h.05l1.32.14H387l1.34.12h.07l1.32.09h.15l1.36.07h0l1.41,0h1.47c31.12,0,56.36-19.2,56.36-42.88,0-.32,0-.64,0-1v-.26c0-.31,0-.62,0-.92v-.19c0-.28,0-.56-.07-.83l0-.18c0-.31-.07-.62-.11-.93l0-.23c0-.3-.09-.6-.13-.9v0h0v0c-.05-.31-.11-.62-.17-.92l0-.18c-.06-.32-.13-.63-.2-.94l0-.14c-.07-.29-.14-.58-.22-.87l0-.13c-.08-.31-.17-.62-.27-.92l-.05-.18c-.1-.31-.19-.62-.29-.92h0c-.1-.3-.21-.59-.32-.89l-.08-.22c-.11-.29-.22-.57-.34-.86l-.08-.18-.32-.75-.08-.19c-.12-.27-.25-.55-.38-.81l-.13-.27-.36-.72-.05-.1h0l0-.06-.42-.78-.12-.21-.45-.79-.14-.23-.4-.66-.11-.18-.5-.77-.17-.24-.5-.73,0-.05h0l-.57-.77-.17-.22-.58-.74-.13-.16-.51-.63-.17-.2-.61-.71-.19-.21-.52-.57-.28-.3-.52-.55-.25-.26-.66-.66-.15-.15-.59-.56-.22-.21-.68-.62-.28-.24-.59-.5-.25-.21-.68-.55-.27-.22-.6-.47-.5-.38-.44-.33-.33-.25-.76-.54-.32-.22-.6-.41-.41-.27-.69-.44-.29-.18L429,231l-.34-.2-.62-.36-.36-.21-.78-.43-.39-.21-.72-.38-.2-.11.25-.58.08-.19.32-.81.07-.2q.16-.44.31-.88l0-.09q.16-.47.3-.94l0-.11c.1-.32.19-.64.27-1v0l0-.08q.12-.46.23-.92l0-.12q.11-.49.21-1v0q.1-.5.19-1v-.09q.17-1,.27-2.06v-.08h0c0-.34.06-.67.08-1v-.08c0-.35,0-.69.05-1v0h0c0-.36,0-.72,0-1.08,0-23.68-25.23-42.88-56.36-42.88h-1.63l-1.08,0h-.27l-1.27.06-.31,0-1,.07-.38,0-1.05.09-.18,0h-.08l-1.2.13-.34,0-1,.13-.27,0-1.22.18-.29,0-1,.17-.29.05-1.06.2-.19,0-1.24.26-.21,0-.91.21-.47.11-1,.25-.09,0h0l-1.14.3-.29.08-.85.24-.4.12-1,.32-.47.15-.61.2-.54.19-.7.25-.34.12-1,.38-.45.18-.61.24-.47.2-.94.4-.4.18-.59.27-.53.25-.49.23-.5.24-.9.45-.37.19-.62.33-.39.21-.65.36-.61.35-.57.33-.47.28-.46.28-.44.28-.55.35-.75.5-.36.24-.51.35-.36.25-.45.32-.7.52,0,0-.47.36-.36.28-.46.37-.27.23-.91.76-.22.19-.51.45-.22.2-.48.44-.61.58-.45.44-.26.26-.44.45-.18.19q-.76.79-1.47,1.6l-.18.21-.43.5-.52.63-.41.52-.14.17-.4.52-.19.26c-.26.35-.51.71-.76,1.07l0,.06-.37.56-.14.21-.36.57h-.52c-31.12,0-56.36,19.2-56.36,42.88,0,.32,0,.65,0,1v.36c0,.22,0,.44,0,.66l0,.34q0,.47.08.94l0,.23q0,.37.09.74l0,.33c0,.23.07.46.1.69l0,.28q.08.48.17,1l0,.16c.05.26.11.52.17.78l.07.32c.06.27.13.53.2.79l0,.12q.13.48.27,1l.06.19c.08.25.16.51.24.76l.08.25.27.77.07.18c.11.29.22.58.34.87l.11.27.29.68.11.26.37.8,0,.08h0l.06.12.38.75.13.26.35.64.14.26.47.81.15.25.37.6.19.3.38.58.16.25.55.8.16.21.44.6.22.29.49.63.12.15.62.75.25.29.42.49.29.33.45.49.29.32.59.62.29.3.48.48.25.24.59.56.42.39.46.42.37.32.46.39.35.29.6.49.52.41.43.33.41.31.47.35.4.3h0l.73.52h0l.46.32.4.27.5.33.42.27.73.46.57.35.47.28.47.27.47.27.51.29.83.45.49.26.51.26.46.23.54.27.45.22,1,.47.39.18.56.24.52.22.54.23h0l.89.36h0l.55.21.46.17.63.23.44.15.63.22c5.8,19,28.17,33.14,54.89,33.14a69.94,69.94,0,0,0,28.81-6ZM323.94,193.32l-.41.52Z" transform="translate(-27.77 -5.51)"/><path class="cls-5" d="M447.06,279.38a33.81,33.81,0,0,0,3.41-14.73c0-.32,0-.64,0-1v-.26c0-.31,0-.62,0-.92v-.19c0-.28,0-.56-.07-.83l0-.18c0-.31-.07-.62-.11-.93l0-.23c0-.3-.09-.6-.13-.9v0h0v0c-.05-.31-.11-.62-.17-.92l0-.18c-.06-.32-.13-.63-.2-.94l0-.14c-.07-.29-.14-.58-.22-.87l0-.13c-.08-.31-.17-.62-.27-.92l-.05-.18c-.1-.31-.19-.62-.29-.92h0c-.1-.3-.21-.59-.32-.89l-.08-.22c-.11-.29-.22-.57-.34-.86l-.08-.18-.32-.75-.08-.19c-.12-.27-.25-.55-.38-.81l-.13-.27-.36-.72-.05-.1h0l0-.06-.42-.78-.12-.21-.45-.79-.14-.23-.4-.66-.11-.18-.5-.77-.17-.24-.5-.73,0-.05h0l-.57-.77-.17-.22-.58-.74-.13-.16-.51-.63-.17-.2-.61-.71-.19-.21-.52-.57-.28-.3-.52-.55-.25-.26-.66-.66-.15-.15-.59-.56-.22-.21-.68-.62-.28-.24-.59-.5-.25-.21-.68-.55-.27-.22-.6-.47-.5-.38-.44-.33-.33-.25-.76-.54-.32-.22-.6-.41-.41-.27-.69-.44-.29-.18L429,231l-.34-.2-.62-.36-.36-.21-.78-.43-.39-.21-.72-.38-.2-.11.25-.58.08-.19.32-.81.07-.2q.16-.44.31-.88l0-.09q.16-.47.3-.94l0-.11c.1-.32.19-.64.27-1v0l0-.08q.12-.46.23-.92l0-.12q.11-.49.21-1v0q.1-.5.19-1v-.09q.17-1,.27-2.06v-.08h0c0-.34.06-.67.08-1v-.08c0-.35,0-.69.05-1v0h0c0-.36,0-.72,0-1.08,0-23.68-25.23-42.88-56.36-42.88h-1.63l-1.08,0h-.27l-1.27.06-.31,0-1,.07-.38,0-1.05.09-.18,0h-.08l-1.2.13-.34,0-1,.13-.27,0-1.22.18-.29,0-1,.17-.29.05-1.06.2-.19,0-1.24.26-.21,0-.91.21-.47.11-1,.25-.09,0h0l-1.14.3-.29.08-.85.24-.4.12-1,.32-.47.15-.61.2-.54.19-.7.25-.34.12-1,.38-.45.18-.61.24-.47.2-.94.4-.4.18-.59.27-.53.25-.49.23-.5.24-.9.45-.37.19-.62.33-.39.21-.65.36-.61.35-.57.33-.47.28-.46.28-.44.28-.55.35-.75.5-.36.24-.51.35-.36.25-.45.32-.7.52,0,0-.47.36-.36.28-.46.37-.27.23-.91.76-.22.19-.51.45-.22.2-.48.44-.61.58-.45.44-.26.26-.44.45-.18.19q-.76.79-1.47,1.6l-.18.21-.43.5-.52.63-.41.52-.14.17-.4.52-.19.26c-.26.35-.51.71-.76,1.07l0,.06-.37.56-.14.21-.36.57h-.52a68.71,68.71,0,0,0-32.8,8A33.8,33.8,0,0,0,284.39,220c0,.32,0,.65,0,1v.36c0,.22,0,.44,0,.66l0,.34c0,.31,0,.62.08.94l0,.23c0,.25.06.5.09.74l0,.33c0,.23.07.46.1.69l0,.28c.05.32.11.64.17,1l0,.16q.08.39.17.78l.07.31q.1.4.2.79l0,.12c.09.32.18.64.28,1l.06.19q.12.38.24.76l.08.25c.09.26.18.51.27.77l.07.18c.11.29.22.58.34.87l.11.27.29.68.11.26.37.8,0,.08h0l.06.12.38.75.13.26.35.64.14.26.47.81.15.25.37.6.19.3.38.58.16.25.55.8.16.21.44.6.22.29.49.63.12.15.62.75.25.29.42.49.29.33.45.49.29.32.59.62.3.3.48.48.25.24.59.56.42.39.46.42.36.32.46.39.35.29.6.49.52.41.43.33.41.31.47.35.4.3h0l.73.52h0l.46.31.4.27.5.33.42.27.73.46.57.35.47.28.47.27.47.27.51.29.83.45.49.26.51.26.46.23.54.27.45.22,1,.47.39.18.56.24.52.22.55.23h0l.89.36h0l.55.21.46.17.63.23.44.15.63.22c5.8,19,28.17,33.14,54.89,33.14a69.93,69.93,0,0,0,28.81-6h0l.26,0,1.11.18.22,0,1.14.17.14,0h.06l1.19.15.15,0h.05L407,287h.08l1.34.12h.07l1.32.09H410l1.36.07h0l1.41,0h1.47a68.71,68.71,0,0,0,32.8-8ZM323.94,193.32l-.41.52Z" transform="translate(-27.77 -5.51)"/><path class="cls-4" d="M87.11,138.57a74.36,74.36,0,0,1,21.76-3.2h1.74l1.12,0h.19l1.37.07h.21l1.15.08.32,0,1.07.09.31,0,1.23.13.41,0,.94.12.41.05,1.2.17h.08l.18,0,1.06.18.37.07.94.17.36.07,1.18.24.39.09.85.19.42.1,1.12.28.07,0h.05l1.16.31.35.1.89.26.32.1,1.12.35.45.15.69.23.5.17.74.26.43.15,1,.37.47.19.68.27.43.18.87.37.55.24.62.28.53.25.52.25.49.24.95.47.44.23.53.28.53.29.55.3.76.43.48.28.57.35.35.21.58.36h0l.77.5.52.34.36.24.58.4.18.13,1.22.89.14.1.54.42.3.23.51.41.25.2.92.77.32.27.48.43.23.2.51.46.64.6,0,0,.43.42.28.27.48.49.1.1q.84.88,1.64,1.79l.06.07q.77.89,1.49,1.81l.13.17.44.58.1.14q.67.91,1.29,1.85l.13.2.38.59h.55c32.19,0,58.29,19.86,58.29,44.35q0,.51,0,1v.33q0,.37,0,.74l0,.28c0,.34-.05.68-.08,1v.1c0,.31-.07.62-.11.93l0,.25c0,.27-.08.53-.12.8l0,.25c-.05.32-.11.64-.18,1l-.06.28c-.05.25-.1.5-.16.74l-.07.28c-.06.27-.13.54-.2.8l-.05.2c-.09.32-.18.64-.28,1l-.07.24c-.07.24-.15.49-.23.72l-.1.3q-.15.43-.3.85l0,.08,0,0c-.11.3-.23.59-.35.89l-.13.32-.27.62-.14.32q-.2.45-.42.9h0l0,.07-.41.81-.17.33-.3.56-.2.37-.47.82-.14.23-.4.65-.19.29-.39.6-.19.29-.56.8-.19.26-.41.56-.25.33-.47.61-.16.2-.65.79-.22.26-.47.54-.25.28-.49.54-.41.44-.51.53-.33.34-.41.4-.36.35-.5.47-.5.46-.5.45-.35.31-.49.42-.35.3-.78.64-.33.26-.49.38-.43.33-.55.41-.32.24-.81.58-.47.32-.46.31-.45.3-.49.32-.45.29-.8.49h0l-.54.32-.47.27-.49.28-.62.34-.67.36-.58.3-.58.29-.44.22-.58.29-.49.23-1.07.49-.33.15-.66.29-.49.21-.53.22-.79.32-.75.29-.55.21-.59.22-.52.18-.62.22a39.29,39.29,0,0,1-7.55,13.69,74.38,74.38,0,0,1-21.76,3.2,72.33,72.33,0,0,1-29.8-6.23h0l-.18,0-1.3.22h-.1l-1.22.18-.14,0h-.06l-1.23.15-.15,0h-.06L121,257h-.1l-1.36.12h-.09l-1.43.1h0l-1.46.07h0l-1.45,0h-1.53c-32.19,0-58.29-19.86-58.29-44.35,0-.33,0-.66,0-1v-.26c0-.33,0-.66.05-1v-.12q0-.49.08-1v-.11c0-.34.07-.67.12-1l0-.2q.07-.48.14-1v0h0v0q.08-.47.17-.93l0-.23c.07-.33.14-.66.21-1l0-.07c.08-.33.16-.66.25-1l0-.08c.09-.32.18-.65.28-1l.06-.2c.09-.3.19-.61.29-.91v0h0v0q.16-.47.33-.93l.07-.19c.12-.31.23-.62.36-.92l.06-.14.34-.79.1-.22.4-.87.09-.19.4-.81,0-.09h0l0-.07.43-.79.13-.24.49-.85.06-.1.48-.79.11-.18.53-.81.16-.23.53-.76,0-.05h0l.61-.83.14-.18.63-.81.08-.1.57-.7.16-.2.63-.73.2-.23.58-.64.1-.11h0l.06-.07.63-.66.22-.23.73-.72.08-.08.7-.66.18-.17.78-.7.15-.13.73-.62.2-.17.73-.59.26-.21.81-.63.16-.12.71-.53.28-.2.8-.57.29-.2.76-.52.1-.07,0,0,.87-.56.33-.21.85-.52.3-.18.74-.43.24-.14.93-.51.29-.16.88-.47.1-.05h0l-.26-.62-.07-.16q-.18-.45-.35-.9l-.05-.14q-.17-.45-.33-.91l-.05-.16q-.16-.47-.3-.94l0-.09q-.15-.5-.29-1l0-.06c-.09-.35-.18-.7-.26-1v0c-.08-.35-.16-.7-.23-1.05V169q-.1-.51-.19-1v0c-.06-.36-.11-.73-.16-1.09h0v0c0-.36-.09-.72-.12-1.08h0v0c0-.37-.07-.73-.09-1.1v0c0-.36,0-.73-.05-1.09v0h0q0-.56,0-1.12A36.87,36.87,0,0,1,87.11,138.57Z" transform="translate(-27.77 -5.51)"/></svg>