<svg id="Слой_1" data-name="Слой 1" xmlns="http://www.w3.org/2000/svg" viewBox="0 0 466.98 390.04"><defs><style>.cls-1{fill:none;stroke:#634e3e;stroke-linecap:round;stroke-linejoin:round;stroke-width:9.6px;}.cls-1,.cls-2,.cls-3,.cls-4,.cls-5{fill-rule:evenodd;}.cls-2{fill:#455e2a;}.cls-3{fill:#557235;}.cls-4{fill:#62823e;}.cls-5{fill:#799a56;}</style></defs><title>tree-left</title><path class="cls-1" d="M225.64,252.94c30.46-35.41,46.07-84.79,52.16-152.4" transform="translate(-21.02 -25.06)"/><path class="cls-1" d="M334.67,271.57c-14.37-11.62-21.09-55.4-18.55-84.88" transform="translate(-21.02 -25.06)"/><path class="cls-1" d="M250.57,319.54c38.38-6.76,123.23-41.62,132.82-112.6" transform="translate(-21.02 -25.06)"/><path class="cls-1" d="M142.76,246.45c3.15-10.66,27.1-45.3,21.43-71.27" transform="translate(-21.02 -25.06)"/><path class="cls-1" d="M236.36,285c-31.07,7.73-103.15-21.89-137.88-93.36" transform="translate(-21.02 -25.06)"/><path class="cls-1" d="M252.33,410.3C252.33,230,212.73,288,191.41,127" transform="translate(-21.02 -25.06)"/><path class="cls-2" d="M248.91,170.45c75.77,0,137.57-32.66,137.57-72.7s-61.8-72.69-137.57-72.69S111.34,57.71,111.34,97.75,173.14,170.45,248.91,170.45Z" transform="translate(-21.02 -25.06)"/><path class="cls-3" d="M248.91,25.06c76,0,137.57,32.54,137.57,72.69a43,43,0,0,1-7.27,23.38c-19.77,9.13-45.63,14.66-73.93,14.66-62.09,0-112.42-26.6-112.42-59.4,0-21.9,22.42-41,55.8-51.33Z" transform="translate(-21.02 -25.06)"/><path class="cls-4" d="M115.63,205.91c52.11,0,94.61-22.46,94.61-50s-42.5-50-94.61-50S21,128.39,21,155.92,63.52,205.91,115.63,205.91Z" transform="translate(-21.02 -25.06)"/><path class="cls-5" d="M115.63,105.93c52.25,0,94.61,22.38,94.61,50a29.51,29.51,0,0,1-5,16.08c-13.59,6.28-31.38,10.08-50.84,10.08-42.7,0-77.31-18.29-77.31-40.85,0-15.06,15.42-28.21,38.37-35.3Z" transform="translate(-21.02 -25.06)"/><path class="cls-4" d="M375.57,240.51c61.92,0,112.43-26.69,112.43-59.41s-50.51-59.41-112.43-59.41S263.14,148.38,263.14,181.1,313.65,240.51,375.57,240.51Z" transform="translate(-21.02 -25.06)"/><path class="cls-5" d="M375.57,121.69c62.09,0,112.43,26.6,112.43,59.41a35.09,35.09,0,0,1-5.94,19.1c-16.15,7.46-37.29,12-60.42,12-50.74,0-91.87-21.73-91.87-48.55,0-17.89,18.33-33.53,45.6-41.95Z" transform="translate(-21.02 -25.06)"/></svg>